<svg width="865" height="341" viewBox="0 0 865 341" fill="none" xmlns="http://www.w3.org/2000/svg">
<path opacity="0.1" d="M0.714667 280.864V211.83L132.391 4.72726H195.033V96.7727H159.237L88.2857 209.273V211.83H282.604V280.864H0.714667ZM159.877 332V259.77L161.794 229.727V4.72726H244.891V332H159.877ZM430.92 340.949C401.197 340.842 375.522 333.971 353.896 320.335C332.27 306.698 315.597 287.043 303.878 261.368C292.159 235.693 286.353 204.905 286.46 169.003C286.566 132.994 292.426 102.419 304.038 77.277C315.757 52.1349 332.376 33.0121 353.896 19.9084C375.522 6.80468 401.197 0.252829 430.92 0.252829C460.643 0.252829 486.318 6.85795 507.944 20.0682C529.571 33.1719 546.243 52.2947 557.962 77.4368C569.681 102.579 575.487 133.101 575.38 169.003C575.38 205.118 569.521 236.013 557.802 261.688C546.083 287.362 529.411 307.018 507.784 320.654C486.265 334.184 460.643 340.949 430.92 340.949ZM430.92 268.719C446.261 268.719 458.832 260.729 468.633 244.749C478.541 228.662 483.441 203.413 483.335 169.003C483.335 146.524 481.098 128.147 476.623 113.871C472.149 99.5959 465.97 89.049 458.086 82.2308C450.203 75.3061 441.147 71.8438 430.92 71.8438C415.579 71.8438 403.061 79.6207 393.367 95.1747C383.672 110.729 378.718 135.338 378.505 169.003C378.399 191.908 380.583 210.764 385.057 225.572C389.532 240.274 395.711 251.141 403.594 258.172C411.584 265.203 420.693 268.719 430.92 268.719ZM582.392 280.864V211.83L714.069 4.72726H776.711V96.7727H740.915L669.963 209.273V211.83H864.282V280.864H582.392ZM741.554 332V259.77L743.472 229.727V4.72726H826.569V332H741.554Z" fill="url(#paint0_linear_1_308)"/>
<defs>
<linearGradient id="paint0_linear_1_308" x1="194.717" y1="-78.9995" x2="944.549" y2="-46.3454" gradientUnits="userSpaceOnUse">
<stop stop-color="#487BFF"/>
<stop offset="1" stop-color="#4627FF"/>
</linearGradient>
</defs>
</svg>
