<svg width="32" height="33" viewBox="0 0 32 33" fill="none" xmlns="http://www.w3.org/2000/svg">
<g clip-path="url(#clip0_322_76663)">
<path fill-rule="evenodd" clip-rule="evenodd" d="M16.0132 3.18134C17.0503 3.1814 18.0518 3.55916 18.8306 4.244L19.0359 4.43734L19.9666 5.368C20.222 5.62175 20.5555 5.78194 20.9132 5.82267L21.0932 5.83334H22.4266C23.5162 5.83327 24.5645 6.2501 25.3567 6.99832C26.1488 7.74655 26.6246 8.76948 26.6866 9.85734L26.6932 10.1V11.4333C26.6932 11.7933 26.8159 12.144 27.0372 12.424L27.1572 12.5573L28.0866 13.488C28.8569 14.2539 29.306 15.2848 29.3424 16.3705C29.3788 17.4562 28.9998 18.5148 28.2826 19.3307L28.0892 19.536L27.1586 20.4667C26.9048 20.7221 26.7446 21.0556 26.7039 21.4133L26.6932 21.5933V22.9267C26.6933 24.0163 26.2765 25.0647 25.5282 25.8568C24.78 26.6489 23.7571 27.1247 22.6692 27.1867L22.4266 27.1933H21.0932C20.7337 27.1935 20.3848 27.3146 20.1026 27.5373L19.9692 27.6573L19.0386 28.5867C18.2726 29.357 17.2417 29.8061 16.1561 29.8425C15.0704 29.8789 14.0117 29.4999 13.1959 28.7827L12.9906 28.5893L12.0599 27.6587C11.8045 27.4049 11.471 27.2447 11.1132 27.204L10.9332 27.1933H9.5999C8.51027 27.1934 7.46192 26.7766 6.66981 26.0284C5.8777 25.2801 5.40187 24.2572 5.3399 23.1693L5.33323 22.9267V21.5933C5.33311 21.2338 5.21193 20.8849 4.98923 20.6027L4.86923 20.4693L3.9399 19.5387C3.16961 18.7727 2.72046 17.7418 2.68404 16.6562C2.64762 15.5705 3.02667 14.5118 3.7439 13.696L3.93723 13.4907L4.8679 12.56C5.12165 12.3046 5.28184 11.9711 5.32256 11.6133L5.33323 11.4333V10.1L5.3399 9.85734C5.39943 8.81126 5.8418 7.82367 6.58268 7.08279C7.32356 6.3419 8.31116 5.89954 9.35723 5.84L9.5999 5.83334H10.9332C11.2927 5.83322 11.6417 5.71204 11.9239 5.48934L12.0572 5.36934L12.9879 4.44C13.3843 4.04119 13.8557 3.72468 14.3749 3.50867C14.8941 3.29266 15.4509 3.18142 16.0132 3.18134ZM16.0004 10.52C16.8288 10.52 17.5004 11.1916 17.5004 12.02V17.0054C17.5004 17.8339 16.8288 18.5054 16.0004 18.5054C15.172 18.5054 14.5004 17.8339 14.5004 17.0054V12.02C14.5004 11.1916 15.172 10.52 16.0004 10.52ZM17.5004 20.8454C17.5004 20.017 16.8288 19.3454 16.0004 19.3454C15.172 19.3454 14.5004 20.017 14.5004 20.8454V20.8579C14.5004 21.6863 15.172 22.3579 16.0004 22.3579C16.8288 22.3579 17.5004 21.6863 17.5004 20.8579V20.8454Z" fill="white"/>
</g>
<defs>
<clipPath id="clip0_322_76663">
<rect width="32" height="32" fill="white" transform="translate(0 0.5)"/>
</clipPath>
</defs>
</svg>
