<svg width="171" height="69" fill="none" xmlns="http://www.w3.org/2000/svg"><path d="M1.102 67.098c27.317-8.504 56.593-21.491 71.063-47.879 2.257-4.115 6.162-14.757-.411-17.286-5.769-2.218-16.302 1.56-19.412 6.586-8.097 13.079-14.296 32.272 5.487 38.207 21.537 6.46 50.307 1.241 71.681-4.322 10.368-2.698 22.636-6.766 31.828-12.347 6.102-3.705.146-2.47-4.39-2.47h-7.065c5.803 0 12.147-.912 17.354-2.4 5.567-1.59-2.869 4.959-3.704 6.173-2.632 3.83-5.625 10.02-5.625 14.748" stroke="url(#paint0_linear_385_43646)" stroke-width="2" stroke-linecap="round"/><defs><linearGradient id="paint0_linear_385_43646" x1="40.903" y1="1.284" x2="180.943" y2="9.866" gradientUnits="userSpaceOnUse"><stop stop-color="#487BFF" stop-opacity="0"/><stop offset=".406" stop-color="#487BFF"/><stop offset=".5" stop-color="#487BFF"/><stop offset=".675" stop-color="#487BFF"/><stop offset="1" stop-color="#4627FF"/></linearGradient></defs></svg>