<svg width="87" height="36" fill="none" xmlns="http://www.w3.org/2000/svg"><path d="M1.031 34.623c13.657-4.264 28.293-10.776 35.527-24.007 1.128-2.063 3.08-7.4-.206-8.668-2.883-1.112-8.15.783-9.704 3.302C22.6 11.808 19.5 21.432 29.39 24.408c10.767 3.24 25.15.622 35.836-2.167 5.183-1.353 11.316-3.393 15.911-6.191 3.05-1.858.073-1.238-2.194-1.238h-3.532c2.9 0 6.072-.458 8.675-1.204 2.784-.797-1.434 2.486-1.851 3.095-1.316 1.92-2.812 5.025-2.812 7.395" stroke="url(#paint0_linear_532_63665)" stroke-width="2" stroke-linecap="round"/><defs><linearGradient id="paint0_linear_532_63665" x1="20.929" y1="1.623" x2="90.941" y2="5.901" gradientUnits="userSpaceOnUse"><stop stop-color="#487BFF" stop-opacity="0"/><stop offset=".419" stop-color="#4763FF" stop-opacity=".76"/><stop offset="1" stop-color="#4627FF"/></linearGradient></defs></svg>