<svg width="98" height="40" fill="none" xmlns="http://www.w3.org/2000/svg"><path d="M1.703 38.745c15.48-4.819 32.07-12.178 40.27-27.131 1.278-2.332 3.491-8.363-.233-9.796-3.27-1.257-9.238.884-11 3.732-4.589 7.411-8.102 18.288 3.109 21.65 12.204 3.662 28.507.704 40.62-2.448 5.874-1.53 12.826-3.834 18.035-6.997 3.458-2.1.083-1.4-2.488-1.4h-4.003c3.288 0 6.883-.517 9.834-1.36 3.154-.9-1.626 2.81-2.1 3.499-1.49 2.17-3.186 5.678-3.186 8.357" stroke="url(#paint0_linear_534_42330)" stroke-width="2" stroke-linecap="round"/><defs><linearGradient id="paint0_linear_534_42330" x1="24.257" y1="1.45" x2="103.613" y2="6.314" gradientUnits="userSpaceOnUse"><stop stop-color="#487BFF" stop-opacity="0"/><stop offset=".419" stop-color="#4763FF" stop-opacity=".76"/><stop offset="1" stop-color="#4627FF"/></linearGradient></defs></svg>