<svg width="188" height="68" fill="none" xmlns="http://www.w3.org/2000/svg"><path d="M1.031 38.707c6.227-19.811 9.777-30.183 30.4-25.6 10.332 2.296 14.4 7.202 14.4 16.8 0 6.38-9.6 4.947-9.6-1.6 0-8.544 3.41-16.874 10.4-22.311 16.325-12.698 43.417 1.728 55.2 13.51 4.682 4.682 5.958 17.832-3.2 12.445-6.468-3.804-2.548-14.926 1.6-18.844 18.793-17.75 41.438 1.437 55.022 15.022 4.565 4.565 13.569 15.045 15.289 21.067 1.395 4.88 11.952-11.227 5.778-3.29-3.572 4.594-10.743 11.278-16.889 12-2.964.35 13.511 4.05 16 5.157 4.177 1.856 13.826 6.875 10.845 1.244-2.469-4.662-6.045-12.583-6.045-17.6" stroke="url(#paint0_linear_602_138035)" stroke-width="2" stroke-linecap="round"/><defs><linearGradient id="paint0_linear_602_138035" x1=".959" y1="40.538" x2="168.734" y2="67.292" gradientUnits="userSpaceOnUse"><stop stop-color="#487BFF" stop-opacity="0"/><stop offset="1" stop-color="#4627FF"/></linearGradient></defs></svg>