<svg width="88" height="36" fill="none" xmlns="http://www.w3.org/2000/svg"><path d="M1.219 34.722c13.86-4.315 28.716-10.905 36.059-24.295 1.145-2.088 3.126-7.488-.21-8.77-2.926-1.126-8.27.79-9.85 3.34-4.108 6.637-7.253 16.376 2.785 19.387 10.928 3.279 25.526.63 36.372-2.192 5.26-1.37 11.486-3.433 16.15-6.265 3.096-1.88.074-1.253-2.228-1.253h-3.585c2.945 0 6.164-.464 8.806-1.218 2.825-.807-1.456 2.516-1.88 3.132-1.335 1.943-2.853 5.084-2.853 7.483" stroke="url(#paint0_linear_534_42326)" stroke-width="2" stroke-linecap="round"/><defs><linearGradient id="paint0_linear_534_42326" x1="21.414" y1="1.327" x2="92.473" y2="5.682" gradientUnits="userSpaceOnUse"><stop stop-color="#487BFF" stop-opacity="0"/><stop offset=".406" stop-color="#487BFF"/><stop offset=".5" stop-color="#487BFF"/><stop offset=".675" stop-color="#487BFF"/><stop offset="1" stop-color="#4627FF"/></linearGradient></defs></svg>