<svg width="262" height="104" fill="none" xmlns="http://www.w3.org/2000/svg"><path d="M1 102.802c42.254-13.155 87.538-33.243 109.922-74.06 3.49-6.364 9.531-22.827-.637-26.737-8.922-3.432-25.215 2.412-30.027 10.186-12.524 20.23-22.112 49.918 8.489 59.098 33.312 9.994 77.814 1.921 110.876-6.684 16.037-4.174 35.014-10.466 49.232-19.099 9.438-5.73.225-3.82-6.791-3.82h-10.928c8.976 0 18.79-1.412 26.843-3.713 8.611-2.46-4.438 7.67-5.729 9.55-4.072 5.922-8.7 15.499-8.7 22.811" stroke="url(#paint0_linear_385_43645)" stroke-width="2" stroke-linecap="round"/><defs><linearGradient id="paint0_linear_385_43645" x1="62.565" y1="1" x2="279.179" y2="14.275" gradientUnits="userSpaceOnUse"><stop stop-color="#487BFF" stop-opacity="0"/><stop offset=".419" stop-color="#4763FF" stop-opacity=".76"/><stop offset="1" stop-color="#4627FF"/></linearGradient></defs></svg>