<svg width="27" height="26" fill="none" xmlns="http://www.w3.org/2000/svg"><path d="M24.989 1l-9.962 7.5 1.853-4.42L24.989 1z" fill="#E17726" stroke="#E17726" stroke-width=".494" stroke-linecap="round" stroke-linejoin="round"/><path d="M2.008 1l9.873 7.57-1.764-4.49L2.007 1zM21.4 18.39l-2.65 4.12 5.675 1.59 1.626-5.62-4.65-.09zm-20.447.09L2.57 24.1l5.666-1.59-2.641-4.12-4.64.09z" fill="#E27625" stroke="#E27625" stroke-width=".494" stroke-linecap="round" stroke-linejoin="round"/><path d="M7.928 11.43l-1.576 2.42 5.616.26-.187-6.15-3.853 3.47zm11.135 0l-3.911-3.54-.129 6.22 5.617-.26-1.577-2.42zM8.234 22.51l3.4-1.67-2.927-2.32-.473 3.99zm7.126-1.67l3.389 1.67-.463-3.99-2.927 2.32z" fill="#E27625" stroke="#E27625" stroke-width=".494" stroke-linecap="round" stroke-linejoin="round"/><path d="M18.753 22.51l-3.39-1.67.276 2.24-.03.95 3.144-1.52zm-10.515 0l3.153 1.52-.02-.95.267-2.24-3.4 1.67z" fill="#D5BFB2" stroke="#D5BFB2" stroke-width=".494" stroke-linecap="round" stroke-linejoin="round"/><path d="M11.45 17.04l-2.817-.84 1.99-.93.828 1.77zm4.1 0l.828-1.77 2 .93-2.827.84z" fill="#233447" stroke="#233447" stroke-width=".494" stroke-linecap="round" stroke-linejoin="round"/><path d="M8.242 22.51l.493-4.12-3.133.09 2.64 4.03zm10.035-4.12l.483 4.12 2.65-4.03-3.133-.09zm2.371-4.54l-5.617.26.522 2.93.828-1.77 2 .93 2.267-2.35zM8.635 16.2l1.99-.93.829 1.77.522-2.93-5.617-.26 2.276 2.35z" fill="#CC6228" stroke="#CC6228" stroke-width=".494" stroke-linecap="round" stroke-linejoin="round"/><path d="M6.355 13.85l2.355 4.67-.078-2.32-2.277-2.35zm12.023 2.35l-.089 2.32 2.355-4.67-2.266 2.35zm-6.407-2.09l-.522 2.93.66 3.46.148-4.56-.286-1.83zm3.055 0l-.276 1.82.138 4.57.66-3.46-.522-2.93z" fill="#E27525" stroke="#E27525" stroke-width=".494" stroke-linecap="round" stroke-linejoin="round"/><path d="M15.55 17.04l-.66 3.46.474.34 2.926-2.32.089-2.32-2.828.84zm-6.917-.84l.079 2.32 2.926 2.32.473-.34-.66-3.46-2.818-.84z" fill="#F5841F" stroke="#F5841F" stroke-width=".494" stroke-linecap="round" stroke-linejoin="round"/><path d="M15.608 24.03l.03-.95-.256-.22h-3.764l-.246.22.02.95-3.154-1.52 1.104.92L11.578 25h3.833l2.247-1.57 1.094-.92-3.143 1.52z" fill="#C0AC9D" stroke="#C0AC9D" stroke-width=".494" stroke-linecap="round" stroke-linejoin="round"/><path d="M15.366 20.84l-.473-.34h-2.779l-.473.34-.266 2.24.246-.22h3.764l.256.22-.275-2.24z" fill="#161616" stroke="#161616" stroke-width=".494" stroke-linecap="round" stroke-linejoin="round"/><path d="M25.413 8.99l.838-4.14L24.99 1l-9.627 7.25 3.705 3.18 5.232 1.55 1.153-1.37-.503-.37.799-.74-.611-.48.798-.62-.523-.41zM.75 4.85l.847 4.14-.542.41.808.62-.61.48.798.74-.503.37 1.153 1.37 5.232-1.55 3.705-3.18L2.01 1 .75 4.85z" fill="#763E1A" stroke="#763E1A" stroke-width=".494" stroke-linecap="round" stroke-linejoin="round"/><path d="M24.3 12.98l-5.233-1.55 1.577 2.42-2.355 4.67 3.114-.04h4.65l-1.754-5.5zM7.933 11.43l-5.232 1.55-1.744 5.5h4.64l3.114.04-2.354-4.67 1.576-2.42zm7.095 2.68l.335-5.86 1.517-4.17h-6.759l1.518 4.17.335 5.86.128 1.84.01 4.55h2.778l.01-4.55.128-1.84z" fill="#F5841F" stroke="#F5841F" stroke-width=".494" stroke-linecap="round" stroke-linejoin="round"/></svg>