<svg width="32" height="32" fill="none" xmlns="http://www.w3.org/2000/svg"><path d="M16 32c8.837 0 16-7.163 16-16S24.837 0 16 0 0 7.163 0 16s7.163 16 16 16z" fill="#F0B90B"/><path d="M18.494 8.487l-2.491-2.544-6.275 6.316 2.492 2.484 6.274-6.256zm3.783 3.771l-2.492-2.544L9.728 19.801l2.492 2.485 10.057-10.028zm-13.84 1.228l2.492 2.544-2.492 2.484-2.492-2.484 2.492-2.544zM26.06 16.03l-2.492-2.544L13.51 23.573l2.492 2.484L26.06 16.03z" fill="#fff"/><path d="M18.494 8.487l-2.491-2.544-6.275 6.316 2.492 2.484 6.274-6.256zm3.783 3.771l-2.492-2.544L9.728 19.801l2.492 2.485 10.057-10.028zm-13.84 1.228l2.492 2.544-2.492 2.484-2.492-2.484 2.492-2.544zM26.06 16.03l-2.492-2.544L13.51 23.573l2.492 2.484L26.06 16.03z" stroke="#F0B90B"/></svg>