<svg width="32" height="24" fill="none" xmlns="http://www.w3.org/2000/svg"><path d="M15.984 9c4.419 0 8-1.343 8-3s-3.581-3-8-3c-4.418 0-8 1.343-8 3s3.582 3 8 3z" stroke="#fff" stroke-width="1.5" stroke-linecap="round" stroke-linejoin="round"/><path d="M7.984 6v6c0 .796.843 1.559 2.344 2.121 1.5.563 3.535.879 5.656.879 2.122 0 4.157-.316 5.657-.879 1.5-.562 2.343-1.325 2.343-2.121V6" stroke="#fff" stroke-width="1.5" stroke-linecap="round" stroke-linejoin="round"/><path d="M7.984 12v6c0 .796.843 1.559 2.344 2.121 1.5.563 3.535.879 5.656.879 2.122 0 4.157-.316 5.657-.879 1.5-.562 2.343-1.325 2.343-2.121v-6" stroke="#fff" stroke-width="1.5" stroke-linecap="round" stroke-linejoin="round"/></svg>