<svg width="32" height="32" fill="none" xmlns="http://www.w3.org/2000/svg"><g clip-path="url(#clip0_10_5917)" stroke="#fff" stroke-width="1.33" stroke-linecap="round" stroke-linejoin="round"><path d="M24 10.666a4 4 0 110 8m-10.664-8v14.667a1.333 1.333 0 01-1.333 1.334h-1.334a1.333 1.333 0 01-1.333-1.334v-6.666"/><path d="M16 10.666l6.032-5.026A1.2 1.2 0 0124 6.562V22.77a1.2 1.2 0 01-1.968.923L16 18.666H5.333A1.333 1.333 0 014 17.333V12a1.333 1.333 0 011.333-1.334H16z"/></g><defs><clipPath id="clip0_10_5917"><path fill="#fff" d="M0 0h32v32H0z"/></clipPath></defs></svg>