<svg width="32" height="32" fill="none" xmlns="http://www.w3.org/2000/svg"><g clip-path="url(#clip0_10_23845)" stroke="#fff" stroke-width="1.33" stroke-linecap="round" stroke-linejoin="round"><path d="M20 10.667h.013M4 8a4 4 0 014-4h16a4 4 0 014 4v16a4 4 0 01-4 4H8a4 4 0 01-4-4V8z"/><path d="M4 21.333l6.667-6.666c1.237-1.191 2.762-1.191 4 0l6.666 6.666"/><path d="M18.664 18.667l1.333-1.334c1.238-1.19 2.763-1.19 4 0l4 4"/></g><defs><clipPath id="clip0_10_23845"><path fill="#fff" d="M0 0h32v32H0z"/></clipPath></defs></svg>