<svg width="32" height="33" fill="none" xmlns="http://www.w3.org/2000/svg"><g clip-path="url(#clip0_384_38366)" stroke-width="1.33" stroke-linecap="round" stroke-linejoin="round"><path d="M10.664 13.833a2.666 2.666 0 012.667-2.667h10.666a2.667 2.667 0 012.667 2.667V24.5a2.667 2.667 0 01-2.667 2.666H13.331a2.667 2.667 0 01-2.667-2.666V13.833z" stroke="url(#paint0_linear_384_38366)"/><path d="M21.336 11.167V8.5a2.667 2.667 0 00-2.667-2.667H8.003A2.667 2.667 0 005.336 8.5v10.667a2.666 2.666 0 002.667 2.666h2.666" stroke="url(#paint1_linear_384_38366)"/></g><defs><linearGradient id="paint0_linear_384_38366" x1="14.454" y1="11.166" x2="27.832" y2="11.488" gradientUnits="userSpaceOnUse"><stop stop-color="#487BFF"/><stop offset="1" stop-color="#4627FF"/></linearGradient><linearGradient id="paint1_linear_384_38366" x1="9.126" y1="5.834" x2="22.504" y2="6.155" gradientUnits="userSpaceOnUse"><stop stop-color="#487BFF"/><stop offset="1" stop-color="#4627FF"/></linearGradient><clipPath id="clip0_384_38366"><path fill="#fff" transform="translate(0 .5)" d="M0 0h32v32H0z"/></clipPath></defs></svg>