<svg width="28" height="24" fill="none" xmlns="http://www.w3.org/2000/svg"><path d="M17.315 0l.164.008c2.685.285 4.702.896 6.621 2.23.229.16.402.388.495.651 2.501 7.087 3.164 13.316 1.934 16.374C25.192 21.936 23.055 24 20.671 24c-1.254 0-3.01-2.128-3.703-3.959l-.027.007a28.736 28.736 0 003.43-.765 1.334 1.334 0 00-.734-2.566c-4.426 1.267-8.173 1.267-12.6 0a1.335 1.335 0 00-.733 2.566 29.45 29.45 0 002.835.665l.592.099C9.095 21.873 7.47 24 6.228 24c-2.324 0-4.368-2.073-5.69-4.859C-.581 16.2.048 9.984 2.425 2.91c.088-.262.254-.49.477-.653C4.757.901 6.644.289 9.191.009a1.333 1.333 0 011.25.58l.084.143.87 1.717.213-.025c1.17-.12 2.29-.12 3.46 0l.21.025.867-1.716a1.334 1.334 0 011.006-.72L17.315 0zM9.337 8a2.667 2.667 0 00-2.636 2.263l-.024.205-.006.199.006.2A2.666 2.666 0 109.337 8zm8 0a2.667 2.667 0 00-2.636 2.263l-.024.205-.006.199.006.2A2.666 2.666 0 1017.337 8z" fill="#fff"/></svg>