<svg width="303" height="303" viewBox="0 0 303 303" fill="none" xmlns="http://www.w3.org/2000/svg">
<path d="M156.064 22.8502C156.353 14.6985 149.965 7.77648 141.826 8.3263C117.678 9.95781 94.247 17.6795 73.7675 30.877C49.1349 46.7509 29.9527 69.7856 18.7996 96.8844C7.64653 123.983 5.05724 153.847 11.3799 182.461C17.7025 211.075 32.6339 237.068 54.1668 256.944C75.6997 276.821 102.802 289.628 131.829 293.645C160.857 297.662 190.419 292.696 216.54 279.414C242.662 266.132 264.091 245.172 277.946 219.35C289.466 197.882 295.291 173.909 294.989 149.707C294.887 141.551 287.477 135.736 279.374 136.675V136.675C271.272 137.614 265.566 144.96 265.45 153.116C265.192 171.299 260.584 189.234 251.918 205.383C240.915 225.89 223.897 242.536 203.152 253.084C182.408 263.632 158.931 267.576 135.878 264.386C112.826 261.196 91.3026 251.024 74.2021 235.239C57.1017 219.454 45.2438 198.812 40.2226 176.088C35.2014 153.364 37.2577 129.647 46.1151 108.127C54.9724 86.6059 70.2061 68.3127 89.7682 55.7064C105.174 45.7784 122.683 39.7524 140.788 38.043C148.908 37.2762 155.775 31.0019 156.064 22.8502V22.8502Z" fill="#737B96" fill-opacity="0.2"/>
<path d="M290.931 155.879C297.555 156.087 303.144 150.879 302.827 144.259C301.977 126.498 298.005 108.992 291.062 92.554C282.56 72.4241 269.804 54.3717 253.669 39.6353C237.534 24.8988 218.402 13.8272 197.586 7.17988C180.588 1.7517 162.795 -0.621243 145.029 0.138226C138.408 0.421288 133.727 6.45751 134.533 13.0357L136.971 32.9385C137.778 39.5167 143.772 44.1252 150.399 44.0573C161.835 43.9401 173.242 45.6492 184.186 49.1438C198.949 53.8583 212.518 61.7107 223.961 72.1622C235.405 82.6137 244.452 95.417 250.482 109.694C254.951 120.276 257.685 131.483 258.602 142.883C259.134 149.489 264.265 155.041 270.889 155.25L290.931 155.879Z" fill="#487BFF"/>
</svg>
