<svg width="407" height="407" viewBox="0 0 407 407" fill="none" xmlns="http://www.w3.org/2000/svg">
<path d="M390.002 203.323C395.465 203.323 399.919 207.754 399.644 213.209C398.514 235.647 393.545 257.75 384.929 278.551C375.05 302.401 360.57 324.072 342.316 342.327C324.061 360.581 302.39 375.061 278.54 384.94C257.739 393.556 235.636 398.525 213.198 399.655C207.743 399.93 203.312 395.476 203.312 390.013L203.312 342.957C203.312 337.495 207.746 333.106 213.193 332.69C226.847 331.647 240.272 328.447 252.962 323.19C268.704 316.67 283.006 307.113 295.054 295.065C307.102 283.018 316.659 268.715 323.179 252.973C328.436 240.283 331.636 226.859 332.678 213.204C333.095 207.757 337.484 203.323 342.946 203.323H390.002Z" fill="#497CFF"/>
<path d="M377.48 136.073C382.576 134.105 388.327 136.634 390.036 141.823C394.672 155.896 397.701 170.449 399.067 185.203C399.57 190.642 395.306 195.256 389.848 195.485L342.834 197.461C337.376 197.69 332.805 193.443 332.16 188.019C331.272 180.54 329.734 173.152 327.564 165.94C325.99 160.709 328.487 154.991 333.583 153.023L377.48 136.073Z" fill="#91A2FF"/>
<path d="M278.158 32.2873C280.348 27.2828 286.194 24.9786 291.082 27.4171C329.148 46.4071 360.036 77.2453 379.087 115.281C381.533 120.166 379.238 126.015 374.237 128.213L331.158 147.144C326.157 149.342 320.354 147.047 317.782 142.228C305.643 119.485 286.996 100.867 264.233 88.765C259.41 86.2006 257.106 80.4017 259.296 75.3972L278.158 32.2873Z" fill="#CBAEFE"/>
<path d="M81.1476 62.1603C77.5728 58.0299 78.0084 51.762 82.3133 48.3994C107.841 28.4599 137.945 15.1044 169.968 9.59113C201.991 4.07784 234.828 6.59669 265.554 16.8512C270.736 18.5805 273.242 24.3418 271.255 29.43L254.132 73.26C252.144 78.3481 246.416 80.8226 241.192 79.2281C221.843 73.3235 201.334 72.0119 181.308 75.4597C161.282 78.9075 142.393 87.0023 126.133 99.0375C121.743 102.287 115.517 101.871 111.942 97.7406L81.1476 62.1603Z" fill="#4737FF"/>
<path d="M17.3709 219.919C11.93 220.405 7.09939 216.387 6.88803 210.928C5.89835 185.37 9.90522 159.83 18.7187 135.752C27.5323 111.673 40.9598 89.5817 58.2153 70.7016C61.9006 66.6694 68.1835 66.7195 72.0252 70.6028L105.119 104.055C108.961 107.939 108.895 114.178 105.315 118.304C94.9989 130.197 86.9144 143.89 81.4839 158.726C76.0535 173.562 73.3879 189.238 73.5891 204.98C73.6589 210.443 69.6815 215.25 64.2405 215.736L17.3709 219.919Z" fill="#95CAFF"/>
<path d="M193.59 389.759C193.305 395.214 188.647 399.431 183.213 398.873C141.642 394.599 102.417 377.17 71.3225 348.994C40.228 320.818 19.0305 283.495 10.6933 242.545C9.60352 237.192 13.3427 232.142 18.7435 231.323L65.2671 224.265C70.6679 223.446 75.6725 227.173 76.9007 232.495C82.8388 258.23 96.5149 281.626 116.202 299.466C135.89 317.306 160.516 328.617 186.71 331.998C192.127 332.698 196.328 337.312 196.043 342.767L193.59 389.759Z" fill="#6F7EF5"/>
</svg>
