<svg width="101" height="100" viewBox="0 0 101 100" fill="none" xmlns="http://www.w3.org/2000/svg">
<g clip-path="url(#clip0_3_308342)">
<path fill-rule="evenodd" clip-rule="evenodd" d="M50.5401 8.37891C53.7809 8.3791 56.9107 9.55962 59.3443 11.6997L59.986 12.3039L62.8943 15.2122C63.6925 16.0052 64.7347 16.5058 65.8526 16.6331L66.4151 16.6664H70.5818C73.9869 16.6662 77.263 17.9688 79.7383 20.307C82.2137 22.6452 83.7006 25.8418 83.8943 29.2414L83.9151 29.9997V34.1664C83.9151 35.2914 84.2985 36.3872 84.9901 37.2622L85.3651 37.6789L88.2693 40.5872C90.6765 42.9808 92.08 46.2023 92.1938 49.595C92.3077 52.9877 91.1231 56.2961 88.8818 58.8456L88.2776 59.4872L85.3693 62.3956C84.5763 63.1937 84.0757 64.236 83.9485 65.3539L83.9151 65.9164V70.0831C83.9153 73.4882 82.6127 76.7643 80.2745 79.2396C77.9363 81.715 74.7397 83.2019 71.3401 83.3956L70.5818 83.4164H66.4151C65.2917 83.4168 64.2012 83.7955 63.3193 84.4914L62.9026 84.8664L59.9943 87.7706C57.6008 90.1777 54.3792 91.5813 50.9865 91.6951C47.5938 91.809 44.2854 90.6244 41.736 88.3831L41.0943 87.7789L38.186 84.8706C37.3878 84.0776 36.3455 83.577 35.2276 83.4497L34.6651 83.4164H30.4985C27.0934 83.4166 23.8173 82.114 21.3419 79.7758C18.8666 77.4376 17.3796 74.241 17.186 70.8414L17.1651 70.0831V65.9164C17.1648 64.793 16.7861 63.7024 16.0901 62.8206L15.7151 62.4039L12.811 59.4956C10.4038 57.102 9.00022 53.8805 8.88641 50.4878C8.7726 47.0951 9.95712 43.7867 12.1985 41.2372L12.8026 40.5956L15.711 37.6872C16.5039 36.8891 17.0045 35.8468 17.1318 34.7289L17.1651 34.1664V29.9997L17.186 29.2414C17.372 25.9724 18.7544 22.8862 21.0697 20.5709C23.3849 18.2557 26.4711 16.8733 29.7401 16.6872L30.4985 16.6664H34.6651C35.7885 16.666 36.8791 16.2874 37.761 15.5914L38.1776 15.2164L41.086 12.3122C42.3249 11.0659 43.7979 10.0768 45.4204 9.40182C47.0429 8.7268 48.7828 8.37916 50.5401 8.37891ZM50.5 31.9998C52.7091 31.9998 54.5 33.7906 54.5 35.9998V51.5792C54.5 53.7883 52.7091 55.5792 50.5 55.5792C48.2909 55.5792 46.5 53.7883 46.5 51.5792V35.9998C46.5 33.7906 48.2909 31.9998 50.5 31.9998ZM54.5 63.5791C54.5 61.37 52.7091 59.5791 50.5 59.5791C48.2909 59.5791 46.5 61.37 46.5 63.5791V63.618C46.5 65.8272 48.2909 67.618 50.5 67.618C52.7091 67.618 54.5 65.8272 54.5 63.618V63.5791Z" fill="white"/>
</g>
<defs>
<clipPath id="clip0_3_308342">
<rect width="100" height="100" fill="white" transform="translate(0.5)"/>
</clipPath>
</defs>
</svg>
