<svg width="32" height="32" fill="none" xmlns="http://www.w3.org/2000/svg"><g clip-path="url(#clip0_560_140800)"><path fill-rule="evenodd" clip-rule="evenodd" d="M16.011 2.681c1.037 0 2.039.378 2.818 1.063l.205.193.93.93a1.6 1.6 0 00.947.455l.18.011h1.334a4.267 4.267 0 014.26 4.024l.006.243v1.333c0 .36.123.71.344.99l.12.134.93.93a4.267 4.267 0 01.196 5.844l-.194.205-.93.93a1.6 1.6 0 00-.455.947l-.01.18v1.334a4.267 4.267 0 01-4.025 4.26l-.242.006H21.09a1.6 1.6 0 00-.99.344l-.134.12-.93.93a4.266 4.266 0 01-5.843.195l-.205-.193-.931-.93a1.6 1.6 0 00-.947-.455l-.18-.01H9.598a4.267 4.267 0 01-4.26-4.025l-.007-.242v-1.334a1.6 1.6 0 00-.344-.99l-.12-.134-.93-.93a4.267 4.267 0 01-.195-5.843l.193-.205.93-.931a1.6 1.6 0 00.456-.947l.01-.18V9.6l.007-.243A4.267 4.267 0 019.355 5.34l.243-.007h1.333a1.6 1.6 0 00.99-.344l.134-.12.93-.93a4.267 4.267 0 013.026-1.258zm-.013 7.339a1.5 1.5 0 011.5 1.5v4.985a1.5 1.5 0 11-3 0V11.52a1.5 1.5 0 011.5-1.5zm1.5 10.325a1.5 1.5 0 10-3 0v.013a1.5 1.5 0 003 0v-.013z" fill="#fff"/></g><defs><clipPath id="clip0_560_140800"><path fill="#fff" d="M0 0h32v32H0z"/></clipPath></defs></svg>