<svg width="32" height="33" fill="none" xmlns="http://www.w3.org/2000/svg"><path d="M27.27 27.89a15.702 15.702 0 01-11.366 4.607 15.385 15.385 0 01-11.28-4.607 15.313 15.313 0 01-4.62-11.3c0-4.598 1.54-8.429 4.62-11.492A15.403 15.403 0 0115.904.503 15.684 15.684 0 0127.27 5.098c3.15 3.063 4.726 6.894 4.726 11.493a15.174 15.174 0 01-4.726 11.3z" fill="#C8C8C8"/><path d="M16.002 5.529l-6.4 10.906 6.4-2.989V5.53z" fill="#8B8B8B"/><path d="M16.002 13.446l-6.4 2.99 6.4 3.882v-6.872z" fill="#393939"/><path d="M16 5.529v7.917l6.394 2.99L16 5.528z" fill="#343434"/><path d="M16 13.446v6.872l6.394-3.883L16 13.446z" fill="#161616"/><path d="M9.602 17.68l6.4 9.263v-5.377l-6.4-3.886z" fill="#8B8B8B"/><path d="M22.4 17.68L16 21.566v5.377l6.4-9.263z" fill="#343434"/></svg>