<svg width="72" height="72" viewBox="0 0 72 72" fill="none" xmlns="http://www.w3.org/2000/svg">
<path d="M61.3593 61.6286C58.0085 64.9858 54.0174 67.6336 49.6236 69.4143C45.2297 71.1949 40.523 72.0721 35.7837 71.9935C31.0717 72.0846 26.3906 71.2124 22.0267 69.4303C17.6627 67.6481 13.7076 64.9935 10.403 61.6286C7.02137 58.3315 4.35339 54.3729 2.56506 49.999C0.776733 45.6251 -0.0936758 40.9295 0.00798108 36.2044C0.00798108 25.8572 3.473 17.2375 10.403 10.3453C13.7098 6.98521 17.666 4.33549 22.0298 2.55797C26.3937 0.780441 31.0736 -0.087565 35.7837 0.00696974C40.5212 -0.075067 45.2267 0.797909 49.6205 2.57396C54.0142 4.35002 58.0063 6.99286 61.3593 10.3453C68.4488 17.2375 71.9936 25.8572 71.9936 36.2044C72.0855 40.9499 71.1871 45.6624 69.3559 50.0403C67.5247 54.4182 64.8011 58.3652 61.3593 61.6286V61.6286Z" fill="#C8C8C8"/>
<path d="M36.0001 11.3142L21.6001 35.8533L36.0001 29.1285V11.3142Z" fill="#8B8B8B"/>
<path d="M36.0001 29.1284L21.6001 35.8532L36.0001 44.5897V29.1284Z" fill="#393939"/>
<path d="M36 11.3142V29.1285L50.3862 35.8533L36 11.3142Z" fill="#343434"/>
<path d="M36 29.1284V44.5897L50.3862 35.8532L36 29.1284Z" fill="#161616"/>
<path d="M21.6001 38.6541L36.0001 59.4966V47.3977L21.6001 38.6541Z" fill="#8B8B8B"/>
<path d="M50.4 38.6541L36 47.3977V59.4966L50.4 38.6541Z" fill="#343434"/>
</svg>
