<svg width="360" height="222" fill="none" xmlns="http://www.w3.org/2000/svg"><g filter="url(#filter0_d_232_40217)" shape-rendering="crispEdges"><path d="M116.675 22a7.998 7.998 0 005.758-2.446l5.371-5.569a4 4 0 015.759 0l5.37 5.569A8.002 8.002 0 00144.692 22h186.592c4.261 0 7.716 3.582 7.716 8v163c0 4.418-3.455 8-7.716 8H20.716c-4.261 0-7.716-3.582-7.716-8V30c0-4.418 3.455-8 7.716-8h95.959z" fill="url(#paint0_linear_232_40217)"/><path d="M116.675 22a7.998 7.998 0 005.758-2.446l5.371-5.569a4 4 0 015.759 0l5.37 5.569A8.002 8.002 0 00144.692 22h186.592c4.261 0 7.716 3.582 7.716 8v163c0 4.418-3.455 8-7.716 8H20.716c-4.261 0-7.716-3.582-7.716-8V30c0-4.418 3.455-8 7.716-8h95.959z" stroke="#98A1C0" stroke-opacity=".6"/></g><defs><linearGradient id="paint0_linear_232_40217" x1="176" y1="11" x2="176" y2="201" gradientUnits="userSpaceOnUse"><stop stop-color="#202738"/><stop offset="1" stop-color="#070816"/></linearGradient><filter id="filter0_d_232_40217" x=".5" y=".262" width="359" height="221.238" filterUnits="userSpaceOnUse" color-interpolation-filters="sRGB"><feFlood flood-opacity="0" result="BackgroundImageFix"/><feColorMatrix in="SourceAlpha" values="0 0 0 0 0 0 0 0 0 0 0 0 0 0 0 0 0 0 127 0" result="hardAlpha"/><feOffset dx="4" dy="4"/><feGaussianBlur stdDeviation="8"/><feComposite in2="hardAlpha" operator="out"/><feColorMatrix values="0 0 0 0 0 0 0 0 0 0 0 0 0 0 0 0 0 0 0.08 0"/><feBlend in2="BackgroundImageFix" result="effect1_dropShadow_232_40217"/><feBlend in="SourceGraphic" in2="effect1_dropShadow_232_40217" result="shape"/></filter></defs></svg>