<svg width="16" height="16" fill="none" xmlns="http://www.w3.org/2000/svg"><g clip-path="url(#clip0_78_58323)"><path fill-rule="evenodd" clip-rule="evenodd" d="M4 3.331A.668.668 0 003.332 4v2.668h5.337V4A.668.668 0 008 3.33H4zm4.67 4.667H3.332v4.67h5.337v-4.67zm-6.667-.665V4A1.998 1.998 0 014 2h4a1.998 1.998 0 012 2v2.668h.003A1.998 1.998 0 0112 8.666v2a.335.335 0 10.67 0V6.65h-.002a1.317 1.317 0 01-1.317-1.317v-.377l-.486-.486a.665.665 0 01.94-.94l2 2A.665.665 0 0114 6v4.666a1.665 1.665 0 01-3.33 0v-2a.668.668 0 00-.668-.668h-.003v4.67H10a.665.665 0 110 1.33H2a.665.665 0 110-1.33h.001V7.333z" fill="url(#paint0_linear_78_58323)"/></g><defs><linearGradient id="paint0_linear_78_58323" x1="4.336" y1="2.001" x2="14.924" y2="2.27" gradientUnits="userSpaceOnUse"><stop stop-color="#487BFF"/><stop offset="1" stop-color="#4627FF"/></linearGradient><clipPath id="clip0_78_58323"><path fill="#fff" d="M0 0h16v16H0z"/></clipPath></defs></svg>