<svg width="20" height="20" viewBox="0 0 20 20" fill="none" xmlns="http://www.w3.org/2000/svg">
<g clip-path="url(#clip0_31_43504)">
<path d="M10.0083 1.67578C10.6565 1.67582 11.2824 1.91192 11.7692 2.33995L11.8975 2.46078L12.4792 3.04245C12.6388 3.20104 12.8473 3.30116 13.0708 3.32661L13.1833 3.33328H14.0167C14.6977 3.33324 15.3529 3.59376 15.848 4.0614C16.343 4.52904 16.6404 5.16837 16.6792 5.84828L16.6833 5.99995V6.83328C16.6833 7.05828 16.76 7.27745 16.8983 7.45245L16.9733 7.53578L17.5542 8.11745C18.0356 8.59615 18.3163 9.24046 18.3391 9.91901C18.3618 10.5975 18.1249 11.2592 17.6767 11.7691L17.5558 11.8974L16.9742 12.4791C16.8156 12.6387 16.7155 12.8472 16.69 13.0708L16.6833 13.1833V14.0166C16.6834 14.6976 16.4229 15.3529 15.9552 15.8479C15.4876 16.343 14.8482 16.6404 14.1683 16.6791L14.0167 16.6833H13.1833C12.9586 16.6834 12.7405 16.7591 12.5642 16.8983L12.4808 16.9733L11.8992 17.5541C11.4205 18.0355 10.7761 18.3163 10.0976 18.339C9.41907 18.3618 8.75739 18.1249 8.2475 17.6766L8.11916 17.5558L7.5375 16.9741C7.37786 16.8155 7.16941 16.7154 6.94583 16.6899L6.83333 16.6833H6C5.31898 16.6833 4.66376 16.4228 4.16869 15.9552C3.67362 15.4875 3.37623 14.8482 3.3375 14.1683L3.33333 14.0166V13.1833C3.33326 12.9586 3.25752 12.7405 3.11833 12.5641L3.04333 12.4808L2.4625 11.8991C1.98107 11.4204 1.70035 10.7761 1.67759 10.0976C1.65482 9.41902 1.89173 8.75734 2.34 8.24745L2.46083 8.11912L3.0425 7.53745C3.20109 7.37782 3.30121 7.16936 3.32666 6.94578L3.33333 6.83328V5.99995L3.3375 5.84828C3.37471 5.19449 3.65119 4.57724 4.11424 4.11419C4.57729 3.65114 5.19454 3.37466 5.84833 3.33745L6 3.33328H6.83333C7.05801 3.33321 7.27612 3.25747 7.4525 3.11828L7.53583 3.04328L8.1175 2.46245C8.36528 2.21319 8.65989 2.01537 8.98439 1.88036C9.30888 1.74536 9.65687 1.67583 10.0083 1.67578ZM13.0892 7.74412C12.9329 7.58789 12.721 7.50013 12.5 7.50013C12.279 7.50013 12.0671 7.58789 11.9108 7.74412L9.16666 10.4874L8.08916 9.41078L8.01083 9.34162C7.84334 9.21211 7.63283 9.1512 7.42206 9.17128C7.21129 9.19136 7.01607 9.29091 6.87604 9.44972C6.73601 9.60852 6.66168 9.81467 6.66814 10.0263C6.6746 10.2379 6.76137 10.4392 6.91083 10.5891L8.5775 12.2558L8.65583 12.3249C8.81617 12.4493 9.01638 12.5109 9.2189 12.4982C9.42142 12.4855 9.61234 12.3993 9.75583 12.2558L13.0892 8.92245L13.1583 8.84412C13.2827 8.68378 13.3443 8.48357 13.3316 8.28105C13.3188 8.07853 13.2326 7.88761 13.0892 7.74412Z" fill="#00FFA3"/>
</g>
<defs>
<clipPath id="clip0_31_43504">
<rect width="20" height="20" fill="white"/>
</clipPath>
</defs>
</svg>
