<svg width="17" height="18" viewBox="0 0 17 18" fill="none" xmlns="http://www.w3.org/2000/svg">
<path fill-rule="evenodd" clip-rule="evenodd" d="M10.4286 1.33165C9.94186 0.903623 9.31591 0.66752 8.66776 0.66748C8.31629 0.667531 7.96831 0.737058 7.64381 0.872063C7.31931 1.00707 7.0247 1.20489 6.77692 1.45415L6.19525 2.03498L6.11192 2.10998C5.93555 2.24917 5.71744 2.32491 5.49275 2.32498H4.65942L4.50775 2.32915C3.85396 2.36636 3.23671 2.64284 2.77366 3.10589C2.31061 3.56894 2.03413 4.18619 1.99692 4.83998L1.99275 4.99165V5.82498L1.98609 5.93748C1.96063 6.16106 1.86051 6.36951 1.70192 6.52915L1.12025 7.11081L0.999421 7.23915C0.551153 7.74904 0.314248 8.41072 0.337011 9.08926C0.359773 9.7678 0.640489 10.4121 1.12192 10.8908L1.70275 11.4725L1.77775 11.5558C1.91694 11.7322 1.99268 11.9503 1.99275 12.175V13.0083L1.99692 13.16C2.03565 13.8399 2.33305 14.4792 2.82811 14.9469C3.32318 15.4145 3.97841 15.675 4.65942 15.675H5.49275L5.60525 15.6816C5.82883 15.7071 6.03729 15.8072 6.19692 15.9658L6.77859 16.5475L6.90692 16.6683C7.41682 17.1166 8.07849 17.3535 8.75703 17.3307C9.43557 17.308 10.0799 17.0272 10.5586 16.5458L11.1403 15.965L11.2236 15.89C11.4 15.7508 11.6181 15.6751 11.8428 15.675H12.6761L12.8278 15.6708C13.5077 15.6321 14.147 15.3347 14.6146 14.8396C15.0823 14.3446 15.3428 13.6893 15.3428 13.0083V12.175L15.3494 12.0625C15.3749 11.8389 15.475 11.6304 15.6336 11.4708L16.2153 10.8891L16.3361 10.7608C16.7844 10.2509 17.0213 9.58925 16.9985 8.9107C16.9757 8.23216 16.695 7.58785 16.2136 7.10915L15.6328 6.52748L15.5578 6.44415C15.4194 6.26915 15.3428 6.04998 15.3428 5.82498V4.99165L15.3386 4.83998C15.2999 4.16007 15.0025 3.52074 14.5074 3.0531C14.0123 2.58546 13.3571 2.32494 12.6761 2.32498H11.8428L11.7303 2.31831C11.5067 2.29286 11.2982 2.19274 11.1386 2.03415L10.5569 1.45248L10.4286 1.33165ZM9.92928 7.06352C9.38609 6.77333 8.75515 6.69303 8.15659 6.8379L8.15546 6.83818C7.72924 6.94028 7.33735 7.15262 7.01907 7.45392C6.70079 7.75521 6.46729 8.13487 6.34198 8.55485C6.26303 8.81947 5.98451 8.96997 5.7199 8.89102C5.45528 8.81207 5.30477 8.53355 5.38373 8.26894C5.55915 7.68099 5.88603 7.14949 6.33161 6.72769C6.77705 6.30603 7.32546 6.00882 7.92192 5.86583C8.75884 5.66341 9.64098 5.77576 10.4005 6.18149C10.7107 6.34719 10.9915 6.55711 11.2355 6.80254V6.69766C11.2355 6.42151 11.4594 6.19766 11.7355 6.19766C12.0117 6.19766 12.2355 6.42151 12.2355 6.69766V8.41215C12.2355 8.68829 12.0117 8.91215 11.7355 8.91215H10.0211C9.74492 8.91215 9.52106 8.68829 9.52106 8.41215C9.52106 8.136 9.74492 7.91215 10.0211 7.91215H10.8527C10.6233 7.55818 10.3066 7.2651 9.92928 7.06352ZM11.7525 9.64741C12.0171 9.72667 12.1672 10.0054 12.088 10.2699C11.9121 10.8569 11.5852 11.3875 11.1399 11.8085C10.6948 12.2294 10.147 12.5261 9.55124 12.669C8.71437 12.8713 7.83233 12.7589 7.07293 12.3532C6.76191 12.187 6.48036 11.9764 6.2359 11.7301V11.8409C6.2359 12.117 6.01204 12.3409 5.7359 12.3409C5.45976 12.3409 5.2359 12.117 5.2359 11.8409V10.1264C5.2359 9.85022 5.45976 9.62637 5.7359 9.62637H7.45039C7.72653 9.62637 7.95039 9.85022 7.95039 10.1264C7.95039 10.4025 7.72653 10.6264 7.45039 10.6264H6.6233C6.85248 10.9786 7.16822 11.2703 7.54417 11.4712C8.08728 11.7613 8.71813 11.8417 9.31664 11.6969L9.31766 11.6967C9.74335 11.5946 10.1348 11.3827 10.4528 11.0819C10.7709 10.7812 11.0044 10.4022 11.1301 9.98285C11.2093 9.71833 11.488 9.56814 11.7525 9.64741Z" fill="#F0F430"/>
</svg>
