<svg width="28" height="28" viewBox="0 0 28 28" fill="none" xmlns="http://www.w3.org/2000/svg">
<rect width="28" height="28" rx="14" fill="#5553FD"/>
<g clip-path="url(#clip0_26_110845)">
<path d="M22.158 17.2432V17.2327C22.1567 17.217 22.1567 17.1986 22.1547 17.1815C22.1547 17.1657 22.1534 17.1539 22.1534 17.1401C22.1501 17.1217 22.1501 17.1013 22.1488 17.0862C22.1475 17.0613 22.1455 17.035 22.1442 17.0107C22.1396 16.9877 22.1383 16.9614 22.1363 16.9384C22.1317 16.9121 22.1304 16.8859 22.1271 16.8609C22.1212 16.8129 22.1133 16.765 22.1067 16.717C22.0962 16.6494 22.0837 16.581 22.0699 16.5147C22.0594 16.4562 22.045 16.3971 22.0312 16.34C22.0253 16.3091 22.0174 16.2795 22.0095 16.2532C21.9957 16.1948 21.9773 16.1357 21.9602 16.0805C21.9543 16.0575 21.9478 16.0358 21.9399 16.0154C21.9261 15.9721 21.9123 15.9307 21.8965 15.8873C21.8965 15.8873 21.8965 15.8873 21.8952 15.8873C21.8873 15.8657 21.8814 15.846 21.8735 15.8243C21.8656 15.8039 21.8584 15.7829 21.8505 15.7625C21.8446 15.7468 21.838 15.733 21.8321 15.7179C21.8243 15.6995 21.8183 15.6811 21.8105 15.662C21.798 15.6325 21.7842 15.6049 21.7737 15.5753C21.7704 15.574 21.7704 15.572 21.7704 15.5707C21.7579 15.5444 21.7474 15.5195 21.7362 15.4952C21.7329 15.4919 21.7329 15.4873 21.7316 15.486C21.7316 15.4846 21.7316 15.4846 21.7303 15.4827C21.7211 15.4623 21.7099 15.4413 21.6994 15.4196C21.6994 15.4163 21.6962 15.4137 21.6948 15.4104C21.6916 15.4012 21.687 15.3946 21.6843 15.3874C21.6738 15.3657 21.664 15.3473 21.6535 15.327C21.6535 15.3257 21.6521 15.3224 21.6502 15.3211C21.6252 15.2731 21.5989 15.2252 21.5726 15.1772C21.5694 15.1726 21.5681 15.1667 21.5635 15.1614L21.5221 15.0872C21.5208 15.0839 21.5188 15.0793 21.5162 15.0767C21.1207 14.4158 20.4198 13.6499 19.6643 13.3996L19.6564 13.418C19.6827 13.2511 19.6965 13.081 19.6978 12.9115C19.7024 12.3294 19.5585 11.7376 19.2485 11.1923L17.6173 8.31631C17.6002 8.28543 17.5818 8.25324 17.5635 8.22368C17.5602 8.21908 17.5575 8.21449 17.5575 8.2112C17.5543 8.20989 17.5529 8.20529 17.5516 8.202C17.5424 8.18492 17.5313 8.16981 17.5208 8.15405C17.5208 8.14945 17.5162 8.14617 17.5148 8.14157C17.5024 8.12317 17.4918 8.10478 17.4781 8.08573C17.4689 8.06865 17.4577 8.05157 17.4472 8.03449C17.438 8.02398 17.4301 8.0115 17.4222 8.00033C17.4051 7.97734 17.3913 7.95369 17.3743 7.93069C17.3651 7.91821 17.3572 7.90573 17.348 7.89391C17.3388 7.88143 17.3276 7.86763 17.3204 7.85515C17.3171 7.85383 17.3158 7.84924 17.3125 7.84595C17.3033 7.83347 17.2941 7.82099 17.2849 7.80916C17.2711 7.7888 17.254 7.76909 17.2402 7.74873C17.2173 7.72114 17.1923 7.69026 17.1693 7.66201C17.143 7.63114 17.1167 7.59698 17.0892 7.56807C17.0478 7.52012 17.0057 7.47413 16.9624 7.42881C16.9223 7.38545 16.8803 7.34209 16.8356 7.30071C16.8356 7.29939 16.8343 7.29939 16.8323 7.29742C16.7889 7.25406 16.7456 7.21399 16.6996 7.17392C16.6996 7.17064 16.6983 7.17064 16.6963 7.17064C16.6733 7.14896 16.6516 7.13056 16.6287 7.10888C16.607 7.09049 16.584 7.0721 16.5623 7.05305L16.5564 7.04845C16.5505 7.04254 16.5413 7.03597 16.5334 7.03005C16.5038 7.00838 16.4762 6.98341 16.4467 6.96042C16.4309 6.94991 16.4145 6.93743 16.4 6.92495L16.3954 6.92166C16.3784 6.90787 16.3613 6.89539 16.3442 6.8829C16.3212 6.86714 16.2995 6.85203 16.2765 6.83495L16.2719 6.83166C16.266 6.82707 16.2614 6.82247 16.2549 6.81918L16.2503 6.81458C16.2444 6.8113 16.2398 6.80867 16.2332 6.80407C16.2148 6.79159 16.1964 6.77911 16.1773 6.76729L16.1215 6.7305C16.111 6.72261 16.0985 6.7167 16.0893 6.71013C16.088 6.71013 16.088 6.71013 16.088 6.71013C16.0696 6.69765 16.0492 6.68386 16.0295 6.67335C16.0092 6.66086 15.9895 6.64707 15.9678 6.63656L15.9573 6.62867C15.9139 6.6024 15.8706 6.57941 15.8279 6.55444C15.7845 6.53145 15.7412 6.50977 15.6978 6.48809C15.6748 6.47561 15.6512 6.4651 15.6301 6.45393C15.5855 6.43225 15.5408 6.41058 15.4955 6.39087C15.4725 6.38167 15.4508 6.37247 15.4258 6.36131C15.4042 6.35211 15.3812 6.34291 15.3595 6.33175C15.3345 6.32386 15.3115 6.31598 15.2898 6.30547C15.2695 6.29956 15.2511 6.29167 15.2327 6.2851C15.2248 6.28051 15.2143 6.27919 15.2077 6.27459C15.1874 6.26868 15.169 6.2608 15.1493 6.25423C15.1 6.23715 15.0507 6.22007 14.9995 6.20496C14.9791 6.19708 14.9594 6.19116 14.9377 6.18657C14.9101 6.17737 14.8793 6.16949 14.8497 6.16029L14.8405 6.15898C14.8188 6.15306 14.7958 6.14649 14.7742 6.14058C14.7728 6.13927 14.7709 6.14058 14.7709 6.13927C14.7525 6.13467 14.7367 6.13138 14.7196 6.12679C14.6717 6.11628 14.6224 6.10511 14.5745 6.0946C14.5515 6.09 14.5278 6.08671 14.5035 6.0808C14.4976 6.07949 14.4897 6.07752 14.4818 6.07752C14.4385 6.06832 14.3951 6.06044 14.3518 6.05452C14.3268 6.04993 14.3025 6.04664 14.2775 6.04204C14.2283 6.03613 14.177 6.02956 14.1277 6.02365C14.1015 6.02234 14.0765 6.02036 14.0522 6.01774C14.0279 6.01511 14.001 6.01314 13.9767 6.01182C13.9517 6.01051 13.9287 6.00854 13.9057 6.00723C13.9024 6.00591 13.8998 6.00591 13.8965 6.00591C13.884 6.00591 13.8702 6.0046 13.8578 6.0046C13.8256 6.00328 13.7947 6.00328 13.7638 6.00131C13.7329 6 13.7021 6 13.6712 6H13.5556C13.5188 6 13.48 6.00131 13.4413 6.00328C13.3637 6.00788 13.2856 6.01248 13.2081 6.02036C13.1818 6.02168 13.1568 6.02496 13.1305 6.02825C13.1043 6.03153 13.078 6.03285 13.0517 6.03744C13.0024 6.04336 12.9512 6.05124 12.9006 6.05912H12.8973C12.8343 6.06963 12.7705 6.0808 12.7075 6.0946C12.6457 6.10839 12.5827 6.12219 12.5189 6.13598C12.496 6.14387 12.471 6.15175 12.4447 6.15766C12.4198 6.16357 12.3954 6.17014 12.3705 6.17803C12.3501 6.18394 12.3291 6.19051 12.3074 6.19642C12.2779 6.20562 12.2516 6.2135 12.224 6.2227C12.2036 6.22861 12.1852 6.23649 12.1668 6.24109C12.153 6.247 12.113 6.25948 12.111 6.26277C12.0801 6.27197 12.0492 6.28313 12.0197 6.29364C12.0138 6.29496 11.9441 6.32124 11.91 6.337C11.887 6.34751 11.8633 6.35737 11.8423 6.36656C11.8193 6.37576 11.7976 6.38496 11.7747 6.39612C11.7517 6.40663 11.728 6.41649 11.705 6.427C11.6879 6.43488 11.6709 6.44408 11.6512 6.45328C11.642 6.45787 11.6341 6.46116 11.6262 6.46707C11.6078 6.47298 11.5907 6.48087 11.5723 6.49203C11.5428 6.5078 11.5119 6.52422 11.481 6.53999C11.4455 6.55838 11.4114 6.57875 11.3779 6.59714C11.3779 6.59714 11.322 6.6267 11.2761 6.65561C11.2498 6.67269 11.2222 6.6878 11.1959 6.70488C11.1926 6.70619 11.19 6.70948 11.1867 6.71079C11.1729 6.71999 11.1571 6.72918 11.1434 6.74035C11.1309 6.74626 11.1204 6.75415 11.1092 6.76203C11.0941 6.77254 11.0783 6.78239 11.0626 6.79291C11.0422 6.80539 11.0225 6.8205 11.0008 6.83626C10.9804 6.84874 10.9607 6.86385 10.9423 6.87765C10.9207 6.89144 10.8977 6.90852 10.8793 6.92429C10.8405 6.95385 10.8018 6.98276 10.765 7.01363C10.7111 7.05502 10.6585 7.10035 10.6073 7.14502C10.5607 7.18509 10.5193 7.22516 10.4759 7.26523C10.4542 7.28691 10.4326 7.30859 10.4109 7.3283C10.3675 7.37165 10.3275 7.41304 10.2861 7.45771C10.2703 7.47348 10.2552 7.49187 10.2414 7.50698C10.1967 7.55822 10.1501 7.6088 10.1501 7.6088C10.1376 7.62588 10.1225 7.64296 10.11 7.66004C10.0942 7.67581 10.0805 7.6942 10.0667 7.71128C10.0561 7.72508 10.0463 7.73625 10.0371 7.75004C10.0246 7.76581 10.0108 7.78092 10.0003 7.79668C9.97994 7.82296 9.96155 7.84792 9.94316 7.87223L9.94184 7.87683C9.92476 7.89851 9.90768 7.9215 9.89257 7.94318L9.88666 7.95369C9.88666 7.95369 9.85907 7.99376 9.84659 8.01215C9.8433 8.01544 9.84199 8.02004 9.84068 8.02266C9.83476 8.02858 9.83016 8.03515 9.82491 8.04303L9.78484 8.10478C9.75528 8.14945 9.72637 8.19741 9.69812 8.24536L9.68893 8.25784L9.69024 8.25916L9.64688 8.33339L9.639 8.34259C9.26324 9.01593 8.95186 10.0059 9.11215 10.7857H9.13054C8.97288 10.8441 8.81982 10.9171 8.67201 11.0005C8.16421 11.2876 7.72407 11.7093 7.40546 12.2486L5.73294 15.0997C5.71586 15.1306 5.69747 15.1614 5.68039 15.1936L5.6725 15.2041C5.67119 15.2074 5.66922 15.212 5.66791 15.2133C5.65739 15.2304 5.65083 15.2455 5.64163 15.2646L5.63375 15.2771C5.62323 15.2955 5.61338 15.3171 5.60287 15.3355C5.59367 15.3539 5.58579 15.3723 5.57659 15.3894C5.56871 15.4019 5.56411 15.4124 5.5582 15.4262C5.54572 15.4525 5.53324 15.4774 5.52141 15.5017C5.51681 15.5155 5.5109 15.5293 5.50433 15.5431C5.49645 15.5569 5.49054 15.5727 5.48397 15.5865C5.48265 15.5898 5.48068 15.5944 5.47937 15.597C5.47346 15.6127 5.46689 15.6265 5.46097 15.6417C5.45046 15.6633 5.44258 15.6863 5.43141 15.7113C5.41762 15.7454 5.40514 15.7789 5.39265 15.8131C5.37755 15.8532 5.36309 15.8919 5.3493 15.932C5.32893 15.9905 5.30923 16.0496 5.29215 16.1081C5.27507 16.1665 5.26127 16.2237 5.24419 16.2828C5.24419 16.2841 5.24419 16.2861 5.24288 16.2874C5.22711 16.3478 5.21529 16.405 5.2028 16.4635V16.4694C5.19492 16.4989 5.18901 16.5278 5.18441 16.5574C5.1785 16.587 5.1739 16.6146 5.16864 16.6454C5.16864 16.6467 5.16733 16.6487 5.16733 16.6513C5.16602 16.6605 5.16405 16.6697 5.16273 16.6809C5.15813 16.7164 5.15222 16.7538 5.14697 16.7906C5.14237 16.809 5.14105 16.8294 5.13908 16.8478C5.13777 16.8491 5.13777 16.8524 5.13777 16.8537C5.13448 16.874 5.13186 16.897 5.12989 16.9187C5.12857 16.945 5.12397 16.9726 5.122 16.9989C5.122 17.0002 5.122 17.0035 5.12069 17.0048V17.0264C5.11937 17.0278 5.12069 17.0297 5.11937 17.0324C5.11937 17.0402 5.11806 17.0461 5.11609 17.0507C5.11609 17.0737 5.11281 17.0954 5.11281 17.1184C5.11149 17.1401 5.10952 17.1618 5.10952 17.1848C5.10821 17.1986 5.10821 17.211 5.10624 17.2235C5.10624 17.2248 5.10624 17.2248 5.10624 17.2248C5.10492 17.2465 5.10492 17.2715 5.10492 17.2945C5.10492 17.3175 5.10361 17.3424 5.10361 17.3654C5.10361 17.37 5.10361 17.3759 5.10229 17.3812C5.10229 17.4304 5.10229 17.4797 5.10361 17.5277C5.10492 17.5769 5.10821 17.6249 5.10952 17.6742C5.11083 17.6991 5.11281 17.7254 5.11412 17.7497C5.11872 17.799 5.12332 17.8502 5.12791 17.8982C5.1312 17.9231 5.13383 17.9474 5.1358 17.9724C5.13908 17.9974 5.14171 18.0204 5.14631 18.0466C5.14959 18.0696 5.15222 18.0946 5.15682 18.1196C5.1601 18.1399 5.16273 18.1583 5.16602 18.1767C5.16733 18.1872 5.1693 18.1971 5.17061 18.2063C5.17521 18.2266 5.1785 18.2477 5.1831 18.2667C5.19098 18.318 5.20149 18.3705 5.21397 18.4211C5.21857 18.4415 5.22317 18.4625 5.22777 18.4828C5.23565 18.5137 5.24353 18.5433 5.25076 18.5722L5.25207 18.5827C5.25799 18.6031 5.26258 18.626 5.27047 18.6477C5.27047 18.651 5.27047 18.651 5.27047 18.6536C5.27638 18.6694 5.28098 18.6845 5.28623 18.7016C5.30003 18.7509 5.31579 18.7975 5.32959 18.8435C5.33747 18.8652 5.3447 18.8882 5.35455 18.9112C5.35587 18.919 5.35915 18.9249 5.36047 18.9315C5.37426 18.9749 5.39003 19.0149 5.40842 19.0563C5.4163 19.0793 5.4255 19.103 5.4347 19.126C5.45309 19.1739 5.47149 19.2199 5.49316 19.2652C5.50236 19.2902 5.51353 19.3132 5.52404 19.3349C5.53324 19.3579 5.5444 19.3815 5.55623 19.4045C5.56674 19.4262 5.57659 19.4459 5.5871 19.4676C5.58842 19.4689 5.59039 19.4722 5.5917 19.4754C5.5963 19.4846 5.60221 19.4958 5.60747 19.5063C5.60747 19.5076 5.60878 19.5096 5.60878 19.5096C5.62258 19.5392 5.63834 19.5654 5.65345 19.593C5.66922 19.6206 5.68301 19.6469 5.69681 19.6732C5.69812 19.6765 5.69812 19.6765 5.69812 19.6765C5.71849 19.7087 5.73688 19.7428 5.75659 19.7737C5.77498 19.8059 5.79535 19.84 5.81506 19.8709C5.85841 19.9373 5.90177 20.0023 5.94775 20.0654C5.96155 20.087 5.97732 20.1087 5.99242 20.1304C6.00753 20.1508 6.0233 20.1705 6.03841 20.1922C6.06928 20.2322 6.10147 20.2723 6.13235 20.3124C6.13366 20.3124 6.13366 20.3137 6.13563 20.3137C6.17571 20.3649 6.21775 20.4142 6.26045 20.4602C6.30183 20.5094 6.34716 20.5561 6.39183 20.6021L6.4457 20.6559C6.46409 20.6743 6.48249 20.6927 6.50154 20.7098C6.51731 20.7269 6.53241 20.7407 6.55081 20.7564C6.5692 20.7768 6.59088 20.7952 6.61256 20.8149C6.62767 20.8287 6.64212 20.8412 6.65854 20.855C6.66905 20.8655 6.68154 20.8754 6.69402 20.8859C6.69402 20.8872 6.69533 20.8891 6.6973 20.8872C6.69862 20.8905 6.7019 20.8918 6.70321 20.8931C6.72818 20.9148 6.75248 20.9364 6.77876 20.9548C6.78007 20.9594 6.78467 20.9627 6.78927 20.964C6.81555 20.987 6.84183 21.0074 6.8681 21.0291C6.88847 21.0448 6.90817 21.0586 6.92657 21.0737C6.94693 21.0875 6.96664 21.1033 6.987 21.1184C7.00737 21.1322 7.02708 21.148 7.04744 21.1598C7.06452 21.1723 7.07963 21.1848 7.09671 21.1953C7.10459 21.2012 7.11182 21.2058 7.12167 21.211L7.17094 21.2432C7.2005 21.2616 7.2281 21.282 7.25766 21.2991C7.29182 21.3207 7.32401 21.3391 7.35948 21.3608C7.39364 21.3812 7.42714 21.4009 7.4613 21.4193C7.48889 21.435 7.51714 21.4502 7.54473 21.464L7.55393 21.4686C7.56772 21.4764 7.5848 21.4843 7.60057 21.4915C7.61108 21.4994 7.62356 21.504 7.63736 21.5099C7.65247 21.5178 7.66955 21.527 7.68663 21.5349C7.70831 21.5474 7.72998 21.5566 7.75298 21.5658C7.77465 21.5763 7.79765 21.5875 7.82064 21.598C7.84363 21.6072 7.86859 21.6183 7.89159 21.6275C7.93626 21.6479 7.98093 21.6663 8.02626 21.6834C8.08932 21.7083 8.15633 21.7326 8.21939 21.753C8.27654 21.7734 8.3337 21.7898 8.38953 21.8069C8.4191 21.8147 8.448 21.8239 8.47756 21.8318C8.53471 21.8476 8.59318 21.8614 8.6523 21.8752C8.67398 21.8798 8.69566 21.8844 8.71734 21.889C8.76201 21.8982 8.80537 21.9074 8.84872 21.9166H8.85004C8.8704 21.9199 8.89339 21.9245 8.91507 21.9271C8.93675 21.9317 8.95974 21.935 8.98142 21.9376C8.99719 21.9389 9.0123 21.9422 9.02938 21.9435C9.04974 21.9468 9.06813 21.9494 9.08981 21.9527C9.11937 21.956 9.15156 21.9606 9.18244 21.9632C9.18375 21.9632 9.32762 21.9711 9.35258 21.977C9.35718 21.9783 9.36178 21.9783 9.36506 21.9783C9.37426 21.9783 9.38214 21.9796 9.39003 21.9796C9.41302 21.981 9.4347 21.9829 9.45769 21.9829C9.459 21.9842 9.46097 21.9842 9.4636 21.9842C9.51944 21.9855 9.57331 21.9888 9.62718 21.9888H9.74279C10.5101 21.9783 11.525 21.7543 12.1215 21.2242L12.111 21.2084C12.2411 21.3135 12.381 21.4094 12.5262 21.4975C13.0294 21.7924 13.6134 21.9639 14.2388 21.9685L17.5451 21.9934H17.6778C17.6962 21.9934 17.7145 21.9901 17.7336 21.9901C17.7382 21.9901 17.7428 21.9901 17.7474 21.9915C17.7704 21.9882 17.7921 21.9882 17.8151 21.9882C17.8367 21.9869 17.8551 21.9849 17.8735 21.9836C17.8886 21.9836 17.9031 21.9823 17.9169 21.9803C17.9445 21.977 17.9727 21.977 18.0003 21.9744C18.0141 21.9731 18.0299 21.9711 18.045 21.9698C18.0607 21.9685 18.0772 21.9665 18.0929 21.9652C18.0962 21.9639 18.0988 21.9639 18.1034 21.9639C18.1205 21.9626 18.1343 21.9593 18.1514 21.9593C18.1744 21.9547 18.2007 21.9514 18.2256 21.9488C18.2624 21.9428 18.2979 21.9383 18.334 21.9304C18.3754 21.9245 18.4188 21.9166 18.4588 21.9087C18.5193 21.8962 18.581 21.8837 18.6395 21.8686C18.6999 21.8561 18.7551 21.8391 18.8142 21.8239C18.8155 21.8239 18.8175 21.8239 18.8201 21.8226C18.8773 21.8069 18.9358 21.7885 18.9929 21.7701C18.9942 21.7701 18.9962 21.7688 18.9962 21.7688C19.0258 21.7596 19.0547 21.7504 19.0842 21.7392C19.1105 21.73 19.1381 21.7188 19.1663 21.7083C19.1696 21.7083 19.1709 21.7083 19.1742 21.707C19.1821 21.7057 19.1913 21.7011 19.1992 21.6978C19.236 21.6821 19.2701 21.6702 19.3043 21.6564C19.3214 21.6485 19.3398 21.6407 19.3582 21.6348C19.3595 21.6348 19.3628 21.6315 19.3628 21.6315C19.3831 21.6236 19.4028 21.6157 19.4232 21.6052C19.4482 21.5947 19.4725 21.5835 19.4974 21.573C19.5007 21.573 19.5007 21.5717 19.5033 21.5717C19.5093 21.5671 19.5158 21.5638 19.5217 21.5612C19.525 21.5612 19.5263 21.5599 19.5277 21.5579C19.5322 21.5566 19.5401 21.5533 19.5447 21.55C19.5664 21.5408 19.5848 21.5296 19.6065 21.5204C19.6249 21.5099 19.6466 21.5001 19.6649 21.4909C19.6774 21.4863 19.6879 21.4784 19.6991 21.4725H19.7004C19.7208 21.462 19.7405 21.4508 19.7622 21.4383C19.7825 21.4278 19.8022 21.4167 19.8239 21.4061C19.8285 21.4015 19.8331 21.4015 19.8364 21.3983C19.8798 21.3733 19.9231 21.347 19.9658 21.3227C20.0059 21.2978 20.046 21.2715 20.088 21.2452C20.1097 21.2314 20.1314 21.2156 20.1511 21.2018C20.1911 21.1743 20.2332 21.146 20.2713 21.1171C20.293 21.1013 20.3127 21.0862 20.3317 21.0724C20.3521 21.0567 20.3718 21.0429 20.3902 21.0278C20.4106 21.014 20.4303 20.9969 20.4487 20.9811C20.4644 20.9686 20.4795 20.9562 20.4933 20.9424C20.5012 20.9378 20.5104 20.9318 20.5163 20.9253C20.5334 20.9128 20.5485 20.899 20.5643 20.8852C20.603 20.851 20.6418 20.8175 20.6799 20.7814C20.697 20.7676 20.7121 20.7538 20.7278 20.7367C20.7495 20.7164 20.7712 20.6934 20.7942 20.6737L20.8001 20.6658C20.8172 20.65 20.8323 20.6336 20.8494 20.6178L20.8527 20.6132C20.8632 20.6008 20.8757 20.5902 20.8868 20.5778C20.9223 20.541 20.9565 20.5048 20.99 20.4681C21.0038 20.4497 21.0208 20.4313 21.0366 20.4155C21.0412 20.4096 21.0458 20.403 21.0504 20.3971C21.08 20.3649 21.1075 20.3308 21.1351 20.2953C21.1509 20.2769 21.166 20.2565 21.1818 20.2368C21.2127 20.1981 21.2435 20.158 21.2731 20.1166C21.2882 20.0949 21.3027 20.0752 21.3178 20.0549C21.3316 20.0345 21.3454 20.0135 21.3591 19.9918C21.3743 19.9734 21.3867 19.955 21.3992 19.9346L21.4255 19.8946C21.4439 19.867 21.4597 19.8407 21.4748 19.8144C21.4932 19.7881 21.507 19.7619 21.5227 19.7356C21.524 19.7343 21.524 19.7343 21.524 19.7323C21.5444 19.7001 21.5628 19.6673 21.5812 19.6351C21.5996 19.6009 21.618 19.5674 21.6351 19.5346C21.6705 19.4649 21.7047 19.394 21.7389 19.323C21.7494 19.2981 21.7664 19.258 21.7776 19.2337C21.7855 19.2166 21.7927 19.1995 21.8006 19.1811C21.821 19.1332 21.8394 19.0852 21.8578 19.0373L21.8591 19.034C21.8807 18.9736 21.9037 18.9138 21.9221 18.852C21.9425 18.7916 21.9622 18.7298 21.9793 18.6681C21.9852 18.6431 21.9918 18.6201 21.9996 18.5952C22.0075 18.5689 22.0134 18.5439 22.018 18.5196C22.0259 18.4993 22.0305 18.4763 22.0351 18.4546C22.041 18.427 22.0476 18.3988 22.0535 18.3698C22.0581 18.3495 22.0627 18.3298 22.066 18.3114C22.0693 18.2956 22.0706 18.2805 22.0752 18.2647C22.0752 18.2634 22.0752 18.2634 22.0739 18.2601C22.0772 18.2588 22.0772 18.2555 22.0772 18.2509C22.0831 18.2201 22.0877 18.1892 22.0942 18.155C22.0942 18.1518 22.0956 18.1472 22.0956 18.1412C22.1015 18.1071 22.1061 18.0736 22.1113 18.0407C22.1146 18.0177 22.1192 17.9928 22.1205 17.9665C22.1251 17.9415 22.1264 17.9185 22.1297 17.8923C22.133 17.8673 22.1343 17.8443 22.1376 17.82C22.1376 17.7996 22.1409 17.7799 22.1409 17.7596C22.1422 17.7491 22.1422 17.7392 22.1442 17.73C22.1455 17.7096 22.1475 17.6912 22.1488 17.6715C22.1488 17.6361 22.1521 17.6039 22.1521 17.5677C22.1534 17.529 22.1553 17.4889 22.1553 17.4502V17.3313C22.1593 17.305 22.158 17.2741 22.158 17.2432Z" fill="url(#paint0_linear_26_110845)"/>
<path d="M22.1615 17.3386V17.4575C22.1615 17.4969 22.1602 17.5357 22.1582 17.5751C22.1582 17.6099 22.1562 17.6441 22.1549 17.6789C22.1536 17.6986 22.1529 17.7183 22.1503 17.738C22.149 17.7466 22.149 17.7564 22.1483 17.7663C22.147 17.7873 22.1451 17.8063 22.1437 17.8274C22.1418 17.851 22.1391 17.8753 22.1359 17.9003C22.1339 17.9252 22.1313 17.9495 22.1273 17.9745C22.1253 17.9995 22.1221 18.0244 22.1188 18.0487C22.1142 18.0816 22.1089 18.1151 22.1024 18.1492C22.1037 18.1545 22.101 18.1591 22.101 18.1637C22.0958 18.1965 22.0899 18.2281 22.0833 18.2596C22.0833 18.2629 22.0833 18.2675 22.0813 18.2681C22.0826 18.2701 22.0826 18.2714 22.0826 18.2727C22.078 18.2879 22.0761 18.3043 22.0728 18.3187C22.0695 18.3384 22.0649 18.3581 22.061 18.3785C22.0544 18.4068 22.0491 18.435 22.0426 18.4626C22.038 18.4843 22.0327 18.5073 22.0261 18.5283C22.0209 18.5533 22.0143 18.5782 22.0078 18.6032C21.9999 18.6281 21.9933 18.6524 21.9867 18.6761C21.969 18.7385 21.9499 18.7989 21.9302 18.86C21.9105 18.9211 21.8889 18.9822 21.8672 19.042L21.8652 19.0453C21.8468 19.0932 21.8284 19.1412 21.8087 19.1878C21.8008 19.2062 21.7936 19.224 21.7857 19.2411C21.7745 19.2654 21.7575 19.3054 21.7463 19.3304C21.7128 19.4013 21.6786 19.4723 21.6425 19.5419C21.6248 19.5748 21.6064 19.6083 21.588 19.6424C21.5696 19.6753 21.5512 19.7081 21.5315 19.7403C21.5315 19.7416 21.5315 19.7416 21.5302 19.7423C21.5151 19.7686 21.5 19.7955 21.4822 19.8205C21.4658 19.8474 21.4507 19.8737 21.4329 19.9013L21.406 19.9413C21.3942 19.961 21.3811 19.9794 21.3666 19.9991C21.3521 20.0208 21.3384 20.0418 21.3239 20.0622C21.3088 20.0819 21.2943 20.1023 21.2792 20.1233C21.2497 20.1647 21.2194 20.2048 21.1886 20.2442C21.1721 20.2639 21.157 20.2842 21.1419 20.302C21.115 20.3381 21.0861 20.3716 21.0572 20.4045C21.0526 20.411 21.0473 20.4163 21.0427 20.4229C21.0276 20.4393 21.0112 20.4577 20.9961 20.4754C20.9632 20.5122 20.9284 20.5483 20.8936 20.5858C20.8824 20.5976 20.8706 20.6094 20.8588 20.6219L20.8568 20.6265C20.8391 20.6416 20.824 20.6593 20.8076 20.6745L20.801 20.6823C20.778 20.7034 20.7563 20.725 20.7346 20.7454C20.7195 20.7618 20.7031 20.7756 20.6867 20.7901C20.6486 20.8262 20.6092 20.8597 20.5698 20.8939C20.5546 20.9083 20.5395 20.9208 20.5231 20.9339C20.5165 20.9405 20.508 20.9458 20.5001 20.9517C20.4857 20.9648 20.4706 20.9766 20.4541 20.9898C20.4357 21.0049 20.416 21.0213 20.3963 21.0358C20.3766 21.0509 20.3569 21.066 20.3372 21.0817C20.3175 21.0962 20.2978 21.1113 20.2774 21.1264C20.238 21.1547 20.1966 21.1829 20.1565 21.2112C20.1355 21.2256 20.1152 21.2394 20.0922 21.2539C20.0521 21.2801 20.0114 21.3064 19.97 21.3314C19.9273 21.3563 19.8852 21.3826 19.8412 21.4063C19.8379 21.4096 19.8327 21.4109 19.8294 21.4142C19.8077 21.426 19.7867 21.4371 19.7663 21.4477C19.7453 21.4595 19.7263 21.4693 19.7052 21.4812H19.7039C19.6921 21.4864 19.6809 21.4943 19.6704 21.4996C19.6507 21.5081 19.6304 21.5179 19.6106 21.5291C19.5896 21.5377 19.5706 21.5488 19.5496 21.5587C19.5443 21.5606 19.5377 21.5639 19.5318 21.5666C19.5305 21.5679 19.5285 21.5685 19.5266 21.5698C19.52 21.5718 19.5134 21.5751 19.5069 21.5797C19.5049 21.5797 19.5036 21.581 19.5016 21.581C19.4766 21.5928 19.4517 21.604 19.4274 21.6145C19.4077 21.6244 19.3873 21.6329 19.3676 21.6408C19.3663 21.6408 19.3643 21.6428 19.363 21.6428C19.3433 21.6493 19.3262 21.6572 19.3085 21.6644C19.275 21.6789 19.2395 21.6914 19.204 21.7058C19.1955 21.7091 19.1863 21.7137 19.1777 21.7157C19.1758 21.717 19.1731 21.7176 19.1699 21.7176C19.1429 21.7275 19.1153 21.7387 19.0884 21.7479C19.0601 21.7577 19.0306 21.7676 19.001 21.7774C19.001 21.7774 18.9991 21.7787 18.9977 21.7787C18.9399 21.7971 18.8821 21.8155 18.8243 21.8313C18.8223 21.8326 18.8197 21.8326 18.8191 21.8333C18.7599 21.8484 18.7034 21.8648 18.645 21.8779C18.5852 21.893 18.5241 21.9049 18.463 21.9174C18.4229 21.9259 18.3802 21.9338 18.3388 21.9403C18.3027 21.9469 18.2666 21.9522 18.2298 21.9581C18.2055 21.9627 18.1799 21.9647 18.1556 21.9693C18.1391 21.9706 18.1253 21.9725 18.1089 21.9738C18.1043 21.9738 18.101 21.9752 18.0978 21.9758C18.0813 21.9771 18.0649 21.9791 18.0498 21.9804C18.0347 21.9824 18.0196 21.9837 18.0038 21.985C17.9769 21.9883 17.9493 21.9896 17.921 21.9916C17.9066 21.9929 17.8928 21.9949 17.8783 21.9949C17.8586 21.9962 17.8402 21.9982 17.8192 21.9995C17.7962 21.9995 17.7745 22.0008 17.7509 22.0028C17.7463 22.0014 17.7424 22.0014 17.7378 22.0014C17.7194 22.0014 17.701 22.0034 17.6813 22.0034H17.6583C17.6215 22.0047 17.584 22.0047 17.5479 22.0047L14.2423 21.9798C13.6169 21.9752 13.0329 21.8044 12.529 21.5081C12.3832 21.4207 12.2433 21.3248 12.1125 21.2204C11.7966 20.9655 11.5272 20.6567 11.3183 20.3072C11.317 20.3059 11.317 20.3059 11.3163 20.3053L11.2434 20.1745C11.2401 20.1699 11.2388 20.166 11.2355 20.1627L10.9859 19.7213L10.9557 19.6681L9.68192 17.422L9.65039 17.3688V17.3675L10.9899 15.088L11.0201 15.1438L11.675 16.2967L12.2938 17.3885L13.2549 19.0808C13.2549 19.0827 13.2562 19.0854 13.2569 19.0854L13.2904 19.1445C13.4901 19.4716 13.8494 19.6891 14.2594 19.6924L17.898 19.7186C19.1042 19.7186 20.1454 18.8003 20.2196 17.5935C20.2209 17.5751 20.2216 17.5567 20.2229 17.539C20.2242 17.5087 20.2249 17.4779 20.2249 17.4477C20.2328 16.4682 19.7072 15.6102 18.9196 15.1484L18.9209 15.1471L19.1758 14.7109C19.1777 14.7063 19.1823 14.7024 19.1843 14.6965L19.2605 14.5677C19.2592 14.5664 19.2605 14.5664 19.2605 14.5657C19.4589 14.2103 19.5916 13.8234 19.654 13.4227L19.6619 13.4043C20.418 13.6552 21.1189 14.4212 21.5144 15.0814C21.5177 15.0847 21.519 15.0893 21.521 15.0926L21.5624 15.1668C21.567 15.1721 21.5676 15.178 21.5709 15.1819C21.5972 15.2299 21.6241 15.2778 21.6484 15.3258C21.6504 15.3278 21.6517 15.3304 21.6517 15.3324C21.6629 15.3521 21.6727 15.3718 21.6819 15.3921C21.6852 15.4 21.6898 15.4066 21.6931 15.4151C21.6944 15.4184 21.6977 15.4217 21.6983 15.425C21.7095 15.4467 21.7194 15.4677 21.7286 15.4881C21.7299 15.4894 21.7299 15.4894 21.7299 15.4913C21.7318 15.4933 21.7318 15.4966 21.7345 15.4999C21.7463 15.5248 21.7575 15.5498 21.7693 15.5761C21.7693 15.5781 21.7693 15.5794 21.7713 15.5807C21.7831 15.6102 21.7962 15.6385 21.8081 15.6681C21.8159 15.6864 21.8232 15.7048 21.831 15.7226C21.8363 15.7377 21.8429 15.7528 21.8488 15.7686C21.8567 15.7883 21.8639 15.8099 21.8731 15.831C21.881 15.852 21.8875 15.8724 21.8948 15.8934C21.8961 15.8934 21.8961 15.8947 21.8961 15.8947C21.9112 15.9374 21.9256 15.9788 21.9388 16.0221C21.9467 16.0432 21.9532 16.0648 21.9598 16.0865C21.9775 16.143 21.9946 16.2008 22.0091 16.2599C22.0176 16.2869 22.0242 16.3164 22.0307 16.346C22.0452 16.4038 22.059 16.4629 22.0702 16.5214C22.0846 16.5877 22.0964 16.6554 22.1063 16.7231C22.1142 16.771 22.1207 16.819 22.1273 16.8669C22.1306 16.8919 22.1326 16.9182 22.1359 16.9445C22.1378 16.9688 22.1391 16.9937 22.1437 17.0174C22.1457 17.0423 22.147 17.0673 22.149 17.0923C22.1503 17.1087 22.151 17.1284 22.1536 17.1468C22.1536 17.1599 22.1549 17.1731 22.1549 17.1882C22.1569 17.2046 22.1569 17.223 22.1582 17.2394V17.2506C22.1595 17.2755 22.1602 17.3071 22.1615 17.3386Z" fill="url(#paint1_linear_26_110845)"/>
<path d="M14.9418 12.8769V12.8789L13.6155 12.8677L12.3601 12.8578L10.4124 12.8434H10.3414C10.3204 12.8434 10.3013 12.8447 10.2803 12.8467C10.2659 12.848 10.2534 12.8486 10.2389 12.8513L10.2192 12.8546C10.1923 12.8578 10.1647 12.8624 10.1378 12.8677C10.0911 12.8762 10.0438 12.8894 9.99851 12.9045C9.98405 12.9097 9.96894 12.9156 9.95515 12.9209C9.95186 12.9222 9.94727 12.9229 9.94398 12.9255C9.89143 12.9452 9.83296 12.9735 9.79026 13.0004C9.78369 13.0037 9.77844 13.007 9.77252 13.0116C9.77252 13.0129 9.77121 13.0129 9.77121 13.0129C9.72785 13.0392 9.68712 13.0687 9.64837 13.1002C9.62997 13.1147 9.61224 13.1298 9.59516 13.1462C9.57873 13.1613 9.56165 13.1778 9.54523 13.1942C9.48414 13.2586 9.42895 13.3302 9.38297 13.4097L7.55016 16.5307C6.95958 17.5358 7.18754 18.8398 8.10131 19.5361C8.13942 19.5657 8.17949 19.5926 8.22022 19.6202C8.26029 19.6471 8.30168 19.6728 8.34438 19.6977C9.18786 20.1937 10.1949 20.1674 10.9885 19.7174L11.2381 20.1589C11.2414 20.1622 11.2427 20.1668 11.246 20.1707L11.3189 20.3014C11.3202 20.3027 11.3202 20.3027 11.3209 20.3034C11.5298 20.6535 11.7991 20.9616 12.1151 21.2165L12.1263 21.2316C11.5311 21.7611 10.5168 21.9858 9.74822 21.9969H9.64902C9.64377 21.9969 9.63917 21.9956 9.6326 21.9956C9.57808 21.9956 9.52355 21.9937 9.46837 21.991C9.4664 21.991 9.46377 21.991 9.46311 21.9897C9.44012 21.9897 9.41844 21.9877 9.39545 21.9864C9.38757 21.9864 9.37903 21.9851 9.37049 21.9851C9.3672 21.9838 9.3626 21.9838 9.35866 21.9831C9.33304 21.9766 9.18983 21.9687 9.18852 21.9687C9.15699 21.9654 9.12546 21.9608 9.09458 21.9575C9.07356 21.9556 9.05451 21.9523 9.0348 21.949C9.01838 21.9477 9.00327 21.9444 8.98816 21.9424C8.96517 21.9391 8.94217 21.9359 8.9205 21.9313C8.89948 21.928 8.87714 21.9234 8.85612 21.9201H8.8548C8.81145 21.9115 8.76743 21.9023 8.72276 21.8932C8.70108 21.8886 8.67941 21.8846 8.65707 21.8787C8.59926 21.8656 8.54014 21.8518 8.48299 21.8353C8.45474 21.8275 8.42518 21.8189 8.39562 21.811C8.33912 21.7933 8.28197 21.7762 8.22547 21.7565C8.16109 21.7355 8.09606 21.7118 8.03234 21.6869C7.98635 21.6705 7.94168 21.6521 7.89701 21.6324C7.87402 21.6225 7.84906 21.6113 7.82606 21.6021C7.80307 21.591 7.78008 21.5811 7.7584 21.5706C7.73541 21.5607 7.71373 21.5509 7.69205 21.5391C7.67431 21.5312 7.65855 21.5226 7.64213 21.5154C7.62899 21.5089 7.61716 21.5043 7.60534 21.497C7.59023 21.4885 7.57381 21.4806 7.55935 21.474L7.55081 21.4688C7.52257 21.4543 7.49432 21.4392 7.46673 21.4241C7.43191 21.4057 7.39906 21.3847 7.36425 21.365C7.32943 21.344 7.29658 21.3249 7.26308 21.3039C7.23352 21.2862 7.20527 21.2671 7.17571 21.2481L7.12644 21.2152C7.1179 21.21 7.11002 21.2054 7.10279 21.1988C7.08506 21.1876 7.06995 21.1758 7.05287 21.164C7.03316 21.1508 7.01279 21.137 6.99309 21.1213C6.97206 21.1062 6.95301 21.0917 6.93331 21.0766C6.91491 21.0615 6.89389 21.047 6.87418 21.0319C6.84725 21.0109 6.82097 20.9905 6.7947 20.9675C6.7901 20.9656 6.78616 20.9629 6.78353 20.959C6.75725 20.9393 6.73229 20.9176 6.70864 20.8966C6.70667 20.8946 6.70404 20.8933 6.70207 20.89C6.70076 20.8913 6.7001 20.89 6.69879 20.8881C6.68696 20.8782 6.67514 20.8684 6.66397 20.8578C6.64755 20.8447 6.63244 20.8316 6.61733 20.8178C6.59631 20.7981 6.57463 20.7797 6.55492 20.76C6.53718 20.7435 6.52142 20.7297 6.50565 20.7133C6.48726 20.6956 6.46886 20.6785 6.45113 20.6601C6.43142 20.6417 6.41434 20.6233 6.3966 20.6056C6.35062 20.5596 6.30726 20.513 6.26456 20.4637C6.22186 20.417 6.18047 20.3678 6.13909 20.3165C6.13777 20.3165 6.13777 20.3152 6.13712 20.3146C6.10558 20.2752 6.07405 20.2351 6.04252 20.195C6.02741 20.1733 6.0123 20.1523 5.99653 20.1326C5.98011 20.1109 5.965 20.0899 5.95055 20.0682C5.90457 20.0052 5.86121 19.9395 5.81851 19.8731C5.79749 19.8429 5.77844 19.8087 5.75939 19.7759C5.73836 19.7444 5.71997 19.7115 5.70026 19.678C5.70026 19.678 5.70026 19.678 5.69895 19.676C5.6845 19.6498 5.6707 19.6235 5.65559 19.5952C5.64048 19.5683 5.62537 19.5407 5.61092 19.5125C5.61092 19.5111 5.60961 19.5105 5.60895 19.5079C5.60435 19.498 5.5991 19.4868 5.59384 19.4776C5.59253 19.4757 5.59056 19.4724 5.58924 19.4698C5.57808 19.4487 5.56822 19.4284 5.55771 19.4067C5.54654 19.3837 5.53603 19.3607 5.52618 19.3377C5.51501 19.3147 5.5045 19.2917 5.49465 19.2681C5.47362 19.2221 5.45523 19.1768 5.43684 19.1288C5.42698 19.1058 5.41713 19.0828 5.4099 19.0592C5.39217 19.0178 5.37706 18.9777 5.36326 18.935C5.36129 18.9285 5.35801 18.9219 5.35669 18.914C5.34815 18.891 5.34027 18.868 5.33173 18.8463C5.31728 18.7997 5.30348 18.7524 5.28903 18.7038C5.28377 18.6874 5.27918 18.6709 5.27392 18.6558C5.27392 18.6526 5.27261 18.6526 5.27261 18.6506C5.26604 18.6289 5.26078 18.6059 5.25487 18.5849L5.2529 18.575C5.24502 18.5448 5.23779 18.5153 5.22991 18.4844C5.22465 18.4647 5.22005 18.443 5.21545 18.4233C5.20363 18.3707 5.19246 18.3195 5.18392 18.2683C5.17932 18.2485 5.17604 18.2282 5.17275 18.2085C5.17078 18.1986 5.16816 18.1888 5.1675 18.1789C5.16421 18.1605 5.16093 18.1408 5.15765 18.1211C5.15436 18.0975 5.15108 18.0718 5.14779 18.0482C5.14319 18.0232 5.13991 17.9989 5.13662 17.9753C5.13465 17.9503 5.13137 17.9253 5.12874 17.901C5.12349 17.8518 5.11889 17.8018 5.11429 17.7526C5.11232 17.7276 5.111 17.7013 5.10969 17.6764C5.10772 17.6271 5.10509 17.5791 5.10312 17.5305C5.10181 17.4813 5.10181 17.4326 5.10181 17.3821C5.10312 17.3775 5.10312 17.3722 5.10312 17.367C5.10312 17.344 5.10443 17.3203 5.10443 17.296C5.10443 17.273 5.10575 17.2494 5.10641 17.2264C5.10641 17.2264 5.10641 17.2264 5.10641 17.2251C5.10772 17.2132 5.10772 17.2001 5.10838 17.187C5.10969 17.164 5.11035 17.1423 5.11166 17.1206C5.11297 17.0976 5.11495 17.0759 5.11626 17.0529C5.11757 17.0477 5.11823 17.0411 5.11823 17.0346C5.11954 17.0313 5.11823 17.0293 5.11954 17.028C5.11954 17.0201 5.12086 17.0135 5.12086 17.0063C5.12217 17.0043 5.12217 17.0017 5.12217 16.9997C5.12414 16.9735 5.12743 16.9452 5.13005 16.9189C5.13203 16.8973 5.13465 16.8756 5.13794 16.8546C5.13794 16.8532 5.13794 16.85 5.13925 16.8493C5.14122 16.8309 5.14385 16.8099 5.14713 16.7915C5.15239 16.7547 5.1583 16.7173 5.16356 16.6811C5.16487 16.6713 5.16684 16.6614 5.16816 16.6516C5.16816 16.6496 5.16947 16.647 5.16947 16.645C5.17473 16.6154 5.17932 16.5872 5.18458 16.5576C5.18983 16.5281 5.1964 16.4985 5.20297 16.4696C5.20297 16.4676 5.20297 16.465 5.20429 16.4643C5.21611 16.4052 5.22925 16.3481 5.24436 16.2876C5.24567 16.2863 5.24567 16.2843 5.24567 16.2824C5.2621 16.2246 5.27589 16.1668 5.29363 16.1089C5.31136 16.0498 5.33042 15.9914 5.35012 15.9322C5.36458 15.8948 5.37903 15.8554 5.39414 15.816C5.40728 15.7825 5.4191 15.747 5.43355 15.7135C5.44341 15.6898 5.45195 15.6668 5.4618 15.6438C5.46837 15.6287 5.47494 15.6143 5.48019 15.5992C5.48216 15.5972 5.48348 15.5926 5.48479 15.5893C5.49136 15.5749 5.49793 15.5598 5.50581 15.546C5.51107 15.5315 5.51764 15.5177 5.52355 15.5046C5.53538 15.4796 5.5472 15.4547 5.55968 15.4284C5.56625 15.4152 5.57151 15.4034 5.57939 15.3916C5.58793 15.3739 5.59581 15.3555 5.60567 15.3384C5.61683 15.3187 5.62537 15.2983 5.63588 15.2786L5.64377 15.2668C5.65231 15.249 5.66019 15.2333 5.67004 15.2168C5.67202 15.2149 5.67333 15.2103 5.6753 15.207L5.68187 15.1958C5.69961 15.163 5.718 15.1328 5.73508 15.1012L7.4076 12.2515C7.72555 11.7122 8.16635 11.2904 8.67415 11.004C8.82262 10.9199 8.97502 10.8483 9.13268 10.7885C9.51107 10.6414 9.91311 10.5632 10.3204 10.5566C10.3217 10.5566 10.3217 10.5566 10.3217 10.5566L10.4721 10.558C10.4774 10.5566 10.4833 10.558 10.4873 10.558L10.9931 10.5612L11.0562 10.5626L13.6379 10.5809L14.9418 12.8769Z" fill="url(#paint2_linear_26_110845)"/>
<path d="M9.944 12.9258C9.89802 12.9442 9.85269 12.9659 9.80868 12.9915C9.80211 12.9948 9.79554 12.998 9.79028 13.0013C9.83298 12.9737 9.89145 12.9455 9.944 12.9258Z" fill="url(#paint3_linear_26_110845)"/>
<path d="M14.9417 12.8779L13.6371 15.1003L13.6351 15.1023L10.991 15.0826L9.65154 17.3621V17.3634L9.68307 17.4166L10.9568 19.6626L10.9871 19.7158C10.1935 20.1658 9.18643 20.1921 8.34295 19.6961C8.30025 19.6712 8.25886 19.6462 8.21879 19.6186C8.17872 19.5917 8.13799 19.5641 8.09988 19.5345C7.18545 18.8382 6.9575 17.5335 7.54873 16.5291L9.38154 13.4081C9.42752 13.3286 9.48271 13.2563 9.5438 13.1926C9.56022 13.1762 9.5773 13.1597 9.59373 13.1446C9.61146 13.1282 9.62854 13.1131 9.64694 13.0987C9.68635 13.0671 9.72642 13.0376 9.76978 13.0113C9.76978 13.0113 9.7711 13.0113 9.7711 13.01C9.77635 13.0054 9.78226 13.0021 9.78883 12.9988C9.83153 12.9719 9.89 12.943 9.94255 12.9239C9.94584 12.9219 9.95044 12.9206 9.95372 12.9193C9.96817 12.9141 9.98328 12.9081 9.99708 12.9029C10.0431 12.8878 10.0897 12.8746 10.1363 12.8661C10.1633 12.8608 10.1909 12.8562 10.2178 12.853C10.2375 12.8497 10.2579 12.8477 10.2789 12.8451C10.2999 12.8431 10.319 12.8418 10.34 12.8418H10.4109L12.3587 12.8562L13.6141 12.8661L14.9417 12.8779Z" fill="url(#paint4_linear_26_110845)"/>
<path d="M19.6986 12.9122C19.6967 13.0823 19.6822 13.2511 19.6559 13.418C19.5935 13.8187 19.4608 14.2056 19.2624 14.561C19.2624 14.5623 19.2611 14.5623 19.2624 14.563L19.1862 14.6918C19.1843 14.697 19.1797 14.7016 19.1777 14.7062L18.9228 15.1424L18.9215 15.1437L18.89 15.1969L17.5834 17.4232L14.9392 17.4035L15.6106 16.2592L16.2459 15.1772L17.2319 13.4981L17.2352 13.4948L17.2687 13.4357C17.4507 13.1 17.4618 12.6796 17.2575 12.3229L15.4727 9.17558C15.4661 9.16441 15.4608 9.15456 15.453 9.14405C14.869 8.14815 13.632 7.70802 12.5789 8.15538C12.5487 8.16852 12.5178 8.18231 12.4876 8.19677C12.4791 8.20136 12.4692 8.20531 12.4607 8.2099C12.4554 8.21319 12.4495 8.21516 12.4443 8.21844C12.4062 8.23684 12.3694 8.25786 12.3319 8.27822C11.9529 8.49369 11.6467 8.788 11.4241 9.1296C11.1462 9.55462 10.9971 10.0526 10.9911 10.5584L10.4853 10.5551C10.4807 10.5551 10.4755 10.5538 10.4702 10.5551L10.3211 10.5538C10.3211 10.5538 10.3211 10.5538 10.3198 10.5538C9.91247 10.5604 9.50978 10.6385 9.13205 10.7857L9.11234 10.787C8.95205 10.0066 9.26475 9.01595 9.63854 8.34392L9.64511 8.33406L9.68846 8.25983L9.68715 8.25852L9.69569 8.24538C9.72394 8.19874 9.75218 8.15078 9.78306 8.1048L9.82247 8.0437C9.82773 8.03582 9.83233 8.02925 9.83758 8.02268C9.83955 8.0194 9.84087 8.0148 9.84415 8.01151C9.85729 7.99312 9.88423 7.95239 9.88423 7.95239L9.89079 7.94254C9.9059 7.92086 9.92233 7.89787 9.94006 7.87619L9.94203 7.87159C9.96043 7.84663 9.97882 7.82166 9.99853 7.79539C10.0097 7.78028 10.0228 7.76385 10.0353 7.74874C10.0452 7.73561 10.0537 7.72378 10.0649 7.71064C10.0793 7.69422 10.0931 7.67583 10.1076 7.6594C10.1207 7.64167 10.1358 7.6259 10.149 7.60816C10.149 7.60816 10.1949 7.55824 10.2396 7.507C10.2541 7.49057 10.2692 7.47349 10.2843 7.45707C10.3257 7.41371 10.3671 7.37101 10.4098 7.32831C10.4314 7.30729 10.4531 7.28561 10.4741 7.26525C10.5175 7.22386 10.5602 7.18379 10.6062 7.14438C10.6574 7.09971 10.71 7.05503 10.7632 7.01233C10.8 6.98212 10.8394 6.95255 10.8775 6.92299C10.8972 6.90788 10.9189 6.89146 10.9406 6.87701C10.9603 6.86256 10.98 6.84745 11.0003 6.83431C11.0214 6.8192 11.0404 6.80409 11.0614 6.79095C11.0765 6.7811 11.0916 6.77124 11.1074 6.76073C11.1192 6.75285 11.1291 6.74562 11.1409 6.73906C11.156 6.7292 11.1711 6.71935 11.1843 6.70949C11.1876 6.70818 11.1908 6.70621 11.1941 6.70424C11.2204 6.68782 11.2473 6.67139 11.2736 6.65497C11.3209 6.62541 11.3761 6.59585 11.3761 6.59585C11.4096 6.57614 11.4444 6.55643 11.4799 6.53804C11.5101 6.52293 11.5423 6.50519 11.5712 6.49008C11.5896 6.48023 11.606 6.47234 11.6244 6.46512C11.633 6.45986 11.6408 6.45658 11.6494 6.45198C11.6691 6.44344 11.6862 6.43359 11.7039 6.4257C11.7269 6.41454 11.7499 6.40468 11.7729 6.39548C11.7959 6.38432 11.8175 6.37446 11.8405 6.36527C11.8635 6.35673 11.8865 6.34753 11.9095 6.33702C11.9437 6.3206 12.0127 6.29563 12.0186 6.29366C12.0488 6.28249 12.0797 6.27198 12.1099 6.26213C12.1118 6.26016 12.1513 6.24702 12.1664 6.24111C12.1848 6.23585 12.2032 6.22928 12.2229 6.22271C12.2498 6.21286 12.2774 6.20498 12.3056 6.19644C12.3273 6.18987 12.349 6.1833 12.37 6.17804C12.3937 6.17016 12.4193 6.16359 12.4443 6.15702C12.4692 6.15045 12.4942 6.14388 12.5185 6.136C12.5809 6.12089 12.644 6.10775 12.7057 6.0933C12.7688 6.08016 12.8318 6.06965 12.8956 6.05848C12.8969 6.05717 12.8988 6.05717 12.9002 6.05848C12.9501 6.04994 13.0013 6.04206 13.0506 6.03549C13.0769 6.03221 13.1031 6.03024 13.1288 6.02695C13.155 6.02367 13.18 6.02038 13.2063 6.01907C13.2838 6.01119 13.3633 6.00724 13.4408 6.00265C13.4789 6.00067 13.517 5.99936 13.5551 5.99936C13.5932 5.99936 13.6293 5.99805 13.6688 5.99936C13.6688 5.99805 13.6701 5.99805 13.6707 5.99805C13.7009 5.99805 13.7318 5.99936 13.762 6.00002C13.7936 6.00133 13.8251 6.00199 13.8566 6.0033C13.8685 6.0033 13.8829 6.00462 13.8961 6.00527C13.898 6.00396 13.9013 6.00527 13.9046 6.00659C13.9282 6.0079 13.9512 6.00856 13.9755 6.01119C14.0005 6.01316 14.0268 6.01447 14.0504 6.01775C14.0767 6.01973 14.1004 6.02235 14.1266 6.02432C14.1766 6.02958 14.2271 6.03615 14.2758 6.04272C14.3007 6.04732 14.3257 6.0506 14.35 6.05454C14.3933 6.06111 14.4374 6.06768 14.4807 6.07753C14.4886 6.07753 14.4958 6.07951 14.5024 6.08082C14.526 6.08607 14.549 6.08936 14.572 6.09527C14.6213 6.10513 14.6699 6.11695 14.7179 6.12812C14.7343 6.1314 14.7507 6.136 14.7678 6.13994C14.7678 6.14126 14.7698 6.13994 14.7724 6.14126C14.7941 6.14783 14.8171 6.15308 14.8387 6.15965L14.8473 6.16096C14.8768 6.17082 14.9071 6.1787 14.9353 6.18724C14.957 6.1925 14.9767 6.19907 14.9977 6.20695C15.0476 6.22206 15.0982 6.23848 15.1468 6.25622C15.1665 6.26279 15.1849 6.26936 15.2046 6.27724C15.2125 6.28052 15.223 6.28249 15.2309 6.28709C15.2493 6.29366 15.2677 6.30154 15.2874 6.30811C15.3091 6.31797 15.3321 6.32651 15.3564 6.33439C15.3794 6.34556 15.4024 6.3541 15.4241 6.36395C15.4484 6.37381 15.47 6.38366 15.493 6.39351C15.5377 6.41322 15.5824 6.4349 15.627 6.45658C15.65 6.46775 15.673 6.47826 15.696 6.49008C15.7394 6.51176 15.7821 6.53344 15.8254 6.55643C15.8688 6.58074 15.9115 6.60439 15.9548 6.63066L15.966 6.63855C15.9877 6.64971 16.0074 6.66285 16.0284 6.67533C16.0481 6.6865 16.0678 6.69898 16.0875 6.71212C16.0875 6.71212 16.0875 6.71212 16.0889 6.71212C16.0987 6.71869 16.1105 6.72526 16.1217 6.73314L16.1775 6.76927C16.1959 6.78241 16.2143 6.79424 16.2334 6.80738C16.2399 6.81066 16.2432 6.81526 16.2498 6.81854L16.2551 6.82314C16.2603 6.82643 16.2662 6.83102 16.2715 6.83497L16.2767 6.83825C16.2997 6.85467 16.3214 6.86978 16.3444 6.88621C16.3608 6.89803 16.3779 6.91117 16.3956 6.92431L16.4002 6.92759C16.4147 6.93942 16.4305 6.95124 16.4462 6.96372C16.4758 6.98671 16.504 7.01036 16.5336 7.03336C16.5415 7.03861 16.55 7.04452 16.5566 7.05175L16.5618 7.05503C16.5848 7.07343 16.6078 7.09314 16.6295 7.11153C16.6525 7.13255 16.6742 7.1516 16.6972 7.17262C16.6985 7.17262 16.7005 7.17394 16.7005 7.17591C16.7464 7.21598 16.7898 7.25671 16.8332 7.29875C16.8345 7.30072 16.8351 7.30072 16.8364 7.30335C16.8798 7.34474 16.9225 7.38744 16.9626 7.43079C17.0053 7.47547 17.0467 7.52145 17.0887 7.5694C17.1156 7.59962 17.1419 7.63247 17.1695 7.664C17.1925 7.69225 17.2161 7.72312 17.2391 7.75137C17.2536 7.77108 17.2707 7.79079 17.2851 7.8105C17.295 7.82363 17.3035 7.83546 17.3134 7.8486C17.3153 7.85188 17.318 7.85517 17.3199 7.85714C17.3285 7.87028 17.3383 7.88341 17.3482 7.89655C17.358 7.90838 17.3659 7.9202 17.3745 7.93268C17.3909 7.95699 17.406 7.97932 17.4224 8.00232C17.4303 8.01348 17.4375 8.02531 17.4461 8.03713C17.4572 8.05356 17.4677 8.06998 17.4776 8.08706C17.4907 8.10545 17.5026 8.12516 17.5144 8.14355C17.5163 8.14815 17.5196 8.15144 17.5209 8.15538C17.5321 8.17049 17.542 8.1856 17.5512 8.20333C17.5531 8.20531 17.5545 8.2099 17.5564 8.21187C17.5577 8.21516 17.561 8.21976 17.563 8.2237C17.5814 8.25392 17.5998 8.28611 17.6175 8.31764L19.2487 11.1923C19.5594 11.7376 19.7026 12.3288 19.6986 12.9122Z" fill="url(#paint5_linear_26_110845)"/>
<path d="M20.2267 17.4417C20.2267 17.4719 20.2254 17.5028 20.2247 17.533C20.2234 17.5507 20.2228 17.5691 20.2215 17.5875C20.1472 18.7936 19.1067 19.7127 17.8999 19.7127L14.2612 19.6864C13.8513 19.6831 13.4919 19.465 13.2922 19.1385L13.2587 19.0794C13.2574 19.0794 13.2568 19.0774 13.2568 19.0748L12.2957 17.3826L11.6769 16.2908L11.0219 15.1379L10.9917 15.082L13.6358 15.1017L13.6345 15.1031L13.6647 15.1563L13.666 15.1576L13.6673 15.1609L14.9405 17.4023L17.5846 17.422L18.8912 15.1957L18.9227 15.1425C19.7091 15.6043 20.2346 16.4622 20.2267 17.4417Z" fill="url(#paint6_linear_26_110845)"/>
<path d="M17.2693 13.4341L17.2358 13.4932L17.2325 13.4965L16.2465 15.1756L15.6113 16.2575L14.9399 17.4019L13.6668 15.1605L13.6654 15.1572L13.6641 15.1559L13.6339 15.1027L13.6372 15.0994L14.9418 12.877V12.8751L13.6372 10.5765L11.0555 10.5581L10.9924 10.5568C10.9977 10.0509 11.1475 9.553 11.4253 9.12797C11.6474 8.78703 11.9542 8.49273 12.3332 8.2766C12.37 8.25558 12.4074 8.23521 12.4455 8.21682C12.4508 8.21353 12.4567 8.21156 12.462 8.20828C12.4705 8.20368 12.4804 8.19974 12.4889 8.19514C12.5191 8.18069 12.55 8.16689 12.5802 8.15375C13.6333 7.70573 14.8696 8.14587 15.4542 9.14242C15.4621 9.15359 15.4674 9.16344 15.474 9.17395L17.2588 12.3213C17.4625 12.678 17.4513 13.0984 17.2693 13.4341Z" fill="url(#paint7_linear_26_110845)"/>
</g>
<defs>
<linearGradient id="paint0_linear_26_110845" x1="19.0447" y1="8.58789" x2="9.90558" y2="22.9822" gradientUnits="userSpaceOnUse">
<stop offset="0.031" stop-color="#D495FF"/>
<stop offset="0.321" stop-color="#A671FF"/>
<stop offset="0.7025" stop-color="#778BFF"/>
</linearGradient>
<linearGradient id="paint1_linear_26_110845" x1="10.5412" y1="15.9515" x2="21.5987" y2="19.0556" gradientUnits="userSpaceOnUse">
<stop stop-color="#717EFE"/>
<stop offset="0.9855" stop-color="#4F91FF"/>
</linearGradient>
<linearGradient id="paint2_linear_26_110845" x1="6.47681" y1="20.1877" x2="14.3451" y2="11.7958" gradientUnits="userSpaceOnUse">
<stop stop-color="#78CCFF"/>
<stop offset="0.9556" stop-color="#508CFD"/>
</linearGradient>
<linearGradient id="paint3_linear_26_110845" x1="9.81929" y1="12.9403" x2="9.91484" y2="12.9862" gradientUnits="userSpaceOnUse">
<stop offset="0.0224" stop-color="#5553FD"/>
<stop offset="0.5905" stop-color="#A9A6FD"/>
</linearGradient>
<linearGradient id="paint4_linear_26_110845" x1="8.95627" y1="19.8293" x2="13.2126" y2="10.2658" gradientUnits="userSpaceOnUse">
<stop offset="0.0042056" stop-color="white"/>
<stop offset="0.1697" stop-color="#E7EDFF"/>
<stop offset="0.5179" stop-color="#A9C1FE"/>
<stop offset="0.7193" stop-color="#82A5FE"/>
</linearGradient>
<linearGradient id="paint5_linear_26_110845" x1="12.0127" y1="5.40418" x2="16.9038" y2="17.8933" gradientUnits="userSpaceOnUse">
<stop offset="0.0173" stop-color="#D69BFD"/>
<stop offset="0.9727" stop-color="#7E5CF7"/>
</linearGradient>
<linearGradient id="paint6_linear_26_110845" x1="12.214" y1="15.5501" x2="21.593" y2="19.6532" gradientUnits="userSpaceOnUse">
<stop stop-color="#98A9F4"/>
<stop offset="0.7768" stop-color="white"/>
</linearGradient>
<linearGradient id="paint7_linear_26_110845" x1="14.6348" y1="17.4874" x2="13.931" y2="8.10988" gradientUnits="userSpaceOnUse">
<stop offset="0.0742" stop-color="#A187FE"/>
<stop offset="1" stop-color="white"/>
</linearGradient>
<clipPath id="clip0_26_110845">
<rect width="17.1614" height="16" fill="white" transform="translate(5 6)"/>
</clipPath>
</defs>
</svg>
