<svg width="512" height="429" viewBox="0 0 512 429" fill="none" xmlns="http://www.w3.org/2000/svg">
<path d="M444.812 118.732C447.384 118.351 449.541 117.403 451.109 116.319L449.919 116.337C452.825 118.114 455.918 119.81 458.734 121.624L459.83 121.676C462.029 120.763 464.024 119.703 465.927 118.631C467.831 117.561 469.687 116.448 471.297 115.249L469.965 115.271C472.885 117.241 475.625 119.277 478.473 121.278L479.596 121.335C487.725 118.456 495.838 115.568 503.957 112.671L510.853 110.209L510.109 109.44L502.56 109.92L502.915 110.732L510.472 110.304L509.738 109.535C501.579 112.393 493.51 115.315 485.406 118.22L478.523 120.695L479.666 120.749C476.835 118.74 473.941 116.763 471.22 114.714L469.883 114.738C468.188 115.872 466.519 116.992 464.655 118.054C462.803 119.108 460.789 120.065 458.807 121.056L459.897 121.112C456.824 119.414 454.031 117.582 451.038 115.844L449.861 115.872C448.438 116.896 446.558 117.572 444.442 118.181L444.812 118.732Z" fill="url(#paint0_linear_26_116937)"/>
<path d="M507.429 109.512L505.89 111.36L505.266 112.343L505.458 113.153L506.066 113.267L507.157 112.695L507.781 111.713L508.643 109.738L507.429 109.512Z" fill="url(#paint1_linear_26_116937)"/>
<path fill-rule="evenodd" clip-rule="evenodd" d="M369.155 90.2537L371.472 90.7888L380.083 82.7882L382.315 83.7681C382.6 88.1726 380.679 92.5373 377.256 95.6701L376.966 100.053L376.975 100.059L376.965 100.069L376.496 107.165C372.329 120.544 367.137 133.664 360.993 146.419L362.6 145.669C364.326 150.328 365.631 155.083 366.532 159.934C369.499 176.847 367.26 194.588 359.946 210.597L361.026 210.94L358.898 214.079L359.223 214.423L359.135 215.423L357.663 216.585L357.392 216.302L353.402 222.19C348.268 227.921 342.056 232.741 335.885 237.53L335.885 237.53L335.849 237.558C335.562 237.781 335.275 238.004 334.988 238.226L334.592 238.535L334.147 238.881L333.901 239.072C325.905 245.316 317.886 251.573 309.864 257.795L307.671 257.14C306.619 253.454 307.254 249.804 307.892 246.134C308.278 243.912 308.666 241.682 308.681 239.432L302.318 229.257C299.149 232.472 295.905 235.628 292.59 238.722L292.797 238.786C288.736 246.458 280.287 252.073 270.96 253.099C261.361 254.193 252.55 250.141 245.024 245.312C238.943 241.36 233.053 237.117 227.166 232.876L227.166 232.876L227.164 232.875C224.476 230.938 221.788 229.001 219.083 227.093C218.77 226.871 218.456 226.648 218.142 226.425L217.595 226.036C213.496 223.123 209.311 220.149 205.3 216.996C203.195 218.527 200.491 219.596 198.039 220.565C197.288 220.862 196.561 221.15 195.882 221.438C189.946 223.897 184.045 226.386 178.13 228.882L178.125 228.884L176.269 229.667L175.076 227.42C177.756 226.298 180.433 225.173 183.11 224.047C186.456 222.639 189.802 221.231 193.156 219.832L201.28 216.359L202.773 214.963C194.59 208.219 187.409 200.587 183.606 191.006L184.661 190.535L184.01 190.132L190.332 183.559C198.22 175.567 206.603 167.981 215.415 160.828C212.164 155.929 207.42 151.895 201.952 149.096L193.334 145.874L188.725 145.029L184.276 144.613L181.425 139.812L184.242 137L188.578 133.888C192.604 131.062 196.596 128.216 200.578 125.377L200.584 125.373L200.585 125.372C202.267 124.173 203.947 122.975 205.627 121.781C207.743 120.279 209.848 118.753 211.955 117.225C220.017 111.381 228.119 105.508 236.971 100.823C242.074 98.1317 247.464 95.8966 253.146 94.574C259.417 93.1289 265.834 93.0295 272.16 93.9658C278.878 94.9434 285.382 96.8118 291.798 98.773C297.284 100.449 302.727 102.599 306.575 106.546L304.482 108.218C300.227 103.886 294.049 102.035 288.126 100.32C281.057 98.263 273.881 96.2563 266.397 95.8786C254.696 95.2766 243.823 99.5831 234.103 105.314L220.135 114.623L203.915 126.113L189.471 136.426C193.832 136.082 198.181 136.936 202.021 138.826L200.444 140.925L186.165 139.484L186.054 138.997L184.078 140.579L185.587 142.259L193.445 143.338C203.36 145.583 212.084 151.352 217.526 159.129C218.514 158.34 219.507 157.557 220.506 156.779C218.343 151.518 215.086 146.666 210.987 142.463L213.08 140.796C217.202 145.027 220.453 149.837 222.729 155.063C223.872 154.189 225.022 153.321 226.179 152.46L224.993 152.684L220.726 140.421L223.402 139.907L227.491 151.489C229.269 150.179 231.062 148.887 232.868 147.611L231.112 147.966L227.568 137.766L230.266 137.249L233.657 147.056C239.198 143.168 244.873 139.437 250.669 135.869C272.754 122.267 296.612 111.065 321.617 102.641C333.957 98.4943 346.531 94.9806 359.319 92.2369L364.821 91.1275L365.897 90.1183L366.54 90.781L368.432 90.3994L368.603 90.2247L368.776 90.3301L369.155 90.2537ZM186.617 191.166C197.31 179.755 208.974 169.099 221.447 159.298L221.468 159.362L224.187 158.866C224.038 158.418 223.882 157.972 223.719 157.53C230.085 152.619 236.657 147.93 243.413 143.475C264.412 129.614 287.223 118.034 311.153 109.035C323.149 104.506 335.426 100.633 347.922 97.474C349.825 96.9907 351.735 96.5229 353.651 96.0715C358.134 102.005 364.671 106.387 372.346 108.404L373.287 106.014C372.762 105.877 372.242 105.728 371.727 105.567L373.004 104.226L373.351 104.474L374.631 104.233C373.278 108.913 371.617 113.553 369.961 118.13C367.817 124.085 365.468 129.926 362.991 135.74C357.795 147.494 351.852 158.993 345.129 170.107C331.877 192.048 315.653 212.611 296.875 231.034L289.714 237.824L290.078 238.199C286.587 244.614 279.527 249.231 271.808 250.484C262.687 251.982 254.172 248.044 247.02 243.46C241.057 239.687 235.368 235.574 229.679 231.462L229.679 231.461L229.675 231.459C227.384 229.802 225.092 228.145 222.782 226.511C222.117 226.041 221.451 225.571 220.784 225.101L220.777 225.096C216.207 221.875 211.626 218.644 207.253 215.205C207.859 214.478 208.334 213.666 208.63 212.746L205.979 211.964L204.706 213.155C203.813 212.419 202.931 211.672 202.062 210.913C195.588 205.233 189.94 198.792 186.617 191.166ZM304.531 226.99C308.908 228.772 310.957 233.355 311.346 237.57C311.6 240.353 311.113 243.124 310.628 245.888C310.123 248.77 309.618 251.643 309.957 254.513L321.395 245.594C323.515 243.936 325.651 242.292 327.787 240.648L327.788 240.647L327.789 240.646L327.791 240.645L327.792 240.644L327.793 240.643L327.794 240.642C332.997 236.637 338.203 232.63 343.197 228.413C349.05 223.441 354.478 217.891 357.88 211.271L356.831 210.937C358.92 206.502 360.68 201.89 361.977 197.197C366.546 180.876 366.063 163.452 360.418 147.605C359.158 150.192 357.858 152.764 356.519 155.321L358.699 154.331C363.836 165.456 364.538 177.985 360.809 189.72L358.225 188.941C361.717 177.941 361.044 166.108 356.321 155.699C352.308 163.337 347.949 170.832 343.263 178.158C334.46 191.869 324.504 204.969 313.51 217.314C317.498 220.596 320.039 225.07 320.502 229.988L317.826 230.507L311.673 219.36C310.689 220.445 309.697 221.525 308.697 222.599C314.515 227.255 317.734 234.061 317.322 241.176L314.575 241.029C314.948 234.775 312.109 228.592 306.891 224.523C306.109 225.349 305.322 226.172 304.531 226.99ZM375.3 101.817C375.208 102.163 375.115 102.509 375.02 102.855L374.928 102.374L374.833 102.307L375.3 101.817ZM373.154 93.6902L374.472 93.7728L374.189 94.3371L373.154 93.6902ZM372.736 97.6417L374.242 95.5628L375.492 96.8472L375.532 97.7324L373.676 96.5825L372.736 97.6417ZM375.104 98.9177L375.599 99.2197L375.562 98.4052L375.104 98.9177ZM365.613 102.978L371.262 95.183L365.088 102.685C365.262 102.784 365.437 102.882 365.613 102.978ZM369.131 93.4382L369.301 93.4488L365.965 97.5143L365.968 97.4766L365.454 97.1769L369.131 93.4382ZM360.608 98.426L358.304 96.0391L360.792 94.8901L360.801 94.8988L361.389 94.3469C359.757 94.6896 358.128 95.0452 356.503 95.413C357.549 96.7243 358.718 97.9427 359.99 99.0595L360.608 98.426ZM362.399 100.283L362.007 100.682C362.289 100.89 362.575 101.093 362.865 101.292L363.099 101.007L362.399 100.283ZM323.052 122.994C316.785 124.253 312.852 130.696 310.77 135.787L310.64 140.951L310.525 141.058L310.634 141.172L310.523 145.62L315.131 150.23C314.718 150.518 314.303 150.804 313.886 151.088L315.666 152.962C316.165 152.621 316.662 152.277 317.155 151.93C318.27 152.455 319.429 152.847 320.609 153.104C320.099 153.519 319.588 153.934 319.078 154.349L320.861 156.186C321.97 155.281 323.081 154.377 324.194 153.474C327.789 153.44 331.341 152.196 334.175 149.744C338.959 145.596 341.129 139.022 339.202 133.312C337.809 129.102 334.7 125.675 330.737 123.349C330.925 123.245 331.114 123.141 331.303 123.039L330.11 120.797C329.408 121.184 328.711 121.579 328.02 121.982C326.164 121.192 324.185 120.62 322.151 120.292L321.931 122.782C322.306 122.842 322.68 122.913 323.052 122.994ZM328.08 150.33C330.455 149.517 332.58 148.006 334.174 145.982L334.238 145.359C333.039 146.328 331.838 147.297 330.638 148.266L330.586 148.308L330.524 148.358C329.709 149.015 328.894 149.673 328.08 150.33ZM334.616 141.732L335.111 136.967C330.299 141.713 325.107 146.136 319.567 150.199C319.786 150.279 320.009 150.353 320.234 150.422C321.228 150.736 322.227 150.92 323.216 150.984L323.792 150.515L323.795 150.513L323.798 150.511C327.395 147.584 330.992 144.657 334.616 141.732ZM334.221 134.25L335.278 135.363L335.64 131.882C334.707 130.129 333.397 128.567 331.829 127.244C325.018 131.975 318.544 137.154 312.482 142.753C312.65 143.573 312.94 144.357 313.334 145.092C319.644 139.708 325.952 134.341 332.26 128.979L334.013 130.836L333.159 131.568L333.141 131.583L333.108 131.612L333.086 131.631C327.02 136.827 320.968 142.012 314.879 147.207C315.49 147.847 316.194 148.423 316.974 148.924C323.156 144.465 328.915 139.553 334.221 134.25ZM312.531 139.231C317.93 134.386 323.625 129.831 329.635 125.652C329.163 125.358 328.677 125.083 328.178 124.827C323.296 127.767 318.78 131.189 314.676 134.968L312.531 139.231ZM325.32 123.621L325.242 123.595C325.198 123.58 325.154 123.565 325.109 123.551L325.09 123.766C325.167 123.717 325.243 123.669 325.32 123.621ZM253.506 181.271C256.362 175.35 262.367 167.576 270.055 167.325L270.035 167.235C279.907 164.274 290.408 170 293.332 178.649C296.041 186.779 292.399 195.735 285.119 201.114C281.139 204.067 275.828 206.273 270.495 206.859C269.275 207.773 268.066 208.698 266.866 209.635L265.082 207.797C265.442 207.517 265.803 207.238 266.165 206.96C264.448 206.842 262.767 206.525 261.167 205.979C260.672 206.283 260.177 206.587 259.681 206.889L258.44 204.681L258.504 204.642L256.936 202.519L256.272 202.983L254.512 201.131L255.434 200.486L253.526 197.904L252.466 196.834L252.636 196.699L251.407 195.035L253.506 181.271ZM286.036 196.939C283.256 199.754 279.447 202.039 275.324 203.339C279.28 200.533 283.342 197.84 287.515 195.254L285.756 193.402C280.137 196.868 274.712 200.567 269.465 204.465C267.66 204.588 265.857 204.495 264.112 204.154C273.318 198.406 282.338 192.365 291.092 186.012L289.267 184.136C280.133 190.803 270.707 197.154 260.954 203.148C259.986 202.701 259.122 202.154 258.359 201.524C265.55 196.498 272.723 191.468 279.905 186.433L279.943 186.406L279.967 186.389L279.996 186.369L280.011 186.358C283.518 183.899 287.028 181.438 290.542 178.976C292.789 185.058 290.855 192.088 286.036 196.939ZM289.579 176.886C289.945 177.542 290.256 178.215 290.513 178.901L288.786 177.105C282.544 181.475 276.302 185.853 270.06 190.231L270.058 190.232C265.564 193.384 261.07 196.536 256.576 199.685C256.12 199.097 255.723 198.468 255.383 197.81C265.816 189.606 276.827 181.983 288.288 174.957C288.773 175.562 289.205 176.206 289.579 176.886ZM286.476 173.072C275.329 179.906 264.65 187.335 254.402 195.315C253.978 193.821 253.793 192.241 253.832 190.65L254.6 191.442C263.133 184.104 272.704 177.827 283.051 172.754L281.787 170.545C271.797 175.468 262.427 181.513 254.019 188.512C254.148 187.656 254.34 186.807 254.594 185.978L256.202 183.296L256.748 183.867C262.107 178.964 268.319 174.989 275.159 172.093L273.964 169.866C268.576 172.156 263.557 175.081 259.042 178.559L261.773 174.002L273.086 170.221L273.544 169.072C278.294 168.578 283.09 170.123 286.476 173.072ZM170.993 223.212C180.229 220.023 188.994 215.82 197.074 210.668L198.826 212.54C190.68 217.734 181.886 222.052 172.583 225.276C173.343 230.312 175.517 235.016 178.358 239.352C182.47 237.982 186.334 236.062 189.84 233.668L191.639 235.527C188.013 238.021 184.046 240.023 179.828 241.486C180.379 242.249 180.948 243 181.53 243.738C181.768 244.038 182.009 244.337 182.252 244.635L189.251 241.25L190.491 243.474L183.938 246.621C186.768 249.84 189.893 252.838 193.27 255.583L193.672 254.514L195.961 253.636L197.79 254.195L197.133 255.861L194.872 256.741L194.637 256.669C195.575 257.399 196.532 258.11 197.506 258.801L200.939 256.103L202.766 257.964L199.753 260.34C200.152 260.603 200.553 260.863 200.957 261.12L205.254 258.438L207.035 260.296L203.359 262.593C204.432 263.226 205.521 263.837 206.627 264.426L211.676 259.658L213.455 261.537L209.054 265.668C209.472 265.874 209.892 266.076 210.314 266.275C210.88 266.542 211.45 266.803 212.024 267.058L218.25 261.067L220.011 262.904L214.606 268.151C216.866 269.062 219.18 269.881 221.535 270.603L219.436 269.323L227.176 256.757L229.414 258.121L221.727 270.662C223.969 271.345 226.248 271.94 228.552 272.448C231.588 273.106 237.226 274.031 240.024 271.9L239.313 271.462C242.99 265.105 246.123 258.452 248.541 251.617L248.334 251.643C244.128 258.281 240.504 265.209 237.574 272.369L234.99 271.591C238.092 263.992 241.944 256.673 246.45 249.682L246.388 249.392L246.66 249.358C247.003 248.829 247.35 248.301 247.7 247.776L249.649 248.98L250.186 248.912L251.766 250.555C249.52 257.297 246.567 263.844 243.067 270.171L244.122 270.493C242.435 276.59 233.533 276.06 228.436 274.984C214.813 272.137 202.158 266.077 191.741 257.736C187.971 254.71 184.513 251.407 181.42 247.83L181.217 247.927L180.756 247.051C179.769 245.877 178.82 244.674 177.913 243.443C177.648 243.078 177.386 242.71 177.128 242.34C176.697 242.463 176.265 242.58 175.83 242.693L175.339 240.247C175.405 240.23 175.472 240.212 175.538 240.195L175.672 240.159C172.657 235.425 170.356 230.294 169.682 224.767L171.631 224.405L170.993 223.212ZM175.963 254.934L179.036 253.955L178.919 251.509C163.806 251.243 149.27 255.718 135.136 260.19L133.971 261.332L140.605 266.79L149.907 265.606C148.048 266.695 146.053 267.602 144.058 268.508L144.058 268.508L144.058 268.508C139.88 270.406 135.707 272.302 132.8 275.863C130.695 278.423 129.495 281.489 128.297 284.546C126.703 288.615 125.115 292.67 121.409 295.504L122.886 297.541C130.535 294.381 138.054 290.824 145.308 286.871C139.545 296.597 133.757 306.297 127.97 315.993L129.689 317.786C135.383 314.424 140.819 310.794 146.031 306.897C142.916 311.794 139.635 316.586 136.147 321.256L138.427 322.659C143.325 316.01 147.904 309.185 152.062 302.138L150.061 300.53C144.614 304.923 138.906 309.054 132.939 312.853C138.651 303.268 144.364 293.684 150.075 284.112L148.318 282.296C141.461 286.211 134.397 289.77 127.147 292.982C128.527 290.816 129.482 288.43 130.439 286.04C131.584 283.178 132.732 280.31 134.614 277.805C137.388 274.133 141.659 272.207 145.954 270.271C149.337 268.746 152.735 267.214 155.429 264.816L154.997 262.728L143.107 264.202L137.797 261.936C150.105 258.068 162.737 254.306 175.775 254.006L175.963 254.934ZM170.145 297.985C160.592 306.787 150.858 315.441 141.028 323.976L139.248 322.097C150.876 312.065 162.321 301.802 173.515 291.366L175.718 292.683C170.897 303.175 164.661 313.131 157.16 322.28C164.641 317.04 171.402 310.992 177.278 304.279L179.68 305.391C177.704 310.795 175.039 316 171.78 320.878C182.259 315.299 187.859 304.136 192.514 294.381L195.194 294.842C194.832 301.815 193.423 308.733 191.016 315.395C194.951 310.404 197.338 304.475 199.342 298.666C199.492 298.23 199.643 297.793 199.796 297.354C202.767 288.781 205.949 279.604 204.113 270.666L206.833 270.155L206.646 283.539L203.333 295.234L199.864 304.983C197.27 311.35 193.746 317.493 188.1 322.118L185.9 320.776C188.693 314.766 190.624 308.513 191.656 302.126C186.616 311.704 179.93 321.136 168.67 324.944L166.95 323.151C169.776 319.396 172.216 315.441 174.235 311.314C167.308 318.184 159.431 324.244 150.826 329.341L149.106 327.548C157.488 318.513 164.573 308.586 170.145 297.985ZM180.841 253.955L184.054 255.105L184.991 252.756L181.778 251.601L180.841 253.955ZM124.32 304.305C113.352 312.174 104.13 321.991 97.3668 333.047L99.6729 334.41C106.313 323.532 115.297 313.917 126.099 306.183L124.32 304.305ZM104.159 369.146C110.356 355.282 118.757 342.212 129.075 330.49L131.317 331.87C118.174 346.825 108.226 363.898 102.027 382.068L99.3992 381.272L104.159 369.146ZM204.442 223.254C195.83 228.157 186.478 231.766 176.713 233.968L176.197 231.542C185.74 229.363 194.887 225.826 203.262 221.049L204.442 223.254ZM228.307 270.155C231.608 261.54 236.023 253.307 241.416 245.541L243.725 246.925C238.418 254.495 234.17 262.558 230.881 270.974L228.307 270.155ZM317.558 215.756L321.81 221.406L324.557 221.552L318.496 213.402L317.558 215.756ZM327.224 215.429L323.197 210.309L325.262 208.636L329.339 213.778L327.224 215.429ZM327.012 205.809L329.414 209.161L332.109 208.622L328.565 203.728L327.012 205.809ZM236.981 143.289L234.392 135.145L237.132 134.609L239.681 142.751L236.981 143.289ZM242.617 131.533L244.379 137.578L247.098 137.082L245.315 131.021L242.617 131.533ZM248.984 132.899L248.148 129.871L250.871 129.334L251.68 132.402L248.984 132.899ZM254.045 128.443L254.97 130.456L256.799 131.009L257.433 129.341L256.511 127.293L254.68 126.755L254.045 128.443ZM358.069 196.369L358.245 194.374L359.717 193.212L360.97 194.519L360.794 196.514L359.321 197.697L358.069 196.369ZM128.592 127.611C134.308 125.717 140.129 124.104 146.054 122.794L146.156 123.303C147.385 122.747 148.615 122.192 149.844 121.638L151.016 123.863C146.711 125.825 142.379 127.786 138.036 129.752C135.714 130.803 133.39 131.855 131.064 132.91L122.133 136.94L113.739 140.661L108.62 138.866L111.903 134.233C117.093 131.505 122.967 129.496 128.592 127.611ZM119.464 135.399C124.937 132.91 130.41 130.427 135.881 127.949C133.685 128.584 131.504 129.261 129.333 129.978L115.03 135.583L111.943 137.239L112.276 138.461L115.78 137.084L119.464 135.399ZM155.145 173.453C148.449 172.476 141.538 172.411 134.727 173.248C134.53 173.274 134.299 173.302 134.04 173.333L134.038 173.334C129.99 173.828 119.089 175.16 121.645 180.282L123.108 180.939C135.675 179.547 148.167 178.171 160.71 176.793L160.219 174.348C158.482 174.54 156.748 174.732 155.015 174.924L155.145 173.453ZM138.296 175.36C142.386 175.023 146.489 175.059 150.521 175.421C143.45 176.202 136.394 176.977 129.319 177.747L138.296 175.36ZM128.865 211.78C133.198 213.094 137.539 214.409 141.866 215.738L141.375 217.009C142.959 217.566 144.528 218.165 146.08 218.807L145.142 221.161C138.173 218.284 130.779 216.189 123.148 215.045L112.239 213.942L104.218 210.931L104.129 209.445C107.273 205.095 113.713 207.12 118.213 208.535C118.62 208.663 119.01 208.786 119.381 208.898C122.533 209.861 125.697 210.82 128.865 211.78ZM122.89 212.605C122.255 212.411 121.619 212.217 120.983 212.023L112.254 209.539L109.4 210.156L114.827 211.66L122.89 212.605Z" fill="url(#paint2_linear_26_116937)"/>
<path d="M263.024 307.421C263.314 301.93 263.953 296.473 264.92 291.054C265.893 285.718 266.954 280.138 268.929 275.024L273.345 271.231L276.282 275.414L273.841 283.552L271.165 292.224C269.148 298.709 267.152 305.184 265.141 311.605L262.492 310.995C265.524 301.168 268.576 291.33 271.65 281.487L272.778 277.906L273.605 274.542L272.21 274.482L271 277.531L267.639 291.255C266.694 296.605 266.049 301.959 265.788 307.385L263.024 307.421Z" fill="url(#paint3_linear_26_116937)"/>
<path d="M319.938 305.736C317.59 300.002 316.193 293.901 315.798 287.718C315.63 284.732 314.49 273.439 320.948 274.798L321.944 275.966C322.839 287.347 323.739 298.659 324.645 310.016L321.887 310.051C320.992 298.67 320.098 287.378 319.164 276.007L320.168 277.2L318.783 290.469C319.353 295.501 320.688 300.419 322.613 305.062L319.938 305.736Z" fill="url(#paint4_linear_26_116937)"/>
<path d="M363.444 285.879C359.502 279.697 355.594 273.47 351.68 267.307C349.339 263.608 344.841 257.655 349.349 253.713L350.985 253.507L355.802 260.022L359.097 269.459C361.808 275.988 365.508 282.125 369.979 287.736L367.595 289.017C363.349 283.698 359.9 277.972 357.19 271.854L353.814 262.749L349.609 255.668L351.266 255.457L351.011 260.881L355.391 268.124C358.888 273.632 362.358 279.104 365.856 284.612L363.444 285.879Z" fill="url(#paint5_linear_26_116937)"/>
<path d="M29.1968 103.101C28.0545 102.342 26.1904 102.062 24.4192 102.149C22.1959 102.267 20.2599 102.976 18.4734 103.631L19.2844 103.679L16.8369 102.045L16.1509 101.956L13.6103 102.569L13.3195 102.987L15.049 105.006L15.2166 104.641C11.9371 105.906 9.38329 107.811 8.89591 110.014C8.42471 112.127 9.93203 114.354 13.322 115.514C15.0808 116.11 17.1708 116.402 19.2381 116.248L19.0655 115.616C15.7667 115.87 12.474 114.802 11.0052 113.224C9.32227 111.414 9.80732 109.234 11.7335 107.547C12.8129 106.584 14.2731 105.784 15.9621 105.126L16.1151 104.749L14.3841 102.73L14.0925 103.155L16.6279 102.536L15.9286 102.451L18.3937 104.08L19.2107 104.126C20.7749 103.551 22.4541 102.933 24.3759 102.795L28.3062 103.503L29.1968 103.101Z" fill="url(#paint6_linear_26_116937)"/>
<path d="M28.7428 103.622L30.8202 105.502L28.6437 106.815L27.0959 106.654L25.1479 105.879C23.6664 105.631 22.0546 105.963 20.7564 106.34C17.9114 107.16 15.5304 108.62 15.7763 110.456L17.6989 112.601L21.7633 113.22C25.1367 113.069 27.6748 111.765 30.72 111.113C32.1347 110.81 33.6806 110.702 35.147 110.973L38.1278 112.123C39.8667 113.247 40.6079 114.72 40.3875 116.156C40.1516 117.689 38.9765 119.131 37.2451 120.341C35.4935 121.578 33.1818 122.577 30.6104 123.253C28.2856 123.865 25.2035 124.44 22.6984 123.811L21.3246 123.163L20.4148 123.569C22.1901 124.946 25.7976 124.843 28.4184 124.405C31.2795 123.94 33.9579 123.058 36.1121 121.952C40.358 119.789 43.0682 116.37 40.7522 113.284C39.7452 111.95 37.7731 110.683 35.1097 110.298C33.4709 110.069 31.7999 110.203 30.2404 110.53C28.5262 110.895 27.0094 111.485 25.3621 111.942C22.9564 112.615 19.1929 113.126 17.5588 111.532C16.8344 110.836 16.7229 109.97 17.2188 109.215C17.791 108.374 18.9701 107.708 20.3207 107.211L22.5218 106.598L24.561 106.45L26.4834 107.194L28.3589 107.459L31.6173 106.319C32.3409 105.546 31.9375 104.619 31.0854 103.935L29.4207 103.103L28.7428 103.622Z" fill="url(#paint7_linear_26_116937)"/>
<path d="M19.7214 116.591L19.9912 116.526L20.3142 116.347L20.3024 116.107L19.5194 115.952L19.2495 116.017L18.9265 116.196L18.9384 116.436L19.7214 116.591Z" fill="url(#paint8_linear_26_116937)"/>
<path d="M19.3052 116.403C22.3269 116.788 25 115.758 27.773 115.295L31.4123 115.147L33.8819 116.588C34.4345 118.193 31.8147 119.665 29.2967 120.254C27.9608 120.576 26.5822 120.62 25.2156 120.359C23.8458 120.103 22.4892 119.813 21.0961 120.175C19.7276 120.535 18.8059 121.318 18.9791 122.143C19.1725 122.983 20.365 123.659 21.8523 123.85L22.4979 123.567L21.9787 123.222L20.1536 121.767L22.5808 120.621L24.616 120.915L26.7956 121.174C28.3025 121.185 29.72 120.91 30.9889 120.481C33.4679 119.652 35.6796 118.087 35.025 116.425L32.4981 114.679L28.7073 114.517C27.15 114.679 25.7237 115.042 24.2829 115.363C22.7362 115.706 21.1037 115.988 19.4242 115.776L18.7716 116.057L19.3052 116.403Z" fill="url(#paint9_linear_26_116937)"/>
<path d="M32.6057 123.508L33.6541 124.631L34.3272 124.719L37.3455 123.748L37.5073 123.384L36.2839 122.341L35.3756 122.747L36.4427 123.641L36.5982 123.267L33.8528 124.142L34.5422 124.226L33.6718 123.251L32.6057 123.508Z" fill="url(#paint10_linear_26_116937)"/>
<path d="M20.0515 107.284L19.3831 106.948L18.5094 107.338C19.776 109.283 21.0705 111.236 22.3699 113.184L23.4286 112.928C22.1543 110.974 20.8597 109.022 19.574 107.082L18.7 107.461L19.3659 107.793L20.1777 107.732L20.0515 107.284Z" fill="url(#paint11_linear_26_116937)"/>
<path d="M20.6041 106.583C22.3478 108.704 23.827 110.881 25.0338 113.106L25.8065 113.263L26.0999 112.849C24.8931 110.624 23.4124 108.447 21.6687 106.326L20.6041 106.583Z" fill="url(#paint12_linear_26_116937)"/>
<path d="M25.15 115.667C26.7454 117.189 28.1159 118.772 29.287 120.407L30.353 120.15C29.1923 118.512 27.8115 116.932 26.2146 115.411L25.4416 115.242L25.15 115.667Z" fill="url(#paint13_linear_26_116937)"/>
<path d="M26.9691 115.04C28.4513 116.843 29.9387 118.652 31.4209 120.455L32.5047 120.194C31.0224 118.391 29.5351 116.582 28.0528 114.779L26.9691 115.04Z" fill="url(#paint14_linear_26_116937)"/>
<path d="M15.2759 104.417L16.3503 103.231L15.2679 103.006L14.1909 104.189L15.2759 104.417Z" fill="url(#paint15_linear_26_116937)"/>
<path d="M15.5466 104.945L17.3223 103.395L16.3649 103.028L14.5833 104.579L15.5466 104.945Z" fill="url(#paint16_linear_26_116937)"/>
<path d="M10.1178 109.977C12.4218 107.953 14.9625 106.006 17.7117 104.148L16.7544 103.78C14.0037 105.64 11.4747 107.584 9.16049 109.61L10.1178 109.977Z" fill="url(#paint17_linear_26_116937)"/>
<path d="M9.58954 110.066L8.62395 111.2L9.65272 111.501C12.936 108.822 16.2131 106.133 19.4965 103.454L18.5391 103.087C15.2661 105.764 11.9912 108.444 8.70568 111.131L9.72924 111.427L10.5469 110.433L9.58954 110.066Z" fill="url(#paint18_linear_26_116937)"/>
<path d="M9.99736 112.863C13.0344 110.344 16.0522 107.83 19.08 105.317L21.6869 103.156L20.7244 102.783C17.7102 105.303 14.6824 107.816 11.6428 110.332L9.05771 112.491L9.99736 112.863Z" fill="url(#paint19_linear_26_116937)"/>
<path d="M16.269 109.192C18.9362 107.29 21.2682 105.259 23.2577 103.127L22.9217 102.718L22.1727 102.899C20.2139 104.982 17.9216 106.963 15.3116 108.825L16.269 109.192Z" fill="url(#paint20_linear_26_116937)"/>
<path d="M21.2224 106.885C22.6491 105.558 24.0714 104.232 25.5022 102.908L25.3719 102.472L24.5626 102.536C23.1317 103.861 21.7036 105.188 20.2753 106.515L20.3928 106.95L21.2224 106.885Z" fill="url(#paint21_linear_26_116937)"/>
<path d="M23.3934 106.575C24.6772 105.511 25.9422 104.447 27.2353 103.391L26.2702 103.015C25.0026 104.075 23.7198 105.143 22.4522 106.204L23.3934 106.575Z" fill="url(#paint22_linear_26_116937)"/>
<path d="M25.6242 106.802C26.6487 105.856 27.6647 104.909 28.6935 103.962L28.5555 103.517L27.7362 103.595C26.7176 104.539 25.7031 105.486 24.6845 106.431L24.8082 106.876L25.6242 106.802Z" fill="url(#paint23_linear_26_116937)"/>
<path d="M27.3718 107.274C28.5461 106.326 29.7131 105.379 30.9018 104.431L29.9444 104.064C28.7734 105.008 27.5991 105.956 26.4144 106.907L27.3718 107.274Z" fill="url(#paint24_linear_26_116937)"/>
<path d="M11.5491 113.378C12.8323 112.033 14.3119 110.753 15.951 109.532L15.0054 109.162C13.2987 110.426 11.7935 111.761 10.4615 113.147L10.8 113.559L11.5491 113.378Z" fill="url(#paint25_linear_26_116937)"/>
<path d="M12.8257 114.423C13.816 113.388 14.7922 112.349 15.7746 111.32L15.4413 110.914L14.6922 111.095C13.6921 112.129 12.7181 113.16 11.7356 114.189L12.0767 114.604L12.8257 114.423Z" fill="url(#paint26_linear_26_116937)"/>
<path d="M14.426 115.141C15.2753 114.077 16.122 113.024 16.9687 111.957L15.8827 111.725C15.0319 112.79 14.1811 113.855 13.3495 114.915L14.426 115.141Z" fill="url(#paint27_linear_26_116937)"/>
<path d="M16.0855 115.868C17.0282 114.748 17.971 113.612 18.9111 112.489L17.8092 112.257C16.8782 113.39 15.938 114.513 15.0056 115.646L16.0855 115.868Z" fill="url(#paint28_linear_26_116937)"/>
<path d="M18.3766 116.296C19.3747 115.327 20.1795 114.318 20.7729 113.252L19.692 113.027C19.1261 114.034 18.3737 115.008 17.4193 115.929L17.5555 116.364L18.3766 116.296Z" fill="url(#paint29_linear_26_116937)"/>
<path d="M20.7244 116.439C21.3757 115.426 22.0219 114.406 22.6641 113.385L21.5713 113.162L19.642 116.214L20.7244 116.439Z" fill="url(#paint30_linear_26_116937)"/>
<path d="M22.9873 116.268C23.5463 115.143 24.091 114.018 24.6323 112.897L24.2938 112.485L23.5344 112.668C22.9931 113.789 22.4458 114.911 21.9122 116.042L22.2456 116.447L22.9873 116.268Z" fill="url(#paint31_linear_26_116937)"/>
<path d="M25.4333 115.411C25.645 114.392 26.048 113.386 26.6277 112.413L25.5225 112.186C24.922 113.209 24.4921 114.266 24.2681 115.336L25.4333 115.411Z" fill="url(#paint32_linear_26_116937)"/>
<path d="M27.695 114.637C27.8964 113.692 28.2841 112.768 28.8271 111.86L27.7343 111.638C27.1521 112.593 26.7476 113.569 26.5298 114.563L27.695 114.637Z" fill="url(#paint33_linear_26_116937)"/>
<path d="M29.3746 114.909C30.1503 113.66 30.9102 112.412 31.6826 111.168L30.5925 110.934C29.8175 112.19 29.0425 113.43 28.2767 114.68L29.3746 114.909Z" fill="url(#paint34_linear_26_116937)"/>
<path d="M30.7749 114.95C31.855 113.636 32.9098 112.316 33.9874 110.999L32.8872 110.778C31.8274 112.091 30.7546 113.404 29.6946 114.717L30.7749 114.95Z" fill="url(#paint35_linear_26_116937)"/>
<path d="M32.4441 115.3C33.3133 113.965 34.371 112.675 35.6202 111.44L35.4924 110.992L34.668 111.064C33.3818 112.353 32.2576 113.689 31.354 115.066L32.4441 115.3Z" fill="url(#paint36_linear_26_116937)"/>
<path d="M33.8368 115.846C34.9758 114.462 36.1123 113.074 37.2564 111.696L36.1688 111.464C35.0299 112.849 33.8757 114.241 32.729 115.616L33.8368 115.846Z" fill="url(#paint37_linear_26_116937)"/>
<path d="M34.6599 116.98C36.2579 115.466 37.6971 113.901 38.9851 112.294L37.8773 112.064C36.6414 113.625 35.251 115.149 33.7143 116.61L33.838 117.055L34.6599 116.98Z" fill="url(#paint38_linear_26_116937)"/>
<path d="M27.1588 124.43C30.7838 121.687 34.2124 118.879 37.4289 115.992L40.1014 113.535L39.9777 113.09L39.1558 113.165C36.0457 116.083 32.7509 118.933 29.2388 121.712C28.2471 122.504 27.234 123.279 26.2132 124.06L27.1588 124.43Z" fill="url(#paint39_linear_26_116937)"/>
<path d="M30.5417 123.696C33.1251 121.324 35.8145 118.986 38.5653 116.668L40.9246 114.709L39.9775 114.339C37.1826 116.638 34.4473 118.961 31.8079 121.317L29.5843 123.329L30.5417 123.696Z" fill="url(#paint40_linear_26_116937)"/>
<path d="M33.8503 122.715C36.042 120.661 38.2474 118.601 40.4598 116.543L40.3184 116.102L39.5142 116.173C37.3063 118.23 35.1009 120.29 32.8929 122.348L33.0284 122.79L33.8503 122.715Z" fill="url(#paint41_linear_26_116937)"/>
<path d="M24.1578 123.815L23.7288 124.435L24.6615 124.789C26.7944 123.565 28.5883 122.179 29.9881 120.675L29.647 120.261L28.8877 120.444C27.5939 121.851 25.9113 123.161 23.9186 124.307L24.8325 124.662L25.2403 124.04L24.1578 123.815Z" fill="url(#paint42_linear_26_116937)"/>
<path d="M23.3718 124.213C25.0565 123.284 26.4699 122.233 27.5689 121.075L27.2355 120.669L26.4747 120.853C25.4755 121.904 24.1758 122.883 22.6212 123.721L22.5416 124.17L23.3718 124.213Z" fill="url(#paint43_linear_26_116937)"/>
<path d="M22.0981 123.913C23.7267 122.997 25.1245 121.987 26.2645 120.879L26.1368 120.431L25.3175 120.509C24.2226 121.569 22.9086 122.547 21.3541 123.427L21.2694 123.87L22.0981 123.913Z" fill="url(#paint44_linear_26_116937)"/>
<path d="M21.0322 123.243C22.0755 122.438 23.1351 121.63 24.181 120.828L23.2296 120.46C22.1777 121.263 21.1285 122.069 20.0748 122.876L21.0322 123.243Z" fill="url(#paint45_linear_26_116937)"/>
<path d="M20.1251 122.547L21.497 121.293L20.5396 120.926L19.1795 122.177L20.1251 122.547Z" fill="url(#paint46_linear_26_116937)"/>
<path d="M21.0769 109.862L22.4851 108.233L21.3871 108.005L20.0018 109.636L21.0769 109.862Z" fill="url(#paint47_linear_26_116937)"/>
<path d="M21.0437 108.489L21.6901 107.597L21.7698 107.148L20.941 107.105L19.8863 108.425L20.397 108.769L21.0437 108.489Z" fill="url(#paint48_linear_26_116937)"/>
<path d="M22.4187 110.579L23.0558 109.465L22.0984 109.098L21.2561 110.508L21.7661 110.86L22.4187 110.579Z" fill="url(#paint49_linear_26_116937)"/>
<path d="M22.7926 112.091L24.6335 110.552L23.6761 110.185L21.8353 111.724L22.7926 112.091Z" fill="url(#paint50_linear_26_116937)"/>
<path d="M24.5042 112.743L24.9708 112.066L24.6374 111.66L23.8884 111.841L23.4038 112.511L23.7449 112.926L24.5042 112.743Z" fill="url(#paint51_linear_26_116937)"/>
<path d="M27.4581 116.51L27.8245 115.899L27.8983 115.451L27.0746 115.414L26.3161 116.606L27.4581 116.51Z" fill="url(#paint52_linear_26_116937)"/>
<path d="M27.8768 117.495L28.9286 116.692L27.9889 116.321L26.9371 117.124L27.8768 117.495Z" fill="url(#paint53_linear_26_116937)"/>
<path d="M29.1684 118.464L30.0921 117.505L29.751 117.09L29.0019 117.271L28.0934 118.237L28.4268 118.643L29.1684 118.464Z" fill="url(#paint54_linear_26_116937)"/>
<path d="M30.2651 119.241L30.8499 118.719L30.9295 118.27L30.1008 118.226L29.0999 119.167L30.2651 119.241Z" fill="url(#paint55_linear_26_116937)"/>
<path d="M30.7596 120.544L31.8037 119.732L30.8641 119.36L29.8199 120.173L30.7596 120.544Z" fill="url(#paint56_linear_26_116937)"/>
<path d="M34.4372 123.95L35.7387 122.553L34.5735 122.478L33.6881 123.458L34.4372 123.95Z" fill="url(#paint57_linear_26_116937)"/>
<path d="M29.1968 103.101C28.0545 102.342 26.1904 102.062 24.4192 102.149C22.1959 102.267 20.2599 102.976 18.4734 103.631L19.2844 103.679L16.8369 102.045L16.1509 101.956L13.6103 102.569L13.3195 102.987L15.049 105.006L15.2166 104.641C11.9371 105.906 9.38329 107.811 8.89591 110.014C8.42471 112.127 9.93203 114.354 13.322 115.514C15.0808 116.11 17.1708 116.402 19.2381 116.248L19.0655 115.616C15.7667 115.87 12.474 114.802 11.0052 113.224C9.32227 111.414 9.80732 109.234 11.7335 107.547C12.8129 106.584 14.2731 105.784 15.9621 105.126L16.1151 104.749L14.3841 102.73L14.0925 103.155L16.6279 102.536L15.9286 102.451L18.3937 104.08L19.2107 104.126C20.7749 103.551 22.4541 102.933 24.3759 102.795L28.3062 103.503L29.1968 103.101Z" fill="url(#paint58_linear_26_116937)"/>
<path d="M28.7428 103.622L30.8202 105.502L28.6437 106.815L27.0959 106.654L25.1479 105.879C23.6664 105.631 22.0546 105.963 20.7564 106.34C17.9114 107.16 15.5304 108.62 15.7763 110.456L17.6989 112.601L21.7633 113.22C25.1367 113.069 27.6748 111.765 30.72 111.113C32.1347 110.81 33.6806 110.702 35.147 110.973L38.1278 112.123C39.8667 113.247 40.6079 114.72 40.3875 116.156C40.1516 117.689 38.9765 119.131 37.2451 120.341C35.4935 121.578 33.1818 122.577 30.6104 123.253C28.2856 123.865 25.2035 124.44 22.6984 123.811L21.3246 123.163L20.4148 123.569C22.1901 124.946 25.7976 124.843 28.4184 124.405C31.2795 123.94 33.9579 123.058 36.1121 121.952C40.358 119.789 43.0682 116.37 40.7522 113.284C39.7452 111.95 37.7731 110.683 35.1097 110.298C33.4709 110.069 31.7999 110.203 30.2404 110.53C28.5262 110.895 27.0094 111.485 25.3621 111.942C22.9564 112.615 19.1929 113.126 17.5588 111.532C16.8344 110.836 16.7229 109.97 17.2188 109.215C17.791 108.374 18.9701 107.708 20.3207 107.211L22.5218 106.598L24.561 106.45L26.4834 107.194L28.3589 107.459L31.6173 106.319C32.3409 105.546 31.9375 104.619 31.0854 103.935L29.4207 103.103L28.7428 103.622Z" fill="url(#paint59_linear_26_116937)"/>
<path d="M19.7214 116.591L19.9912 116.526L20.3142 116.347L20.3024 116.107L19.5194 115.952L19.2495 116.017L18.9265 116.196L18.9384 116.436L19.7214 116.591Z" fill="url(#paint60_linear_26_116937)"/>
<path d="M19.3052 116.403C22.3269 116.788 25 115.758 27.773 115.295L31.4123 115.147L33.8819 116.588C34.4345 118.193 31.8147 119.665 29.2967 120.254C27.9608 120.576 26.5822 120.62 25.2156 120.359C23.8458 120.103 22.4892 119.813 21.0961 120.175C19.7276 120.535 18.8059 121.318 18.9791 122.143C19.1725 122.983 20.365 123.659 21.8523 123.85L22.4979 123.567L21.9787 123.222L20.1536 121.767L22.5808 120.621L24.616 120.915L26.7956 121.174C28.3025 121.185 29.72 120.91 30.9889 120.481C33.4679 119.652 35.6796 118.087 35.025 116.425L32.4981 114.679L28.7073 114.517C27.15 114.679 25.7237 115.042 24.2829 115.363C22.7362 115.706 21.1037 115.988 19.4242 115.776L18.7716 116.057L19.3052 116.403Z" fill="url(#paint61_linear_26_116937)"/>
<path d="M32.6057 123.508L33.6541 124.631L34.3272 124.719L37.3455 123.748L37.5073 123.384L36.2839 122.341L35.3756 122.747L36.4427 123.641L36.5982 123.267L33.8528 124.142L34.5422 124.226L33.6718 123.251L32.6057 123.508Z" fill="url(#paint62_linear_26_116937)"/>
<path d="M20.0515 107.284L19.3831 106.948L18.5094 107.338C19.776 109.283 21.0705 111.236 22.3699 113.184L23.4286 112.928C22.1543 110.974 20.8597 109.022 19.574 107.082L18.7 107.461L19.3659 107.793L20.1777 107.732L20.0515 107.284Z" fill="url(#paint63_linear_26_116937)"/>
<path d="M20.6041 106.583C22.3478 108.704 23.827 110.881 25.0338 113.106L25.8065 113.263L26.0999 112.849C24.8931 110.624 23.4124 108.447 21.6687 106.326L20.6041 106.583Z" fill="url(#paint64_linear_26_116937)"/>
<path d="M25.15 115.667C26.7454 117.189 28.1159 118.772 29.287 120.407L30.353 120.15C29.1923 118.512 27.8115 116.932 26.2146 115.411L25.4416 115.242L25.15 115.667Z" fill="url(#paint65_linear_26_116937)"/>
<path d="M26.9691 115.04C28.4513 116.843 29.9387 118.652 31.4209 120.455L32.5047 120.194C31.0224 118.391 29.5351 116.582 28.0528 114.779L26.9691 115.04Z" fill="url(#paint66_linear_26_116937)"/>
<path d="M15.2759 104.417L16.3503 103.231L15.2679 103.006L14.1909 104.189L15.2759 104.417Z" fill="url(#paint67_linear_26_116937)"/>
<path d="M15.5466 104.945L17.3223 103.395L16.3649 103.028L14.5833 104.579L15.5466 104.945Z" fill="url(#paint68_linear_26_116937)"/>
<path d="M10.1178 109.977C12.4218 107.953 14.9625 106.006 17.7117 104.148L16.7544 103.78C14.0037 105.64 11.4747 107.584 9.16049 109.61L10.1178 109.977Z" fill="url(#paint69_linear_26_116937)"/>
<path d="M9.58954 110.066L8.62395 111.2L9.65272 111.501C12.936 108.822 16.2131 106.133 19.4965 103.454L18.5391 103.087C15.2661 105.764 11.9912 108.444 8.70568 111.131L9.72924 111.427L10.5469 110.433L9.58954 110.066Z" fill="url(#paint70_linear_26_116937)"/>
<path d="M9.99736 112.863C13.0344 110.344 16.0522 107.83 19.08 105.317L21.6869 103.156L20.7244 102.783C17.7102 105.303 14.6824 107.816 11.6428 110.332L9.05771 112.491L9.99736 112.863Z" fill="url(#paint71_linear_26_116937)"/>
<path d="M16.269 109.192C18.9362 107.29 21.2682 105.259 23.2577 103.127L22.9217 102.718L22.1727 102.899C20.2139 104.982 17.9216 106.963 15.3116 108.825L16.269 109.192Z" fill="url(#paint72_linear_26_116937)"/>
<path d="M21.2224 106.885C22.6491 105.558 24.0714 104.232 25.5022 102.908L25.3719 102.472L24.5626 102.536C23.1317 103.861 21.7036 105.188 20.2753 106.515L20.3928 106.95L21.2224 106.885Z" fill="url(#paint73_linear_26_116937)"/>
<path d="M23.3934 106.575C24.6772 105.511 25.9422 104.447 27.2353 103.391L26.2702 103.015C25.0026 104.075 23.7198 105.143 22.4522 106.204L23.3934 106.575Z" fill="url(#paint74_linear_26_116937)"/>
<path d="M25.6242 106.802C26.6487 105.856 27.6647 104.909 28.6935 103.962L28.5555 103.517L27.7362 103.595C26.7176 104.539 25.7031 105.486 24.6845 106.431L24.8082 106.876L25.6242 106.802Z" fill="url(#paint75_linear_26_116937)"/>
<path d="M27.3718 107.274C28.5461 106.326 29.7131 105.379 30.9018 104.431L29.9444 104.064C28.7734 105.008 27.5991 105.956 26.4144 106.907L27.3718 107.274Z" fill="url(#paint76_linear_26_116937)"/>
<path d="M11.5491 113.378C12.8323 112.033 14.3119 110.753 15.951 109.532L15.0054 109.162C13.2987 110.426 11.7935 111.761 10.4615 113.147L10.8 113.559L11.5491 113.378Z" fill="url(#paint77_linear_26_116937)"/>
<path d="M12.8257 114.423C13.816 113.388 14.7922 112.349 15.7746 111.32L15.4413 110.914L14.6922 111.095C13.6921 112.129 12.7181 113.16 11.7356 114.189L12.0767 114.604L12.8257 114.423Z" fill="url(#paint78_linear_26_116937)"/>
<path d="M14.426 115.141C15.2753 114.077 16.122 113.024 16.9687 111.957L15.8827 111.725C15.0319 112.79 14.1811 113.855 13.3495 114.915L14.426 115.141Z" fill="url(#paint79_linear_26_116937)"/>
<path d="M16.0855 115.868C17.0282 114.748 17.971 113.612 18.9111 112.489L17.8092 112.257C16.8782 113.39 15.938 114.513 15.0056 115.646L16.0855 115.868Z" fill="url(#paint80_linear_26_116937)"/>
<path d="M18.3766 116.296C19.3747 115.327 20.1795 114.318 20.7729 113.252L19.692 113.027C19.1261 114.034 18.3737 115.008 17.4193 115.929L17.5555 116.364L18.3766 116.296Z" fill="url(#paint81_linear_26_116937)"/>
<path d="M20.7244 116.439C21.3757 115.426 22.0219 114.406 22.6641 113.385L21.5713 113.162L19.642 116.214L20.7244 116.439Z" fill="url(#paint82_linear_26_116937)"/>
<path d="M22.9873 116.268C23.5463 115.143 24.091 114.018 24.6323 112.897L24.2938 112.485L23.5344 112.668C22.9931 113.789 22.4458 114.911 21.9122 116.042L22.2456 116.447L22.9873 116.268Z" fill="url(#paint83_linear_26_116937)"/>
<path d="M25.4333 115.411C25.645 114.392 26.048 113.386 26.6277 112.413L25.5225 112.186C24.922 113.209 24.4921 114.266 24.2681 115.336L25.4333 115.411Z" fill="url(#paint84_linear_26_116937)"/>
<path d="M27.695 114.637C27.8964 113.692 28.2841 112.768 28.8271 111.86L27.7343 111.638C27.1521 112.593 26.7476 113.569 26.5298 114.563L27.695 114.637Z" fill="url(#paint85_linear_26_116937)"/>
<path d="M29.3746 114.909C30.1503 113.66 30.9102 112.412 31.6826 111.168L30.5925 110.934C29.8175 112.19 29.0425 113.43 28.2767 114.68L29.3746 114.909Z" fill="url(#paint86_linear_26_116937)"/>
<path d="M30.7749 114.95C31.855 113.636 32.9098 112.316 33.9874 110.999L32.8872 110.778C31.8274 112.091 30.7546 113.404 29.6946 114.717L30.7749 114.95Z" fill="url(#paint87_linear_26_116937)"/>
<path d="M32.4441 115.3C33.3133 113.965 34.371 112.675 35.6202 111.44L35.4924 110.992L34.668 111.064C33.3818 112.353 32.2576 113.689 31.354 115.066L32.4441 115.3Z" fill="url(#paint88_linear_26_116937)"/>
<path d="M33.8368 115.846C34.9758 114.462 36.1123 113.074 37.2564 111.696L36.1688 111.464C35.0299 112.849 33.8757 114.241 32.729 115.616L33.8368 115.846Z" fill="url(#paint89_linear_26_116937)"/>
<path d="M34.6599 116.98C36.2579 115.466 37.6971 113.901 38.9851 112.294L37.8773 112.064C36.6414 113.625 35.251 115.149 33.7143 116.61L33.838 117.055L34.6599 116.98Z" fill="url(#paint90_linear_26_116937)"/>
<path d="M27.1588 124.43C30.7838 121.687 34.2124 118.879 37.4289 115.992L40.1014 113.535L39.9777 113.09L39.1558 113.165C36.0457 116.083 32.7509 118.933 29.2388 121.712C28.2471 122.504 27.234 123.279 26.2132 124.06L27.1588 124.43Z" fill="url(#paint91_linear_26_116937)"/>
<path d="M30.5417 123.696C33.1251 121.324 35.8145 118.986 38.5653 116.668L40.9246 114.709L39.9775 114.339C37.1826 116.638 34.4473 118.961 31.8079 121.317L29.5843 123.329L30.5417 123.696Z" fill="url(#paint92_linear_26_116937)"/>
<path d="M33.8503 122.715C36.042 120.661 38.2474 118.601 40.4598 116.543L40.3184 116.102L39.5142 116.173C37.3063 118.23 35.1009 120.29 32.8929 122.348L33.0284 122.79L33.8503 122.715Z" fill="url(#paint93_linear_26_116937)"/>
<path d="M24.1578 123.815L23.7288 124.435L24.6615 124.789C26.7944 123.565 28.5883 122.179 29.9881 120.675L29.647 120.261L28.8877 120.444C27.5939 121.851 25.9113 123.161 23.9186 124.307L24.8325 124.662L25.2403 124.04L24.1578 123.815Z" fill="url(#paint94_linear_26_116937)"/>
<path d="M23.3718 124.213C25.0565 123.284 26.4699 122.233 27.5689 121.075L27.2355 120.669L26.4747 120.853C25.4755 121.904 24.1758 122.883 22.6212 123.721L22.5416 124.17L23.3718 124.213Z" fill="url(#paint95_linear_26_116937)"/>
<path d="M22.0981 123.913C23.7267 122.997 25.1245 121.987 26.2645 120.879L26.1368 120.431L25.3175 120.509C24.2226 121.569 22.9086 122.547 21.3541 123.427L21.2694 123.87L22.0981 123.913Z" fill="url(#paint96_linear_26_116937)"/>
<path d="M21.0322 123.243C22.0755 122.438 23.1351 121.63 24.181 120.828L23.2296 120.46C22.1777 121.263 21.1285 122.069 20.0748 122.876L21.0322 123.243Z" fill="url(#paint97_linear_26_116937)"/>
<path d="M20.1251 122.547L21.497 121.293L20.5396 120.926L19.1795 122.177L20.1251 122.547Z" fill="url(#paint98_linear_26_116937)"/>
<path d="M21.0769 109.862L22.4851 108.233L21.3871 108.005L20.0018 109.636L21.0769 109.862Z" fill="url(#paint99_linear_26_116937)"/>
<path d="M21.0437 108.489L21.6901 107.597L21.7698 107.148L20.941 107.105L19.8863 108.425L20.397 108.769L21.0437 108.489Z" fill="url(#paint100_linear_26_116937)"/>
<path d="M22.4187 110.579L23.0558 109.465L22.0984 109.098L21.2561 110.508L21.7661 110.86L22.4187 110.579Z" fill="url(#paint101_linear_26_116937)"/>
<path d="M22.7926 112.091L24.6335 110.552L23.6761 110.185L21.8353 111.724L22.7926 112.091Z" fill="url(#paint102_linear_26_116937)"/>
<path d="M24.5042 112.743L24.9708 112.066L24.6374 111.66L23.8884 111.841L23.4038 112.511L23.7449 112.926L24.5042 112.743Z" fill="url(#paint103_linear_26_116937)"/>
<path d="M27.4581 116.51L27.8245 115.899L27.8983 115.451L27.0746 115.414L26.3161 116.606L27.4581 116.51Z" fill="url(#paint104_linear_26_116937)"/>
<path d="M27.8768 117.495L28.9286 116.692L27.9889 116.321L26.9371 117.124L27.8768 117.495Z" fill="url(#paint105_linear_26_116937)"/>
<path d="M29.1684 118.464L30.0921 117.505L29.751 117.09L29.0019 117.271L28.0934 118.237L28.4268 118.643L29.1684 118.464Z" fill="url(#paint106_linear_26_116937)"/>
<path d="M30.2651 119.241L30.8499 118.719L30.9295 118.27L30.1008 118.226L29.0999 119.167L30.2651 119.241Z" fill="url(#paint107_linear_26_116937)"/>
<path d="M30.7596 120.544L31.8037 119.732L30.8641 119.36L29.8199 120.173L30.7596 120.544Z" fill="url(#paint108_linear_26_116937)"/>
<path d="M34.4372 123.95L35.7387 122.553L34.5735 122.478L33.6881 123.458L34.4372 123.95Z" fill="url(#paint109_linear_26_116937)"/>
<path d="M27.7828 30.722C27.7485 30.8396 27.6386 31.2301 27.5326 31.5889C26.959 33.5185 27.0412 34.5562 27.8499 35.5703C28.3334 36.1824 28.777 36.3693 30.9684 36.9002C33.3874 37.477 34.2921 37.647 34.6962 37.5766C34.8645 37.5494 35.2389 37.5392 35.5257 37.5615C36.175 37.5976 36.9825 37.4825 37.4773 37.2769C38.108 37.0136 41.276 35.4024 42.361 34.7986C44.7301 33.4779 46.9026 31.8319 48.944 29.8249C53.0158 25.8094 55.2385 23.2675 58.7164 18.5981C61.2152 15.2576 62.1365 13.2752 62.4851 10.5C62.5545 9.97464 62.5986 9.45203 62.5825 9.34003C62.5443 8.86353 61.199 8.13931 59.2442 7.53953C58.5834 7.33398 57.7996 7.13638 57.5188 7.10208C57.2409 7.06176 56.7599 6.99843 56.4628 6.94886C55.3624 6.78919 53.8427 7.18801 52.1113 8.11094C51.1124 8.63694 49.9209 9.43177 49.8256 9.62439C49.7213 9.83506 49.9486 9.97771 50.3237 9.94183C50.5002 9.92227 50.6314 9.92196 50.6255 9.934C50.6165 9.95205 49.7458 10.4838 48.6904 11.1241C47.3818 11.9149 46.4464 12.5533 45.7194 13.1317C40.4003 17.4049 40.664 17.1851 39.3993 18.537C39.0271 18.9282 38.5495 19.3879 38.3289 19.5688C37.8797 19.9229 37.7254 20.307 37.934 20.5114C38.1455 20.7099 38.4127 20.5551 38.9344 19.934C39.4792 19.2905 42.4324 16.5966 43.824 15.4695C45.3471 14.2454 48.184 12.1474 48.8951 11.7216C50.0129 11.0515 52.6958 9.60216 52.9777 9.51404C53.1327 9.46557 53.2839 9.4488 53.3165 9.47933C53.349 9.50986 53.0732 10.2118 52.7126 11.0368C52.0339 12.577 51.9763 12.8138 52.232 12.8509C52.4765 12.8864 52.6848 12.5618 53.4326 10.9542C54.0277 9.6793 54.1403 9.37951 54.077 9.17034C53.9887 8.86721 53.6272 8.7309 53.1445 8.81569C52.8553 8.87049 51.4129 9.47409 51.2184 9.6265C51.1753 9.66541 51.1108 9.6754 51.0864 9.6525C50.9858 9.56694 52.258 8.77738 53.2694 8.29835C54.1732 7.86822 55.4091 7.44111 55.6537 7.47659C55.8426 7.50401 55.8116 8.14465 55.609 8.91523C55.0507 10.9825 51.0811 16.7419 47.7903 20.2384C47.5043 20.5517 46.7538 21.3461 46.1386 22.0116C44.764 23.4895 44.0702 24.1695 43.0208 25.0623C42.5819 25.4438 41.5057 26.3908 40.6219 27.1658C38.3744 29.1557 35.1414 31.693 32.84 33.2622C31.6708 34.0603 29.2442 35.2565 28.8885 35.2049C28.7996 35.192 28.645 35.047 28.5497 34.8783C28.4626 34.7173 28.2876 34.421 28.1679 34.2294C27.854 33.7323 27.8362 33.4071 28.0501 32.5414C28.3141 31.5023 29.8976 28.0612 30.4924 27.2443C32.227 24.8703 34.2373 22.5169 36.9321 19.6951C37.9589 18.6312 38.7291 17.9172 40.0665 16.8274C42.3293 14.9752 44.8665 13.0015 46.3796 11.9178C47.2245 11.3179 47.5683 11.0323 47.5663 10.9159C47.5835 10.5442 46.9818 10.773 45.7302 11.6172C42.7392 13.6411 40.4663 15.3694 38.5768 17.0693C35.2145 20.0846 33.044 22.4728 30.302 26.1845C29.5883 27.1454 27.9592 30.0767 27.7828 30.722ZM31.1172 34.9864C32.6503 34.2476 33.3004 33.8967 33.599 33.6304C33.6851 33.5526 34.7907 32.7388 36.0417 31.8236C37.3069 30.904 38.6218 29.9077 38.9635 29.6025C42.919 26.183 45.2691 24.0338 46.1682 23.0352C46.3332 22.8463 47.1817 21.9501 48.0443 21.0495C49.5443 19.4865 50.6353 18.2449 51.4181 17.2165C52.215 16.1838 54.7398 12.4535 55.6869 10.9007C56.1451 10.1672 56.5272 9.00975 56.5726 8.26797C56.6006 7.63336 56.6878 7.43311 56.899 7.46375C56.9768 7.47504 57.5109 7.62351 58.0695 7.79487C60.2569 8.45421 61.5268 9.09007 61.7258 9.6028C61.7958 9.77425 61.8006 9.98138 61.7396 10.0564L61.6318 10.202L59.5275 9.47092C57.6965 8.8375 57.3728 8.74537 57.0985 8.77008C56.8242 8.79479 56.787 8.82166 56.8335 8.94452C56.8674 9.02041 56.9569 9.10436 57.0176 9.12608C57.0895 9.14941 58.1494 9.53545 59.3692 9.98342C61.7979 10.8777 61.8252 10.8946 61.6048 11.34C61.4678 11.6169 61.393 11.5996 59.8339 11.0186C58.2526 10.4343 57.2311 10.1635 56.9462 10.2576C56.5657 10.3766 56.9092 10.549 59.0106 11.2862C60.1564 11.6911 61.1222 12.0506 61.1547 12.0812C61.2746 12.176 61.2966 12.6372 61.1993 12.7134C61.0649 12.8165 60.5848 12.7275 59.8004 12.4588C58.933 12.1652 56.9825 11.6048 56.6379 11.5548C56.3601 11.5145 56.204 11.6854 56.3838 11.8276C56.4438 11.875 57.4378 12.2257 58.5925 12.6126C59.7473 12.9995 60.7383 13.3562 60.7982 13.4036C60.8663 13.4586 60.8453 13.5975 60.7128 13.817L60.5127 14.1492L60.0155 14.0706C59.7406 14.0243 58.7545 13.778 57.8248 13.514C56.3773 13.1169 56.0891 13.0493 55.8866 13.0973C55.7012 13.1349 55.6581 13.1738 55.7165 13.2726C55.7667 13.3638 56.3577 13.5657 57.926 14.0319C59.1016 14.3767 60.1075 14.7033 60.1563 14.7491C60.2051 14.7949 60.1751 14.9518 60.0814 15.0931C59.9319 15.323 59.8837 15.3482 59.6302 15.3308C59.4686 15.3203 58.5633 15.0792 57.6285 14.8017C56.6825 14.5225 55.761 14.2662 55.5861 14.2343C54.9089 14.1103 54.4646 14.2135 54.7591 14.4369C54.8191 14.4843 55.1561 14.5977 55.4939 14.6855C56.5933 14.9676 59.2022 15.8106 59.3546 15.936C59.51 16.0553 59.401 16.4201 59.1723 16.5934C59.0037 16.7173 58.7763 16.6714 56.562 16.0662C53.9988 15.3717 53.8491 15.3371 53.571 15.3935C52.9725 15.5196 53.5954 15.7777 56.2193 16.4939C57.4261 16.8238 58.4824 17.1448 58.5505 17.1999C58.646 17.2718 58.6317 17.3729 58.474 17.5952C58.065 18.181 57.2364 19.1575 57.1095 19.1972C56.9827 19.2368 55.0528 18.731 52.9312 18.1071C52.0297 17.8343 51.5843 17.7955 51.5595 17.9661C51.5257 18.1547 52.3782 18.4784 54.4946 19.0887C55.6428 19.4166 56.6081 19.7051 56.6436 19.7296C56.7398 19.7758 56.5232 20.1895 56.2624 20.5C56.1293 20.6485 55.9957 20.7258 55.8564 20.7185C55.7504 20.7161 54.6933 20.4207 53.5095 20.0683C52.3369 19.7175 51.299 19.4315 51.2012 19.4366C51.1144 19.4434 51.015 19.4999 50.9852 19.5601C50.8958 19.7407 51.5623 20.0309 53.2084 20.5085C55.2581 21.1091 55.3796 21.1526 55.4458 21.3557C55.5496 21.6998 55.0987 22.1053 54.7484 21.9706C53.8301 21.6116 50.6654 20.6879 50.0541 20.5992C49.8429 20.5685 49.6646 20.7362 49.7696 20.8611C49.896 21.0149 50.1005 21.0833 52.4279 21.821C53.5501 22.1774 54.5115 22.4975 54.5604 22.5433C54.6092 22.5891 54.4767 22.8086 54.2181 23.1388C53.8315 23.6311 53.7803 23.6624 53.581 23.6076C53.4566 23.5702 52.593 23.2449 51.6665 22.8782C49.7498 22.1292 49.3238 22.0028 48.9782 22.0753C48.7535 22.1201 48.7476 22.1321 48.8851 22.2876C49.0389 22.4583 51.7615 23.5049 52.8742 23.8083L53.4912 23.9817L53.312 24.2718C53.2204 24.4327 53.0592 24.59 52.9687 24.6284C52.7202 24.7214 52.2164 24.5838 49.7025 23.7416C48.4758 23.3314 47.3921 22.9935 47.3054 23.0002C47.0845 23.0133 47.0308 23.1217 47.1876 23.2864C47.2986 23.3992 50.6078 24.6084 51.8494 24.9886C52.3775 25.1491 52.4114 25.225 52.0809 25.5318C51.9056 25.6935 51.7669 25.7572 51.5771 25.7555C51.4096 25.757 50.3836 25.4468 49.0214 24.9976C47.7756 24.5781 46.6666 24.243 46.5688 24.2482C46.4709 24.2533 46.3685 24.3159 46.3357 24.3821C46.2583 24.5386 46.4649 24.6266 49.1091 25.5909C50.3815 26.053 51.1229 26.3605 51.1568 26.4364C51.2246 26.5882 50.825 26.9625 50.5789 26.9784C50.481 26.9835 49.4432 26.6974 48.2816 26.3483C45.9586 25.6499 45.723 25.5964 45.4292 25.7086C45.0731 25.8504 45.5167 26.0374 47.8953 26.7438C49.1509 27.1195 50.1983 27.4586 50.1997 27.504C50.2187 27.6099 46.8359 30.8351 45.9767 31.5362C45.0693 32.2626 43.7486 33.1742 42.5083 33.9232C40.9236 34.8868 37.7125 36.5369 36.8942 36.8182L36.1524 37.0653L35.3825 36.9601C34.7823 36.873 34.4976 36.8704 34.1358 36.9276C33.6842 36.9975 33.6701 37.0019 32.5173 36.7314C30.4777 36.2548 29.2695 35.8795 29.4595 35.7845C29.5248 35.7488 30.2616 35.3912 31.1172 34.9864Z" fill="url(#paint110_linear_26_116937)"/>
<path d="M34.8497 35.2432C34.934 35.3135 35.437 35.4768 35.9659 35.6116C37.0016 35.878 37.5368 35.9041 37.635 35.7054C37.7333 35.5068 37.5489 35.422 36.3739 35.1483C35.2181 34.8838 35.1737 34.8773 34.9644 34.9631C34.6788 35.0829 34.681 35.1026 34.8497 35.2432Z" fill="url(#paint111_linear_26_116937)"/>
<path d="M38.7967 27.4338C38.8906 27.5571 38.9017 27.5587 39.1857 27.4902C39.5373 27.4058 41.6211 25.6501 44.4971 23.0159C46.2753 21.3966 46.3043 21.3621 46.2336 21.1196C46.2043 20.9863 46.1326 20.8662 46.0771 20.8581C45.8103 20.8194 44.7921 21.6975 42.3229 24.0875C41.3326 25.0534 40.7132 25.5829 39.3151 26.651C38.8948 26.9706 38.6895 27.2892 38.7967 27.4338Z" fill="url(#paint112_linear_26_116937)"/>
<defs>
<linearGradient id="paint0_linear_26_116937" x1="456.99" y1="121.299" x2="495.534" y2="142.926" gradientUnits="userSpaceOnUse">
<stop stop-color="#487BFF"/>
<stop offset="1" stop-color="#4627FF"/>
</linearGradient>
<linearGradient id="paint1_linear_26_116937" x1="505.273" y1="113.119" x2="506.546" y2="113.91" gradientUnits="userSpaceOnUse">
<stop stop-color="#487BFF"/>
<stop offset="1" stop-color="#4627FF"/>
</linearGradient>
<linearGradient id="paint2_linear_26_116937" x1="178.241" y1="72.0501" x2="400.866" y2="96.3296" gradientUnits="userSpaceOnUse">
<stop stop-color="#487BFF"/>
<stop offset="1" stop-color="#4627FF"/>
</linearGradient>
<linearGradient id="paint3_linear_26_116937" x1="277.389" y1="279.287" x2="283.797" y2="309.633" gradientUnits="userSpaceOnUse">
<stop stop-color="#487BFF"/>
<stop offset="1" stop-color="#4627FF"/>
</linearGradient>
<linearGradient id="paint4_linear_26_116937" x1="323.749" y1="282.283" x2="328.62" y2="311.426" gradientUnits="userSpaceOnUse">
<stop stop-color="#487BFF"/>
<stop offset="1" stop-color="#4627FF"/>
</linearGradient>
<linearGradient id="paint5_linear_26_116937" x1="362.043" y1="259.967" x2="367.796" y2="291.676" gradientUnits="userSpaceOnUse">
<stop stop-color="#487BFF"/>
<stop offset="1" stop-color="#4627FF"/>
</linearGradient>
<linearGradient id="paint6_linear_26_116937" x1="18.8788" y1="116.334" x2="32.1709" y2="104.692" gradientUnits="userSpaceOnUse">
<stop stop-color="#487BFF"/>
<stop offset="1" stop-color="#4627FF"/>
</linearGradient>
<linearGradient id="paint7_linear_26_116937" x1="28.0633" y1="124.575" x2="42.0004" y2="112.566" gradientUnits="userSpaceOnUse">
<stop stop-color="#487BFF"/>
<stop offset="1" stop-color="#4627FF"/>
</linearGradient>
<linearGradient id="paint8_linear_26_116937" x1="19.4974" y1="116.645" x2="20.2698" y2="115.956" gradientUnits="userSpaceOnUse">
<stop stop-color="#487BFF"/>
<stop offset="1" stop-color="#4627FF"/>
</linearGradient>
<linearGradient id="paint9_linear_26_116937" x1="24.62" y1="123.183" x2="34.4965" y2="114.367" gradientUnits="userSpaceOnUse">
<stop stop-color="#487BFF"/>
<stop offset="1" stop-color="#4627FF"/>
</linearGradient>
<linearGradient id="paint10_linear_26_116937" x1="34.7104" y1="124.627" x2="37.0614" y2="122.514" gradientUnits="userSpaceOnUse">
<stop stop-color="#487BFF"/>
<stop offset="1" stop-color="#4627FF"/>
</linearGradient>
<linearGradient id="paint11_linear_26_116937" x1="22.8704" y1="113.063" x2="24.1239" y2="112.019" gradientUnits="userSpaceOnUse">
<stop stop-color="#487BFF"/>
<stop offset="1" stop-color="#4627FF"/>
</linearGradient>
<linearGradient id="paint12_linear_26_116937" x1="25.7064" y1="113.287" x2="26.8019" y2="112.378" gradientUnits="userSpaceOnUse">
<stop stop-color="#487BFF"/>
<stop offset="1" stop-color="#4627FF"/>
</linearGradient>
<linearGradient id="paint13_linear_26_116937" x1="29.4056" y1="120.378" x2="30.2067" y2="119.713" gradientUnits="userSpaceOnUse">
<stop stop-color="#487BFF"/>
<stop offset="1" stop-color="#4627FF"/>
</linearGradient>
<linearGradient id="paint14_linear_26_116937" x1="31.6776" y1="120.393" x2="32.3229" y2="119.859" gradientUnits="userSpaceOnUse">
<stop stop-color="#487BFF"/>
<stop offset="1" stop-color="#4627FF"/>
</linearGradient>
<linearGradient id="paint15_linear_26_116937" x1="15.1095" y1="104.457" x2="16.5118" y2="103.219" gradientUnits="userSpaceOnUse">
<stop stop-color="#487BFF"/>
<stop offset="1" stop-color="#4627FF"/>
</linearGradient>
<linearGradient id="paint16_linear_26_116937" x1="15.7275" y1="104.901" x2="17.4909" y2="103.34" gradientUnits="userSpaceOnUse">
<stop stop-color="#487BFF"/>
<stop offset="1" stop-color="#4627FF"/>
</linearGradient>
<linearGradient id="paint17_linear_26_116937" x1="12.1492" y1="109.488" x2="18.2469" y2="103.968" gradientUnits="userSpaceOnUse">
<stop stop-color="#487BFF"/>
<stop offset="1" stop-color="#4627FF"/>
</linearGradient>
<linearGradient id="paint18_linear_26_116937" x1="12.4093" y1="110.836" x2="20.4864" y2="103.547" gradientUnits="userSpaceOnUse">
<stop stop-color="#487BFF"/>
<stop offset="1" stop-color="#4627FF"/>
</linearGradient>
<linearGradient id="paint19_linear_26_116937" x1="13.482" y1="112.022" x2="23.0033" y2="103.44" gradientUnits="userSpaceOnUse">
<stop stop-color="#487BFF"/>
<stop offset="1" stop-color="#4627FF"/>
</linearGradient>
<linearGradient id="paint20_linear_26_116937" x1="18.2189" y1="108.722" x2="24.1583" y2="103.389" gradientUnits="userSpaceOnUse">
<stop stop-color="#487BFF"/>
<stop offset="1" stop-color="#4627FF"/>
</linearGradient>
<linearGradient id="paint21_linear_26_116937" x1="22.1973" y1="106.65" x2="26.2842" y2="102.998" gradientUnits="userSpaceOnUse">
<stop stop-color="#487BFF"/>
<stop offset="1" stop-color="#4627FF"/>
</linearGradient>
<linearGradient id="paint22_linear_26_116937" x1="24.2653" y1="106.365" x2="27.611" y2="103.372" gradientUnits="userSpaceOnUse">
<stop stop-color="#487BFF"/>
<stop offset="1" stop-color="#4627FF"/>
</linearGradient>
<linearGradient id="paint23_linear_26_116937" x1="26.1796" y1="106.668" x2="29.2533" y2="103.925" gradientUnits="userSpaceOnUse">
<stop stop-color="#487BFF"/>
<stop offset="1" stop-color="#4627FF"/>
</linearGradient>
<linearGradient id="paint24_linear_26_116937" x1="28.1143" y1="107.095" x2="31.187" y2="104.343" gradientUnits="userSpaceOnUse">
<stop stop-color="#487BFF"/>
<stop offset="1" stop-color="#4627FF"/>
</linearGradient>
<linearGradient id="paint25_linear_26_116937" x1="12.4728" y1="113.155" x2="16.4601" y2="109.586" gradientUnits="userSpaceOnUse">
<stop stop-color="#487BFF"/>
<stop offset="1" stop-color="#4627FF"/>
</linearGradient>
<linearGradient id="paint26_linear_26_116937" x1="13.3414" y1="114.299" x2="16.376" y2="111.607" gradientUnits="userSpaceOnUse">
<stop stop-color="#487BFF"/>
<stop offset="1" stop-color="#4627FF"/>
</linearGradient>
<linearGradient id="paint27_linear_26_116937" x1="14.8791" y1="115.032" x2="17.7662" y2="112.492" gradientUnits="userSpaceOnUse">
<stop stop-color="#487BFF"/>
<stop offset="1" stop-color="#4627FF"/>
</linearGradient>
<linearGradient id="paint28_linear_26_116937" x1="16.6218" y1="115.739" x2="19.7195" y2="113.009" gradientUnits="userSpaceOnUse">
<stop stop-color="#487BFF"/>
<stop offset="1" stop-color="#4627FF"/>
</linearGradient>
<linearGradient id="paint29_linear_26_116937" x1="18.7871" y1="116.197" x2="21.5438" y2="113.774" gradientUnits="userSpaceOnUse">
<stop stop-color="#487BFF"/>
<stop offset="1" stop-color="#4627FF"/>
</linearGradient>
<linearGradient id="paint30_linear_26_116937" x1="21.0326" y1="116.364" x2="23.5981" y2="114.125" gradientUnits="userSpaceOnUse">
<stop stop-color="#487BFF"/>
<stop offset="1" stop-color="#4627FF"/>
</linearGradient>
<linearGradient id="paint31_linear_26_116937" x1="23.2945" y1="116.194" x2="25.8522" y2="113.978" gradientUnits="userSpaceOnUse">
<stop stop-color="#487BFF"/>
<stop offset="1" stop-color="#4627FF"/>
</linearGradient>
<linearGradient id="paint32_linear_26_116937" x1="25.4534" y1="115.406" x2="27.7519" y2="113.417" gradientUnits="userSpaceOnUse">
<stop stop-color="#487BFF"/>
<stop offset="1" stop-color="#4627FF"/>
</linearGradient>
<linearGradient id="paint33_linear_26_116937" x1="27.6669" y1="114.644" x2="29.8465" y2="112.756" gradientUnits="userSpaceOnUse">
<stop stop-color="#487BFF"/>
<stop offset="1" stop-color="#4627FF"/>
</linearGradient>
<linearGradient id="paint34_linear_26_116937" x1="29.8594" y1="114.792" x2="32.8805" y2="112.158" gradientUnits="userSpaceOnUse">
<stop stop-color="#487BFF"/>
<stop offset="1" stop-color="#4627FF"/>
</linearGradient>
<linearGradient id="paint35_linear_26_116937" x1="31.4862" y1="114.779" x2="34.9902" y2="111.693" gradientUnits="userSpaceOnUse">
<stop stop-color="#487BFF"/>
<stop offset="1" stop-color="#4627FF"/>
</linearGradient>
<linearGradient id="paint36_linear_26_116937" x1="33.1753" y1="115.124" x2="36.7436" y2="111.98" gradientUnits="userSpaceOnUse">
<stop stop-color="#487BFF"/>
<stop offset="1" stop-color="#4627FF"/>
</linearGradient>
<linearGradient id="paint37_linear_26_116937" x1="34.6024" y1="115.662" x2="38.2957" y2="112.407" gradientUnits="userSpaceOnUse">
<stop stop-color="#487BFF"/>
<stop offset="1" stop-color="#4627FF"/>
</linearGradient>
<linearGradient id="paint38_linear_26_116937" x1="35.7141" y1="116.726" x2="40.016" y2="112.915" gradientUnits="userSpaceOnUse">
<stop stop-color="#487BFF"/>
<stop offset="1" stop-color="#4627FF"/>
</linearGradient>
<linearGradient id="paint39_linear_26_116937" x1="31.1275" y1="123.473" x2="41.8083" y2="113.842" gradientUnits="userSpaceOnUse">
<stop stop-color="#487BFF"/>
<stop offset="1" stop-color="#4627FF"/>
</linearGradient>
<linearGradient id="paint40_linear_26_116937" x1="33.6376" y1="122.95" x2="42.3011" y2="115.169" gradientUnits="userSpaceOnUse">
<stop stop-color="#487BFF"/>
<stop offset="1" stop-color="#4627FF"/>
</linearGradient>
<linearGradient id="paint41_linear_26_116937" x1="35.6411" y1="122.283" x2="41.6719" y2="116.89" gradientUnits="userSpaceOnUse">
<stop stop-color="#487BFF"/>
<stop offset="1" stop-color="#4627FF"/>
</linearGradient>
<linearGradient id="paint42_linear_26_116937" x1="25.9746" y1="124.472" x2="30.3486" y2="120.517" gradientUnits="userSpaceOnUse">
<stop stop-color="#487BFF"/>
<stop offset="1" stop-color="#4627FF"/>
</linearGradient>
<linearGradient id="paint43_linear_26_116937" x1="24.2053" y1="124.012" x2="27.7404" y2="120.806" gradientUnits="userSpaceOnUse">
<stop stop-color="#487BFF"/>
<stop offset="1" stop-color="#4627FF"/>
</linearGradient>
<linearGradient id="paint44_linear_26_116937" x1="22.9572" y1="123.706" x2="26.5467" y2="120.447" gradientUnits="userSpaceOnUse">
<stop stop-color="#487BFF"/>
<stop offset="1" stop-color="#4627FF"/>
</linearGradient>
<linearGradient id="paint45_linear_26_116937" x1="21.6297" y1="123.099" x2="24.3538" y2="120.655" gradientUnits="userSpaceOnUse">
<stop stop-color="#487BFF"/>
<stop offset="1" stop-color="#4627FF"/>
</linearGradient>
<linearGradient id="paint46_linear_26_116937" x1="20.1917" y1="122.531" x2="21.6431" y2="121.253" gradientUnits="userSpaceOnUse">
<stop stop-color="#487BFF"/>
<stop offset="1" stop-color="#4627FF"/>
</linearGradient>
<linearGradient id="paint47_linear_26_116937" x1="21.054" y1="109.868" x2="22.7862" y2="108.341" gradientUnits="userSpaceOnUse">
<stop stop-color="#487BFF"/>
<stop offset="1" stop-color="#4627FF"/>
</linearGradient>
<linearGradient id="paint48_linear_26_116937" x1="20.7866" y1="108.675" x2="22.1879" y2="107.445" gradientUnits="userSpaceOnUse">
<stop stop-color="#487BFF"/>
<stop offset="1" stop-color="#4627FF"/>
</linearGradient>
<linearGradient id="paint49_linear_26_116937" x1="22.1071" y1="110.778" x2="23.3866" y2="109.667" gradientUnits="userSpaceOnUse">
<stop stop-color="#487BFF"/>
<stop offset="1" stop-color="#4627FF"/>
</linearGradient>
<linearGradient id="paint50_linear_26_116937" x1="22.9892" y1="112.043" x2="24.7735" y2="110.461" gradientUnits="userSpaceOnUse">
<stop stop-color="#487BFF"/>
<stop offset="1" stop-color="#4627FF"/>
</linearGradient>
<linearGradient id="paint51_linear_26_116937" x1="24.127" y1="112.834" x2="25.0521" y2="112.024" gradientUnits="userSpaceOnUse">
<stop stop-color="#487BFF"/>
<stop offset="1" stop-color="#4627FF"/>
</linearGradient>
<linearGradient id="paint52_linear_26_116937" x1="26.9397" y1="116.635" x2="28.1433" y2="115.571" gradientUnits="userSpaceOnUse">
<stop stop-color="#487BFF"/>
<stop offset="1" stop-color="#4627FF"/>
</linearGradient>
<linearGradient id="paint53_linear_26_116937" x1="27.8113" y1="117.511" x2="28.9289" y2="116.526" gradientUnits="userSpaceOnUse">
<stop stop-color="#487BFF"/>
<stop offset="1" stop-color="#4627FF"/>
</linearGradient>
<linearGradient id="paint54_linear_26_116937" x1="28.9409" y1="118.519" x2="30.1778" y2="117.426" gradientUnits="userSpaceOnUse">
<stop stop-color="#487BFF"/>
<stop offset="1" stop-color="#4627FF"/>
</linearGradient>
<linearGradient id="paint55_linear_26_116937" x1="29.851" y1="119.341" x2="31.0627" y2="118.258" gradientUnits="userSpaceOnUse">
<stop stop-color="#487BFF"/>
<stop offset="1" stop-color="#4627FF"/>
</linearGradient>
<linearGradient id="paint56_linear_26_116937" x1="30.6941" y1="120.56" x2="31.8122" y2="119.575" gradientUnits="userSpaceOnUse">
<stop stop-color="#487BFF"/>
<stop offset="1" stop-color="#4627FF"/>
</linearGradient>
<linearGradient id="paint57_linear_26_116937" x1="34.7022" y1="123.886" x2="36.0368" y2="122.714" gradientUnits="userSpaceOnUse">
<stop stop-color="#487BFF"/>
<stop offset="1" stop-color="#4627FF"/>
</linearGradient>
<linearGradient id="paint58_linear_26_116937" x1="18.8788" y1="116.334" x2="32.1709" y2="104.692" gradientUnits="userSpaceOnUse">
<stop stop-color="#487BFF"/>
<stop offset="1" stop-color="#4627FF"/>
</linearGradient>
<linearGradient id="paint59_linear_26_116937" x1="28.0633" y1="124.575" x2="42.0004" y2="112.566" gradientUnits="userSpaceOnUse">
<stop stop-color="#487BFF"/>
<stop offset="1" stop-color="#4627FF"/>
</linearGradient>
<linearGradient id="paint60_linear_26_116937" x1="19.4974" y1="116.645" x2="20.2698" y2="115.956" gradientUnits="userSpaceOnUse">
<stop stop-color="#487BFF"/>
<stop offset="1" stop-color="#4627FF"/>
</linearGradient>
<linearGradient id="paint61_linear_26_116937" x1="24.62" y1="123.183" x2="34.4965" y2="114.367" gradientUnits="userSpaceOnUse">
<stop stop-color="#487BFF"/>
<stop offset="1" stop-color="#4627FF"/>
</linearGradient>
<linearGradient id="paint62_linear_26_116937" x1="34.7104" y1="124.627" x2="37.0614" y2="122.514" gradientUnits="userSpaceOnUse">
<stop stop-color="#487BFF"/>
<stop offset="1" stop-color="#4627FF"/>
</linearGradient>
<linearGradient id="paint63_linear_26_116937" x1="22.8704" y1="113.063" x2="24.1239" y2="112.019" gradientUnits="userSpaceOnUse">
<stop stop-color="#487BFF"/>
<stop offset="1" stop-color="#4627FF"/>
</linearGradient>
<linearGradient id="paint64_linear_26_116937" x1="25.7064" y1="113.287" x2="26.8019" y2="112.378" gradientUnits="userSpaceOnUse">
<stop stop-color="#487BFF"/>
<stop offset="1" stop-color="#4627FF"/>
</linearGradient>
<linearGradient id="paint65_linear_26_116937" x1="29.4056" y1="120.378" x2="30.2067" y2="119.713" gradientUnits="userSpaceOnUse">
<stop stop-color="#487BFF"/>
<stop offset="1" stop-color="#4627FF"/>
</linearGradient>
<linearGradient id="paint66_linear_26_116937" x1="31.6776" y1="120.393" x2="32.3229" y2="119.859" gradientUnits="userSpaceOnUse">
<stop stop-color="#487BFF"/>
<stop offset="1" stop-color="#4627FF"/>
</linearGradient>
<linearGradient id="paint67_linear_26_116937" x1="15.1095" y1="104.457" x2="16.5118" y2="103.219" gradientUnits="userSpaceOnUse">
<stop stop-color="#487BFF"/>
<stop offset="1" stop-color="#4627FF"/>
</linearGradient>
<linearGradient id="paint68_linear_26_116937" x1="15.7275" y1="104.901" x2="17.4909" y2="103.34" gradientUnits="userSpaceOnUse">
<stop stop-color="#487BFF"/>
<stop offset="1" stop-color="#4627FF"/>
</linearGradient>
<linearGradient id="paint69_linear_26_116937" x1="12.1492" y1="109.488" x2="18.2469" y2="103.968" gradientUnits="userSpaceOnUse">
<stop stop-color="#487BFF"/>
<stop offset="1" stop-color="#4627FF"/>
</linearGradient>
<linearGradient id="paint70_linear_26_116937" x1="12.4093" y1="110.836" x2="20.4864" y2="103.547" gradientUnits="userSpaceOnUse">
<stop stop-color="#487BFF"/>
<stop offset="1" stop-color="#4627FF"/>
</linearGradient>
<linearGradient id="paint71_linear_26_116937" x1="13.482" y1="112.022" x2="23.0033" y2="103.44" gradientUnits="userSpaceOnUse">
<stop stop-color="#487BFF"/>
<stop offset="1" stop-color="#4627FF"/>
</linearGradient>
<linearGradient id="paint72_linear_26_116937" x1="18.2189" y1="108.722" x2="24.1583" y2="103.389" gradientUnits="userSpaceOnUse">
<stop stop-color="#487BFF"/>
<stop offset="1" stop-color="#4627FF"/>
</linearGradient>
<linearGradient id="paint73_linear_26_116937" x1="22.1973" y1="106.65" x2="26.2842" y2="102.998" gradientUnits="userSpaceOnUse">
<stop stop-color="#487BFF"/>
<stop offset="1" stop-color="#4627FF"/>
</linearGradient>
<linearGradient id="paint74_linear_26_116937" x1="24.2653" y1="106.365" x2="27.611" y2="103.372" gradientUnits="userSpaceOnUse">
<stop stop-color="#487BFF"/>
<stop offset="1" stop-color="#4627FF"/>
</linearGradient>
<linearGradient id="paint75_linear_26_116937" x1="26.1796" y1="106.668" x2="29.2533" y2="103.925" gradientUnits="userSpaceOnUse">
<stop stop-color="#487BFF"/>
<stop offset="1" stop-color="#4627FF"/>
</linearGradient>
<linearGradient id="paint76_linear_26_116937" x1="28.1143" y1="107.095" x2="31.187" y2="104.343" gradientUnits="userSpaceOnUse">
<stop stop-color="#487BFF"/>
<stop offset="1" stop-color="#4627FF"/>
</linearGradient>
<linearGradient id="paint77_linear_26_116937" x1="12.4728" y1="113.155" x2="16.4601" y2="109.586" gradientUnits="userSpaceOnUse">
<stop stop-color="#487BFF"/>
<stop offset="1" stop-color="#4627FF"/>
</linearGradient>
<linearGradient id="paint78_linear_26_116937" x1="13.3414" y1="114.299" x2="16.376" y2="111.607" gradientUnits="userSpaceOnUse">
<stop stop-color="#487BFF"/>
<stop offset="1" stop-color="#4627FF"/>
</linearGradient>
<linearGradient id="paint79_linear_26_116937" x1="14.8791" y1="115.032" x2="17.7662" y2="112.492" gradientUnits="userSpaceOnUse">
<stop stop-color="#487BFF"/>
<stop offset="1" stop-color="#4627FF"/>
</linearGradient>
<linearGradient id="paint80_linear_26_116937" x1="16.6218" y1="115.739" x2="19.7195" y2="113.009" gradientUnits="userSpaceOnUse">
<stop stop-color="#487BFF"/>
<stop offset="1" stop-color="#4627FF"/>
</linearGradient>
<linearGradient id="paint81_linear_26_116937" x1="18.7871" y1="116.197" x2="21.5438" y2="113.774" gradientUnits="userSpaceOnUse">
<stop stop-color="#487BFF"/>
<stop offset="1" stop-color="#4627FF"/>
</linearGradient>
<linearGradient id="paint82_linear_26_116937" x1="21.0326" y1="116.364" x2="23.5981" y2="114.125" gradientUnits="userSpaceOnUse">
<stop stop-color="#487BFF"/>
<stop offset="1" stop-color="#4627FF"/>
</linearGradient>
<linearGradient id="paint83_linear_26_116937" x1="23.2945" y1="116.194" x2="25.8522" y2="113.978" gradientUnits="userSpaceOnUse">
<stop stop-color="#487BFF"/>
<stop offset="1" stop-color="#4627FF"/>
</linearGradient>
<linearGradient id="paint84_linear_26_116937" x1="25.4534" y1="115.406" x2="27.7519" y2="113.417" gradientUnits="userSpaceOnUse">
<stop stop-color="#487BFF"/>
<stop offset="1" stop-color="#4627FF"/>
</linearGradient>
<linearGradient id="paint85_linear_26_116937" x1="27.6669" y1="114.644" x2="29.8465" y2="112.756" gradientUnits="userSpaceOnUse">
<stop stop-color="#487BFF"/>
<stop offset="1" stop-color="#4627FF"/>
</linearGradient>
<linearGradient id="paint86_linear_26_116937" x1="29.8594" y1="114.792" x2="32.8805" y2="112.158" gradientUnits="userSpaceOnUse">
<stop stop-color="#487BFF"/>
<stop offset="1" stop-color="#4627FF"/>
</linearGradient>
<linearGradient id="paint87_linear_26_116937" x1="31.4862" y1="114.779" x2="34.9902" y2="111.693" gradientUnits="userSpaceOnUse">
<stop stop-color="#487BFF"/>
<stop offset="1" stop-color="#4627FF"/>
</linearGradient>
<linearGradient id="paint88_linear_26_116937" x1="33.1753" y1="115.124" x2="36.7436" y2="111.98" gradientUnits="userSpaceOnUse">
<stop stop-color="#487BFF"/>
<stop offset="1" stop-color="#4627FF"/>
</linearGradient>
<linearGradient id="paint89_linear_26_116937" x1="34.6024" y1="115.662" x2="38.2957" y2="112.407" gradientUnits="userSpaceOnUse">
<stop stop-color="#487BFF"/>
<stop offset="1" stop-color="#4627FF"/>
</linearGradient>
<linearGradient id="paint90_linear_26_116937" x1="35.7141" y1="116.726" x2="40.016" y2="112.915" gradientUnits="userSpaceOnUse">
<stop stop-color="#487BFF"/>
<stop offset="1" stop-color="#4627FF"/>
</linearGradient>
<linearGradient id="paint91_linear_26_116937" x1="31.1275" y1="123.473" x2="41.8083" y2="113.842" gradientUnits="userSpaceOnUse">
<stop stop-color="#487BFF"/>
<stop offset="1" stop-color="#4627FF"/>
</linearGradient>
<linearGradient id="paint92_linear_26_116937" x1="33.6376" y1="122.95" x2="42.3011" y2="115.169" gradientUnits="userSpaceOnUse">
<stop stop-color="#487BFF"/>
<stop offset="1" stop-color="#4627FF"/>
</linearGradient>
<linearGradient id="paint93_linear_26_116937" x1="35.6411" y1="122.283" x2="41.6719" y2="116.89" gradientUnits="userSpaceOnUse">
<stop stop-color="#487BFF"/>
<stop offset="1" stop-color="#4627FF"/>
</linearGradient>
<linearGradient id="paint94_linear_26_116937" x1="25.9746" y1="124.472" x2="30.3486" y2="120.517" gradientUnits="userSpaceOnUse">
<stop stop-color="#487BFF"/>
<stop offset="1" stop-color="#4627FF"/>
</linearGradient>
<linearGradient id="paint95_linear_26_116937" x1="24.2053" y1="124.012" x2="27.7404" y2="120.806" gradientUnits="userSpaceOnUse">
<stop stop-color="#487BFF"/>
<stop offset="1" stop-color="#4627FF"/>
</linearGradient>
<linearGradient id="paint96_linear_26_116937" x1="22.9572" y1="123.706" x2="26.5467" y2="120.447" gradientUnits="userSpaceOnUse">
<stop stop-color="#487BFF"/>
<stop offset="1" stop-color="#4627FF"/>
</linearGradient>
<linearGradient id="paint97_linear_26_116937" x1="21.6297" y1="123.099" x2="24.3538" y2="120.655" gradientUnits="userSpaceOnUse">
<stop stop-color="#487BFF"/>
<stop offset="1" stop-color="#4627FF"/>
</linearGradient>
<linearGradient id="paint98_linear_26_116937" x1="20.1917" y1="122.531" x2="21.6431" y2="121.253" gradientUnits="userSpaceOnUse">
<stop stop-color="#487BFF"/>
<stop offset="1" stop-color="#4627FF"/>
</linearGradient>
<linearGradient id="paint99_linear_26_116937" x1="21.054" y1="109.868" x2="22.7862" y2="108.341" gradientUnits="userSpaceOnUse">
<stop stop-color="#487BFF"/>
<stop offset="1" stop-color="#4627FF"/>
</linearGradient>
<linearGradient id="paint100_linear_26_116937" x1="20.7866" y1="108.675" x2="22.1879" y2="107.445" gradientUnits="userSpaceOnUse">
<stop stop-color="#487BFF"/>
<stop offset="1" stop-color="#4627FF"/>
</linearGradient>
<linearGradient id="paint101_linear_26_116937" x1="22.1071" y1="110.778" x2="23.3866" y2="109.667" gradientUnits="userSpaceOnUse">
<stop stop-color="#487BFF"/>
<stop offset="1" stop-color="#4627FF"/>
</linearGradient>
<linearGradient id="paint102_linear_26_116937" x1="22.9892" y1="112.043" x2="24.7735" y2="110.461" gradientUnits="userSpaceOnUse">
<stop stop-color="#487BFF"/>
<stop offset="1" stop-color="#4627FF"/>
</linearGradient>
<linearGradient id="paint103_linear_26_116937" x1="24.127" y1="112.834" x2="25.0521" y2="112.024" gradientUnits="userSpaceOnUse">
<stop stop-color="#487BFF"/>
<stop offset="1" stop-color="#4627FF"/>
</linearGradient>
<linearGradient id="paint104_linear_26_116937" x1="26.9397" y1="116.635" x2="28.1433" y2="115.571" gradientUnits="userSpaceOnUse">
<stop stop-color="#487BFF"/>
<stop offset="1" stop-color="#4627FF"/>
</linearGradient>
<linearGradient id="paint105_linear_26_116937" x1="27.8113" y1="117.511" x2="28.9289" y2="116.526" gradientUnits="userSpaceOnUse">
<stop stop-color="#487BFF"/>
<stop offset="1" stop-color="#4627FF"/>
</linearGradient>
<linearGradient id="paint106_linear_26_116937" x1="28.9409" y1="118.519" x2="30.1778" y2="117.426" gradientUnits="userSpaceOnUse">
<stop stop-color="#487BFF"/>
<stop offset="1" stop-color="#4627FF"/>
</linearGradient>
<linearGradient id="paint107_linear_26_116937" x1="29.851" y1="119.341" x2="31.0627" y2="118.258" gradientUnits="userSpaceOnUse">
<stop stop-color="#487BFF"/>
<stop offset="1" stop-color="#4627FF"/>
</linearGradient>
<linearGradient id="paint108_linear_26_116937" x1="30.6941" y1="120.56" x2="31.8122" y2="119.575" gradientUnits="userSpaceOnUse">
<stop stop-color="#487BFF"/>
<stop offset="1" stop-color="#4627FF"/>
</linearGradient>
<linearGradient id="paint109_linear_26_116937" x1="34.7022" y1="123.886" x2="36.0368" y2="122.714" gradientUnits="userSpaceOnUse">
<stop stop-color="#487BFF"/>
<stop offset="1" stop-color="#4627FF"/>
</linearGradient>
<linearGradient id="paint110_linear_26_116937" x1="52.5621" y1="32.2217" x2="55.6352" y2="4.67647" gradientUnits="userSpaceOnUse">
<stop stop-color="#487BFF"/>
<stop offset="1" stop-color="#4627FF"/>
</linearGradient>
<linearGradient id="paint111_linear_26_116937" x1="37.61" y1="35.756" x2="37.6848" y2="35.2211" gradientUnits="userSpaceOnUse">
<stop stop-color="#487BFF"/>
<stop offset="1" stop-color="#4627FF"/>
</linearGradient>
<linearGradient id="paint112_linear_26_116937" x1="43.7159" y1="26.4025" x2="44.3546" y2="20.1423" gradientUnits="userSpaceOnUse">
<stop stop-color="#487BFF"/>
<stop offset="1" stop-color="#4627FF"/>
</linearGradient>
</defs>
</svg>
