<svg width="1053" height="781" fill="none" xmlns="http://www.w3.org/2000/svg"><g opacity=".05" fill-opacity=".3"><path d="M303.5 781V-272h2V781h-2z" fill="url(#paint0_radial_257_33261)"/><path d="M414.5 781V-272h2V781h-2z" fill="url(#paint1_radial_257_33261)"/><path d="M525.5-272V781h2V-272h-2z" fill="url(#paint2_radial_257_33261)"/><path d="M636.5 781V-272h2V781h-2z" fill="url(#paint3_radial_257_33261)"/><path d="M747.5-272V781h2V-272h-2z" fill="url(#paint4_radial_257_33261)"/><path d="M0 33.5h1053v-2H0v2z" fill="url(#paint5_radial_257_33261)"/><path d="M1053 144.5H0v-2h1053v2z" fill="url(#paint6_radial_257_33261)"/><path d="M0 255.5h1053v-2H0v2z" fill="url(#paint7_radial_257_33261)"/><path d="M1053 366.5H0v-2h1053v2z" fill="url(#paint8_radial_257_33261)"/><path d="M1053 477.5H0v-2h1053v2z" fill="url(#paint9_radial_257_33261)"/></g><defs><radialGradient id="paint0_radial_257_33261" cx="0" cy="0" r="1" gradientUnits="userSpaceOnUse" gradientTransform="rotate(105.62 166.697 326.995) scale(750.207)"><stop stop-color="#E2E2E2"/><stop offset="1" stop-color="#E2E2E2" stop-opacity="0"/></radialGradient><radialGradient id="paint1_radial_257_33261" cx="0" cy="0" r="1" gradientUnits="userSpaceOnUse" gradientTransform="rotate(105.62 166.697 326.995) scale(750.207)"><stop stop-color="#E2E2E2"/><stop offset="1" stop-color="#E2E2E2" stop-opacity="0"/></radialGradient><radialGradient id="paint2_radial_257_33261" cx="0" cy="0" r="1" gradientUnits="userSpaceOnUse" gradientTransform="rotate(105.62 166.697 326.995) scale(750.207)"><stop stop-color="#E2E2E2"/><stop offset="1" stop-color="#E2E2E2" stop-opacity="0"/></radialGradient><radialGradient id="paint3_radial_257_33261" cx="0" cy="0" r="1" gradientUnits="userSpaceOnUse" gradientTransform="rotate(105.62 166.697 326.995) scale(750.207)"><stop stop-color="#E2E2E2"/><stop offset="1" stop-color="#E2E2E2" stop-opacity="0"/></radialGradient><radialGradient id="paint4_radial_257_33261" cx="0" cy="0" r="1" gradientUnits="userSpaceOnUse" gradientTransform="rotate(105.62 166.697 326.995) scale(750.207)"><stop stop-color="#E2E2E2"/><stop offset="1" stop-color="#E2E2E2" stop-opacity="0"/></radialGradient><radialGradient id="paint5_radial_257_33261" cx="0" cy="0" r="1" gradientUnits="userSpaceOnUse" gradientTransform="rotate(105.62 166.697 326.995) scale(750.207)"><stop stop-color="#E2E2E2"/><stop offset="1" stop-color="#E2E2E2" stop-opacity="0"/></radialGradient><radialGradient id="paint6_radial_257_33261" cx="0" cy="0" r="1" gradientUnits="userSpaceOnUse" gradientTransform="rotate(105.62 166.697 326.995) scale(750.207)"><stop stop-color="#E2E2E2"/><stop offset="1" stop-color="#E2E2E2" stop-opacity="0"/></radialGradient><radialGradient id="paint7_radial_257_33261" cx="0" cy="0" r="1" gradientUnits="userSpaceOnUse" gradientTransform="rotate(105.62 166.697 326.995) scale(750.207)"><stop stop-color="#E2E2E2"/><stop offset="1" stop-color="#E2E2E2" stop-opacity="0"/></radialGradient><radialGradient id="paint8_radial_257_33261" cx="0" cy="0" r="1" gradientUnits="userSpaceOnUse" gradientTransform="rotate(105.62 166.697 326.995) scale(750.207)"><stop stop-color="#E2E2E2"/><stop offset="1" stop-color="#E2E2E2" stop-opacity="0"/></radialGradient><radialGradient id="paint9_radial_257_33261" cx="0" cy="0" r="1" gradientUnits="userSpaceOnUse" gradientTransform="rotate(105.62 166.697 326.995) scale(750.207)"><stop stop-color="#E2E2E2"/><stop offset="1" stop-color="#E2E2E2" stop-opacity="0"/></radialGradient></defs></svg>