<svg width="190" height="70" fill="none" xmlns="http://www.w3.org/2000/svg"><path d="M2 39.652c6.226-19.811 9.776-30.183 30.4-25.6 10.332 2.296 14.4 7.203 14.4 16.8 0 6.38-9.6 4.947-9.6-1.6 0-8.544 3.41-16.874 10.4-22.311 16.325-12.697 43.417 1.728 55.2 13.51 4.682 4.683 5.958 17.832-3.2 12.445-6.468-3.804-2.549-14.926 1.6-18.844 18.793-17.75 41.437 1.437 55.022 15.022 4.565 4.565 13.569 15.045 15.289 21.067 1.395 4.88 11.952-11.227 5.778-3.29-3.573 4.595-10.743 11.278-16.889 12-2.964.35 13.511 4.05 16 5.156 4.177 1.857 13.825 6.876 10.844 1.245-2.468-4.662-6.044-12.583-6.044-17.6" stroke="url(#paint0_linear_385_43551)" stroke-width="3" stroke-linecap="round"/><defs><linearGradient id="paint0_linear_385_43551" x1="46.014" y1="67.845" x2="200.747" y2="57.363" gradientUnits="userSpaceOnUse"><stop stop-color="#487BFF"/><stop offset="1" stop-color="#4627FF"/></linearGradient></defs></svg>