<svg width="235" height="109" fill="none" xmlns="http://www.w3.org/2000/svg"><path d="M46.611 94.753c51.059 6.261 108.339 4.468 156.824-14.041 14.15-5.402 32.905-14.251 29.055-32.474-4.539-21.482-35.166-33.006-53.516-38.04C144.248.671 107.931.078 72.438 5.188c-15.67 2.256-31.485 5.645-46.19 11.628C17.97 20.184 1.13 28.276 2.035 39.703c.676 8.524 12.62 16.943 18.936 20.968 16.887 10.762 37.4 17.104 56.558 22.453 41.227 11.51 83.162 18.247 125.533 23.876" stroke="url(#paint0_linear_385_43577)" stroke-width="3" stroke-linecap="round"/><defs><linearGradient id="paint0_linear_385_43577" x1="56.719" y1="2" x2="249.433" y2="12.178" gradientUnits="userSpaceOnUse"><stop stop-color="#487BFF"/><stop offset="1" stop-color="#4627FF"/></linearGradient></defs></svg>