<svg width="20" height="20" viewBox="0 0 20 20" fill="none" xmlns="http://www.w3.org/2000/svg">
<g clip-path="url(#clip0_26_92141)">
<path d="M8.33339 17.3134C7.60806 17.1488 6.91145 16.8767 6.26672 16.5059" stroke="#00FFA3" stroke-width="1.33" stroke-linecap="round" stroke-linejoin="round"/>
<path d="M11.6666 2.68555C13.3234 3.06394 14.8027 3.99362 15.8622 5.32239C16.9217 6.65115 17.4987 8.30026 17.4987 9.99971C17.4987 11.6992 16.9217 13.3483 15.8622 14.677C14.8027 16.0058 13.3234 16.9355 11.6666 17.3139" stroke="#00FFA3" stroke-width="1.33" stroke-linecap="round" stroke-linejoin="round"/>
<path d="M3.81584 14.244C3.36126 13.5835 3.016 12.8542 2.79333 12.084" stroke="#00FFA3" stroke-width="1.33" stroke-linecap="round" stroke-linejoin="round"/>
<path d="M2.60339 8.75091C2.73673 7.95925 2.99339 7.20924 3.35339 6.52174L3.49423 6.26758" stroke="#00FFA3" stroke-width="1.33" stroke-linecap="round" stroke-linejoin="round"/>
<path d="M5.75586 3.81555C6.53557 3.2788 7.41029 2.89531 8.33336 2.68555" stroke="#00FFA3" stroke-width="1.33" stroke-linecap="round" stroke-linejoin="round"/>
</g>
<defs>
<clipPath id="clip0_26_92141">
<rect width="20" height="20" fill="white"/>
</clipPath>
</defs>
</svg>
