<svg width="21" height="21" viewBox="0 0 21 21" fill="none" xmlns="http://www.w3.org/2000/svg">
<g clip-path="url(#clip0_17_70910)">
<path d="M8.66652 17.8143C7.94119 17.6498 7.24458 17.3776 6.59985 17.0068" stroke="#363636" stroke-width="1.33" stroke-linecap="round" stroke-linejoin="round"/>
<path d="M12 3.18604C13.6568 3.56443 15.136 4.49411 16.1955 5.82287C17.255 7.15164 17.832 8.80074 17.832 10.5002C17.832 12.1997 17.255 13.8488 16.1955 15.1775C15.136 16.5063 13.6568 17.436 12 17.8144" stroke="#363636" stroke-width="1.33" stroke-linecap="round" stroke-linejoin="round"/>
<path d="M4.14896 14.744C3.69439 14.0835 3.34913 13.3542 3.12646 12.584" stroke="#363636" stroke-width="1.33" stroke-linecap="round" stroke-linejoin="round"/>
<path d="M2.93652 9.24994C3.06986 8.45827 3.32652 7.70827 3.68652 7.02077L3.82736 6.7666" stroke="#363636" stroke-width="1.33" stroke-linecap="round" stroke-linejoin="round"/>
<path d="M6.08911 4.31604C6.86882 3.77929 7.74355 3.3958 8.66661 3.18604" stroke="#363636" stroke-width="1.33" stroke-linecap="round" stroke-linejoin="round"/>
</g>
<defs>
<clipPath id="clip0_17_70910">
<rect width="20" height="20" fill="white" transform="translate(0.333252 0.5)"/>
</clipPath>
</defs>
</svg>
