<svg width="32" height="32" viewBox="0 0 32 32" fill="none" xmlns="http://www.w3.org/2000/svg">
<g clip-path="url(#clip0_3_314122)">
<path d="M13.3333 27.7022C12.1728 27.4389 11.0582 27.0034 10.0267 26.4102" stroke="white" stroke-width="1.33" stroke-linecap="round" stroke-linejoin="round"/>
<path d="M18.6667 4.29688C21.3175 4.9023 23.6843 6.3898 25.3795 8.51582C27.0747 10.6418 27.9979 13.2804 27.9979 15.9995C27.9979 18.7187 27.0747 21.3572 25.3795 23.4833C23.6843 25.6093 21.3175 27.0968 18.6667 27.7022" stroke="white" stroke-width="1.33" stroke-linecap="round" stroke-linejoin="round"/>
<path d="M6.10533 22.79C5.378 21.7333 4.8256 20.5663 4.46933 19.334" stroke="white" stroke-width="1.33" stroke-linecap="round" stroke-linejoin="round"/>
<path d="M4.16534 14.0007C4.37868 12.734 4.78934 11.534 5.36534 10.434L5.59068 10.0273" stroke="white" stroke-width="1.33" stroke-linecap="round" stroke-linejoin="round"/>
<path d="M9.20932 6.10487C10.4569 5.24608 11.8564 4.6325 13.3333 4.29688" stroke="white" stroke-width="1.33" stroke-linecap="round" stroke-linejoin="round"/>
</g>
<defs>
<clipPath id="clip0_3_314122">
<rect width="32" height="32" fill="white"/>
</clipPath>
</defs>
</svg>
