<svg width="24" height="24" fill="none" xmlns="http://www.w3.org/2000/svg"><circle cx="12" cy="12" r="12" fill="#fff"/><g clip-path="url(#clip0_78_59166)"><path d="M5.367 8.255l6.636 3.918v2.612L7.58 12.173v5.224l-2.212-1.306V8.255z" fill="#2891F9"/><path d="M7.578 17.397v-5.224L9.79 13.48v2.612l-2.212 1.306z" fill="#2BBDF7"/><path d="M5.367 8.255L7.58 6.95l6.636 3.918-2.212 1.306-6.636-3.918z" fill="#2B6DEF"/><path d="M12 12.173l2.212-1.306v2.612L12 14.785v-2.612z" fill="#2BBDF7"/><path d="M14.215 8.255v7.836l2.212 1.306V9.561l-2.212-1.306z" fill="#2891F9"/><path d="M18.638 8.255l-2.212 1.306v7.836l2.212-1.306V8.255z" fill="#2BBDF7"/><path d="M16.427 6.95l2.212 1.305-2.212 1.306-2.212-1.306 2.212-1.306z" fill="#2B6DEF"/></g><defs><clipPath id="clip0_78_59166"><path fill="#fff" transform="translate(5.145 6.514)" d="M0 0h13.714v11.314H0z"/></clipPath></defs></svg>