<svg width="453" height="138" fill="none" xmlns="http://www.w3.org/2000/svg"><g clip-path="url(#clip0_10_61147)"><path fill="url(#paint0_linear_10_61147)" d="M0 0h453v138H0z"/><path d="M515-45c0 86.709-70.291 157-157 157S201 41.709 201-45s70.291-157 157-157 157 70.291 157 157zm-227.993 0c0 39.208 31.785 70.993 70.993 70.993S428.993-5.792 428.993-45 397.208-115.993 358-115.993 287.007-84.208 287.007-45zM187 132c0 86.709-70.291 157-157 157s-157-70.291-157-157S-56.709-25 30-25s157 70.291 157 157zm-195.29 0c0 21.146 17.144 38.289 38.29 38.289 21.147 0 38.29-17.143 38.29-38.289S51.145 93.71 30 93.71-8.29 110.855-8.29 132z" fill="#fff" fill-opacity=".1"/></g><defs><linearGradient id="paint0_linear_10_61147" x1="107.306" y1="0" x2="483.941" y2="29.679" gradientUnits="userSpaceOnUse"><stop stop-color="#487BFF"/><stop offset="1" stop-color="#4627FF"/></linearGradient><clipPath id="clip0_10_61147"><path fill="#fff" d="M0 0h453v138H0z"/></clipPath></defs></svg>