<svg width="24" height="24" viewBox="0 0 24 24" fill="none" xmlns="http://www.w3.org/2000/svg">
<g clip-path="url(#clip0_10_60724)">
<path fill-rule="evenodd" clip-rule="evenodd" d="M5.99898 4.66496C5.64492 4.66496 5.30536 4.80561 5.055 5.05597C4.80464 5.30633 4.66398 5.6459 4.66398 5.99996V10.3349H13.334V5.99996C13.334 5.6459 13.1933 5.30633 12.943 5.05597C12.6926 4.80561 12.353 4.66496 11.999 4.66496H5.99898ZM13.334 11.6649H4.66398V19.3349H13.334V11.6649ZM3.33398 10.9999V5.99996C3.33398 5.29316 3.61476 4.61531 4.11454 4.11552C4.61433 3.61574 5.29218 3.33496 5.99898 3.33496H11.999C12.7058 3.33496 13.3836 3.61574 13.8834 4.11552C14.3832 4.61531 14.664 5.29316 14.664 5.99996V10.3349H15.0009C15.7077 10.3349 16.3856 10.6157 16.8854 11.1155C17.3852 11.6153 17.6659 12.2931 17.6659 12.9999V15.9999C17.6659 16.2214 17.7539 16.4338 17.9105 16.5904C18.0671 16.747 18.2795 16.8349 18.5009 16.8349C18.7224 16.8349 18.9348 16.747 19.0914 16.5904C19.248 16.4338 19.3359 16.2214 19.3359 15.9999V9.64996H19C18.5624 9.64996 18.1427 9.47612 17.8332 9.16669C17.5238 8.85725 17.35 8.43757 17.35 7.99996V7.28941L16.5307 6.47016C16.271 6.21046 16.271 5.7894 16.5307 5.5297C16.7904 5.27001 17.2115 5.27001 17.4712 5.5297L20.4712 8.5297C20.5959 8.65442 20.6659 8.82356 20.6659 8.99993V15.9999C20.6659 16.5741 20.4378 17.1248 20.0318 17.5308C19.6258 17.9368 19.0751 18.1649 18.5009 18.1649C17.9267 18.1649 17.3761 17.9368 16.9701 17.5308C16.564 17.1248 16.3359 16.5741 16.3359 15.9999V12.9999C16.3359 12.6459 16.1953 12.3063 15.9449 12.0559C15.6946 11.8056 15.355 11.6649 15.0009 11.6649H14.664V19.3349H15C15.3672 19.3349 15.665 19.6326 15.665 19.9999C15.665 20.3672 15.3672 20.6649 15 20.6649H14.0082L13.999 20.665L13.9898 20.6649H4.00816L3.99898 20.665L3.98981 20.6649H2.99996C2.63269 20.6649 2.33496 20.3672 2.33496 19.9999C2.33496 19.6326 2.63269 19.3349 2.99996 19.3349H3.33398V10.9999Z" fill="url(#paint0_linear_10_60724)"/>
</g>
<defs>
<linearGradient id="paint0_linear_10_60724" x1="6.67718" y1="3.33498" x2="22.0027" y2="3.72412" gradientUnits="userSpaceOnUse">
<stop stop-color="#487BFF"/>
<stop offset="1" stop-color="#4627FF"/>
</linearGradient>
<clipPath id="clip0_10_60724">
<rect width="24" height="24" fill="white"/>
</clipPath>
</defs>
</svg>
