<svg width="44" height="44" viewBox="0 0 44 44" fill="none" xmlns="http://www.w3.org/2000/svg">
<path d="M0 22C0 13.3765 0 9.06469 1.99509 5.92601C3.00118 4.34321 4.34321 3.00118 5.92601 1.99509C9.06469 0 13.3765 0 22 0C30.6235 0 34.9353 0 38.074 1.99509C39.6568 3.00118 40.9988 4.34321 42.0049 5.92601C44 9.06469 44 13.3765 44 22C44 30.6235 44 34.9353 42.0049 38.074C40.9988 39.6568 39.6568 40.9988 38.074 42.0049C34.9353 44 30.6235 44 22 44C13.3765 44 9.06469 44 5.92601 42.0049C4.34321 40.9988 3.00118 39.6568 1.99509 38.074C0 34.9353 0 30.6235 0 22Z" fill="#4737FF"/>
<g clip-path="url(#clip0_31_46575)">
<path d="M18.6667 10H25.3333C25.8638 10 26.3725 10.2107 26.7475 10.5858C27.1226 10.9609 27.3333 11.4696 27.3333 12C27.3333 13.2377 26.8417 14.4247 25.9665 15.2998C25.0913 16.175 23.9043 16.6667 22.6667 16.6667H21.3333C20.0957 16.6667 18.9087 16.175 18.0335 15.2998C17.1583 14.4247 16.6667 13.2377 16.6667 12C16.6667 11.4696 16.8774 10.9609 17.2525 10.5858C17.6275 10.2107 18.1362 10 18.6667 10Z" stroke="white" stroke-width="1.33" stroke-linecap="round" stroke-linejoin="round"/>
<path d="M11.3333 28.6667V27.3334C11.3333 24.5044 12.4571 21.7913 14.4575 19.7909C16.4579 17.7906 19.171 16.6667 22 16.6667C24.829 16.6667 27.5421 17.7906 29.5425 19.7909C31.5429 21.7913 32.6667 24.5044 32.6667 27.3334V28.6667C32.6667 30.0812 32.1048 31.4378 31.1046 32.438C30.1044 33.4382 28.7478 34.0001 27.3333 34.0001H16.6667C15.2522 34.0001 13.8956 33.4382 12.8954 32.438C11.8952 31.4378 11.3333 30.0812 11.3333 28.6667Z" stroke="white" stroke-width="1.33" stroke-linecap="round" stroke-linejoin="round"/>
</g>
<defs>
<clipPath id="clip0_31_46575">
<rect width="32" height="32" fill="white" transform="translate(6 6)"/>
</clipPath>
</defs>
</svg>
