<svg width="44" height="44" viewBox="0 0 44 44" fill="none" xmlns="http://www.w3.org/2000/svg">
<path d="M0 22C0 13.3765 0 9.06469 1.99509 5.92601C3.00118 4.34321 4.34321 3.00118 5.92601 1.99509C9.06469 0 13.3765 0 22 0C30.6235 0 34.9353 0 38.074 1.99509C39.6568 3.00118 40.9988 4.34321 42.0049 5.92601C44 9.06469 44 13.3765 44 22C44 30.6235 44 34.9353 42.0049 38.074C40.9988 39.6568 39.6568 40.9988 38.074 42.0049C34.9353 44 30.6235 44 22 44C13.3765 44 9.06469 44 5.92601 42.0049C4.34321 40.9988 3.00118 39.6568 1.99509 38.074C0 34.9353 0 30.6235 0 22Z" fill="#6F7EF5"/>
<g clip-path="url(#clip0_31_46526)">
<path d="M30 16.6667C31.0609 16.6667 32.0783 17.0882 32.8284 17.8383C33.5786 18.5885 34 19.6059 34 20.6667C34 21.7276 33.5786 22.745 32.8284 23.4952C32.0783 24.2453 31.0609 24.6667 30 24.6667" stroke="white" stroke-width="1.33" stroke-linecap="round" stroke-linejoin="round"/>
<path d="M19.3333 16.6667V31.3334C19.3333 31.687 19.1929 32.0262 18.9428 32.2762C18.6928 32.5263 18.3536 32.6667 18 32.6667H16.6667C16.3131 32.6667 15.9739 32.5263 15.7239 32.2762C15.4738 32.0262 15.3333 31.687 15.3333 31.3334V24.6667" stroke="white" stroke-width="1.33" stroke-linecap="round" stroke-linejoin="round"/>
<path d="M22 16.6667L28.032 11.64C28.2073 11.494 28.4205 11.401 28.6468 11.3719C28.873 11.3428 29.1029 11.3787 29.3094 11.4755C29.5159 11.5724 29.6906 11.7261 29.8129 11.9186C29.9352 12.1112 30.0001 12.3346 30 12.5627V28.7707C30.0001 28.9988 29.9352 29.2222 29.8129 29.4147C29.6906 29.6073 29.5159 29.761 29.3094 29.8578C29.1029 29.9546 28.873 29.9906 28.6468 29.9615C28.4205 29.9323 28.2073 29.8393 28.032 29.6933L22 24.6667H11.3333C10.9797 24.6667 10.6406 24.5262 10.3905 24.2762C10.1405 24.0261 10 23.687 10 23.3333V18C10 17.6464 10.1405 17.3073 10.3905 17.0572C10.6406 16.8072 10.9797 16.6667 11.3333 16.6667H22Z" stroke="white" stroke-width="1.33" stroke-linecap="round" stroke-linejoin="round"/>
</g>
<defs>
<clipPath id="clip0_31_46526">
<rect width="32" height="32" fill="white" transform="translate(6 6)"/>
</clipPath>
</defs>
</svg>
