<svg width="1920" height="7317" fill="none" xmlns="http://www.w3.org/2000/svg"><g clip-path="url(#clip0_444_34321)"><path fill="#111524" d="M0 0h1920v7317H0z"/><g opacity=".4" filter="url(#filter0_f_444_34321)"><path d="M843.323 5731.5c0 270.62 803.377 1584 717.497 1584S532.323 6002.12 532.323 5731.5c0-270.62-430.882-627.5-345.001-627.5 85.88 0 656.001 356.88 656.001 627.5z" fill="url(#paint0_linear_444_34321)"/></g><g opacity=".2" filter="url(#filter1_f_444_34321)"><path d="M1344.53 2397c0 414.21-366.383 722-449.502 722-83.119 0 132.992-307.79 132.992-722s-216.111-778-132.992-778 449.502 363.79 449.502 778z" fill="url(#paint1_linear_444_34321)"/></g><g clip-path="url(#clip1_444_34321)"><path fill="#111524" d="M40-12h1920v4023H40z"/><path transform="translate(40 -12)" fill="url(#paint2_linear_444_34321)" d="M0 0h1920v4023H0z"/><path transform="translate(40 -12)" fill="url(#paint3_linear_444_34321)" d="M0 0h1920v4023H0z"/><path transform="translate(40 -12)" fill="url(#paint4_linear_444_34321)" d="M0 0h1920v4023H0z"/><g opacity=".5" filter="url(#filter2_f_444_34321)"><ellipse cx="480.288" cy="500.648" rx="480.288" ry="500.648" transform="matrix(.00162 -1 .9998 .01977 565.266 936.03)" fill="url(#paint5_linear_444_34321)"/></g><g opacity=".5" filter="url(#filter3_f_444_34321)"><path d="M432.673 295.597l756.307-403.665-1.35 837.212-754.957-433.547z" fill="url(#paint6_linear_444_34321)"/></g></g></g><defs><linearGradient id="paint0_linear_444_34321" x1="505.557" y1="5104" x2="1669.19" y2="5121.57" gradientUnits="userSpaceOnUse"><stop stop-color="#487BFF"/><stop offset="1" stop-color="#4627FF"/></linearGradient><linearGradient id="paint1_linear_444_34321" x1="986.984" y1="1619" x2="1378.93" y2="1621.94" gradientUnits="userSpaceOnUse"><stop stop-color="#487BFF"/><stop offset="1" stop-color="#4627FF"/></linearGradient><linearGradient id="paint2_linear_444_34321" x1="960" y1="0" x2="960" y2="4023" gradientUnits="userSpaceOnUse"><stop stop-color="#111524"/><stop offset="1" stop-color="#111524"/></linearGradient><linearGradient id="paint3_linear_444_34321" x1="960" y1="0" x2="960" y2="4023" gradientUnits="userSpaceOnUse"><stop stop-color="#111524"/><stop offset="1" stop-color="#111524"/></linearGradient><linearGradient id="paint4_linear_444_34321" x1="960" y1="0" x2="960" y2="4023" gradientUnits="userSpaceOnUse"><stop stop-color="#111524"/><stop offset="1" stop-color="#111524"/></linearGradient><linearGradient id="paint5_linear_444_34321" x1="99.29" y1="69" x2="805.733" y2="973.135" gradientUnits="userSpaceOnUse"><stop stop-color="#6100FF"/><stop offset="1" stop-color="#0FF" stop-opacity="0"/></linearGradient><linearGradient id="paint6_linear_444_34321" x1="432.673" y1="295.597" x2="1440.21" y2="297.227" gradientUnits="userSpaceOnUse"><stop stop-color="#0075FF"/><stop offset="1" stop-color="#00A3FF" stop-opacity="0"/></linearGradient><filter id="filter0_f_444_34321" x="-324" y="4604" width="2391.24" height="3211.5" filterUnits="userSpaceOnUse" color-interpolation-filters="sRGB"><feFlood flood-opacity="0" result="BackgroundImageFix"/><feBlend in="SourceGraphic" in2="BackgroundImageFix" result="shape"/><feGaussianBlur stdDeviation="250" result="effect1_foregroundBlur_444_34321"/></filter><filter id="filter1_f_444_34321" x="476" y="1219" width="1268.53" height="2300" filterUnits="userSpaceOnUse" color-interpolation-filters="sRGB"><feFlood flood-opacity="0" result="BackgroundImageFix"/><feBlend in="SourceGraphic" in2="BackgroundImageFix" result="shape"/><feGaussianBlur stdDeviation="200" result="effect1_foregroundBlur_444_34321"/></filter><filter id="filter2_f_444_34321" x="285.624" y="-295.163" width="1561.92" height="1521.61" filterUnits="userSpaceOnUse" color-interpolation-filters="sRGB"><feFlood flood-opacity="0" result="BackgroundImageFix"/><feBlend in="SourceGraphic" in2="BackgroundImageFix" result="shape"/><feGaussianBlur stdDeviation="140.208" result="effect1_foregroundBlur_444_34321"/></filter><filter id="filter3_f_444_34321" x="222.361" y="-318.379" width="1176.94" height="1257.83" filterUnits="userSpaceOnUse" color-interpolation-filters="sRGB"><feFlood flood-opacity="0" result="BackgroundImageFix"/><feBlend in="SourceGraphic" in2="BackgroundImageFix" result="shape"/><feGaussianBlur stdDeviation="105.156" result="effect1_foregroundBlur_444_34321"/></filter><clipPath id="clip0_444_34321"><path fill="#fff" d="M0 0h1920v7317H0z"/></clipPath><clipPath id="clip1_444_34321"><path fill="#fff" transform="translate(40 -12)" d="M0 0h1920v4023H0z"/></clipPath></defs></svg>