<svg width="375" height="8477" fill="none" xmlns="http://www.w3.org/2000/svg"><g clip-path="url(#clip0_534_36315)"><path fill="url(#paint0_linear_534_36315)" d="M0 0h375v8477H0z"/><g opacity=".2" filter="url(#filter0_f_534_36315)"><path d="M660.528 2398c0 414.21-366.381 722-449.5 722-83.119 0 132.995-307.79 132.995-722s-216.114-778-132.995-778 449.5 363.79 449.5 778z" fill="url(#paint1_linear_534_36315)"/></g><g clip-path="url(#clip1_534_36315)"><path fill="#111524" d="M-776-11h1920v4023H-776z"/><path transform="translate(-776 -11)" fill="url(#paint2_linear_534_36315)" d="M0 0h1920v4023H0z"/><path transform="translate(-776 -11)" fill="url(#paint3_linear_534_36315)" d="M0 0h1920v4023H0z"/><path transform="translate(-776 -11)" fill="url(#paint4_linear_534_36315)" d="M0 0h1920v4023H0z"/><g opacity=".5" filter="url(#filter1_f_534_36315)"><ellipse cx="480.288" cy="500.648" rx="480.288" ry="500.648" transform="matrix(.00162 -1 .9998 .01977 -250.734 937.03)" fill="url(#paint5_linear_534_36315)"/></g><g opacity=".5" filter="url(#filter2_f_534_36315)"><path d="M-383.327 296.597l756.309-403.665-1.354 837.212-754.955-433.547z" fill="url(#paint6_linear_534_36315)"/></g></g><g opacity=".3" filter="url(#filter3_f_534_36315)"><ellipse cx="209" cy="430.5" rx="180" ry="41.5" fill="url(#paint7_linear_534_36315)"/></g></g><defs><linearGradient id="paint0_linear_534_36315" x1="187.5" y1="-4259.07" x2="93.98" y2="3069.61" gradientUnits="userSpaceOnUse"><stop offset=".276" stop-color="#202738"/><stop offset=".813" stop-color="#070816"/></linearGradient><linearGradient id="paint1_linear_534_36315" x1="302.984" y1="1620" x2="694.926" y2="1622.94" gradientUnits="userSpaceOnUse"><stop stop-color="#487BFF"/><stop offset="1" stop-color="#4627FF"/></linearGradient><linearGradient id="paint2_linear_534_36315" x1="960" y1="0" x2="960" y2="4023" gradientUnits="userSpaceOnUse"><stop stop-color="#111524"/><stop offset="1" stop-color="#111524"/></linearGradient><linearGradient id="paint3_linear_534_36315" x1="960" y1="0" x2="960" y2="4023" gradientUnits="userSpaceOnUse"><stop stop-color="#111524"/><stop offset="1" stop-color="#111524"/></linearGradient><linearGradient id="paint4_linear_534_36315" x1="960" y1="0" x2="960" y2="4023" gradientUnits="userSpaceOnUse"><stop stop-color="#111524"/><stop offset="1" stop-color="#111524"/></linearGradient><linearGradient id="paint5_linear_534_36315" x1="99.29" y1="69" x2="805.733" y2="973.135" gradientUnits="userSpaceOnUse"><stop stop-color="#6100FF"/><stop offset="1" stop-color="#0FF" stop-opacity="0"/></linearGradient><linearGradient id="paint6_linear_534_36315" x1="-383.327" y1="296.597" x2="624.212" y2="298.227" gradientUnits="userSpaceOnUse"><stop stop-color="#0075FF"/><stop offset="1" stop-color="#00A3FF" stop-opacity="0"/></linearGradient><linearGradient id="paint7_linear_534_36315" x1="114.276" y1="389" x2="412.217" y2="420.021" gradientUnits="userSpaceOnUse"><stop stop-color="#487BFF"/><stop offset="1" stop-color="#4627FF"/></linearGradient><filter id="filter0_f_534_36315" x="-208" y="1220" width="1268.53" height="2300" filterUnits="userSpaceOnUse" color-interpolation-filters="sRGB"><feFlood flood-opacity="0" result="BackgroundImageFix"/><feBlend in="SourceGraphic" in2="BackgroundImageFix" result="shape"/><feGaussianBlur stdDeviation="200" result="effect1_foregroundBlur_534_36315"/></filter><filter id="filter1_f_534_36315" x="-530.376" y="-294.163" width="1561.92" height="1521.61" filterUnits="userSpaceOnUse" color-interpolation-filters="sRGB"><feFlood flood-opacity="0" result="BackgroundImageFix"/><feBlend in="SourceGraphic" in2="BackgroundImageFix" result="shape"/><feGaussianBlur stdDeviation="140.208" result="effect1_foregroundBlur_534_36315"/></filter><filter id="filter2_f_534_36315" x="-593.639" y="-317.379" width="1176.94" height="1257.83" filterUnits="userSpaceOnUse" color-interpolation-filters="sRGB"><feFlood flood-opacity="0" result="BackgroundImageFix"/><feBlend in="SourceGraphic" in2="BackgroundImageFix" result="shape"/><feGaussianBlur stdDeviation="105.156" result="effect1_foregroundBlur_534_36315"/></filter><filter id="filter3_f_534_36315" x="-271" y="89" width="960" height="683" filterUnits="userSpaceOnUse" color-interpolation-filters="sRGB"><feFlood flood-opacity="0" result="BackgroundImageFix"/><feBlend in="SourceGraphic" in2="BackgroundImageFix" result="shape"/><feGaussianBlur stdDeviation="150" result="effect1_foregroundBlur_534_36315"/></filter><clipPath id="clip0_534_36315"><path fill="#fff" d="M0 0h375v8477H0z"/></clipPath><clipPath id="clip1_534_36315"><path fill="#fff" transform="translate(-776 -11)" d="M0 0h1920v4023H0z"/></clipPath></defs></svg>