<svg width="454" height="126" fill="none" xmlns="http://www.w3.org/2000/svg"><mask id="a" style="mask-type:alpha" maskUnits="userSpaceOnUse" x="0" y="0" width="454" height="126"><rect width="454" height="126" rx="8" fill="url(#paint0_linear_418_33646)"/></mask><g mask="url(#a)"><path fill-rule="evenodd" clip-rule="evenodd" d="M343.434 157.104c80.813-16.033 141.329-81.578 141.329-159.999 0-90.437-80.482-163.75-179.76-163.75-68.278 0-127.666 34.676-158.097 85.75C66.094-64.862 5.578.684 5.578 79.105c0 90.436 80.482 163.749 179.76 163.749 68.278 0 127.666-34.676 158.096-85.75zM362.435 50.86c15.368-13.627 24.913-32.675 24.913-53.755 0-41.428-36.867-75.011-82.345-75.011-14.837 0-28.757 3.574-40.78 9.829C315.061-45.425 352.43-1.56 362.435 50.86zm-96.632 12.228c-5.157-21.596-20.524-39.72-41.265-49.967 5.157 21.596 20.524 39.72 41.265 49.967zM127.906 25.349c10.005 52.42 47.374 96.285 98.212 118.938-12.023 6.255-25.943 9.829-40.78 9.829-45.478 0-82.345-33.584-82.345-75.012 0-21.08 9.545-40.128 24.913-53.755z" fill="#fff" fill-opacity=".1"/></g><defs><linearGradient id="paint0_linear_418_33646" x1="107.543" y1="0" x2="484.532" y2="32.608" gradientUnits="userSpaceOnUse"><stop stop-color="#487BFF"/><stop offset="1" stop-color="#4627FF"/></linearGradient></defs></svg>