<svg width="351" height="151" viewBox="0 0 351 151" fill="none" xmlns="http://www.w3.org/2000/svg">
<mask id="mask0_4_1235" style="mask-type:alpha" maskUnits="userSpaceOnUse" x="0" y="0" width="351" height="151">
<rect width="351" height="151" fill="url(#paint0_linear_4_1235)"/>
</mask>
<g mask="url(#mask0_4_1235)">
<path fill-rule="evenodd" clip-rule="evenodd" d="M265.519 188.276C327.997 169.062 374.784 90.5117 374.784 -3.46867C374.784 -111.849 312.561 -199.709 235.806 -199.709C183.018 -199.709 137.104 -158.152 113.577 -96.944C51.0989 -77.7297 4.3125 0.820648 4.3125 94.801C4.3125 203.181 66.5349 291.041 143.29 291.041C196.078 291.041 241.992 249.484 265.519 188.276ZM280.208 60.9525C292.09 44.6217 299.469 21.7934 299.469 -3.46867C299.469 -53.1161 270.966 -93.3632 235.806 -93.3632C224.335 -93.3632 213.573 -89.0797 204.278 -81.5836C243.582 -54.4368 272.473 -1.86839 280.208 60.9525ZM205.499 75.6061C201.513 49.7257 189.632 28.0054 173.597 15.7262C177.583 41.6066 189.464 63.3269 205.499 75.6061ZM98.8878 30.3798C106.623 93.2007 135.514 145.769 174.818 172.916C165.523 180.412 154.761 184.696 143.29 184.696C108.13 184.696 79.6267 144.448 79.6267 94.801C79.6267 69.5388 87.0064 46.7105 98.8878 30.3798Z" fill="white" fill-opacity="0.1"/>
</g>
<defs>
<linearGradient id="paint0_linear_4_1235" x1="83.1445" y1="0.000163747" x2="375.874" y2="16.3345" gradientUnits="userSpaceOnUse">
<stop stop-color="#487BFF"/>
<stop offset="1" stop-color="#4627FF"/>
</linearGradient>
</defs>
</svg>
