<svg width="568" height="126" viewBox="0 0 568 126" fill="none" xmlns="http://www.w3.org/2000/svg">
<mask id="mask0_4_3292" style="mask-type:alpha" maskUnits="userSpaceOnUse" x="0" y="0" width="568" height="126">
<rect width="568" height="126" fill="url(#paint0_linear_4_3292)"/>
</mask>
<g mask="url(#mask0_4_3292)">
<path fill-rule="evenodd" clip-rule="evenodd" d="M343.434 157.104C424.247 141.071 484.763 75.5257 484.763 -2.89502C484.763 -93.3316 404.281 -166.645 305.003 -166.645C236.725 -166.645 177.337 -131.969 146.906 -80.8947C66.0939 -64.8616 5.57812 0.683746 5.57812 79.1045C5.57812 169.541 86.0596 242.854 185.338 242.854C253.616 242.854 313.004 208.178 343.434 157.104ZM362.435 50.8603C377.803 37.2334 387.348 18.1846 387.348 -2.89502C387.348 -44.3226 350.481 -77.9064 305.003 -77.9064C290.166 -77.9064 276.246 -74.3321 264.223 -68.0772C315.061 -45.4248 352.43 -1.55974 362.435 50.8603ZM265.803 63.088C260.646 41.4922 245.279 23.3678 224.538 13.1215C229.695 34.7173 245.062 52.8417 265.803 63.088ZM127.906 25.3492C137.911 77.7692 175.28 121.634 226.118 144.287C214.095 150.542 200.175 154.116 185.338 154.116C139.86 154.116 102.993 120.532 102.993 79.1045C102.993 58.0249 112.538 38.9761 127.906 25.3492Z" fill="white" fill-opacity="0.1"/>
</g>
<defs>
<linearGradient id="paint0_linear_4_3292" x1="134.547" y1="0.000136637" x2="604.228" y2="50.8258" gradientUnits="userSpaceOnUse">
<stop stop-color="#487BFF"/>
<stop offset="1" stop-color="#4627FF"/>
</linearGradient>
</defs>
</svg>
