<svg width="385" height="23" fill="none" xmlns="http://www.w3.org/2000/svg"><path fill-rule="evenodd" clip-rule="evenodd" d="M195 22.75c6.075 0 11-4.925 11-11h1.5a.5.5 0 000-1h-1.545c-.505-5.606-5.217-10-10.955-10-6.075 0-11 4.925-11 11s4.925 11 11 11zM.5 10.75a.5.5 0 000 1h3a.5.5 0 000-1h-3zm9 0a.5.5 0 000 1h6a.5.5 0 000-1h-6zm12 0a.5.5 0 000 1h6a.5.5 0 000-1h-6zm12 0a.5.5 0 000 1h6a.5.5 0 000-1h-6zm12 0a.5.5 0 000 1h6a.5.5 0 000-1h-6zm12 0a.5.5 0 000 1h6a.5.5 0 000-1h-6zm12 0a.5.5 0 000 1h6a.5.5 0 000-1h-6zm12 0a.5.5 0 000 1h6a.5.5 0 000-1h-6zm12 0a.5.5 0 000 1h6a.5.5 0 000-1h-6zm12 0a.5.5 0 000 1h6a.5.5 0 000-1h-6zm12 0a.5.5 0 000 1h6a.5.5 0 000-1h-6zm12 0a.5.5 0 000 1h6a.5.5 0 000-1h-6zm12 0a.5.5 0 000 1h6a.5.5 0 000-1h-6zm12 0a.5.5 0 000 1h6a.5.5 0 000-1h-6zm12 0a.5.5 0 000 1h6a.5.5 0 000-1h-6zm12 0a.5.5 0 000 1h6a.5.5 0 000-1h-6zm36 0a.5.5 0 000 1h6a.5.5 0 000-1h-6zm12 0a.5.5 0 000 1h6a.5.5 0 000-1h-6zm12 0a.5.5 0 000 1h6a.5.5 0 000-1h-6zm12 0a.5.5 0 000 1h6a.5.5 0 000-1h-6zm12 0a.5.5 0 000 1h6a.5.5 0 000-1h-6zm12 0a.5.5 0 000 1h6a.5.5 0 000-1h-6zm12 0a.5.5 0 000 1h6a.5.5 0 000-1h-6zm12 0a.5.5 0 000 1h6a.5.5 0 000-1h-6zm12 0a.5.5 0 000 1h6a.5.5 0 000-1h-6zm12 0a.5.5 0 000 1h6a.5.5 0 000-1h-6zm12 0a.5.5 0 000 1h6a.5.5 0 000-1h-6zm12 0a.5.5 0 000 1h6a.5.5 0 000-1h-6zm12 0a.5.5 0 000 1h6a.5.5 0 000-1h-6zm12 0a.5.5 0 000 1h6a.5.5 0 000-1h-6zm12 0a.5.5 0 000 1h3a.5.5 0 000-1h-3z" fill="url(#paint0_linear_78_58291)"/><path d="M190.5 11.75h9.5m0 0l-3-3m3 3l-3 3" stroke="#fff" stroke-linecap="round" stroke-linejoin="round"/><defs><linearGradient id="paint0_linear_78_58291" x1="91.198" y1=".75" x2="364.97" y2="115.758" gradientUnits="userSpaceOnUse"><stop stop-color="#487BFF"/><stop offset="1" stop-color="#4627FF"/></linearGradient></defs></svg>