<svg width="32" height="33" viewBox="0 0 32 33" fill="none" xmlns="http://www.w3.org/2000/svg">
<rect y="0.5" width="32" height="32" rx="16" fill="white"/>
<g clip-path="url(#clip0_30_17391)">
<path d="M26.4476 20.054V20.0409C26.446 20.0212 26.446 19.9982 26.4435 19.9768C26.4435 19.9571 26.4419 19.9424 26.4419 19.9251C26.4378 19.9021 26.4378 19.8767 26.4361 19.8578C26.4345 19.8266 26.432 19.7937 26.4304 19.7633C26.4247 19.7346 26.423 19.7018 26.4205 19.673C26.4148 19.6402 26.4132 19.6073 26.409 19.5761C26.4017 19.5162 26.3918 19.4562 26.3836 19.3963C26.3705 19.3117 26.3549 19.2263 26.3376 19.1434C26.3245 19.0703 26.3064 18.9964 26.2892 18.9249C26.2818 18.8864 26.2719 18.8494 26.2621 18.8166C26.2448 18.7435 26.2218 18.6696 26.2005 18.6006C26.1931 18.5719 26.1849 18.5448 26.175 18.5193C26.1578 18.4651 26.1405 18.4134 26.1208 18.3592C26.1208 18.3592 26.1208 18.3592 26.1192 18.3592C26.1093 18.3321 26.1019 18.3074 26.0921 18.2803C26.0822 18.2549 26.0732 18.2286 26.0633 18.2032C26.056 18.1834 26.0477 18.1662 26.0404 18.1473C26.0305 18.1243 26.0231 18.1013 26.0133 18.0775C25.9977 18.0406 25.9804 18.0061 25.9673 17.9691C25.9632 17.9675 25.9632 17.965 25.9632 17.9634C25.9476 17.9305 25.9344 17.8993 25.9205 17.8689C25.9164 17.8648 25.9164 17.8591 25.9147 17.8574C25.9147 17.8558 25.9147 17.8558 25.9131 17.8533C25.9016 17.8279 25.8876 17.8016 25.8745 17.7745C25.8745 17.7704 25.8704 17.7671 25.8687 17.763C25.8646 17.7515 25.8589 17.7433 25.8556 17.7343C25.8425 17.7072 25.8301 17.6842 25.817 17.6587C25.817 17.6571 25.8154 17.653 25.8129 17.6513C25.7817 17.5914 25.7488 17.5315 25.716 17.4715C25.7119 17.4658 25.7102 17.4584 25.7045 17.4518L25.6528 17.359C25.6511 17.3549 25.6487 17.3492 25.6454 17.3459C25.151 16.5198 24.2749 15.5623 23.3305 15.2495L23.3207 15.2725C23.3535 15.0639 23.3708 14.8512 23.3724 14.6394C23.3782 13.9118 23.1983 13.172 22.8108 12.4904L20.7718 8.89539C20.7505 8.85679 20.7275 8.81655 20.7045 8.7796C20.7004 8.77385 20.6971 8.76811 20.6971 8.764C20.693 8.76236 20.6914 8.75661 20.6897 8.7525C20.6782 8.73115 20.6643 8.71227 20.6511 8.69256C20.6511 8.68681 20.6454 8.68271 20.6437 8.67696C20.6281 8.65397 20.615 8.63097 20.5978 8.60716C20.5863 8.58581 20.5723 8.56446 20.5592 8.54311C20.5477 8.52997 20.5378 8.51437 20.528 8.50041C20.5066 8.47167 20.4894 8.44211 20.468 8.41337C20.4565 8.39777 20.4467 8.38216 20.4352 8.36738C20.4237 8.35178 20.4097 8.33454 20.4007 8.31894C20.3966 8.31729 20.3949 8.31155 20.3908 8.30744C20.3793 8.29184 20.3678 8.27624 20.3563 8.26146C20.3391 8.236 20.3177 8.21136 20.3005 8.18591C20.2718 8.15142 20.2405 8.11283 20.2118 8.07752C20.179 8.03892 20.1461 7.99622 20.1116 7.96009C20.0599 7.90015 20.0073 7.84267 19.9531 7.78601C19.9031 7.73181 19.8505 7.67762 19.7947 7.62588C19.7947 7.62424 19.793 7.62424 19.7906 7.62178C19.7364 7.56758 19.6822 7.51749 19.6247 7.4674C19.6247 7.46329 19.623 7.46329 19.6206 7.46329C19.5918 7.4362 19.5647 7.4132 19.536 7.38611C19.5089 7.36311 19.4802 7.34012 19.4531 7.31631L19.4457 7.31056C19.4383 7.30317 19.4268 7.29496 19.4169 7.28757C19.38 7.26047 19.3455 7.22927 19.3085 7.20053C19.2888 7.18739 19.2683 7.17179 19.2502 7.15618L19.2445 7.15208C19.2231 7.13483 19.2018 7.11923 19.1804 7.10363C19.1517 7.08392 19.1246 7.06504 19.0959 7.04369L19.0901 7.03958C19.0827 7.03383 19.077 7.02808 19.0688 7.02398L19.063 7.01823C19.0556 7.01412 19.0499 7.01084 19.0417 7.00509C19.0187 6.98949 18.9957 6.97389 18.9719 6.95911L18.9021 6.91312C18.8889 6.90327 18.8733 6.89588 18.8618 6.88767C18.8602 6.88767 18.8602 6.88767 18.8602 6.88767C18.8372 6.87206 18.8117 6.85482 18.7871 6.84168C18.7617 6.82608 18.737 6.80884 18.7099 6.7957L18.6968 6.78584C18.6426 6.753 18.5884 6.72426 18.535 6.69305C18.4808 6.66431 18.4266 6.63721 18.3724 6.61012C18.3437 6.59451 18.3141 6.58138 18.2878 6.56742C18.232 6.54032 18.1762 6.51322 18.1195 6.48859C18.0908 6.47709 18.0637 6.46559 18.0325 6.45163C18.0054 6.44014 17.9766 6.42864 17.9495 6.41468C17.9183 6.40483 17.8896 6.39497 17.8625 6.38184C17.837 6.37445 17.814 6.36459 17.791 6.35638C17.7812 6.35063 17.7681 6.34899 17.7598 6.34324C17.7344 6.33585 17.7114 6.326 17.6868 6.31779C17.6252 6.29644 17.5636 6.27509 17.4995 6.2562C17.4741 6.24635 17.4495 6.23896 17.4224 6.23321C17.3879 6.22171 17.3493 6.21186 17.3123 6.20036L17.3008 6.19872C17.2737 6.19133 17.245 6.18312 17.2179 6.17573C17.2162 6.17408 17.2138 6.17573 17.2138 6.17408C17.1908 6.16834 17.1711 6.16423 17.1497 6.15848C17.0898 6.14534 17.0282 6.13138 16.9683 6.11825C16.9395 6.1125 16.91 6.10839 16.8796 6.101C16.8722 6.09936 16.8623 6.0969 16.8525 6.0969C16.7983 6.0854 16.7441 6.07555 16.6899 6.06816C16.6587 6.06241 16.6283 6.0583 16.5971 6.05255C16.5355 6.04516 16.4715 6.03695 16.4099 6.02956C16.377 6.02792 16.3458 6.02546 16.3154 6.02217C16.2851 6.01889 16.2514 6.01642 16.221 6.01478C16.1898 6.01314 16.1611 6.01067 16.1323 6.00903C16.1282 6.00739 16.1249 6.00739 16.1208 6.00739C16.1052 6.00739 16.088 6.00575 16.0724 6.00575C16.0321 6.00411 15.9935 6.00411 15.955 6.00164C15.9164 6 15.8778 6 15.8392 6H15.6946C15.6487 6 15.6002 6.00164 15.5518 6.00411C15.4549 6.00985 15.3572 6.0156 15.2603 6.02546C15.2274 6.0271 15.1962 6.0312 15.1634 6.03531C15.1305 6.03942 15.0977 6.04106 15.0648 6.04681C15.0032 6.0542 14.9392 6.06405 14.876 6.0739H14.8719C14.793 6.08704 14.7134 6.101 14.6345 6.11825C14.5574 6.13549 14.4785 6.15273 14.3989 6.16998C14.3701 6.17983 14.3389 6.18969 14.3061 6.19708C14.2749 6.20447 14.2445 6.21268 14.2133 6.22253C14.1878 6.22992 14.1616 6.23813 14.1345 6.24552C14.0975 6.25702 14.0647 6.26687 14.0302 6.27837C14.0047 6.28576 13.9817 6.29562 13.9587 6.30136C13.9415 6.30875 13.8914 6.32436 13.8889 6.32846C13.8503 6.33996 13.8117 6.35392 13.7748 6.36706C13.7674 6.3687 13.6804 6.40154 13.6377 6.42125C13.6089 6.43439 13.5794 6.44671 13.5531 6.4582C13.5243 6.4697 13.4972 6.4812 13.4685 6.49516C13.4398 6.50829 13.4102 6.52061 13.3815 6.53375C13.3601 6.5436 13.3388 6.5551 13.3141 6.5666C13.3026 6.57234 13.2928 6.57645 13.2829 6.58384C13.2599 6.59123 13.2386 6.60108 13.2156 6.61504C13.1786 6.63475 13.14 6.65528 13.1014 6.67499C13.0571 6.69798 13.0144 6.72344 12.9725 6.74643C12.9725 6.74643 12.9027 6.78338 12.8452 6.81951C12.8124 6.84086 12.7779 6.85975 12.7451 6.8811C12.741 6.88274 12.7377 6.88685 12.7336 6.88849C12.7163 6.89998 12.6966 6.91148 12.6794 6.92544C12.6638 6.93283 12.6506 6.94268 12.6367 6.95254C12.6178 6.96568 12.5981 6.97799 12.5784 6.99113C12.5529 7.00673 12.5283 7.02562 12.5012 7.04533C12.4757 7.06093 12.4511 7.07982 12.4281 7.09706C12.401 7.1143 12.3723 7.13565 12.3493 7.15536C12.3008 7.19231 12.2524 7.22844 12.2064 7.26704C12.1391 7.31877 12.0734 7.37543 12.0093 7.43127C11.951 7.48136 11.8993 7.53145 11.8451 7.58154C11.818 7.60864 11.7909 7.63574 11.7638 7.66037C11.7096 7.71457 11.6595 7.7663 11.6078 7.82214C11.5881 7.84185 11.5692 7.86484 11.5519 7.88373C11.4961 7.94778 11.4378 8.011 11.4378 8.011C11.4222 8.03235 11.4033 8.0537 11.3877 8.07505C11.368 8.09476 11.3507 8.11775 11.3335 8.1391C11.3204 8.15635 11.308 8.17031 11.2966 8.18755C11.281 8.20726 11.2637 8.22615 11.2506 8.24585C11.2251 8.2787 11.2021 8.3099 11.1791 8.34029L11.1775 8.34603C11.1561 8.37313 11.1348 8.40187 11.1159 8.42897L11.1085 8.44211C11.1085 8.44211 11.074 8.4922 11.0584 8.51519C11.0543 8.5193 11.0527 8.52505 11.051 8.52833C11.0436 8.53572 11.0379 8.54393 11.0313 8.55379L10.9812 8.63097C10.9443 8.68681 10.9081 8.74676 10.8728 8.8067L10.8613 8.8223L10.863 8.82395L10.8088 8.91674L10.7989 8.92823C10.3292 9.76991 9.94001 11.0074 10.1404 11.9821H10.1634C9.96628 12.0552 9.77496 12.1463 9.5902 12.2506C8.95545 12.6095 8.40527 13.1366 8.00701 13.8108L5.91636 17.3746C5.89501 17.4132 5.87202 17.4518 5.85067 17.492L5.84081 17.5052C5.83917 17.5093 5.83671 17.515 5.83506 17.5167C5.82193 17.538 5.81371 17.5569 5.80222 17.5807L5.79236 17.5963C5.77923 17.6193 5.76691 17.6464 5.75377 17.6694C5.74227 17.6924 5.73242 17.7154 5.72092 17.7367C5.71107 17.7523 5.70532 17.7655 5.69793 17.7827C5.68233 17.8156 5.66673 17.8468 5.65195 17.8772C5.6462 17.8944 5.63881 17.9116 5.6306 17.9289C5.62074 17.9461 5.61335 17.9658 5.60514 17.9831C5.6035 17.9872 5.60104 17.9929 5.59939 17.9962C5.592 18.0159 5.58379 18.0332 5.5764 18.0521C5.56326 18.0792 5.55341 18.1079 5.53945 18.1391C5.52221 18.1818 5.5066 18.2237 5.491 18.2664C5.47211 18.3165 5.45405 18.3649 5.43681 18.415C5.41135 18.4881 5.38671 18.562 5.36536 18.6351C5.34401 18.7082 5.32677 18.7796 5.30542 18.8535C5.30542 18.8552 5.30542 18.8576 5.30378 18.8593C5.28407 18.9348 5.26929 19.0062 5.25369 19.0793V19.0867C5.24383 19.1237 5.23644 19.1598 5.2307 19.1968C5.22331 19.2337 5.21756 19.2682 5.21099 19.3068C5.21099 19.3084 5.20935 19.3109 5.20935 19.3142C5.2077 19.3257 5.20524 19.3372 5.2036 19.3511C5.19785 19.3955 5.19046 19.4423 5.18389 19.4883C5.17814 19.5113 5.1765 19.5367 5.17404 19.5597C5.17239 19.5613 5.17239 19.5654 5.17239 19.5671C5.16829 19.5925 5.165 19.6213 5.16254 19.6484C5.1609 19.6812 5.15515 19.7157 5.15269 19.7486C5.15269 19.7502 5.15269 19.7543 5.15104 19.756V19.7831C5.1494 19.7847 5.15104 19.7872 5.1494 19.7904C5.1494 19.8003 5.14776 19.8077 5.1453 19.8134C5.1453 19.8422 5.14119 19.8693 5.14119 19.898C5.13955 19.9251 5.13708 19.9522 5.13708 19.981C5.13544 19.9982 5.13544 20.0138 5.13298 20.0294C5.13298 20.031 5.13298 20.031 5.13298 20.031C5.13134 20.0581 5.13134 20.0893 5.13134 20.1181C5.13134 20.1468 5.12969 20.178 5.12969 20.2068C5.12969 20.2125 5.12969 20.2199 5.12805 20.2265C5.12805 20.2881 5.12805 20.3496 5.12969 20.4096C5.13134 20.4712 5.13544 20.5311 5.13708 20.5927C5.13873 20.6239 5.14119 20.6568 5.14283 20.6871C5.14858 20.7487 5.15433 20.8128 5.16008 20.8727C5.16418 20.9039 5.16747 20.9343 5.16993 20.9655C5.17404 20.9967 5.17732 21.0255 5.18307 21.0583C5.18717 21.087 5.19046 21.1182 5.19621 21.1495C5.20031 21.1749 5.2036 21.1979 5.2077 21.2209C5.20935 21.234 5.21181 21.2463 5.21345 21.2578C5.2192 21.2833 5.22331 21.3096 5.22905 21.3334C5.23891 21.3974 5.25205 21.4631 5.26765 21.5264C5.2734 21.5518 5.27914 21.5781 5.28489 21.6035C5.29475 21.6421 5.3046 21.6791 5.31363 21.7152L5.31527 21.7284C5.32266 21.7538 5.32841 21.7826 5.33827 21.8097C5.33827 21.8138 5.33827 21.8138 5.33827 21.817C5.34566 21.8368 5.35141 21.8556 5.35797 21.877C5.37522 21.9386 5.39493 21.9969 5.41217 22.0544C5.42202 22.0815 5.43106 22.1102 5.44337 22.1389C5.44502 22.1488 5.44912 22.1562 5.45076 22.1644C5.46801 22.2186 5.48772 22.2687 5.51071 22.3204C5.52056 22.3492 5.53206 22.3787 5.54356 22.4075C5.56655 22.4674 5.58954 22.5249 5.61664 22.5815C5.62813 22.6127 5.64209 22.6415 5.65523 22.6686C5.66673 22.6973 5.68069 22.7269 5.69547 22.7556C5.70861 22.7827 5.72092 22.8074 5.73406 22.8345C5.7357 22.8361 5.73817 22.8402 5.73981 22.8443C5.74556 22.8558 5.75295 22.8698 5.75952 22.8829C5.75952 22.8845 5.76116 22.887 5.76116 22.887C5.7784 22.924 5.79811 22.9568 5.817 22.9913C5.83671 23.0258 5.85395 23.0586 5.8712 23.0915C5.87284 23.0956 5.87284 23.0956 5.87284 23.0956C5.89829 23.1358 5.92129 23.1785 5.94592 23.2171C5.96891 23.2574 5.99437 23.3001 6.019 23.3386C6.0732 23.4216 6.12739 23.5029 6.18488 23.5817C6.20212 23.6088 6.22183 23.6359 6.24071 23.663C6.2596 23.6885 6.27931 23.7131 6.29819 23.7402C6.33679 23.7903 6.37703 23.8404 6.41562 23.8905C6.41726 23.8905 6.41726 23.8921 6.41973 23.8921C6.46982 23.9562 6.52237 24.0177 6.57574 24.0752C6.62748 24.1368 6.68414 24.1951 6.73997 24.2526L6.80731 24.3199C6.8303 24.3429 6.85329 24.3659 6.87711 24.3873C6.89682 24.4086 6.9157 24.4259 6.93869 24.4456C6.96169 24.471 6.98878 24.494 7.01588 24.5186C7.03477 24.5359 7.05283 24.5515 7.07336 24.5687C7.0865 24.5819 7.1021 24.5942 7.11771 24.6073C7.11771 24.609 7.11935 24.6114 7.12181 24.609C7.12345 24.6131 7.12756 24.6147 7.1292 24.6164C7.16041 24.6435 7.19079 24.6706 7.22363 24.6935C7.22528 24.6993 7.23102 24.7034 7.23677 24.705C7.26962 24.7338 7.30246 24.7592 7.33531 24.7863C7.36077 24.806 7.3854 24.8233 7.40839 24.8422C7.43385 24.8594 7.45848 24.8791 7.48394 24.898C7.5094 24.9153 7.53403 24.935 7.55949 24.9497C7.58084 24.9653 7.59972 24.981 7.62107 24.9941C7.63093 25.0015 7.63996 25.0072 7.65228 25.0138L7.71386 25.054C7.75081 25.077 7.7853 25.1025 7.82225 25.1238C7.86495 25.1509 7.90519 25.1739 7.94953 25.201C7.99223 25.2265 8.03411 25.2511 8.07681 25.2741C8.1113 25.2938 8.14661 25.3127 8.1811 25.3299L8.19259 25.3357C8.20984 25.3455 8.23119 25.3554 8.2509 25.3644C8.26403 25.3743 8.27964 25.38 8.29688 25.3874C8.31577 25.3973 8.33712 25.4088 8.35847 25.4186C8.38557 25.4342 8.41266 25.4457 8.4414 25.4572C8.4685 25.4704 8.49724 25.4843 8.52598 25.4975C8.55472 25.509 8.58593 25.5229 8.61467 25.5344C8.67051 25.5599 8.72634 25.5829 8.783 25.6042C8.86183 25.6354 8.94559 25.6658 9.02442 25.6912C9.09586 25.7167 9.1673 25.7372 9.2371 25.7586C9.27405 25.7684 9.31018 25.7799 9.34714 25.7898C9.41858 25.8095 9.49166 25.8267 9.56556 25.844C9.59266 25.8497 9.61976 25.8555 9.64686 25.8612C9.70269 25.8727 9.75689 25.8842 9.81109 25.8957H9.81273C9.83818 25.8998 9.86692 25.9056 9.89402 25.9089C9.92112 25.9146 9.94986 25.9187 9.97696 25.922C9.99667 25.9236 10.0156 25.9277 10.0369 25.9294C10.0624 25.9335 10.0854 25.9368 10.1124 25.9409C10.1494 25.945 10.1896 25.9507 10.2282 25.954C10.2299 25.954 10.4097 25.9639 10.4409 25.9713C10.4467 25.9729 10.4524 25.9729 10.4565 25.9729C10.468 25.9729 10.4779 25.9745 10.4877 25.9745C10.5165 25.9762 10.5436 25.9787 10.5723 25.9787C10.5739 25.9803 10.5764 25.9803 10.5797 25.9803C10.6495 25.9819 10.7168 25.986 10.7842 25.986H10.9287C11.8878 25.9729 13.1565 25.6929 13.9021 25.0302L13.8889 25.0105C14.0515 25.1419 14.2264 25.2618 14.4079 25.3718C15.0369 25.7405 15.7669 25.9548 16.5486 25.9606L20.6815 25.9918H20.8474C20.8704 25.9918 20.8934 25.9877 20.9172 25.9877C20.9229 25.9877 20.9287 25.9877 20.9344 25.9893C20.9632 25.9852 20.9903 25.9852 21.019 25.9852C21.0461 25.9836 21.0691 25.9811 21.0921 25.9795C21.111 25.9795 21.129 25.9778 21.1463 25.9754C21.1808 25.9713 21.2161 25.9713 21.2506 25.968C21.2678 25.9663 21.2875 25.9639 21.3064 25.9622C21.3261 25.9606 21.3466 25.9581 21.3664 25.9565C21.3705 25.9548 21.3737 25.9548 21.3795 25.9548C21.4008 25.9532 21.4181 25.9491 21.4394 25.9491C21.4682 25.9433 21.501 25.9392 21.5322 25.936C21.5782 25.9286 21.6225 25.9228 21.6677 25.913C21.7194 25.9056 21.7736 25.8957 21.8237 25.8859C21.8993 25.8703 21.9765 25.8547 22.0495 25.8358C22.1251 25.8202 22.1941 25.7988 22.268 25.7799C22.2696 25.7799 22.2721 25.7799 22.2754 25.7783C22.3468 25.7586 22.4199 25.7356 22.4913 25.7126C22.493 25.7126 22.4954 25.711 22.4954 25.711C22.5324 25.6995 22.5685 25.688 22.6055 25.674C22.6383 25.6625 22.6728 25.6485 22.7081 25.6354C22.7122 25.6354 22.7139 25.6354 22.718 25.6338C22.7278 25.6321 22.7393 25.6264 22.7492 25.6223C22.7952 25.6026 22.8379 25.5878 22.8806 25.5705C22.9019 25.5607 22.9249 25.5508 22.9479 25.5434C22.9495 25.5434 22.9536 25.5393 22.9536 25.5393C22.9791 25.5295 23.0037 25.5196 23.0292 25.5065C23.0604 25.4934 23.0908 25.4794 23.122 25.4663C23.1261 25.4663 23.1261 25.4646 23.1294 25.4646C23.1368 25.4589 23.145 25.4548 23.1524 25.4515C23.1565 25.4515 23.1581 25.4498 23.1597 25.4474C23.1655 25.4457 23.1754 25.4416 23.1811 25.4375C23.2082 25.426 23.2312 25.4121 23.2583 25.4006C23.2813 25.3874 23.3084 25.3751 23.3314 25.3636C23.347 25.3579 23.3601 25.348 23.3741 25.3406H23.3757C23.4012 25.3275 23.4258 25.3135 23.4529 25.2979C23.4784 25.2848 23.503 25.2708 23.5301 25.2577C23.5358 25.2519 23.5416 25.2519 23.5457 25.2478C23.5999 25.2166 23.6541 25.1838 23.7075 25.1534C23.7575 25.1222 23.8076 25.0893 23.8602 25.0565C23.8873 25.0393 23.9144 25.0195 23.939 25.0023C23.9891 24.9678 24.0417 24.9325 24.0893 24.8964C24.1164 24.8767 24.141 24.8578 24.1648 24.8405C24.1903 24.8208 24.2149 24.8036 24.2379 24.7847C24.2634 24.7675 24.288 24.7461 24.311 24.7264C24.3307 24.7108 24.3496 24.6952 24.3668 24.6779C24.3767 24.6722 24.3882 24.6648 24.3956 24.6566C24.4169 24.641 24.4358 24.6238 24.4555 24.6065C24.504 24.5638 24.5524 24.5219 24.6 24.4768C24.6214 24.4595 24.6403 24.4423 24.66 24.4209C24.6871 24.3955 24.7142 24.3667 24.7429 24.3421L24.7503 24.3322C24.7717 24.3125 24.7906 24.292 24.8119 24.2723L24.816 24.2665C24.8292 24.2509 24.8448 24.2378 24.8587 24.2222C24.9031 24.1762 24.9458 24.1311 24.9876 24.0851C25.0049 24.0621 25.0262 24.0391 25.0459 24.0194C25.0517 24.012 25.0574 24.0038 25.0632 23.9964C25.1001 23.9562 25.1346 23.9135 25.1691 23.8691C25.1888 23.8461 25.2077 23.8207 25.2274 23.796C25.266 23.7476 25.3046 23.6975 25.3416 23.6458C25.3604 23.6187 25.3785 23.594 25.3974 23.5686C25.4146 23.5431 25.4319 23.5168 25.4491 23.4897C25.468 23.4667 25.4836 23.4438 25.4992 23.4183L25.5321 23.3682C25.555 23.3337 25.5748 23.3009 25.5936 23.268C25.6166 23.2352 25.6339 23.2023 25.6536 23.1695C25.6552 23.1678 25.6552 23.1678 25.6552 23.1654C25.6807 23.1251 25.7037 23.0841 25.7267 23.0439C25.7497 23.0012 25.7727 22.9593 25.794 22.9182C25.8383 22.8312 25.881 22.7425 25.9237 22.6538C25.9369 22.6226 25.9582 22.5725 25.9722 22.5421C25.982 22.5208 25.9911 22.4994 26.0009 22.4764C26.0264 22.4165 26.0494 22.3565 26.0724 22.2966L26.074 22.2925C26.1011 22.217 26.1299 22.1422 26.1528 22.065C26.1783 21.9895 26.2029 21.9123 26.2243 21.8351C26.2317 21.8039 26.2399 21.7752 26.2497 21.744C26.2596 21.7111 26.267 21.6799 26.2727 21.6495C26.2826 21.6241 26.2883 21.5953 26.2941 21.5682C26.3015 21.5338 26.3097 21.4984 26.3171 21.4623C26.3228 21.4369 26.3286 21.4122 26.3327 21.3892C26.3368 21.3695 26.3384 21.3506 26.3442 21.3309C26.3442 21.3293 26.3442 21.3293 26.3425 21.3252C26.3466 21.3235 26.3466 21.3194 26.3466 21.3137C26.354 21.2751 26.3598 21.2365 26.368 21.1938C26.368 21.1897 26.3696 21.1839 26.3696 21.1765C26.377 21.1339 26.3828 21.092 26.3893 21.0509C26.3934 21.0222 26.3992 20.991 26.4008 20.9581C26.4066 20.9269 26.4082 20.8982 26.4123 20.8653C26.4164 20.8341 26.4181 20.8054 26.4222 20.775C26.4222 20.7495 26.4263 20.7249 26.4263 20.6995C26.4279 20.6863 26.4279 20.674 26.4304 20.6625C26.432 20.6371 26.4345 20.6141 26.4361 20.5894C26.4361 20.5451 26.4403 20.5048 26.4403 20.4597C26.4419 20.4112 26.4444 20.3611 26.4444 20.3127V20.1641C26.4493 20.1312 26.4476 20.0926 26.4476 20.054Z" fill="url(#paint0_linear_30_17391)"/>
<path d="M26.4518 20.1718V20.3204C26.4518 20.3697 26.4502 20.4181 26.4477 20.4674C26.4477 20.5109 26.4453 20.5536 26.4436 20.5971C26.442 20.6218 26.4412 20.6464 26.4379 20.6711C26.4362 20.6817 26.4362 20.694 26.4354 20.7064C26.4338 20.7326 26.4313 20.7565 26.4297 20.7827C26.4272 20.8123 26.4239 20.8427 26.4198 20.8739C26.4174 20.9051 26.4141 20.9355 26.4091 20.9667C26.4067 20.9979 26.4026 21.0291 26.3985 21.0595C26.3927 21.1005 26.3862 21.1424 26.3779 21.1851C26.3796 21.1917 26.3763 21.1974 26.3763 21.2032C26.3697 21.2442 26.3623 21.2836 26.3541 21.323C26.3541 21.3272 26.3541 21.3329 26.3517 21.3337C26.3533 21.3362 26.3533 21.3378 26.3533 21.3395C26.3476 21.3584 26.3451 21.3789 26.341 21.397C26.3369 21.4216 26.3311 21.4462 26.3262 21.4717C26.318 21.507 26.3114 21.5423 26.3032 21.5768C26.2975 21.6039 26.2909 21.6326 26.2827 21.6589C26.2761 21.6901 26.2679 21.7213 26.2597 21.7525C26.2498 21.7837 26.2416 21.8141 26.2334 21.8437C26.2112 21.9217 26.1874 21.9972 26.1628 22.0736C26.1382 22.1499 26.1111 22.2263 26.084 22.301L26.0815 22.3051C26.0585 22.3651 26.0355 22.425 26.0109 22.4833C26.001 22.5063 25.992 22.5285 25.9821 22.5498C25.9682 22.5802 25.9468 22.6303 25.9329 22.6615C25.891 22.7502 25.8483 22.8389 25.8031 22.9259C25.781 22.967 25.758 23.0089 25.735 23.0516C25.712 23.0926 25.689 23.1337 25.6644 23.1739C25.6644 23.1756 25.6644 23.1756 25.6627 23.1764C25.6438 23.2092 25.6249 23.2429 25.6028 23.2741C25.5822 23.3078 25.5634 23.3406 25.5412 23.3751L25.5075 23.4252C25.4927 23.4498 25.4763 23.4728 25.4583 23.4975C25.4402 23.5246 25.4229 23.5508 25.4049 23.5763C25.386 23.6009 25.3679 23.6264 25.349 23.6527C25.3121 23.7044 25.2743 23.7545 25.2357 23.8038C25.2152 23.8284 25.1963 23.8538 25.1774 23.876C25.1437 23.9212 25.1076 23.9631 25.0715 24.0041C25.0657 24.0123 25.0592 24.0189 25.0534 24.0271C25.0345 24.0476 25.014 24.0706 24.9951 24.0928C24.9541 24.1388 24.9105 24.1839 24.867 24.2307C24.8531 24.2455 24.8383 24.2603 24.8235 24.2759L24.821 24.2817C24.7989 24.3005 24.78 24.3227 24.7594 24.3416L24.7512 24.3515C24.7225 24.3777 24.6954 24.4048 24.6683 24.4303C24.6494 24.4508 24.6289 24.4681 24.6084 24.4861C24.5607 24.5313 24.5115 24.5732 24.4622 24.6159C24.4433 24.6339 24.4244 24.6495 24.4039 24.666C24.3957 24.6742 24.385 24.6807 24.3751 24.6881C24.3571 24.7046 24.3382 24.7193 24.3177 24.7358C24.2947 24.7546 24.27 24.7752 24.2454 24.7932C24.2208 24.8121 24.1961 24.831 24.1715 24.8507C24.1469 24.8688 24.1222 24.8877 24.0968 24.9066C24.0475 24.9419 23.9958 24.9772 23.9457 25.0125C23.9194 25.0306 23.894 25.0478 23.8652 25.0659C23.8151 25.0987 23.7642 25.1316 23.7125 25.1628C23.6591 25.194 23.6066 25.2268 23.5515 25.2564C23.5474 25.2605 23.5409 25.2621 23.5368 25.2662C23.5097 25.281 23.4834 25.295 23.4579 25.3081C23.4316 25.3229 23.4078 25.3352 23.3816 25.35H23.3799C23.3651 25.3566 23.3512 25.3664 23.338 25.373C23.3134 25.3836 23.2879 25.396 23.2633 25.4099C23.237 25.4206 23.2132 25.4346 23.1869 25.4469C23.1804 25.4493 23.1722 25.4534 23.1648 25.4567C23.1631 25.4584 23.1607 25.4592 23.1582 25.4608C23.15 25.4633 23.1418 25.4674 23.1336 25.4732C23.1311 25.4732 23.1295 25.4748 23.127 25.4748C23.0958 25.4896 23.0646 25.5035 23.0342 25.5167C23.0096 25.529 22.9841 25.5397 22.9595 25.5495C22.9578 25.5495 22.9554 25.552 22.9537 25.552C22.9291 25.5602 22.9077 25.57 22.8856 25.5791C22.8437 25.5971 22.7994 25.6128 22.755 25.6308C22.7443 25.6349 22.7328 25.6407 22.7222 25.6431C22.7197 25.6448 22.7164 25.6456 22.7123 25.6456C22.6786 25.6579 22.6442 25.6719 22.6105 25.6834C22.5752 25.6957 22.5382 25.708 22.5013 25.7203C22.5013 25.7203 22.4988 25.722 22.4972 25.722C22.4249 25.745 22.3526 25.7679 22.2804 25.7877C22.2779 25.7893 22.2746 25.7893 22.2738 25.7901C22.1999 25.809 22.1293 25.8295 22.0562 25.846C21.9815 25.8648 21.9051 25.8796 21.8288 25.8952C21.7787 25.9059 21.7253 25.9158 21.6736 25.924C21.6284 25.9322 21.5832 25.9387 21.5372 25.9461C21.5069 25.9519 21.4748 25.9544 21.4445 25.9601C21.4239 25.9617 21.4067 25.9642 21.3862 25.9658C21.3804 25.9658 21.3763 25.9675 21.3722 25.9683C21.3517 25.97 21.3311 25.9724 21.3122 25.9741C21.2934 25.9765 21.2745 25.9782 21.2548 25.9798C21.2211 25.9839 21.1866 25.9856 21.1513 25.988C21.1332 25.9897 21.116 25.9921 21.0979 25.9921C21.0733 25.9938 21.0503 25.9962 21.024 25.9979C20.9953 25.9979 20.9682 25.9995 20.9386 26.002C20.9329 26.0003 20.9279 26.0003 20.9222 26.0003C20.8992 26.0003 20.8762 26.0028 20.8516 26.0028H20.8228C20.7769 26.0044 20.7301 26.0044 20.6849 26.0044L16.5528 25.9732C15.7711 25.9675 15.0411 25.754 14.4113 25.3836C14.229 25.2744 14.0541 25.1545 13.8907 25.024C13.4957 24.7054 13.159 24.3194 12.8979 23.8826C12.8963 23.8809 12.8963 23.8809 12.8954 23.8801L12.8043 23.7167C12.8002 23.711 12.7985 23.706 12.7944 23.7019L12.4824 23.1501L12.4446 23.0836L10.8524 20.2761L10.813 20.2096V20.2079L12.4873 17.3585L12.5251 17.4283L13.3438 18.8694L14.1173 20.2342L15.3187 22.3495C15.3187 22.352 15.3203 22.3552 15.3211 22.3552L15.363 22.4291C15.6126 22.8381 16.0618 23.1099 16.5742 23.114L21.1226 23.1468C22.6302 23.1468 23.9317 21.9989 24.0245 20.4904C24.0262 20.4674 24.027 20.4444 24.0286 20.4222C24.0303 20.3845 24.0311 20.3459 24.0311 20.3081C24.0409 19.0838 23.384 18.0113 22.3995 17.4341L22.4011 17.4324L22.7197 16.8872C22.7222 16.8814 22.7279 16.8765 22.7304 16.8691L22.8256 16.7082C22.824 16.7065 22.8256 16.7065 22.8256 16.7057C23.0736 16.2615 23.2395 15.7778 23.3175 15.2769L23.3274 15.2539C24.2725 15.5676 25.1487 16.5251 25.643 17.3503C25.6471 17.3544 25.6488 17.3602 25.6512 17.3643L25.703 17.4571C25.7087 17.4636 25.7095 17.471 25.7136 17.4759C25.7465 17.5359 25.7801 17.5958 25.8105 17.6558C25.813 17.6582 25.8146 17.6615 25.8146 17.664C25.8286 17.6886 25.8409 17.7133 25.8524 17.7387C25.8565 17.7486 25.8623 17.7568 25.8664 17.7675C25.868 17.7716 25.8721 17.7757 25.8729 17.7798C25.8869 17.8069 25.8992 17.8331 25.9107 17.8586C25.9123 17.8602 25.9123 17.8602 25.9123 17.8627C25.9148 17.8652 25.9148 17.8693 25.9181 17.8734C25.9329 17.9046 25.9468 17.9358 25.9616 17.9686C25.9616 17.9711 25.9616 17.9727 25.9641 17.9744C25.9789 18.0113 25.9953 18.0466 26.0101 18.0836C26.0199 18.1066 26.0289 18.1296 26.0388 18.1518C26.0454 18.1706 26.0536 18.1895 26.061 18.2092C26.0708 18.2339 26.0799 18.261 26.0914 18.2872C26.1012 18.3135 26.1094 18.339 26.1185 18.3653C26.1201 18.3653 26.1201 18.3669 26.1201 18.3669C26.139 18.4203 26.1571 18.472 26.1735 18.5262C26.1833 18.5525 26.1915 18.5796 26.1998 18.6067C26.2219 18.6773 26.2433 18.7496 26.2613 18.8235C26.272 18.8571 26.2802 18.8941 26.2884 18.931C26.3065 19.0033 26.3237 19.0772 26.3377 19.1503C26.3558 19.2332 26.3705 19.3178 26.3829 19.4024C26.3927 19.4623 26.4009 19.5223 26.4091 19.5822C26.4132 19.6134 26.4157 19.6463 26.4198 19.6791C26.4223 19.7095 26.4239 19.7407 26.4297 19.7702C26.4321 19.8015 26.4338 19.8327 26.4362 19.8639C26.4379 19.8844 26.4387 19.909 26.442 19.932C26.442 19.9484 26.4436 19.9649 26.4436 19.9837C26.4461 20.0043 26.4461 20.0273 26.4477 20.0478V20.0618C26.4494 20.093 26.4502 20.1324 26.4518 20.1718Z" fill="url(#paint1_linear_30_17391)"/>
<path d="M17.4274 14.5946V14.5971L15.7695 14.5832L14.2002 14.5708L11.7655 14.5528H11.6768C11.6506 14.5528 11.6267 14.5544 11.6005 14.5569C11.5824 14.5585 11.5668 14.5593 11.5487 14.5626L11.5241 14.5667C11.4904 14.5708 11.4559 14.5766 11.4223 14.5832C11.364 14.5938 11.3049 14.6103 11.2482 14.6291C11.2301 14.6357 11.2112 14.6431 11.194 14.6497C11.1899 14.6513 11.1841 14.6521 11.18 14.6554C11.1143 14.68 11.0413 14.7154 10.9879 14.749C10.9797 14.7531 10.9731 14.7572 10.9657 14.763C10.9657 14.7646 10.9641 14.7646 10.9641 14.7646C10.9099 14.7975 10.859 14.8344 10.8105 14.8738C10.7875 14.8919 10.7654 14.9108 10.744 14.9313C10.7235 14.9502 10.7021 14.9707 10.6816 14.9913C10.6052 15.0717 10.5363 15.1612 10.4788 15.2606L8.18776 19.1619C7.44954 20.4183 7.73448 22.0483 8.8767 22.9187C8.92433 22.9556 8.97442 22.9893 9.02533 23.0238C9.07542 23.0575 9.12716 23.0895 9.18053 23.1207C10.2349 23.7407 11.4937 23.7078 12.4857 23.1453L12.7977 23.6971C12.8018 23.7012 12.8035 23.707 12.8076 23.7119L12.8987 23.8753C12.9004 23.877 12.9004 23.877 12.9012 23.8778C13.1623 24.3155 13.499 24.7006 13.8939 25.0192L13.9079 25.0381C13.1639 25.6999 11.8961 25.9808 10.9353 25.9947H10.8113C10.8048 25.9947 10.799 25.9931 10.7908 25.9931C10.7227 25.9931 10.6545 25.9906 10.5855 25.9873C10.5831 25.9873 10.5798 25.9873 10.579 25.9857C10.5502 25.9857 10.5231 25.9832 10.4944 25.9816C10.4845 25.9816 10.4738 25.9799 10.4632 25.9799C10.4591 25.9783 10.4533 25.9783 10.4484 25.9775C10.4164 25.9693 10.2374 25.9594 10.2357 25.9594C10.1963 25.9553 10.1569 25.9496 10.1183 25.9454C10.092 25.943 10.0682 25.9389 10.0436 25.9348C10.023 25.9331 10.0041 25.929 9.98526 25.9266C9.95652 25.9225 9.92778 25.9183 9.90068 25.9126C9.8744 25.9085 9.84649 25.9027 9.82021 25.8986H9.81857C9.76437 25.888 9.70935 25.8765 9.65351 25.865C9.62642 25.8592 9.59932 25.8543 9.5714 25.8469C9.49914 25.8305 9.42523 25.8132 9.35379 25.7927C9.31848 25.7829 9.28153 25.7722 9.24458 25.7623C9.17396 25.7402 9.10252 25.7188 9.0319 25.6942C8.95143 25.6679 8.87013 25.6383 8.79048 25.6071C8.733 25.5866 8.67716 25.5636 8.62133 25.539C8.59258 25.5267 8.56138 25.5127 8.53264 25.5012C8.5039 25.4872 8.47516 25.4749 8.44806 25.4618C8.41932 25.4495 8.39222 25.4372 8.36513 25.4224C8.34295 25.4125 8.32325 25.4018 8.30272 25.3928C8.2863 25.3846 8.27151 25.3789 8.25673 25.3698C8.23785 25.3591 8.21732 25.3493 8.19925 25.3411L8.18858 25.3345C8.15327 25.3164 8.11796 25.2976 8.08347 25.2787C8.03995 25.2557 7.99889 25.2294 7.95537 25.2048C7.91185 25.1785 7.87079 25.1547 7.82891 25.1284C7.79196 25.1062 7.75665 25.0824 7.7197 25.0586L7.65811 25.0175C7.64744 25.011 7.63758 25.0052 7.62855 24.997C7.60638 24.9831 7.58749 24.9683 7.56614 24.9535C7.54151 24.9371 7.51605 24.9198 7.49142 24.9001C7.46514 24.8812 7.44133 24.8632 7.41669 24.8443C7.3937 24.8254 7.36742 24.8073 7.34279 24.7884C7.30912 24.7622 7.27628 24.7367 7.24343 24.708C7.23768 24.7055 7.23276 24.7022 7.22947 24.6973C7.19662 24.6727 7.16542 24.6456 7.13586 24.6193C7.1334 24.6168 7.13011 24.6152 7.12765 24.6111C7.12601 24.6127 7.12518 24.6111 7.12354 24.6086C7.10876 24.5963 7.09398 24.584 7.08002 24.5708C7.05949 24.5544 7.04061 24.538 7.02172 24.5207C6.99544 24.4961 6.96834 24.4731 6.94371 24.4485C6.92154 24.428 6.90183 24.4107 6.88212 24.3902C6.85913 24.368 6.83614 24.3467 6.81397 24.3237C6.78933 24.3007 6.76798 24.2777 6.74581 24.2555C6.68833 24.198 6.63414 24.1397 6.58076 24.0781C6.52739 24.0198 6.47565 23.9583 6.42392 23.8942C6.42228 23.8942 6.42228 23.8926 6.42146 23.8917C6.38204 23.8425 6.34263 23.7924 6.30321 23.7423C6.28432 23.7152 6.26544 23.6889 6.24573 23.6643C6.2252 23.6372 6.20631 23.6109 6.18825 23.5838C6.13077 23.505 6.07657 23.4229 6.0232 23.3399C5.99692 23.3022 5.97311 23.2595 5.94929 23.2184C5.92302 23.179 5.90002 23.1379 5.87539 23.096C5.87539 23.096 5.87539 23.096 5.87375 23.0936C5.85568 23.0607 5.83844 23.0279 5.81955 22.9926C5.80066 22.9589 5.78178 22.9244 5.76371 22.8891C5.76371 22.8875 5.76207 22.8867 5.76125 22.8834C5.7555 22.871 5.74893 22.8571 5.74236 22.8456C5.74072 22.8431 5.73826 22.839 5.73661 22.8357C5.72266 22.8095 5.71034 22.784 5.6972 22.7569C5.68324 22.7282 5.6701 22.6994 5.65778 22.6707C5.64382 22.6419 5.63069 22.6132 5.61837 22.5836C5.59209 22.5262 5.5691 22.4695 5.54611 22.4096C5.53379 22.3808 5.52147 22.3521 5.51244 22.3225C5.49027 22.2708 5.47138 22.2207 5.45414 22.1673C5.45167 22.1591 5.44757 22.1509 5.44593 22.141C5.43525 22.1123 5.4254 22.0836 5.41472 22.0565C5.39666 21.9982 5.37941 21.939 5.36135 21.8783C5.35478 21.8577 5.34903 21.8372 5.34246 21.8183C5.34246 21.8142 5.34082 21.8142 5.34082 21.8118C5.33261 21.7847 5.32604 21.7559 5.31865 21.7296L5.31618 21.7173C5.30633 21.6796 5.2973 21.6426 5.28744 21.604C5.28087 21.5794 5.27513 21.5523 5.26938 21.5276C5.2546 21.462 5.24064 21.3979 5.22996 21.3339C5.22422 21.3092 5.22011 21.2838 5.216 21.2591C5.21354 21.2468 5.21026 21.2345 5.20943 21.2222C5.20533 21.1992 5.20122 21.1745 5.19712 21.1499C5.19301 21.1204 5.18891 21.0883 5.1848 21.0588C5.17905 21.0276 5.17495 20.9972 5.17084 20.9676C5.16838 20.9364 5.16427 20.9052 5.16099 20.8748C5.15442 20.8132 5.14867 20.7508 5.14292 20.6892C5.14046 20.658 5.13882 20.6252 5.13717 20.594C5.13471 20.5324 5.13143 20.4725 5.12896 20.4117C5.12732 20.3501 5.12732 20.2893 5.12732 20.2261C5.12896 20.2204 5.12896 20.2138 5.12896 20.2072C5.12896 20.1785 5.1306 20.1489 5.1306 20.1185C5.1306 20.0898 5.13225 20.0602 5.13307 20.0315C5.13307 20.0315 5.13307 20.0315 5.13307 20.0299C5.13471 20.0151 5.13471 19.9987 5.13553 19.9822C5.13717 19.9535 5.13799 19.9264 5.13964 19.8993C5.14128 19.8706 5.14374 19.8435 5.14538 19.8147C5.14703 19.8081 5.14785 19.7999 5.14785 19.7917C5.14949 19.7876 5.14785 19.7852 5.14949 19.7835C5.14949 19.7737 5.15113 19.7654 5.15113 19.7564C5.15278 19.754 5.15278 19.7507 5.15278 19.7482C5.15524 19.7154 5.15934 19.68 5.16263 19.6472C5.16509 19.6201 5.16838 19.593 5.17248 19.5667C5.17248 19.5651 5.17248 19.561 5.17413 19.5602C5.17659 19.5372 5.17987 19.5109 5.18398 19.4879C5.19055 19.4419 5.19794 19.3951 5.20451 19.3499C5.20615 19.3376 5.20861 19.3253 5.21026 19.313C5.21026 19.3105 5.2119 19.3072 5.2119 19.3048C5.21847 19.2678 5.22422 19.2325 5.23078 19.1956C5.23735 19.1586 5.24557 19.1217 5.25378 19.0855C5.25378 19.0831 5.25378 19.0798 5.25542 19.079C5.2702 19.0051 5.28662 18.9336 5.30551 18.8581C5.30715 18.8564 5.30715 18.854 5.30715 18.8515C5.32768 18.7792 5.34492 18.707 5.3671 18.6347C5.38927 18.5608 5.41308 18.4877 5.43772 18.4138C5.45578 18.367 5.47385 18.3178 5.49273 18.2685C5.50916 18.2266 5.52394 18.1823 5.542 18.1404C5.55432 18.1108 5.56499 18.0821 5.57731 18.0533C5.58552 18.0345 5.59373 18.0164 5.6003 17.9975C5.60277 17.995 5.60441 17.9893 5.60605 17.9852C5.61426 17.9671 5.62247 17.9482 5.63233 17.931C5.6389 17.9129 5.64711 17.8957 5.6545 17.8793C5.66928 17.8481 5.68406 17.8169 5.69966 17.784C5.70787 17.7676 5.71444 17.7528 5.7243 17.738C5.73497 17.7159 5.74483 17.6929 5.75714 17.6715C5.7711 17.6469 5.78178 17.6214 5.79492 17.5968L5.80477 17.582C5.81545 17.5598 5.8253 17.5401 5.83762 17.5196C5.84008 17.5171 5.84172 17.5114 5.84419 17.5073L5.8524 17.4933C5.87457 17.4523 5.89756 17.4145 5.91891 17.3751L8.00957 13.8129C8.407 13.1387 8.958 12.6116 9.59275 12.2535C9.77833 12.1484 9.96884 12.0589 10.1659 11.9842C10.6389 11.8003 11.1414 11.7025 11.6506 11.6943C11.6522 11.6943 11.6522 11.6943 11.6522 11.6943L11.8402 11.696C11.8468 11.6943 11.8542 11.696 11.8591 11.696L12.4914 11.7001L12.5703 11.7017L15.7974 11.7247L17.4274 14.5946Z" fill="url(#paint2_linear_30_17391)"/>
<path d="M11.1801 14.6562C11.1226 14.6792 11.0659 14.7063 11.0109 14.7384C11.0027 14.7425 10.9945 14.7466 10.9879 14.7507C11.0413 14.7162 11.1144 14.6809 11.1801 14.6562Z" fill="url(#paint3_linear_30_17391)"/>
<path d="M17.4274 14.5969L15.7966 17.3749L15.7941 17.3773L12.489 17.3527L10.8147 20.2021V20.2038L10.8541 20.2703L12.4463 23.0778L12.4841 23.1443C11.4921 23.7068 10.2333 23.7396 9.17893 23.1197C9.12555 23.0885 9.07382 23.0573 9.02373 23.0228C8.97364 22.9891 8.92273 22.9546 8.8751 22.9177C7.73206 22.0472 7.44712 20.4164 8.18615 19.1609L10.4772 15.2596C10.5347 15.1602 10.6036 15.0699 10.68 14.9903C10.7005 14.9697 10.7219 14.9492 10.7424 14.9303C10.7646 14.9098 10.7859 14.8909 10.8089 14.8728C10.8582 14.8334 10.9083 14.7965 10.9625 14.7636C10.9625 14.7636 10.9641 14.7636 10.9641 14.762C10.9707 14.7562 10.9781 14.7521 10.9863 14.748C11.0397 14.7143 11.1127 14.6782 11.1784 14.6544C11.1825 14.6519 11.1883 14.6503 11.1924 14.6487C11.2105 14.6421 11.2293 14.6347 11.2466 14.6281C11.3041 14.6092 11.3624 14.5928 11.4207 14.5821C11.4543 14.5756 11.4888 14.5698 11.5225 14.5657C11.5471 14.5616 11.5726 14.5591 11.5989 14.5559C11.6251 14.5534 11.649 14.5518 11.6752 14.5518H11.7639L14.1986 14.5698L15.7679 14.5821L17.4274 14.5969Z" fill="url(#paint4_linear_30_17391)"/>
<path d="M23.3733 14.6397C23.3708 14.8524 23.3528 15.0634 23.3199 15.272C23.2419 15.7729 23.076 16.2566 22.8281 16.7008C22.8281 16.7024 22.8264 16.7024 22.8281 16.7033L22.7328 16.8642C22.7303 16.8708 22.7246 16.8765 22.7221 16.8823L22.4035 17.4275L22.4019 17.4292L22.3625 17.4957L20.7292 20.2786L17.4241 20.2539L18.2633 18.8235L19.0573 17.471L20.2899 15.3722L20.294 15.3681L20.3359 15.2942C20.5633 14.8746 20.5773 14.349 20.3219 13.9031L18.0908 9.96899C18.0826 9.95503 18.076 9.94271 18.0662 9.92957C17.3362 8.6847 15.79 8.13453 14.4737 8.69374C14.4359 8.71016 14.3973 8.7274 14.3595 8.74547C14.3488 8.75122 14.3365 8.75614 14.3258 8.76189C14.3193 8.766 14.3119 8.76846 14.3053 8.77257C14.2577 8.79556 14.2117 8.82184 14.1649 8.84729C13.6911 9.11663 13.3084 9.48451 13.0301 9.91151C12.6827 10.4428 12.4963 11.0652 12.4889 11.6975L11.8566 11.6934C11.8509 11.6934 11.8443 11.6918 11.8377 11.6934L11.6513 11.6918C11.6513 11.6918 11.6513 11.6918 11.6497 11.6918C11.1406 11.7 10.6372 11.7977 10.1651 11.9816L10.1404 11.9833C9.94007 11.0077 10.3309 9.76945 10.7982 8.92941L10.8064 8.91709L10.8606 8.8243L10.8589 8.82266L10.8696 8.80623C10.9049 8.74793 10.9402 8.68799 10.9788 8.63051L11.0281 8.55414C11.0347 8.54429 11.0404 8.53607 11.047 8.52786C11.0494 8.52376 11.0511 8.51801 11.0552 8.5139C11.0716 8.49091 11.1053 8.44 11.1053 8.44L11.1135 8.42768C11.1324 8.40058 11.1529 8.37184 11.1751 8.34475L11.1775 8.339C11.2005 8.30779 11.2235 8.27659 11.2482 8.24374C11.2621 8.22486 11.2785 8.20433 11.2941 8.18544C11.3065 8.16902 11.3171 8.15424 11.3311 8.13782C11.3492 8.11729 11.3664 8.09429 11.3845 8.07377C11.4009 8.05159 11.4198 8.03189 11.4362 8.00972C11.4362 8.00972 11.4937 7.94731 11.5495 7.88326C11.5676 7.86273 11.5865 7.84138 11.6054 7.82085C11.6571 7.76665 11.7088 7.71328 11.7622 7.6599C11.7893 7.63363 11.8164 7.60653 11.8427 7.58107C11.8969 7.52934 11.9502 7.47925 12.0077 7.42998C12.0718 7.37414 12.1375 7.31831 12.204 7.26493C12.25 7.22716 12.2992 7.19021 12.3469 7.15325C12.3715 7.13437 12.3986 7.11384 12.4257 7.09577C12.4503 7.07771 12.475 7.05882 12.5004 7.0424C12.5267 7.02351 12.5505 7.00462 12.5768 6.9882C12.5957 6.97588 12.6146 6.96357 12.6343 6.95043C12.649 6.94057 12.6614 6.93154 12.6761 6.92333C12.695 6.91101 12.7139 6.8987 12.7303 6.88638C12.7344 6.88474 12.7386 6.88227 12.7427 6.87981C12.7755 6.85928 12.8092 6.83875 12.842 6.81822C12.9011 6.78127 12.9701 6.74432 12.9701 6.74432C13.012 6.71968 13.0555 6.69505 13.0999 6.67206C13.1376 6.65317 13.1779 6.631 13.214 6.61211C13.237 6.5998 13.2575 6.58994 13.2805 6.58091C13.2912 6.57434 13.301 6.57023 13.3117 6.56449C13.3364 6.55381 13.3577 6.54149 13.3799 6.53164C13.4086 6.51768 13.4374 6.50536 13.4661 6.49387C13.4948 6.47991 13.5219 6.46759 13.5507 6.45609C13.5794 6.44542 13.6082 6.43392 13.6369 6.42079C13.6796 6.40026 13.7658 6.36905 13.7732 6.36659C13.811 6.35263 13.8496 6.33949 13.8873 6.32717C13.8898 6.32471 13.9391 6.30829 13.958 6.3009C13.981 6.29433 14.004 6.28612 14.0286 6.2779C14.0623 6.26559 14.0967 6.25573 14.1321 6.24506C14.1591 6.23685 14.1862 6.22864 14.2125 6.22207C14.2421 6.21221 14.2741 6.204 14.3053 6.19579C14.3365 6.18758 14.3677 6.17937 14.3981 6.16951C14.4761 6.15063 14.5549 6.1342 14.6321 6.11614C14.711 6.09971 14.7898 6.08658 14.8694 6.07262C14.8711 6.07097 14.8736 6.07097 14.8752 6.07262C14.9376 6.06194 15.0017 6.05209 15.0632 6.04388C15.0961 6.03977 15.1289 6.03731 15.161 6.0332C15.1938 6.0291 15.225 6.02499 15.2579 6.02335C15.3547 6.01349 15.4541 6.00857 15.551 6.00282C15.5986 6.00035 15.6463 5.99871 15.6939 5.99871C15.7415 5.99871 15.7867 5.99707 15.8359 5.99871C15.8359 5.99707 15.8376 5.99707 15.8384 5.99707C15.8762 5.99707 15.9148 5.99871 15.9525 5.99953C15.992 6.00118 16.0314 6.002 16.0708 6.00364C16.0856 6.00364 16.1036 6.00528 16.1201 6.0061C16.1225 6.00446 16.1266 6.0061 16.1307 6.00775C16.1603 6.00939 16.189 6.01021 16.2194 6.01349C16.2506 6.01596 16.2835 6.0176 16.313 6.0217C16.3459 6.02417 16.3754 6.02745 16.4083 6.02992C16.4707 6.03649 16.5339 6.0447 16.5947 6.05291C16.6259 6.05866 16.6571 6.06276 16.6875 6.06769C16.7417 6.0759 16.7967 6.08411 16.8509 6.09643C16.8607 6.09643 16.8698 6.09889 16.878 6.10054C16.9075 6.1071 16.9363 6.11121 16.965 6.1186C17.0266 6.13092 17.0874 6.1457 17.1473 6.15966C17.1679 6.16376 17.1884 6.16951 17.2097 6.17444C17.2097 6.17608 17.2122 6.17444 17.2155 6.17608C17.2426 6.18429 17.2713 6.19086 17.2984 6.19907L17.3091 6.20072C17.346 6.21303 17.3838 6.22289 17.4191 6.23356C17.4462 6.24013 17.4709 6.24834 17.4971 6.2582C17.5595 6.27708 17.6228 6.29761 17.6835 6.31978C17.7082 6.32799 17.7312 6.33621 17.7558 6.34606C17.7657 6.35017 17.7788 6.35263 17.7886 6.35838C17.8116 6.36659 17.8346 6.37644 17.8593 6.38465C17.8864 6.39697 17.9151 6.40765 17.9455 6.4175C17.9742 6.43146 18.003 6.44214 18.0301 6.45445C18.0604 6.46677 18.0875 6.47909 18.1163 6.4914C18.1721 6.51604 18.228 6.54314 18.2838 6.57023C18.3125 6.58419 18.3413 6.59733 18.37 6.61211C18.4242 6.63921 18.4776 6.66631 18.5318 6.69505C18.586 6.72543 18.6394 6.75499 18.6936 6.78784L18.7075 6.79769C18.7346 6.81165 18.7592 6.82808 18.7855 6.84368C18.8102 6.85764 18.8348 6.87324 18.8594 6.88966C18.8594 6.88966 18.8594 6.88966 18.8611 6.88966C18.8734 6.89787 18.8882 6.90609 18.9021 6.91594L18.9719 6.9611C18.9949 6.97753 19.0179 6.99231 19.0417 7.00873C19.0499 7.01284 19.054 7.01858 19.0623 7.02269L19.0688 7.02844C19.0754 7.03254 19.0828 7.03829 19.0894 7.04322L19.0959 7.04732C19.1247 7.06785 19.1518 7.08674 19.1805 7.10727C19.201 7.12205 19.2224 7.13847 19.2445 7.1549L19.2503 7.159C19.2684 7.17378 19.2881 7.18856 19.3078 7.20416C19.3447 7.23291 19.38 7.26247 19.417 7.29121C19.4268 7.29778 19.4375 7.30517 19.4457 7.3142L19.4523 7.31831C19.481 7.3413 19.5098 7.36593 19.5369 7.38892C19.5656 7.4152 19.5927 7.43901 19.6215 7.46529C19.6231 7.46529 19.6256 7.46693 19.6256 7.4694C19.683 7.51949 19.7372 7.5704 19.7914 7.62295C19.7931 7.62542 19.7939 7.62542 19.7955 7.6287C19.8497 7.68043 19.9031 7.73381 19.9532 7.788C20.0066 7.84384 20.0583 7.90132 20.1109 7.96127C20.1445 7.99904 20.1774 8.0401 20.2119 8.07951C20.2406 8.11482 20.2702 8.15342 20.2989 8.18873C20.317 8.21336 20.3383 8.238 20.3564 8.26263C20.3687 8.27905 20.3794 8.29383 20.3917 8.31026C20.3942 8.31436 20.3974 8.31847 20.3999 8.32093C20.4106 8.33736 20.4229 8.35378 20.4352 8.3702C20.4475 8.38498 20.4574 8.39976 20.4681 8.41537C20.4886 8.44575 20.5075 8.47367 20.528 8.50241C20.5379 8.51637 20.5469 8.53115 20.5576 8.54593C20.5715 8.56646 20.5847 8.58699 20.597 8.60834C20.6134 8.63133 20.6282 8.65596 20.643 8.67896C20.6454 8.6847 20.6495 8.68881 20.6512 8.69374C20.6651 8.71262 20.6775 8.73151 20.689 8.75368C20.6914 8.75614 20.6931 8.76189 20.6955 8.76436C20.6972 8.76846 20.7013 8.77421 20.7037 8.77914C20.7267 8.81691 20.7497 8.85715 20.7719 8.89656L22.8108 12.4899C23.1992 13.1715 23.3782 13.9105 23.3733 14.6397Z" fill="url(#paint5_linear_30_17391)"/>
<path d="M24.0335 20.3021C24.0335 20.3399 24.0319 20.3785 24.031 20.4163C24.0294 20.4384 24.0286 20.4614 24.0269 20.4844C23.9342 21.9921 22.6334 23.1408 21.125 23.1408L16.5766 23.108C16.0642 23.1039 15.6151 22.8313 15.3654 22.4232L15.3235 22.3493C15.3219 22.3493 15.3211 22.3468 15.3211 22.3435L14.1197 20.2282L13.3462 18.8635L12.5275 17.4223L12.4897 17.3525L15.7949 17.3772L15.7932 17.3788L15.831 17.4453L15.8327 17.447L15.8343 17.4511L17.4257 20.2529L20.7308 20.2775L22.3641 17.4946L22.4035 17.4281C23.3864 18.0054 24.0434 19.0778 24.0335 20.3021Z" fill="url(#paint6_linear_30_17391)"/>
<path d="M20.3367 15.2931L20.2948 15.367L20.2907 15.3711L19.0582 17.47L18.2641 18.8224L17.4249 20.2529L15.8335 17.4511L15.8319 17.447L15.8302 17.4453L15.7925 17.3788L15.7966 17.3747L17.4274 14.5968V14.5943L15.7966 11.7211L12.5694 11.6981L12.4906 11.6965C12.4972 11.0642 12.6844 10.4417 13.0317 9.91045C13.3093 9.48427 13.6928 9.11639 14.1666 8.84624C14.2126 8.81996 14.2594 8.7945 14.307 8.77151C14.3136 8.7674 14.321 8.76494 14.3275 8.76084C14.3382 8.75509 14.3505 8.75016 14.3612 8.74441C14.399 8.72635 14.4376 8.7091 14.4753 8.69268C15.7916 8.13265 17.337 8.68283 18.0679 9.92852C18.0777 9.94247 18.0843 9.95479 18.0925 9.96793L20.3236 13.9021C20.5781 14.348 20.5642 14.8735 20.3367 15.2931Z" fill="url(#paint7_linear_30_17391)"/>
</g>
<defs>
<linearGradient id="paint0_linear_30_17391" x1="22.556" y1="9.23487" x2="11.1322" y2="27.2278" gradientUnits="userSpaceOnUse">
<stop offset="0.031" stop-color="#D495FF"/>
<stop offset="0.321" stop-color="#A671FF"/>
<stop offset="0.7025" stop-color="#778BFF"/>
</linearGradient>
<linearGradient id="paint1_linear_30_17391" x1="11.9265" y1="18.4379" x2="25.7483" y2="22.318" gradientUnits="userSpaceOnUse">
<stop stop-color="#717EFE"/>
<stop offset="0.9855" stop-color="#4F91FF"/>
</linearGradient>
<linearGradient id="paint2_linear_30_17391" x1="6.84607" y1="23.7332" x2="16.6814" y2="13.2433" gradientUnits="userSpaceOnUse">
<stop stop-color="#78CCFF"/>
<stop offset="0.9556" stop-color="#508CFD"/>
</linearGradient>
<linearGradient id="paint3_linear_30_17391" x1="11.0242" y1="14.6744" x2="11.1436" y2="14.7317" gradientUnits="userSpaceOnUse">
<stop offset="0.0224" stop-color="#5553FD"/>
<stop offset="0.5905" stop-color="#A9A6FD"/>
</linearGradient>
<linearGradient id="paint4_linear_30_17391" x1="9.94558" y1="23.2861" x2="15.266" y2="11.3317" gradientUnits="userSpaceOnUse">
<stop offset="0.0042056" stop-color="white"/>
<stop offset="0.1697" stop-color="#E7EDFF"/>
<stop offset="0.5179" stop-color="#A9C1FE"/>
<stop offset="0.7193" stop-color="#82A5FE"/>
</linearGradient>
<linearGradient id="paint5_linear_30_17391" x1="13.7658" y1="5.25474" x2="19.8798" y2="20.8662" gradientUnits="userSpaceOnUse">
<stop offset="0.0173" stop-color="#D69BFD"/>
<stop offset="0.9727" stop-color="#7E5CF7"/>
</linearGradient>
<linearGradient id="paint6_linear_30_17391" x1="14.0177" y1="17.9376" x2="25.7414" y2="23.0665" gradientUnits="userSpaceOnUse">
<stop stop-color="#98A9F4"/>
<stop offset="0.7768" stop-color="white"/>
</linearGradient>
<linearGradient id="paint7_linear_30_17391" x1="17.0436" y1="20.3597" x2="16.1638" y2="8.63784" gradientUnits="userSpaceOnUse">
<stop offset="0.0742" stop-color="#A187FE"/>
<stop offset="1" stop-color="white"/>
</linearGradient>
<clipPath id="clip0_30_17391">
<rect width="21.4518" height="20" fill="white" transform="translate(5 6)"/>
</clipPath>
</defs>
</svg>
