<svg width="101" height="100" fill="none" xmlns="http://www.w3.org/2000/svg"><g clip-path="url(#clip0_38_9229)"><path d="M50.544 8.38c3.24 0 6.37 1.18 8.804 3.32l.642.604 2.908 2.909a5 5 0 002.958 1.42l.563.034h4.167a13.333 13.333 0 0113.312 12.575l.021.758v4.167c0 1.125.383 2.22 1.075 3.096l.375.416 2.904 2.909a13.334 13.334 0 01.613 18.258l-.605.642-2.908 2.908a4.999 4.999 0 00-1.42 2.958l-.034.563v4.167a13.333 13.333 0 01-12.575 13.312l-.758.02h-4.167a5 5 0 00-3.096 1.076l-.416.375-2.909 2.904a13.333 13.333 0 01-18.258.613l-.642-.605-2.908-2.908a5 5 0 00-2.959-1.42l-.562-.034h-4.167A13.334 13.334 0 0117.19 70.842l-.021-.758v-4.167a4.999 4.999 0 00-1.075-3.096l-.375-.417-2.904-2.908a13.333 13.333 0 01-.613-18.258l.604-.642 2.909-2.908a5 5 0 001.42-2.959l.034-.562V30l.02-.758a13.333 13.333 0 0112.555-12.554l.758-.021h4.167a5 5 0 003.096-1.075l.416-.375 2.909-2.904a13.332 13.332 0 019.454-3.934zm15.404 30.34a4.166 4.166 0 00-5.891 0L46.335 52.438l-5.388-5.384-.392-.345a4.166 4.166 0 00-5.5 6.237l8.334 8.333.392.346a4.167 4.167 0 005.5-.346l16.666-16.666.346-.392a4.167 4.167 0 00-.346-5.5z" fill="#fff"/></g><defs><clipPath id="clip0_38_9229"><path fill="#fff" transform="translate(.5)" d="M0 0h100v100H0z"/></clipPath></defs></svg>