<svg width="24" height="24" fill="none" xmlns="http://www.w3.org/2000/svg"><circle cx="12" cy="12" r="12" fill="#fff"/><path d="M7.201 5.349l12.754 8.708-3.154 4.663L4.047 9.943 7.2 5.349z" fill="url(#paint0_linear_78_59185)"/><path d="M19.956 14.057c-1.097 1.577-4.8.96-8.297-1.508-3.565-2.4-5.485-5.623-4.457-7.2 1.097-1.578 4.8-.96 8.297 1.508 3.566 2.331 5.486 5.623 4.457 7.2z" fill="url(#paint1_linear_78_59185)"/><path d="M16.8 18.651c-1.097 1.577-4.8.96-8.297-1.508-3.497-2.469-5.486-5.623-4.388-7.269 1.097-1.577 4.8-.96 8.297 1.509 3.497 2.468 5.417 5.691 4.388 7.268z" fill="url(#paint2_linear_78_59185)"/><path d="M19.953 14.057L16.8 18.72c-1.097 1.577-4.8.891-8.297-1.509-.686-.48-1.303-.96-1.92-1.508.48-.069 1.097-.343 1.714-1.029 1.097-1.166 1.646-1.44 2.126-1.371.48 0 1.029.48 1.92 1.645.891 1.166 2.126 1.509 2.88.892.069-.069.137-.069.206-.137.617-.48.823-.686 1.988-2.88.275-.549 1.235-1.44 2.537-1.029.343.891.343 1.646 0 2.263z" fill="#0E0F23"/><path fill-rule="evenodd" clip-rule="evenodd" d="M19.475 13.783c-.96 1.371-4.32.686-7.543-1.577-3.29-2.263-5.21-5.143-4.25-6.515.96-1.371 4.32-.685 7.542 1.578 3.223 2.262 5.143 5.142 4.251 6.514zm-3.017-2.057c-.48.685-2.125.343-3.771-.755C11.11 9.874 10.15 8.434 10.63 7.75c.48-.686 2.125-.343 3.771.754 1.577 1.097 2.537 2.537 2.057 3.223z" fill="#fff"/><path d="M6.927 6.926c0-.069-.069-.138-.138-.069-.068.069-.137.069-.137.137.069.206.137.343.137.48 0 .069.07.137.138.069.068 0 .137-.069.068-.137 0-.138 0-.275-.068-.48zm.341 1.097c0-.069-.068-.137-.137-.069-.069.069-.069.069-.069.137.755 1.715 2.332 3.566 4.39 4.938.068.068.136 0 .205 0 .068-.07 0-.138 0-.206-2.126-1.372-3.634-3.155-4.389-4.8zm8.299 6.72c-.069 0-.137 0-.137.068 0 .069 0 .137.068.137.206.069.48.137.686.206.069 0 .137 0 .137-.069 0-.068 0-.137-.069-.137-.205-.068-.48-.137-.685-.205zm1.234.274a.147.147 0 00-.137.137c0 .069.069.137.137.137.549.069 1.166.137 1.646.069a.147.147 0 00.137-.137.147.147 0 00-.137-.137c-.549.068-1.097 0-1.646-.069z" fill="#fff"/><defs><linearGradient id="paint0_linear_78_59185" x1="9.7" y1="4.11" x2="12.229" y2="12.796" gradientUnits="userSpaceOnUse"><stop stop-color="#03B8FF"/><stop offset="1" stop-color="#FA52A0"/></linearGradient><linearGradient id="paint1_linear_78_59185" x1="11.784" y1="3.504" x2="14.313" y2="12.189" gradientUnits="userSpaceOnUse"><stop stop-color="#03B8FF"/><stop offset="1" stop-color="#FA52A0"/></linearGradient><linearGradient id="paint2_linear_78_59185" x1="7.623" y1="4.715" x2="10.152" y2="13.4" gradientUnits="userSpaceOnUse"><stop stop-color="#03B8FF"/><stop offset="1" stop-color="#FA52A0"/></linearGradient></defs></svg>