<svg width="345" height="372" viewBox="0 0 345 372" fill="none" xmlns="http://www.w3.org/2000/svg">
<path d="M206.731 30.5806C193.417 21.9752 186.866 44.0486 188.721 53.4234C191.479 67.3697 210.119 68.6525 217.942 58.2908C219.153 56.6858 217.317 54.2228 215.508 55.5241C209.257 60.0137 198.751 65.1417 193.881 55.3955C192.022 51.6816 192.399 47.0738 193.215 43.0788C194.334 37.6111 198.463 29.6925 205.314 33.435C207.153 34.4411 208.412 31.6653 206.731 30.5806Z" fill="#487BFF"/>
<path d="M186.875 40.1706C189.003 39.4941 191.173 38.8765 193.231 38.0027C195.184 37.175 194.185 34.3942 192.149 34.9165C189.982 35.4684 187.883 36.2951 185.78 37.0469C183.774 37.7666 184.843 40.8151 186.875 40.1706Z" fill="#487BFF"/>
<path d="M184.677 49.883C186.665 48.6518 188.647 47.31 190.463 45.8304C192.074 44.522 190.453 42.0109 188.641 43.1279C186.647 44.3579 184.726 45.7898 182.908 47.2611C181.339 48.5309 182.92 50.9716 184.677 49.883Z" fill="#487BFF"/>
<path d="M183.043 56.9062C186.109 56.1151 188.817 54.5355 191.033 52.274C192.527 50.7474 190.105 48.7645 188.593 50.1311C186.66 51.8693 184.472 53.1203 182 53.9332C180.048 54.5696 181.102 57.408 183.043 56.9062Z" fill="#487BFF"/>
<path d="M185.361 62.5567C188.44 61.7485 191.172 60.1617 193.32 57.809C194.737 56.2556 192.362 54.2388 190.899 55.6776C189.012 57.5341 186.861 58.8315 184.311 59.5588C182.335 60.1203 183.399 63.0702 185.361 62.5567Z" fill="#487BFF"/>
<path d="M66.012 35.1932C61.5929 29.1412 57.3324 35.2369 55.8221 39.9682C49.2754 60.4639 47.1301 83.5695 42.9272 104.689C34.4916 147.097 26.0198 189.495 17.5871 231.904C13.445 252.734 9.30221 273.568 5.16159 294.398C4.30228 298.717 0.437203 307.867 2.81686 312.413C4.80253 316.214 11.845 317.243 15.5502 318.401C35.9666 324.776 57.3801 327.481 78.397 331.113C99.046 334.682 119.662 338.443 140.241 342.404C163.76 346.928 187.219 351.75 210.639 356.764C218.78 358.506 241.036 367.955 244.842 355.078C245.532 352.746 241.831 352.054 241.136 354.357C238.579 362.847 185.714 347.535 178.415 346.05C157.88 341.874 137.307 337.883 116.698 334.084C96.1408 330.295 75.533 326.829 54.9319 323.289C44.803 321.547 34.668 319.726 24.7213 317.108C16.0323 314.822 7.02074 315.34 7.09001 304.045C7.11933 299.065 9.21703 293.331 10.1912 288.421C18.4636 246.758 26.7426 205.093 34.9893 163.421C39.1108 142.587 43.2359 121.75 47.3692 100.918C49.4354 90.5 51.5032 80.0823 53.5687 69.6681C54.6029 64.4574 55.6379 59.2507 56.667 54.0429C56.8288 53.2264 60.7987 33.8788 63.4086 36.9494C64.6856 38.4519 67.2311 36.8602 66.012 35.1932Z" fill="#487BFF"/>
<path d="M65.0501 37.9807C62.4294 39.339 59.8375 40.7615 57.2875 42.2508C55.4672 43.3154 57.2922 45.9091 59.0964 44.9351C61.6921 43.5329 64.2516 42.065 66.7729 40.5349C68.5049 39.4844 66.7676 37.0915 65.0501 37.9807Z" fill="#487BFF"/>
<path d="M64.3786 43.1506C60.8411 45.3701 57.2409 48.1713 54.1796 51.0108C52.7662 52.3225 54.8253 54.4889 56.3545 53.485C59.8383 51.1964 63.3943 48.332 66.3893 45.4326C67.6823 44.1835 65.8027 42.2552 64.3786 43.1506Z" fill="#487BFF"/>
<path d="M61.2326 52.2494C57.1459 54.5067 53.3527 57.7118 50.6467 61.5348C49.4498 63.2246 51.6787 65.3185 53.1147 63.7025C56.1159 60.3316 59.2638 57.423 63.0364 54.921C64.7933 53.7581 63.0213 51.2607 61.2326 52.2494Z" fill="#487BFF"/>
<path d="M61.507 61.4504C57.5135 62.7724 53.6496 65.0613 51.0182 68.4064C49.6933 70.087 51.9781 72.051 53.4936 70.5833C56.1903 67.9699 59.0169 65.7958 62.5493 64.4272C64.436 63.6959 63.443 60.8108 61.507 61.4504Z" fill="#487BFF"/>
<path d="M58.8622 69.767C55.9579 72.1526 52.9071 74.287 49.7171 76.2654C47.8947 77.3959 49.727 79.952 51.5459 78.9809C54.9874 77.1374 58.1021 74.8005 60.9348 72.1236C62.2307 70.8985 60.2515 68.6265 58.8622 69.767Z" fill="#487BFF"/>
<path d="M59.0354 77.4377C55.3656 79.7175 51.684 81.9793 48.1306 84.438C46.3582 85.6642 48.1664 88.3132 49.9947 87.1994C53.6851 84.9549 57.2437 82.5091 60.8185 80.0819C62.5225 78.9244 60.7748 76.3574 59.0354 77.4377Z" fill="#487BFF"/>
<path d="M55.7416 86.1996C51.9458 89.0175 48.1964 91.8953 44.5368 94.892C42.9322 96.2056 44.6558 98.8812 46.3678 97.6041C50.1584 94.7735 53.8585 91.8276 57.5122 88.8218C59.058 87.5515 57.4021 84.9672 55.7416 86.1996Z" fill="#487BFF"/>
<path d="M54.7239 94.2165C50.7282 97.0659 46.7369 99.9474 42.8928 102.998C41.2631 104.291 42.9772 106.938 44.7223 105.71C48.7401 102.888 52.6343 99.8785 56.4997 96.8514C58.0948 95.6024 56.4066 93.0197 54.7239 94.2165Z" fill="#487BFF"/>
<path d="M51.8861 105.795C48.3444 108.287 44.9228 110.971 41.56 113.697C39.9414 115.012 41.6694 117.688 43.3961 116.422C46.8877 113.858 50.3513 111.225 53.6619 108.43C55.1871 107.14 53.5959 104.592 51.8861 105.795Z" fill="#487BFF"/>
<path d="M49.2727 117.75C45.9247 119.78 42.6917 122.066 39.5373 124.38C37.8158 125.643 39.5901 128.294 41.3941 127.132C44.6839 125.017 47.9766 122.816 51.0684 120.416C52.6988 119.151 51.0525 116.674 49.2727 117.75Z" fill="#487BFF"/>
<path d="M46.4599 128.295C44.1658 129.803 41.8342 131.276 39.6255 132.91C37.9539 134.144 39.6554 136.666 41.4293 135.581C43.772 134.145 46.0108 132.537 48.2689 130.979C49.9846 129.793 48.2029 127.149 46.4599 128.295Z" fill="#487BFF"/>
<path d="M45.5984 137.549C43.1655 139.221 40.7606 140.922 38.4248 142.731C36.7739 144.008 38.5085 146.658 40.2558 145.443C42.6806 143.757 45.0289 141.971 47.3544 140.153C48.9311 138.92 47.2826 136.392 45.5984 137.549Z" fill="#487BFF"/>
<path d="M42.5019 147.758C39.8318 149.771 37.1411 151.756 34.5998 153.931C33.0408 155.261 34.6835 157.905 36.4293 156.643C39.1399 154.681 41.7033 152.526 44.285 150.402C45.8441 149.118 44.1632 146.506 42.5019 147.758Z" fill="#487BFF"/>
<path d="M39.8342 157.475C37.397 159.357 34.8378 161.154 32.5751 163.246C31.1844 164.527 33.2134 166.691 34.7198 165.679C37.1557 164.046 39.3891 162.042 41.6703 160.2C43.2963 158.886 41.5219 156.174 39.8342 157.475Z" fill="#487BFF"/>
<path d="M37.9365 168.345C35.298 170.329 32.647 172.306 30.1867 174.504C28.7974 175.747 30.8397 177.992 32.3218 176.932C34.895 175.095 37.293 173.006 39.6998 170.957C41.2067 169.676 39.5897 167.103 37.9365 168.345Z" fill="#487BFF"/>
<path d="M37.9377 176.751C35.5467 178.459 33.0572 180.1 30.8282 182.019C29.2596 183.367 30.8442 185.941 32.6702 184.753C35.137 183.142 37.4065 181.204 39.7143 179.382C41.3005 178.131 39.6204 175.546 37.9377 176.751Z" fill="#487BFF"/>
<path d="M35.1493 187.654C31.6509 189.202 28.3221 191.321 25.7881 194.22C24.4043 195.803 26.7279 197.74 28.2023 196.342C30.6288 194.036 33.1357 192.046 36.1879 190.619C37.9907 189.777 37.0146 186.829 35.1493 187.654Z" fill="#487BFF"/>
<path d="M34.0585 197.372C31.0603 199.227 27.9834 201.001 25.0854 203.009C23.3601 204.205 25.1034 206.709 26.8884 205.684C29.9455 203.926 32.8685 201.908 35.8284 199.998C37.5464 198.886 35.7875 196.305 34.0585 197.372Z" fill="#487BFF"/>
<path d="M31.4981 206.168C28.1372 208.554 24.7181 210.895 21.5281 213.51C19.9337 214.818 21.5757 217.403 23.3517 216.213C26.7818 213.918 30.0079 211.321 33.268 208.794C34.8624 207.556 33.1749 204.978 31.4981 206.168Z" fill="#487BFF"/>
<path d="M29.7425 216.609C25.7886 218.552 21.9748 220.921 18.8977 224.117C17.6431 225.42 19.5796 227.699 21.0181 226.525C24.2509 223.895 27.4646 221.394 31.1567 219.423C32.7302 218.584 31.3645 215.81 29.7425 216.609Z" fill="#487BFF"/>
<path d="M28.3288 225.726C24.805 228.472 21.1899 231.153 17.9009 234.183C16.5257 235.447 18.5555 237.686 20.0449 236.62C23.5667 234.096 26.8124 231.172 30.1105 228.37C31.643 227.066 29.9717 224.444 28.3288 225.726Z" fill="#487BFF"/>
<path d="M26.5513 236.69C22.8007 239.849 18.8963 242.873 15.4003 246.315C14.0788 247.618 16.0719 249.896 17.5517 248.761C21.4451 245.779 24.9785 242.324 28.6239 239.047C29.9478 237.858 27.9252 235.535 26.5513 236.69Z" fill="#487BFF"/>
<path d="M22.2551 249.397C18.3874 251.572 14.6268 254.271 11.7234 257.657C10.549 259.027 12.426 261.385 13.8917 260.118C17.186 257.273 20.4009 254.452 24.0382 252.041C25.7731 250.889 24.0218 248.404 22.2551 249.397Z" fill="#487BFF"/>
<path d="M21.695 260.112C18.4864 262.626 15.1623 265.052 12.1731 267.827C10.7875 269.113 12.8336 271.37 14.3406 270.292C17.5405 267.995 20.4688 265.29 23.4634 262.738C24.982 261.443 23.3224 258.839 21.695 260.112Z" fill="#487BFF"/>
<path d="M20.4582 270.941C17.026 273.403 13.3107 275.729 10.1987 278.594C8.75737 279.923 10.8378 281.981 12.3663 281.059C15.8642 278.949 19.0225 276.089 22.2347 273.572C23.8284 272.322 22.1364 269.735 20.4582 270.941Z" fill="#487BFF"/>
<path d="M18.256 282.423C13.5867 285.196 9.14609 288.788 6.10184 293.33C5.04595 294.907 7.58394 296.439 8.78711 295.134C12.2732 291.341 15.6633 287.855 20.0591 285.099C21.8285 283.989 20.0315 281.369 18.256 282.423Z" fill="#487BFF"/>
<path d="M21.2284 281.396C23.1669 281.772 23.7553 278.761 21.8139 278.383C19.8754 278.007 19.287 281.018 21.2284 281.396Z" fill="#487BFF"/>
<path d="M13.2549 293.608C10.7872 295.898 8.2284 298.202 5.97345 300.71C4.76442 302.054 6.69143 304.406 8.12696 303.153C10.7718 300.846 13.223 298.247 15.6507 295.714C17.0949 294.205 14.7278 292.241 13.2549 293.608Z" fill="#487BFF"/>
<path d="M16.0891 305.582C13.2259 307.882 10.284 310.209 7.67101 312.792C6.33919 314.108 8.34038 316.384 9.83857 315.257C12.768 313.048 15.5008 310.462 18.1867 307.967C19.5076 306.739 17.5049 304.447 16.0891 305.582Z" fill="#487BFF"/>
<path d="M25.4857 309.592C22.827 311.97 20.1192 314.554 17.7828 317.253C16.3659 318.888 18.7079 320.746 20.2323 319.406C22.9102 317.046 25.4708 314.324 27.8271 311.649C29.1904 310.101 26.9381 308.291 25.4857 309.592Z" fill="#487BFF"/>
<path d="M33.6744 311.203C31.0944 313.741 28.5749 316.346 26.1995 319.081C24.8128 320.679 27.1667 322.68 28.6395 321.227C31.2158 318.684 33.6561 316.001 36.0255 313.266C37.3599 311.724 35.0943 309.802 33.6744 311.203Z" fill="#487BFF"/>
<path d="M42.6621 311.981C40.4171 314.636 38.1487 317.281 36.0367 320.044C34.7904 321.673 37.076 323.735 38.4497 322.166C40.7381 319.547 42.8826 316.799 45.0395 314.073C46.2969 312.481 43.9858 310.418 42.6621 311.981Z" fill="#487BFF"/>
<path d="M52.9713 312.82C49.7631 315.346 47.1044 318.478 45.5264 322.271C44.7274 324.19 47.4448 325.578 48.4371 323.716C50.0921 320.61 52.0838 317.786 54.7541 315.464C56.2639 314.152 54.614 311.529 52.9713 312.82Z" fill="#487BFF"/>
<path d="M63.3711 314.632C59.8789 317.638 56.874 320.958 54.4528 324.887C53.48 326.468 56.0969 328.246 57.1778 326.714C59.6376 323.23 62.3531 319.94 65.4817 317.035C66.8114 315.801 64.7589 313.437 63.3711 314.632Z" fill="#487BFF"/>
<path d="M74.8612 315.688C71.7318 318.256 69.0728 321.193 66.9947 324.677C65.9198 326.477 68.751 327.766 69.8617 326.102C71.7753 323.231 74.0096 320.555 76.617 318.291C78.1119 316.992 76.4398 314.389 74.8612 315.688Z" fill="#487BFF"/>
<path d="M83.8935 319.693C80.8591 321.932 78.2023 324.865 76.5877 328.303C75.683 330.225 78.4164 331.499 79.4969 329.747C81.2281 326.942 83.1465 324.478 85.69 322.355C87.2469 321.059 85.588 318.443 83.8935 319.693Z" fill="#487BFF"/>
<path d="M93.9014 320.36C91.7067 323.399 89.5512 326.462 87.4783 329.587C86.4733 331.1 89.0754 332.86 90.1438 331.375C92.3306 328.331 94.4227 325.225 96.4876 322.094C97.4602 320.622 94.9411 318.921 93.9014 320.36Z" fill="#487BFF"/>
<path d="M103.595 323.61C100.35 326.206 97.8901 329.503 96.6946 333.51C96.1838 335.228 98.9947 336.173 99.6873 334.525C101.02 331.35 102.735 328.506 105.364 326.231C106.871 324.926 105.208 322.317 103.595 323.61Z" fill="#487BFF"/>
<path d="M114.111 324.147C110.99 326.971 108.622 330.371 107.126 334.304C106.397 336.222 109.192 337.683 110.025 335.747C111.569 332.152 113.698 328.982 116.497 326.244C117.98 324.793 115.595 322.806 114.111 324.147Z" fill="#487BFF"/>
<path d="M125.262 326.556C121.612 327.972 118.702 330.974 117.199 334.562C116.399 336.473 119.217 337.916 120.11 336.007C121.536 332.955 123.729 330.92 126.65 329.319C128.206 328.465 126.898 325.921 125.262 326.556Z" fill="#487BFF"/>
<path d="M136.327 326.804C132.952 329.406 130.02 332.689 128.264 336.607C127.418 338.498 130.143 339.844 131.143 338.038C132.981 334.706 135.111 331.823 138.111 329.444C139.708 328.18 137.961 325.543 136.327 326.804Z" fill="#487BFF"/>
<path d="M142.903 329.867C140.76 332.943 138.568 335.991 136.576 339.167C135.599 340.728 138.178 342.472 139.271 340.977C141.482 337.948 143.497 334.781 145.559 331.649C146.554 330.135 143.946 328.37 142.903 329.867Z" fill="#487BFF"/>
<path d="M154.371 331.182C151.764 334.341 149.068 337.447 146.598 340.714C145.359 342.352 147.634 344.416 149.02 342.841C151.727 339.769 154.23 336.504 156.802 333.319C158.107 331.701 155.7 329.569 154.371 331.182Z" fill="#487BFF"/>
<path d="M163.222 333.749C161.356 335.915 159.462 338.059 157.709 340.321C156.44 341.957 158.737 344.018 160.141 342.454C162.053 340.329 163.828 338.083 165.626 335.862C166.919 334.265 164.572 332.183 163.222 333.749Z" fill="#487BFF"/>
<path d="M173.486 337.9C172.113 340.158 170.524 342.146 168.739 344.089C167.495 345.442 169.454 347.807 170.913 346.563C173.246 344.575 175.108 342.135 176.385 339.343C177.264 337.42 174.557 336.143 173.486 337.9Z" fill="#487BFF"/>
<path d="M185.022 339.714C182.906 342.155 180.807 344.697 179.029 347.4C177.952 349.038 180.56 350.616 181.804 349.26C183.888 346.988 185.734 344.417 187.499 341.888C188.684 340.192 186.445 338.072 185.022 339.714Z" fill="#487BFF"/>
<path d="M194.665 342.442C192.354 345.01 190.483 348.206 189.932 351.658C189.649 353.424 192.418 354.576 193.071 352.722C194.109 349.782 195.18 347.071 197.069 344.555C198.293 342.925 196.058 340.892 194.665 342.442Z" fill="#487BFF"/>
<path d="M206.43 346.271C204.151 348.289 202.568 350.998 202.33 354.066C202.166 356.199 205.091 356.857 205.648 354.711C206.267 352.335 207.246 350.27 208.97 348.499C210.524 346.903 208.009 344.87 206.43 346.271Z" fill="#487BFF"/>
<path d="M218.658 348.636C216.549 350.676 214.806 353.464 214.614 356.454C214.481 358.535 217.223 359.138 217.827 357.079C218.532 354.669 219.322 352.618 221.062 350.749C222.483 349.224 220.118 347.225 218.658 348.636Z" fill="#487BFF"/>
<path d="M224.899 351.186C224.131 352.467 223.341 353.735 222.621 355.045C221.607 356.888 224.395 358.149 225.489 356.47C226.304 355.214 227.052 353.917 227.819 352.637C228.9 350.834 225.971 349.397 224.899 351.186Z" fill="#487BFF"/>
<path d="M234.339 355.202C234.153 356.017 234.002 356.828 233.863 357.653C233.518 359.708 236.589 360.308 237.04 358.27C237.22 357.454 237.383 356.645 237.516 355.819C237.846 353.762 234.804 353.166 234.339 355.202Z" fill="#487BFF"/>
<path d="M104.096 90.5393C100.976 92.5624 97.9243 94.7787 94.9803 97.0471C93.3547 98.3019 95.0484 100.882 96.7756 99.7132C99.856 97.6236 102.915 95.4167 105.813 93.0846C107.332 91.8599 105.78 89.4482 104.096 90.5393Z" fill="#487BFF"/>
<path d="M111.247 91.6614C105.951 95.0356 100.631 98.3974 95.4702 101.974C93.7465 103.17 95.5163 105.773 97.2867 104.667C102.61 101.338 107.8 97.7786 112.99 94.2469C114.652 93.1126 112.938 90.5835 111.247 91.6614Z" fill="#487BFF"/>
<path d="M114.165 96.3703C106.506 100.164 98.9239 104.501 92.2657 109.896C90.661 111.194 92.3324 113.809 94.0894 112.599C101.082 107.777 108.028 103.113 115.568 99.1633C117.136 98.3428 115.771 95.5728 114.165 96.3703Z" fill="#487BFF"/>
<path d="M114.401 101.586C107.473 105.674 100.769 110.287 94.6419 115.504C93.0967 116.818 94.7618 119.458 96.4444 118.176C102.875 113.283 109.364 108.57 116.164 104.199C117.884 103.095 116.135 100.563 114.401 101.586Z" fill="#487BFF"/>
<path d="M114.887 108.635C107.31 113.078 99.7778 118.002 93.0151 123.616C91.4316 124.929 93.0834 127.544 94.837 126.318C102.092 121.246 109.226 116.08 116.655 111.26C118.38 110.142 116.63 107.614 114.887 108.635Z" fill="#487BFF"/>
<path d="M113.602 116.19C104.669 122.139 96.0454 128.751 88.1641 136.042C86.8075 137.298 88.8762 139.673 90.3171 138.488C98.5378 131.728 106.793 125.119 115.393 118.843C117.053 117.63 115.326 115.044 113.602 116.19Z" fill="#487BFF"/>
<path d="M112.643 125.344C104.671 130.284 96.9467 135.715 89.9153 141.94C88.5165 143.176 90.6119 145.557 92.0834 144.401C99.3699 138.679 106.672 133.072 114.427 127.984C116.15 126.854 114.384 124.264 112.643 125.344Z" fill="#487BFF"/>
<path d="M112.882 133.043C106.12 137.316 99.5712 142.182 93.9279 147.876C92.6258 149.19 94.6713 151.584 96.0957 150.341C102.072 145.122 108.069 140.114 114.665 135.687C116.375 134.539 114.616 131.95 112.882 133.043Z" fill="#487BFF"/>
<path d="M114.288 138.294C108.036 142.401 102.15 147.137 97.1194 152.689C95.6968 154.261 98.0962 156.309 99.5691 154.841C104.702 149.732 110.074 145.016 116.077 140.947C117.785 139.791 116.011 137.164 114.288 138.294Z" fill="#487BFF"/>
<path d="M117.306 143.807C112.093 147.611 106.939 151.658 102.408 156.267C101.13 157.566 103.139 159.922 104.543 158.695C109.326 154.513 114.028 150.305 119.109 146.482C120.76 145.236 118.99 142.579 117.306 143.807Z" fill="#487BFF"/>
<path d="M120.133 148.936C116.452 151.952 112.552 154.589 108.602 157.233C106.825 158.423 108.618 160.952 110.433 159.945C114.701 157.582 118.582 154.542 122.238 151.33C123.596 150.132 121.544 147.78 120.133 148.936Z" fill="#487BFF"/>
<path d="M92.8486 125.466C87.1832 130.144 81.0472 133.976 74.5486 137.374C72.967 138.2 74.3284 140.958 75.963 140.189C82.7058 137.018 88.91 132.867 94.6113 128.083C96.1475 126.791 94.4186 124.173 92.8486 125.466Z" fill="#487BFF"/>
<path d="M94.2271 130.66C86.7187 135.264 79.4823 140.36 72.8932 146.218C71.5089 147.449 73.5999 149.837 75.0446 148.664C81.7945 143.181 88.6435 137.94 95.9905 133.273C97.7091 132.18 95.9526 129.604 94.2271 130.66Z" fill="#487BFF"/>
<path d="M96.5941 137.339C90.9921 141.299 85.2269 145.109 79.8345 149.355C78.1844 150.652 79.8828 153.268 81.6787 152.086C87.4118 148.316 92.8549 144.052 98.3833 139.992C100.039 138.775 98.2843 136.144 96.5941 137.339Z" fill="#487BFF"/>
<path d="M191.839 104.555C188.011 105.222 184.559 106.97 181.999 109.938C180.642 111.511 182.97 113.51 184.403 112.05C186.526 109.888 189.086 108.303 192.079 107.677C194 107.273 193.853 104.205 191.839 104.555Z" fill="#487BFF"/>
<path d="M197.78 106.505C191.022 109.017 183.975 112.684 178.62 117.559C177.191 118.864 179.263 120.997 180.788 120.024C186.759 116.214 192.359 112.501 198.85 109.558C200.715 108.713 199.766 105.766 197.78 106.505Z" fill="#487BFF"/>
<path d="M196.652 111.901C190.28 115.535 183.473 119.233 177.633 123.678C176.222 124.752 177.331 127.542 179.12 126.644C185.818 123.276 192.24 118.761 198.436 114.546C200.153 113.375 198.415 110.896 196.652 111.901Z" fill="#487BFF"/>
<path d="M201.399 116.828C192.936 121.2 184.148 125.873 176.775 131.961C175.144 133.309 176.77 135.829 178.632 134.714C186.911 129.766 194.735 124.168 203.189 119.481C205.011 118.471 203.196 115.899 201.399 116.828Z" fill="#487BFF"/>
<path d="M199.527 123.607C188.772 129.261 174.162 134.685 167.015 145.034C165.8 146.79 168.087 148.97 169.572 147.281C177.984 137.714 190.475 132.569 201.31 126.251C203.109 125.202 201.307 122.671 199.527 123.607Z" fill="#487BFF"/>
<path d="M196.204 132.323C185.439 139.12 174.631 146.143 164.706 154.135C163.041 155.472 164.777 158.173 166.59 156.928C177.113 149.681 187.357 142.068 198.007 134.999C199.74 133.847 197.957 131.218 196.204 132.323Z" fill="#487BFF"/>
<path d="M193.949 142.641C183.819 148.533 173.235 154.107 163.589 160.766C161.732 162.046 163.595 164.585 165.499 163.599C175.901 158.205 185.789 151.483 195.745 145.303C197.514 144.205 195.721 141.61 193.949 142.641Z" fill="#487BFF"/>
<path d="M198.137 147.818C189.229 153.073 180.039 158.273 171.573 164.22C169.755 165.495 171.582 168.062 173.471 167.03C182.547 162.07 191.278 156.14 199.934 150.48C201.679 149.339 199.904 146.774 198.137 147.818Z" fill="#487BFF"/>
<path d="M200.622 152.549C193.67 156.933 186.514 161.158 179.837 165.955C178.048 167.241 179.858 169.867 181.733 168.77C188.826 164.608 195.587 159.783 202.413 155.202C204.13 154.051 202.363 151.453 200.622 152.549Z" fill="#487BFF"/>
<path d="M204.824 157.628C199.931 161.733 194.827 165.207 189.494 168.695C187.915 169.728 189.242 172.624 191.019 171.734C196.864 168.811 202.3 164.612 206.896 159.984C208.145 158.726 206.209 156.463 204.824 157.628Z" fill="#487BFF"/>
<path d="M276.881 123.83C272.675 125.389 268.654 127.397 264.982 129.985C263.295 131.173 265.039 133.759 266.771 132.638C270.315 130.346 273.993 128.356 277.927 126.816C279.817 126.077 278.802 123.118 276.881 123.83Z" fill="#487BFF"/>
<path d="M278.438 128.118C272.995 130.319 267.721 133.013 262.964 136.469C261.258 137.708 263.01 140.311 264.794 139.181C269.536 136.176 274.346 133.395 279.492 131.128C281.346 130.313 280.359 127.343 278.438 128.118Z" fill="#487BFF"/>
<path d="M280.302 133.097C274.566 135.917 268.882 139.118 263.926 143.179C262.319 144.496 263.985 147.122 265.761 145.904C270.963 142.336 276.109 138.831 281.705 135.89C283.271 135.065 281.911 132.304 280.302 133.097Z" fill="#487BFF"/>
<path d="M279.14 140.416C272.07 144.309 264.955 148.131 257.994 152.213C256.166 153.284 257.999 155.871 259.81 154.906C266.93 151.109 273.91 147.05 280.923 143.06C282.716 142.041 280.921 139.437 279.14 140.416Z" fill="#487BFF"/>
<path d="M279.082 145.635C273.677 149.222 268.08 152.479 262.433 155.672C260.569 156.724 262.43 159.317 264.262 158.384C270.047 155.441 275.546 151.989 280.886 148.307C282.596 147.127 280.815 144.483 279.082 145.635Z" fill="#487BFF"/>
<path d="M274.982 153.234C271.466 155.395 267.944 157.552 264.447 159.74C262.701 160.834 264.482 163.451 266.23 162.384C269.753 160.236 273.254 158.048 276.759 155.869C278.5 154.785 276.722 152.166 274.982 153.234Z" fill="#487BFF"/>
<path d="M259.477 160.053C253.088 163.093 246.654 166.063 240.35 169.28C238.723 170.109 240.118 172.924 241.795 172.159C248.107 169.272 254.304 166.124 260.531 163.063C262.342 162.173 261.343 159.165 259.477 160.053Z" fill="#487BFF"/>
<path d="M266.932 161.701C258.458 165.348 250.054 169.334 242.177 174.152C240.371 175.255 242.186 177.803 243.986 176.833C251.895 172.575 259.77 168.35 267.974 164.678C269.806 163.858 268.809 160.894 266.932 161.701Z" fill="#487BFF"/>
<path d="M276.177 162.762C263.265 169.228 250.198 175.37 237.285 181.827C235.439 182.75 236.405 185.821 238.376 184.939C251.666 178.976 264.671 172.306 277.612 165.62C279.22 164.791 277.815 161.943 276.177 162.762Z" fill="#487BFF"/>
<path d="M277.615 167.755C267.564 173.385 257.325 178.436 246.978 183.49C245.112 184.401 246.041 187.438 248.075 186.626C258.928 182.288 269.503 176.595 279.391 170.386C281.145 169.289 279.375 166.768 277.615 167.755Z" fill="#487BFF"/>
<path d="M279.12 173.424C269.626 177.756 259.912 182.752 251.474 188.923C249.717 190.207 251.482 192.738 253.346 191.694C262.452 186.595 271.299 181.14 280.544 176.26C282.136 175.42 280.775 172.671 279.12 173.424Z" fill="#487BFF"/>
<path d="M283.384 177.332C276.709 180.938 269.836 184.666 263.566 188.945C261.731 190.198 263.573 192.678 265.443 191.729C272.205 188.288 278.777 184.059 285.148 179.945C286.885 178.821 285.136 176.383 283.384 177.332Z" fill="#487BFF"/>
<path d="M281.702 184.278C278.089 186.244 274.47 188.307 271.036 190.574C269.193 191.79 271.049 194.382 272.92 193.367C276.536 191.408 280.063 189.195 283.499 186.94C285.258 185.781 283.486 183.304 281.702 184.278Z" fill="#487BFF"/>
<path d="M285.769 188.223C283.522 189.799 281.232 191.327 279.071 193.021C277.416 194.32 279.119 196.934 280.913 195.754C283.207 194.247 285.389 192.565 287.6 190.935C289.29 189.689 287.502 187.009 285.769 188.223Z" fill="#487BFF"/>
<path d="M177.434 189.798C171.942 193.169 166.7 197.132 162.147 201.705C160.856 203.006 162.881 205.369 164.291 204.142C169.089 199.976 173.945 196 179.184 192.388C180.85 191.243 179.147 188.743 177.434 189.798Z" fill="#487BFF"/>
<path d="M185.579 194.489C177.446 199.179 169.386 204.439 162.31 210.632C160.774 211.978 162.4 214.635 164.141 213.348C171.76 207.71 179.275 202.106 187.342 197.102C189.081 196.025 187.322 193.483 185.579 194.489Z" fill="#487BFF"/>
<path d="M187.443 202.527C179.084 207.772 170.594 213.694 163.745 220.857C162.459 222.202 164.448 224.55 165.928 223.341C173.605 217.057 180.932 210.663 189.212 205.149C190.915 204.015 189.166 201.444 187.443 202.527Z" fill="#487BFF"/>
<path d="M188.502 210.488C182.741 213.853 177.223 217.571 171.969 221.684C168.362 224.508 162.765 227.843 161.969 232.682C161.617 234.825 164.772 235.43 165.276 233.325C166.355 228.814 173.936 224.47 177.504 221.783C181.617 218.687 185.897 215.827 190.271 213.113C192.014 212.03 190.248 209.471 188.502 210.488Z" fill="#487BFF"/>
<path d="M192.004 217.694C183.165 223.489 174.651 230.079 167.235 237.632C165.889 239.004 168.011 241.491 169.49 240.196C177.385 233.267 185.296 226.529 193.788 220.338C195.444 219.128 193.729 216.564 192.004 217.694Z" fill="#487BFF"/>
<path d="M186.582 239.867C181.728 244.331 176.435 248.128 170.904 251.699C169.117 252.852 170.921 255.414 172.727 254.401C178.702 251.05 184.075 246.737 188.977 241.973C190.464 240.527 188.066 238.502 186.582 239.867Z" fill="#487BFF"/>
<path d="M192.852 245.233C186.444 250.49 179.819 255.465 173.378 260.676C171.755 261.994 173.443 264.632 175.222 263.41C182.051 258.724 188.432 253.369 194.676 247.936C196.226 246.589 194.495 243.888 192.852 245.233Z" fill="#487BFF"/>
<path d="M193.677 256.005C187.261 260.556 180.993 265.304 175.073 270.491C173.49 271.88 175.233 274.649 176.95 273.275C183.093 268.366 189.209 263.424 195.494 258.698C197.158 257.447 195.395 254.787 193.677 256.005Z" fill="#487BFF"/>
<path d="M165.31 231.265C155.244 235.896 145.365 241.506 136.535 248.214C134.867 249.484 136.588 252.088 138.365 250.93C147.622 244.875 156.892 239.167 166.713 234.058C168.285 233.242 166.938 230.515 165.31 231.265Z" fill="#487BFF"/>
<path d="M163.956 240.39C151.564 247.129 139.356 254.489 127.759 262.527C126.009 263.742 127.803 266.384 129.603 265.261C141.609 257.772 153.584 250.284 165.718 243.003C167.481 241.943 165.71 239.434 163.956 240.39Z" fill="#487BFF"/>
<path d="M160.078 252.87C151.024 257.08 142.168 261.822 133.94 267.49C132.16 268.719 133.981 271.394 135.809 270.264C144.089 265.157 152.419 260.235 161.148 255.926C162.976 255.023 161.988 251.983 160.078 252.87Z" fill="#487BFF"/>
<path d="M196.663 263.586C191.605 267.335 186.346 270.743 181.002 274.069C179.207 275.185 181.019 277.777 182.819 276.763C188.295 273.67 193.464 270.052 198.411 266.18C199.985 264.947 198.293 262.375 196.663 263.586Z" fill="#487BFF"/>
<path d="M317.159 75.1215C315.629 82.0332 314.063 88.9419 312.643 95.8789C312.224 97.931 315.361 98.5289 315.831 96.4987C317.43 89.6004 318.884 82.6659 320.371 75.7458C320.814 73.683 317.615 73.0649 317.159 75.1215Z" fill="#487BFF"/>
<path d="M323.144 76.7289C319.397 92.6383 316.361 108.662 312.265 124.504C311.708 126.666 315.057 127.278 315.654 125.163C320.079 109.53 324.222 93.4746 326.191 77.3212C326.431 75.3516 323.606 74.7674 323.144 76.7289Z" fill="#487BFF"/>
<path d="M272.746 288.145C268.235 310.51 263.737 332.928 259.936 355.426C259.572 357.575 262.816 358.213 263.266 356.073C267.95 333.742 271.958 311.23 275.934 288.765C276.299 286.707 273.16 286.092 272.746 288.145Z" fill="#487BFF"/>
<path d="M271.29 324.074C269.43 334.603 267.456 345.128 265.962 355.716C265.663 357.846 268.857 358.502 269.269 356.359C271.29 345.858 272.837 335.261 274.491 324.696C274.814 322.63 271.657 322 271.29 324.074Z" fill="#487BFF"/>
<path d="M283.256 346.414C265.162 343.19 247.229 339.306 229.474 334.553C227.448 334.011 226.854 337.186 228.854 337.742C246.58 342.677 264.471 346.678 282.645 349.558C284.673 349.878 285.292 346.779 283.256 346.414Z" fill="#487BFF"/>
<path d="M82.9879 26.0735C81.8198 31.2895 80.6231 36.5038 79.5102 41.7344C79.0856 43.7306 82.1558 44.3157 82.6165 42.3382C83.8264 37.1265 84.9526 31.8984 86.1059 26.6796C86.5482 24.679 83.4353 24.0778 82.9879 26.0735Z" fill="#487BFF"/>
<path d="M89.9156 28.2696C87.9365 41.7718 85.3642 55.0454 81.7239 68.2052C81.1517 70.2782 84.382 70.8632 84.9834 68.8388C88.8653 55.7768 91.6965 42.4441 93.0219 28.8734C93.2164 26.8833 90.2152 26.2256 89.9156 28.2696Z" fill="#487BFF"/>
<path d="M147.325 328.126C103.797 318.489 59.8017 310.434 15.5623 304.82C27.422 259.111 32.0943 212.153 42.1369 166.064C52.2702 119.562 64.9552 73.3765 70.2352 25.9705C93.0148 27.9289 115.714 35.4085 138.073 40.0634C151.604 42.8771 165.149 45.6312 178.692 48.385C174.578 66.8447 210.809 79.7094 219.247 56.7407C258.294 64.9988 297.497 73.9751 337.156 78.1711C315.242 170.061 291.849 263.293 279.673 357.033C235.066 349.698 191.427 337.89 147.325 328.126ZM184.606 40.4497C187.441 35.5421 192.238 31.8833 198.194 31.4038C206.779 30.7085 215.156 37.5183 216.241 46.0246C217.729 57.6725 209.189 66.6407 197.51 64.7965C190.494 63.6867 184.44 58.9737 183.201 52.6881C182.707 51.5528 182.489 50.385 182.421 49.1487C182.508 49.1655 182.595 49.1864 182.682 49.2034C182.52 48.4763 182.473 47.7249 182.478 46.9638C182.525 46.5549 182.554 46.1464 182.63 45.7314C182.665 45.5585 182.693 45.3841 182.725 45.2106C182.721 45.1707 182.716 45.1542 182.713 45.1026C182.485 43.3118 183.309 41.6199 184.606 40.4497ZM340.685 76.5089C340.927 75.3445 339.952 74.6939 339.04 74.7668C339.025 74.7677 339.016 74.7582 339.001 74.7553C299.015 71.0308 259.532 61.7932 220.196 53.5219C220.24 53.3272 220.299 53.1511 220.34 52.9559C222.687 41.35 214.937 29.8366 203.297 27.5428C191.781 25.2769 181.04 34.0362 179.16 45.1389C165.664 42.414 152.172 39.6819 138.692 36.8782C116.068 32.1718 93.0081 24.5321 69.9485 22.8045C69.5632 22.7765 69.2479 22.8911 68.9752 23.0608C68.2119 22.9202 67.3976 23.2699 67.2617 24.2751C60.816 71.9859 48.9348 118.425 38.7012 165.396C28.5737 211.883 23.9319 259.257 11.8527 305.333C11.8461 305.359 11.8542 305.38 11.849 305.407C11.3558 306.303 11.5981 307.593 12.9033 307.78C57.7684 314.258 102.389 321.74 146.662 331.541C191.313 341.428 235.486 353.433 280.676 360.744C281.829 360.933 282.549 360.093 282.674 359.195C282.828 358.99 282.948 358.744 282.989 358.42C294.953 263.255 321.219 170.281 340.685 76.5089Z" fill="#75A1FF"/>
<path d="M167.005 238.96C165.565 240.087 164.37 241.414 163.39 242.958C162.926 243.692 164.137 244.283 164.599 243.557C165.448 242.221 166.51 241.056 167.758 240.08C168.439 239.548 167.689 238.425 167.005 238.96Z" fill="#487BFF"/>
<path d="M171.345 239.103C168.902 240.945 166.691 243.035 164.727 245.381C164.169 246.046 165.182 246.939 165.741 246.27C167.631 244.011 169.745 241.996 172.096 240.222C172.789 239.7 172.039 238.581 171.345 239.103Z" fill="#487BFF"/>
<path d="M175.512 240.489C171.096 243.718 166.679 246.946 162.263 250.175C161.564 250.684 162.316 251.803 163.017 251.29C167.434 248.062 171.849 244.837 176.265 241.608C176.965 241.095 176.213 239.976 175.512 240.489Z" fill="#487BFF"/>
<path d="M173.753 247.026C167.506 250.532 161.835 254.83 156.755 259.879C156.139 260.49 157.158 261.376 157.769 260.768C162.768 255.8 168.36 251.593 174.506 248.145C175.263 247.718 174.504 246.605 173.753 247.026Z" fill="#487BFF"/>
<path d="M172.826 252.761C166.956 257.141 161.084 261.521 155.214 265.901C154.52 266.418 155.27 267.541 155.968 267.02C161.838 262.64 167.709 258.26 173.58 253.876C174.274 253.359 173.522 252.24 172.826 252.761Z" fill="#487BFF"/>
<path d="M172.313 259.143C165.538 263.285 159.183 267.992 153.229 273.243C152.579 273.816 153.6 274.699 154.243 274.132C160.106 268.961 166.394 264.338 173.064 260.262C173.807 259.809 173.05 258.692 172.313 259.143Z" fill="#487BFF"/>
<path d="M171.183 265.386C167.347 268.13 163.563 270.946 159.846 273.854C157.372 275.787 153.345 277.931 152.166 281.016C151.858 281.823 153.063 282.429 153.374 281.618C154.113 279.683 156.267 278.413 157.826 277.165C159.36 275.939 160.906 274.724 162.462 273.526C165.577 271.127 168.74 268.791 171.935 266.501C172.641 265.998 171.889 264.879 171.183 265.386Z" fill="#487BFF"/>
<path d="M169.562 272.107C164.116 276.249 158.807 280.555 153.63 285.027C152.981 285.588 153.727 286.71 154.383 286.146C159.56 281.67 164.871 277.365 170.317 273.227C171.005 272.704 170.255 271.582 169.562 272.107Z" fill="#487BFF"/>
<path d="M170.573 276.656C165.661 281.024 160.629 285.246 155.479 289.332C154.802 289.869 155.552 290.992 156.232 290.452C161.473 286.293 166.59 281.989 171.587 277.545C172.235 276.968 171.214 276.085 170.573 276.656Z" fill="#487BFF"/>
<path d="M169.931 282.967C166.064 285.576 162.302 288.326 158.642 291.217C157.966 291.75 158.715 292.872 159.396 292.333C163.055 289.441 166.818 286.691 170.684 284.086C171.405 283.597 170.651 282.482 169.931 282.967Z" fill="#487BFF"/>
<path d="M214.781 198.961C214.755 198.948 214.727 198.938 214.7 198.929C214.821 199.171 214.941 199.418 215.062 199.66C214.947 199.771 214.833 199.877 214.719 199.988C214.553 199.932 214.388 199.877 214.221 199.821C214.246 199.845 214.27 199.869 214.294 199.894C214.219 199.742 214.144 199.591 214.068 199.439C214.065 199.521 214.063 199.602 214.06 199.68C214.116 199.515 214.171 199.35 214.226 199.185C213.733 199.828 212.774 200.258 212.152 200.802C211.473 201.397 210.86 202.043 210.299 202.751C209.76 203.427 210.771 204.32 211.312 203.639C211.928 202.864 212.607 202.144 213.38 201.521C213.937 201.071 215.049 200.622 215.337 199.928C215.889 198.594 213.849 198.182 213.738 199.403C213.713 199.679 213.808 200.026 214.099 200.137C214.126 200.146 214.155 200.156 214.182 200.169C214.987 200.47 215.592 199.267 214.781 198.961Z" fill="#487BFF"/>
<path d="M219.089 199.688C216.12 201.366 213.296 203.263 210.62 205.376C209.941 205.913 210.692 207.032 211.373 206.492C214.049 204.382 216.873 202.485 219.842 200.808C220.598 200.38 219.84 199.264 219.089 199.688Z" fill="#487BFF"/>
<path d="M219.987 202.591C216.15 204.986 212.561 207.708 209.204 210.736C208.56 211.318 209.58 212.204 210.217 211.628C213.488 208.673 217.003 206.039 220.741 203.706C221.477 203.248 220.722 202.132 219.987 202.591Z" fill="#487BFF"/>
<path d="M218.701 208.196C213.933 211.849 209.166 215.498 204.398 219.151C203.711 219.678 204.461 220.796 205.151 220.27C209.918 216.617 214.687 212.965 219.455 209.312C220.141 208.789 219.392 207.666 218.701 208.196Z" fill="#487BFF"/>
<path d="M218.035 214.73C211.612 218.878 205.57 223.529 199.898 228.655C199.255 229.238 200.275 230.12 200.912 229.544C206.496 224.495 212.464 219.934 218.788 215.85C219.517 215.378 218.764 214.259 218.035 214.73Z" fill="#487BFF"/>
<path d="M217.492 221.071C211.197 225.392 205.102 229.978 199.208 234.831C198.543 235.377 199.291 236.5 199.961 235.95C205.856 231.098 211.95 226.511 218.245 222.19C218.96 221.7 218.209 220.581 217.492 221.071Z" fill="#487BFF"/>
<path d="M216.139 229.35C216.639 228.889 217.138 228.427 217.638 227.965C217.438 227.567 217.238 227.168 217.039 226.77C211.708 230.493 206.38 234.217 201.051 237.94C200.339 238.439 201.091 239.558 201.804 239.06C207.133 235.336 212.463 231.613 217.792 227.89C218.405 227.462 217.924 226.411 217.192 226.695C216.074 227.126 215.462 227.671 214.932 228.752C214.549 229.529 215.757 230.131 216.139 229.35Z" fill="#487BFF"/>
<path d="M215.997 231.956C210.951 234.82 206.245 238.168 201.885 241.997C201.241 242.56 201.987 243.686 202.639 243.113C206.999 239.283 211.705 235.935 216.751 233.071C217.506 232.643 216.747 231.527 215.997 231.956Z" fill="#487BFF"/>
<path d="M216.364 236.055C211.453 239.215 206.541 242.371 201.631 245.527C200.9 245.998 201.655 247.114 202.384 246.646C207.295 243.486 212.206 240.33 217.117 237.174C217.848 236.703 217.093 235.587 216.364 236.055Z" fill="#487BFF"/>
<path d="M265.976 159.27C264.662 160.44 263.553 161.78 262.61 163.265C262.143 163.999 263.356 164.59 263.816 163.867C264.695 162.479 265.767 161.249 266.99 160.158C267.636 159.581 266.615 158.698 265.976 159.27Z" fill="#487BFF"/>
<path d="M269.557 160.602C267.878 162.077 266.197 163.556 264.519 165.031C263.868 165.604 264.889 166.486 265.531 165.923C267.21 164.444 268.891 162.97 270.57 161.491C271.22 160.918 270.199 160.035 269.557 160.602Z" fill="#487BFF"/>
<path d="M268.798 166.963C265.166 170.333 261.534 173.706 257.904 177.076C257.267 177.667 258.286 178.553 258.915 177.968C262.547 174.595 266.179 171.225 269.811 167.852C270.448 167.26 269.427 166.378 268.798 166.963Z" fill="#487BFF"/>
<path d="M269.135 172.323C264.643 175.854 260.15 179.384 255.66 182.911C254.98 183.447 255.731 184.566 256.413 184.03C260.904 180.5 265.397 176.969 269.888 173.443C270.568 172.907 269.819 171.788 269.135 172.323Z" fill="#487BFF"/>
<path d="M268.425 177.61C263.003 181.909 257.669 186.319 252.427 190.837C251.776 191.398 252.523 192.52 253.181 191.953C258.423 187.435 263.756 183.029 269.178 178.729C269.855 178.193 269.107 177.07 268.425 177.61Z" fill="#487BFF"/>
<path d="M267.361 182.783C262.154 187.245 256.947 191.703 251.741 196.161C251.089 196.718 251.835 197.844 252.494 197.281C257.701 192.819 262.908 188.36 268.114 183.902C268.766 183.341 268.02 182.219 267.361 182.783Z" fill="#487BFF"/>
<path d="M268.183 187.505C263.156 191.951 258.13 196.394 253.104 200.84C252.455 201.414 253.476 202.296 254.115 201.729C259.143 197.283 264.169 192.84 269.195 188.397C269.845 187.82 268.824 186.938 268.183 187.505Z" fill="#487BFF"/>
<path d="M265.357 196.087C261.679 198.834 258.001 201.577 254.323 204.324C253.63 204.842 254.38 205.964 255.076 205.443C258.754 202.696 262.433 199.949 266.111 197.202C266.805 196.685 266.054 195.566 265.357 196.087Z" fill="#487BFF"/>
<path d="M265.168 200.18C262.076 202.842 258.824 205.289 255.41 207.52C254.683 207.996 255.437 209.112 256.164 208.64C259.578 206.404 262.829 203.961 265.921 201.299C266.572 200.738 265.826 199.616 265.168 200.18Z" fill="#487BFF"/>
<path d="M185.115 144.901C183.49 146 182.161 147.383 181.095 149.024C180.623 149.753 181.834 150.344 182.303 149.622C183.239 148.182 184.448 146.98 185.868 146.021C186.587 145.532 185.833 144.416 185.115 144.901Z" fill="#487BFF"/>
<path d="M188.482 145.132C186.595 146.501 184.894 148.081 183.4 149.865C182.84 150.534 183.854 151.422 184.41 150.757C185.835 149.057 187.439 147.552 189.236 146.248C189.937 145.74 189.186 144.621 188.482 145.132Z" fill="#487BFF"/>
<path d="M185.712 152.518C182.483 154.911 179.458 157.542 176.636 160.405C176.026 161.025 177.043 161.91 177.649 161.294C180.391 158.513 183.329 155.962 186.466 153.637C187.161 153.12 186.41 152.001 185.712 152.518Z" fill="#487BFF"/>
<path d="M187.037 155.681C182.416 158.909 178.044 162.44 173.904 166.265C173.267 166.852 174.285 167.738 174.918 167.154C178.971 163.409 183.265 159.961 187.79 156.801C188.502 156.302 187.75 155.183 187.037 155.681Z" fill="#487BFF"/>
<path d="M186.773 160.065C181.885 163.702 177.137 167.515 172.528 171.503C171.88 172.065 172.626 173.187 173.282 172.623C177.89 168.634 182.638 164.821 187.526 161.184C188.22 160.667 187.47 159.548 186.773 160.065Z" fill="#487BFF"/>
<path d="M186.895 164.232C182.235 167.418 177.865 170.96 173.776 174.846C173.146 175.447 174.164 176.328 174.789 175.735C178.796 171.926 183.085 168.47 187.648 165.352C188.364 164.862 187.611 163.742 186.895 164.232Z" fill="#487BFF"/>
<path d="M185.953 169.907C182.583 171.667 179.441 173.768 176.532 176.215C175.875 176.767 176.621 177.893 177.285 177.335C180.194 174.887 183.337 172.783 186.706 171.027C187.476 170.625 186.715 169.512 185.953 169.907Z" fill="#487BFF"/>
<path d="M133.708 182.07C131.913 183.265 130.269 184.649 128.781 186.208C128.181 186.837 129.196 187.726 129.794 187.1C131.203 185.619 132.76 184.32 134.461 183.189C135.185 182.709 134.432 181.589 133.708 182.07Z" fill="#487BFF"/>
<path d="M135.35 186.975C136.202 187.141 136.46 185.82 135.607 185.654C134.755 185.488 134.497 186.81 135.35 186.975Z" fill="#487BFF"/>
<path d="M139.367 185.71C136.098 187.739 132.832 189.766 129.565 191.795C128.825 192.253 129.581 193.369 130.318 192.911C133.585 190.885 136.852 188.855 140.12 186.829C140.858 186.371 140.102 185.255 139.367 185.71Z" fill="#487BFF"/>
<path d="M137.953 184.033C135.179 185.737 132.403 187.436 129.629 189.136C128.887 189.594 129.644 190.71 130.382 190.255C133.156 188.556 135.932 186.852 138.706 185.153C139.448 184.699 138.693 183.583 137.953 184.033Z" fill="#487BFF"/>
<path d="M137.813 191.064C133.653 193.019 129.762 195.411 126.158 198.267C125.482 198.803 126.23 199.926 126.912 199.382C130.422 196.603 134.203 194.243 138.257 192.335C139.035 191.97 138.599 190.694 137.813 191.064Z" fill="#487BFF"/>
<path d="M136.452 194.064C132.042 197.298 127.565 200.444 123.025 203.497C122.303 203.982 123.057 205.101 123.778 204.616C128.319 201.56 132.795 198.417 137.206 195.18C137.904 194.667 137.154 193.548 136.452 194.064Z" fill="#487BFF"/>
<path d="M137.582 197.754C132.338 201.748 126.82 205.325 121.03 208.482C120.267 208.897 121.028 210.01 121.784 209.598C127.574 206.441 133.091 202.867 138.336 198.87C139.024 198.347 138.274 197.228 137.582 197.754Z" fill="#487BFF"/>
<path d="M137.111 201.817C131.22 205.65 125.48 209.699 119.89 213.966C119.203 214.489 119.953 215.612 120.644 215.082C126.233 210.819 131.973 206.769 137.866 202.932C138.594 202.46 137.839 201.341 137.111 201.817Z" fill="#487BFF"/>
<path d="M137.872 206.513C131.905 210.507 126.088 214.714 120.426 219.134C119.745 219.666 120.494 220.785 121.179 220.25C126.841 215.833 132.658 211.626 138.627 207.629C139.348 207.147 138.595 206.028 137.872 206.513Z" fill="#487BFF"/>
<path d="M136.822 211.272C133.687 213.535 130.55 215.797 127.412 218.063C125.211 219.651 122.384 221.067 121.102 223.561C120.705 224.336 121.914 224.93 122.309 224.159C123.703 221.452 127.648 219.554 130.048 217.821C132.558 216.011 135.066 214.202 137.577 212.388C138.28 211.884 137.528 210.765 136.822 211.272Z" fill="#487BFF"/>
<path d="M135.409 216.628C135.591 217.171 129.121 221.4 128.503 221.846C126.154 223.543 123.777 225.202 121.383 226.831C120.664 227.321 121.417 228.44 122.136 227.951C125.518 225.646 128.858 223.287 132.146 220.851C133.371 219.944 137.335 218.151 136.682 216.18C136.409 215.357 135.136 215.801 135.409 216.628Z" fill="#487BFF"/>
<path d="M98.887 128.899C97.2139 129.993 95.8801 131.445 94.9192 133.192C94.5006 133.955 95.71 134.549 96.1268 133.794C96.9786 132.24 98.1581 130.985 99.6404 130.019C100.368 129.543 99.6137 128.427 98.887 128.899Z" fill="#487BFF"/>
<path d="M102.266 130.339C99.6996 131.927 97.4378 133.898 95.5141 136.224C94.9618 136.89 95.9728 137.782 96.5273 137.112C98.3811 134.87 100.546 132.986 103.021 131.455C103.76 130.997 103.004 129.881 102.266 130.339Z" fill="#487BFF"/>
<path d="M104.704 131.954C101.017 134.258 97.6865 137.014 94.7309 140.198C94.1397 140.837 95.1551 141.723 95.7434 141.091C98.6242 137.985 101.865 135.314 105.457 133.073C106.195 132.611 105.439 131.495 104.704 131.954Z" fill="#487BFF"/>
<path d="M104.296 135.683C100.187 139.116 96.0797 142.545 91.9704 145.978C91.3106 146.53 92.0588 147.652 92.7245 147.094C96.8327 143.664 100.941 140.231 105.05 136.798C105.709 136.25 104.961 135.124 104.296 135.683Z" fill="#487BFF"/>
<path d="M102.485 142.164C98.3388 144.856 94.6549 148.102 91.4622 151.877C90.9019 152.538 91.9144 153.43 92.4753 152.765C95.5949 149.078 99.1844 145.915 103.239 143.284C103.966 142.812 103.213 141.693 102.485 142.164Z" fill="#487BFF"/>
<path d="M100.964 147.378C96.7734 150.428 92.9607 153.899 89.538 157.79C88.962 158.444 89.9766 159.333 90.5497 158.678C93.8976 154.874 97.6194 151.48 101.717 148.498C102.42 147.986 101.668 146.866 100.964 147.378Z" fill="#487BFF"/>
<path d="M100.826 151.961C97.9416 154.128 95.1011 156.35 92.3198 158.646C90.4247 160.212 87.7544 161.834 86.8971 164.243C86.6096 165.054 87.8149 165.66 88.1046 164.845C89.0635 162.151 92.5885 160.144 94.7477 158.395C96.9908 156.577 99.2722 154.813 101.58 153.077C102.272 152.555 101.522 151.436 100.826 151.961Z" fill="#487BFF"/>
<path d="M101.37 154.359C97.0126 157.537 93.0233 161.13 89.4079 165.132C88.8247 165.777 89.8394 166.665 90.4204 166.024C93.9588 162.105 97.8597 158.589 102.123 155.475C102.824 154.963 102.073 153.844 101.37 154.359Z" fill="#487BFF"/>
<path d="M100.131 160.078C96.2711 162.942 92.4107 165.81 88.5503 168.678C87.8551 169.191 88.6062 170.314 89.3041 169.793C93.1645 166.925 97.0242 164.061 100.885 161.193C101.581 160.676 100.83 159.557 100.131 160.078Z" fill="#487BFF"/>
<path d="M100.79 89.0149C89.8909 94.9417 87.1835 110.651 91.2078 121.522C94.9411 131.598 106.285 134.409 114.658 127.659C123.266 120.716 126.366 104.282 120.917 94.619C115.659 85.2939 102.014 83.6691 95.6149 92.6314C94.9187 93.6058 96.0445 95.2743 97.1325 94.3565C105.744 87.0942 118.394 89.2757 120.415 101.582C121.598 108.791 119.485 118.293 114.326 123.648C110.93 127.172 105.923 129.266 101.065 127.74C95.6279 126.031 93.5294 120.25 92.7584 115.044C91.4359 106.12 94.4818 96.0646 101.743 90.431C102.622 89.75 101.749 88.494 100.79 89.0149Z" fill="#487BFF"/>
<path d="M96.6875 126.276C95.0729 128.088 93.5167 129.923 91.9878 131.806C91.5424 132.352 91.5961 133.097 92.1023 133.586C98.4929 139.76 86.9157 156.062 85.4209 162.926C84.4774 167.255 88.1184 171.671 89.9954 175.311C90.4902 176.266 91.7346 176.028 92.3695 175.463C95.7672 172.439 99.3278 169.716 103.105 167.188C104.701 166.118 103.038 163.65 101.439 164.715C97.4428 167.376 93.7 170.291 90.1133 173.477C90.9031 173.529 91.6943 173.582 92.4863 173.63C91.5273 171.771 90.5563 169.918 89.6108 168.054C88.0441 164.963 88.4753 163.805 89.3846 160.785C90.8418 155.942 93.0425 151.216 94.8 146.478C96.7107 141.328 98.5385 135.748 93.7684 131.691C93.807 132.285 93.846 132.878 93.883 133.472C95.3784 131.441 96.8131 129.391 98.2134 127.3C98.8088 126.411 97.3646 125.517 96.6875 126.276Z" fill="#487BFF"/>
<path d="M101.451 140.634C101.052 149.094 101.42 157.59 101.062 166.058C100.982 167.93 103.912 167.706 103.98 165.836C104.285 157.451 104.486 148.812 103.121 140.505C102.944 139.424 101.502 139.565 101.451 140.634Z" fill="#487BFF"/>
<path d="M101.279 139.196C101.229 139.21 101.177 139.223 101.128 139.233C100.874 139.297 100.697 139.556 100.643 139.795C100.529 140.297 100.689 140.683 101.11 140.98C101.494 141.25 101.928 141.315 102.338 141.058C104.066 139.98 105.993 138.041 107.1 136.346C108.185 134.681 107.47 132.784 106.748 131.104C106.406 130.307 105.121 130.045 104.734 130.978C104.428 131.708 104.336 132.315 104.454 133.108C104.571 133.904 105.034 134.748 104.64 135.524C104.257 136.282 103.299 136.951 102.725 137.578C102.095 138.268 101.42 138.981 100.885 139.752C101.258 139.727 101.63 139.702 102.004 139.681C101.978 139.949 101.951 140.218 101.924 140.486C102.7 140.066 102.022 139.008 101.279 139.196Z" fill="#487BFF"/>
<path d="M93.6263 124.262C79.0992 119.344 68.1082 140.136 66.7322 151.493C66.4412 153.894 70.129 154.646 70.4532 152.216C72.2441 138.818 79.1351 127.381 93.3686 125.587C93.9817 125.511 94.3335 124.501 93.6263 124.262Z" fill="#487BFF"/>
<path d="M69.8584 155.102C75.4517 156.29 81.3826 158.139 87.1199 158.219C88.1852 158.234 88.5197 156.521 87.5247 156.136C82.1722 154.061 75.9838 153.553 70.3524 152.56C68.7117 152.269 68.2253 154.757 69.8584 155.102Z" fill="#487BFF"/>
<path d="M111.799 128.789C123.651 136.563 122.58 152.75 120.225 164.785C119.9 166.452 122.453 167.421 123.133 165.768C127.582 154.957 126.448 130.824 112.295 127.326C111.372 127.1 111.12 128.344 111.799 128.789Z" fill="#487BFF"/>
<path d="M102.327 161.161C107.53 164.037 114.684 164.521 120.454 165.658C120.668 164.555 120.883 163.452 121.097 162.348C115.501 161.245 109.208 159.193 103.503 159.366C102.228 159.403 101.854 161.324 103.023 161.836C108.243 164.128 114.853 164.585 120.454 165.658C122.585 166.068 123.231 162.759 121.097 162.348C115.316 161.24 108.502 159.013 102.606 159.727C101.855 159.819 101.663 160.798 102.327 161.161Z" fill="#487BFF"/>
<path d="M182.224 186.224C165.751 183.686 156.156 200.706 155.958 215.211C155.867 221.933 157.487 231.614 162.36 236.633C167.302 241.724 175.415 241.996 181.669 239.492C196.323 233.619 201.315 216.654 197.333 202.356C195.516 195.826 191.764 188.755 185.069 186.234C178.418 183.734 170.743 186.915 166.184 191.906C165.132 193.057 166.656 194.565 167.901 193.857C173.954 190.427 180.979 186.592 187.259 192.056C191.444 195.694 193.536 201.716 194.432 207.04C196.353 218.444 191.66 231.196 180.367 235.773C173.69 238.48 165.851 237.167 162.748 229.988C160.602 225.018 159.565 218.51 160.053 213.135C161.226 200.222 168.076 188.104 182.142 187.654C182.95 187.627 183.03 186.35 182.224 186.224Z" fill="#487BFF"/>
<path d="M162.207 230.11C155.122 224.778 141.702 234.099 136.249 238.654C129.192 244.546 121.062 256.008 123.805 265.748C124.226 267.248 126.177 266.771 126.552 265.547C127.869 261.262 127.995 256.938 129.957 252.763C131.716 249.018 134.301 245.664 137.259 242.793C142.718 237.493 153.532 229.416 161.54 231.468C162.278 231.659 162.827 230.574 162.207 230.11Z" fill="#487BFF"/>
<path d="M185.682 235.557C201.447 244.565 201.983 265.421 198.256 281.127C197.854 282.815 200.502 283.326 200.901 281.642C204.94 264.625 203.749 242.781 186.881 233.141C185.373 232.281 184.183 234.699 185.682 235.557Z" fill="#487BFF"/>
<path d="M164.748 236.793C161.791 236.246 160.015 240.828 160.214 243.129C160.473 246.098 163.297 249.433 166.482 248.552C167.319 248.32 167.488 247.137 166.86 246.605C165.429 245.389 163.623 244.749 163.208 242.699C163.013 241.739 163.219 240.763 163.685 239.908C164.119 239.109 164.917 238.62 165.238 237.783C165.396 237.373 165.225 236.882 164.748 236.793Z" fill="#487BFF"/>
<path d="M174.205 240.218C175.299 240.915 176.074 242.867 175.646 244.081C175.08 245.69 173.331 245.952 171.91 246.383C171.128 246.626 170.807 247.861 171.525 248.367C174.147 250.214 177.747 248.166 178.583 245.32C178.984 243.949 178.802 242.475 178.101 241.233C177.742 240.597 177.259 239.96 176.669 239.525C175.96 239 175.447 239.08 174.646 238.913C173.831 238.742 173.577 239.819 174.205 240.218Z" fill="#487BFF"/>
<path d="M162.724 246.476C157.303 255.621 152.965 266.632 149.795 276.781C147.617 283.754 152.629 290.125 156.978 295.421C157.823 296.452 159.84 295.719 159.227 294.295C157.793 290.949 155.548 288.137 153.954 284.885C151.148 279.158 153.915 274.839 155.994 269.382C158.812 261.986 162.058 254.599 164.058 246.931C164.272 246.113 163.112 245.824 162.724 246.476Z" fill="#487BFF"/>
<path d="M173.334 247.396C171.891 256.005 171.781 264.928 171.241 273.634C171.034 276.962 171.477 281.26 170.399 284.45C168.651 289.628 162.357 291.256 158.194 293.761C156.572 294.735 157.92 297.501 159.693 296.748C167.359 293.495 172.822 289.88 173.474 281.336C174.323 270.216 175.371 258.612 174.792 247.48C174.75 246.655 173.473 246.571 173.334 247.396Z" fill="#487BFF"/>
<path d="M125.186 267.051C128.138 269.512 132.179 269.832 135.844 270.732C140.623 271.907 145.378 273.16 150.121 274.469C152.512 275.129 153.217 271.366 150.855 270.696C146.125 269.355 141.363 268.105 136.568 267.008C132.886 266.168 129.11 264.801 125.411 265.891C124.921 266.034 124.804 266.73 125.186 267.051Z" fill="#487BFF"/>
<path d="M172.613 277.608C181.048 278.786 189.442 281.219 197.817 282.855C198.031 281.751 198.246 280.648 198.46 279.545C190.663 278.022 181.651 274.879 173.712 275.211C172.476 275.264 172.119 277.093 173.247 277.606C180.487 280.889 190.024 281.352 197.817 282.855C199.946 283.269 200.594 279.96 198.46 279.545C190.083 277.928 181.387 277.039 173.125 274.972C171.447 274.552 170.896 277.368 172.613 277.608Z" fill="#487BFF"/>
<path d="M185.73 235.998C192.291 241.606 196.522 248.227 197.919 256.837C199.246 265.031 196.752 272.459 196.678 280.49C196.665 281.961 198.809 282.225 199.409 281.021C206.567 266.638 201.806 242.159 186.632 234.653C185.809 234.247 185.021 235.387 185.73 235.998Z" fill="#487BFF"/>
<path d="M130.031 265.82C129.942 265.807 129.851 265.793 129.763 265.784C129.951 265.996 130.141 266.205 130.33 266.418C130.329 266.398 130.328 266.378 130.327 266.359C130.315 266.04 130.088 265.691 129.792 265.563C129.199 265.311 128.577 265.022 128.061 264.629C127.512 264.213 127.129 263.623 126.471 263.362C125.746 263.073 124.808 263.535 124.908 264.418C125.133 266.4 127.7 267.407 129.435 267.4C129.739 267.401 130.121 267.155 130.229 266.863C130.239 266.838 130.249 266.812 130.258 266.787C130.067 266.914 129.875 267.044 129.682 267.175C129.773 267.177 129.862 267.183 129.952 267.184C130.727 267.222 130.794 265.93 130.031 265.82Z" fill="#487BFF"/>
<path d="M198.315 276.889C197.825 277.524 197.22 278.032 196.499 278.392C195.781 278.752 194.963 278.867 194.25 279.22C193.395 279.648 193.416 280.801 194.386 281.075C196.567 281.695 198.786 279.555 199.608 277.753C199.961 276.978 198.878 276.158 198.315 276.889Z" fill="#487BFF"/>
<path d="M137.93 134.866C125.845 140.981 118.071 159.573 123.174 172.292C128.328 185.137 143.086 187.892 153.327 179.067C159.142 174.059 162.014 166.595 163.579 159.264C164.872 153.209 165.904 146.173 162.053 140.814C155.016 131.022 135.788 129.441 130.634 141.537C129.992 143.045 132.025 143.995 132.879 142.649C139.681 131.933 159.87 136.732 161 149.112C161.887 158.81 157.158 172.266 148.933 177.74C138.297 184.816 126.592 177.613 125.284 165.547C124.166 155.256 130.646 142.278 138.743 136.072C139.503 135.489 138.749 134.455 137.93 134.866Z" fill="#487BFF"/>
<path d="M126.251 172.746C109.176 170.349 93.8377 192.117 93.15 207.238C93.0578 209.252 96.1979 209.288 96.5978 207.436C100.148 191.015 109.1 177.966 126.361 174.268C127.137 174.102 126.989 172.851 126.251 172.746Z" fill="#487BFF"/>
<path d="M130.429 180.317C127.536 181.095 125.818 185.087 126.408 187.835C127.02 190.693 129.78 192.746 132.639 191.664C133.76 191.241 133.817 189.279 132.456 189.151C130.75 188.996 129.481 187.643 129.583 185.916C129.688 184.096 131.065 182.918 131.528 181.266C131.711 180.606 130.988 180.164 130.429 180.317Z" fill="#487BFF"/>
<path d="M141.086 182.652C141.052 182.747 141.019 182.846 140.985 182.941C140.652 182.919 140.318 182.897 139.983 182.875C141.366 184.168 140.744 187.478 139.906 188.87C138.843 190.64 136.867 191.515 134.946 191.954C133.798 192.219 133.988 194.093 135.111 194.237C139.234 194.768 142.939 191.792 143.457 187.665C143.683 185.869 143.219 183.786 142.082 182.346C141.441 181.529 140.485 181.007 139.71 181.955C139.488 182.228 139.468 182.588 139.651 182.885C139.696 182.96 139.742 183.032 139.788 183.103C140.149 183.693 141.191 183.36 141.086 182.652Z" fill="#487BFF"/>
<path d="M128.954 189.869C125.972 195.088 123.377 200.5 120.756 205.906C118.915 209.706 116.761 213.343 117.237 217.702C117.677 221.75 119.12 225.981 120.696 229.691C121.457 231.479 122.291 234.26 124.703 234.447C127.439 234.663 130.623 230.886 132.44 229.43C135.219 227.203 138.047 225.467 139.288 222.055C140.559 218.559 140.35 213.95 140.532 210.266C140.832 204.205 140.861 198.053 140.077 192.027C139.829 190.127 137.056 190.334 137.104 192.259C137.286 199.37 137.602 206.379 137.049 213.492C136.721 217.719 136.234 221.313 133.178 224.544C132.365 225.402 126.132 231.005 125.279 230.777C123.648 230.335 122.33 224.37 121.898 222.918C120.58 218.497 120.412 214.951 122.027 210.561C124.516 203.804 128.047 197.434 130.558 190.666C130.954 189.598 129.535 188.853 128.954 189.869Z" fill="#487BFF"/>
<path d="M151.905 179.112C153.445 182.22 155.693 184.799 157.032 188.079C158.279 191.135 158.176 194.694 159.662 197.546C160.261 198.694 161.774 198.015 162.073 197.058C163.06 193.897 161.029 189.239 159.644 186.426C158.173 183.432 155.951 179.839 152.943 178.196C152.411 177.905 151.608 178.518 151.905 179.112Z" fill="#487BFF"/>
<path d="M94.8927 207.74C95.4587 209.116 96.4563 209.919 97.8872 210.151C98.5765 210.398 99.2672 210.638 99.9605 210.87C101.956 211.551 103.965 212.188 105.982 212.802C109.757 213.947 113.686 215.812 117.652 215.731C118.743 215.709 119.422 214.016 118.445 213.357C114.828 210.912 109.97 210.268 105.777 209.152C102.675 208.33 97.2269 206.002 94.1281 207.204C93.796 207.335 93.5904 207.647 93.6085 208.002C93.6128 208.105 93.6168 208.211 93.6226 208.314C93.6333 208.542 93.7973 208.82 94.0226 208.903C94.1048 208.935 94.1873 208.966 94.2702 208.994C95.1065 209.301 95.6873 208.199 94.8927 207.74Z" fill="#487BFF"/>
<path d="M138.548 219.115C143.783 221.11 149.79 221.879 155.32 222.59C157.565 222.882 158.27 219.475 155.997 219.107C150.479 218.214 144.437 217.204 138.836 217.632C138.11 217.686 137.798 218.829 138.548 219.115Z" fill="#487BFF"/>
<path d="M187.272 100.883C176.825 108.238 171.586 122.611 175.282 134.962C179.241 148.2 194.124 147.408 202.431 138.531C209.83 130.627 214.181 113.792 205.137 105.536C201.05 101.803 194.947 98.6121 189.276 99.9441C182.93 101.434 179.493 107.28 177.21 112.849C176.708 114.072 178.438 115.499 179.282 114.241C181.51 110.927 184.067 106.457 187.632 104.497C192.948 101.576 200.804 105.002 204.255 109.752C209.616 117.132 205.263 130.134 199.632 136.073C195.886 140.026 189.197 143.555 183.73 140.808C178.998 138.427 177.78 131.892 177.675 127.116C177.46 117.364 181.613 108.915 188.3 102.052C188.925 101.412 187.997 100.375 187.272 100.883Z" fill="#487BFF"/>
<path d="M162.1 142.769C164.786 141.271 167.513 139.918 170.599 139.494C173.01 139.162 175.737 140.133 177.968 139.281C178.797 138.962 179.001 137.911 178.352 137.308C176.226 135.332 172.14 136.175 169.578 136.799C166.377 137.575 163.329 139.187 161.162 141.704C160.61 142.347 161.41 143.155 162.1 142.769Z" fill="#487BFF"/>
<path d="M196.601 142.305C198.847 144.234 201.541 145.121 203.494 147.537C205.479 149.997 206.185 152.569 206.955 155.555C207.43 157.398 210.105 156.637 210.072 154.903C210.01 151.515 208.053 147.958 205.768 145.537C203.732 143.383 200.135 140.655 197 141.109C196.438 141.191 196.132 141.901 196.601 142.305Z" fill="#487BFF"/>
<path d="M181.856 142.21C175.695 144.08 177.445 154.365 183.901 154.029C185.008 153.971 185.103 152.563 184.284 152.056C182.868 151.175 181.409 149.997 181.088 148.27C180.749 146.45 181.696 144.954 182.807 143.622C183.381 142.933 182.698 141.956 181.856 142.21Z" fill="#487BFF"/>
<path d="M189.445 144.595C189.375 145.554 189.707 146.443 189.641 147.403C189.573 148.382 189.224 149.377 188.658 150.17C187.393 151.948 185.642 151.732 183.751 151.385C182.848 151.217 182.241 152.06 182.455 152.883C183.444 156.702 188.728 155.138 190.572 152.933C192.366 150.785 193.337 145.804 190.443 144.101C190.083 143.89 189.476 144.155 189.445 144.595Z" fill="#487BFF"/>
<path d="M180.318 151.336C178.238 154.597 176.427 158.008 174.616 161.426C173.43 163.665 170.954 166.751 170.767 169.376C170.487 173.354 174.806 178.687 176.506 181.979C176.87 182.683 177.917 182.754 178.512 182.369C181.747 180.279 187.857 177.895 188.975 173.931C190.572 168.275 189.172 160.149 188.922 154.329C188.844 152.497 186.035 152.721 186.086 154.548C186.216 159.078 186.667 163.765 186.321 168.289C185.827 174.789 181.725 176.836 176.896 179.973C177.566 180.103 178.235 180.233 178.902 180.363C177.917 178.463 176.802 176.586 175.926 174.63C174.266 170.931 173.677 169.336 175.47 165.726C177.7 161.241 179.978 156.744 181.809 152.075C182.205 151.07 180.893 150.436 180.318 151.336Z" fill="#487BFF"/>
<path d="M159.66 169.039C161.688 169.734 163.729 170.389 165.757 171.084C167.621 171.72 169.508 172.688 171.504 172.463C172.455 172.358 172.76 171.257 172.125 170.602C170.684 169.127 168.455 168.744 166.492 168.335C164.326 167.883 162.152 167.64 159.942 167.586C159.208 167.564 158.95 168.796 159.66 169.039Z" fill="#487BFF"/>
<path d="M187.354 175.547C189.615 176.471 192.003 176.959 194.368 177.536C196.537 178.063 198.708 179.099 200.914 178.547C201.798 178.324 201.823 177.184 201.285 176.638C199.712 175.039 197.091 174.892 194.955 174.516C192.534 174.089 190.081 173.792 187.631 174.12C186.951 174.211 186.62 175.245 187.354 175.547Z" fill="#487BFF"/>
<path d="M225.4 149.866C210.006 145.846 201.819 165.452 201.373 177.608C200.924 189.813 211.192 204.547 224.83 198.371C238.088 192.368 246.131 172.823 239.92 159.507C235.077 149.121 219.648 143.68 212.855 155.18C212.201 156.284 213.784 157.107 214.599 156.347C224.551 147.075 237.126 155.838 238.226 167.68C239.129 177.405 233.019 189.62 224.278 194.294C210.984 201.4 203.93 184.485 205.431 174.036C207.013 163.039 213.011 151.834 225.31 151.447C226.252 151.419 226.238 150.084 225.4 149.866Z" fill="#487BFF"/>
<path d="M200.819 175.159C200.127 175.618 199.16 175.915 198.331 175.906C197.895 175.904 197.552 176.333 197.527 176.735C197.501 177.206 197.807 177.508 198.23 177.649C199.621 178.103 200.903 177.907 202.126 177.097C203.383 176.267 202.074 174.329 200.819 175.159Z" fill="#487BFF"/>
<path d="M210.233 196.739C208.006 197.975 204.998 201.325 205.777 204.141C206.59 207.081 210.447 209.183 213.069 210.083C214.203 210.472 215.261 209.185 214.289 208.261C212.754 206.799 210.613 205.503 209.298 203.853C207.804 201.98 210.818 199.334 211.28 197.431C211.43 196.812 210.712 196.473 210.233 196.739Z" fill="#487BFF"/>
<path d="M219.677 199.723C219.331 201.364 219.917 202.876 218.944 204.438C218.132 205.737 216.651 206.684 215.229 207.178C214.095 207.571 214.127 209.452 215.404 209.611C218.16 209.955 220.656 208.725 221.884 206.178C222.862 204.148 223.027 200.406 220.69 199.221C220.272 199.011 219.771 199.277 219.677 199.723Z" fill="#487BFF"/>
<path d="M208.067 207.746C205.907 212.144 204.423 216.881 202.401 221.356C200.765 224.977 197.959 228.718 196.891 232.547C196.258 234.811 196.649 236.051 197.425 238.23C199.13 243.02 201.493 248.754 203.764 253.287C204.369 254.498 206.264 254.296 206.196 252.779C206.039 249.29 204.823 246.158 203.462 242.951C201.445 238.21 200.065 235.246 201.858 229.999C204.375 222.635 208.484 216.103 209.422 208.205C209.515 207.426 208.444 206.979 208.067 207.746Z" fill="#487BFF"/>
<path d="M217.544 209.183C216.176 215.9 216.434 223.101 216.303 229.929C216.214 234.589 216.409 239.159 213.331 243.019C210.717 246.301 206.91 248.343 204.404 251.783C203.45 253.091 204.836 254.802 206.295 253.933C211.521 250.81 218.951 245.053 219.659 238.564C220.645 229.515 220.536 218.201 218.899 209.263C218.767 208.538 217.708 208.379 217.544 209.183Z" fill="#487BFF"/>
<path d="M199.914 227.698C199.316 225.886 196.311 225.192 194.664 224.868C192.622 224.467 192.014 227.776 194.052 228.02C195.025 228.134 196.006 228.271 196.963 228.472C197.783 228.643 198.657 228.942 199.469 228.623C199.839 228.476 200.043 228.082 199.914 227.698Z" fill="#487BFF"/>
<path d="M219.441 233.858C222.08 235.414 225.917 235.789 228.829 236.843C231.43 237.782 234.328 239.193 236.976 237.938C238.07 237.42 238.192 236.049 237.133 235.409C235.671 234.527 234.146 234.442 232.518 233.981C230.659 233.452 228.872 232.713 226.975 232.317C224.512 231.799 221.613 231.318 219.357 232.615C218.853 232.903 219.01 233.602 219.441 233.858Z" fill="#487BFF"/>
<path d="M206.245 189.579C201.47 187.846 196.03 189.219 191.672 191.467C189.944 192.358 191.452 195.413 193.215 194.537C197.35 192.48 201.451 192 205.925 191.225C206.667 191.095 207.138 189.905 206.245 189.579Z" fill="#487BFF"/>
<path d="M228.414 195.321C238.878 200.993 241.795 212.071 240.094 223.244C239.763 225.407 239.27 227.546 238.724 229.663C237.659 233.805 237.532 234.601 233.234 234.246C228.583 233.865 224.348 231.538 219.598 231.592C218.113 231.612 217.875 233.695 219.067 234.325C222.546 236.158 226.472 236.714 230.283 237.627C232.389 238.13 236.797 240.202 238.92 239.114C240.564 238.269 240.92 236.256 241.404 234.638C242.657 230.455 243.76 226.187 244.223 221.835C245.422 210.541 241.4 196.552 228.992 193.609C227.965 193.366 227.533 194.845 228.414 195.321Z" fill="#487BFF"/>
<path d="M272.358 121.375C262.326 123.258 256.774 139.223 258.007 148.23C258.595 152.526 260.847 157.547 264.839 159.721C268.806 161.884 273.229 159.981 276.849 157.852C285.917 152.522 290.126 137.246 285.689 127.733C281.375 118.481 270.637 118.031 265.396 126.465C264.682 127.611 266.402 128.567 267.261 127.714C275.853 119.186 284.425 126.909 283.765 137.248C283.308 144.439 280.591 152.069 273.724 155.404C265.688 159.308 261.202 151.794 261.243 144.526C261.277 138.16 265.616 124.886 272.655 122.784C273.428 122.552 273.178 121.221 272.358 121.375Z" fill="#487BFF"/>
<path d="M263.206 155.871C260.683 155.866 259.311 159.682 259.327 161.736C259.35 164.539 261.154 166.988 263.721 168.045C266.177 169.058 269.007 168.682 270.975 166.853C272.921 165.047 274.087 161.862 272.318 159.596C271.774 158.896 270.423 158.974 270.297 160.008C270.124 161.44 270.002 163.049 269.01 164.185C267.918 165.438 266.199 165.659 264.729 164.955C263.269 164.253 262.418 162.861 262.404 161.248C262.395 160.352 262.615 159.402 263.014 158.6C263.344 157.934 263.812 157.466 263.965 156.722C264.062 156.237 263.661 155.874 263.206 155.871Z" fill="#487BFF"/>
<path d="M261.503 164.348C258.493 173.993 253.512 182.918 250.573 192.537C248.545 199.18 252.993 207.844 254.756 214.192C255.054 215.266 256.516 215.429 257.202 214.668C260.852 210.606 264.523 206.561 268.137 202.465C269.346 201.094 267.239 199.25 266.009 200.594C262.32 204.624 258.686 208.704 255.034 212.762C255.849 212.92 256.663 213.078 257.48 213.237C256.339 209.155 255.195 205.072 254.048 200.988C252.505 195.492 253.62 192.063 255.745 186.927C258.751 179.662 262.159 172.548 263.115 164.661C263.244 163.596 261.815 163.35 261.503 164.348Z" fill="#487BFF"/>
<path d="M268.563 167.389C267.279 178.69 265.898 190.336 265.489 201.693C266.137 201.256 266.788 200.816 267.435 200.379C267.314 200.313 267.193 200.246 267.071 200.18C266.507 199.871 265.608 200.251 265.547 200.934C265.535 201.065 265.522 201.199 265.511 201.33C265.357 203.023 267.819 203.588 268.16 201.845C270.302 190.879 270.629 178.611 270.022 167.474C269.977 166.664 268.659 166.548 268.563 167.389Z" fill="#487BFF"/>
<path d="M260.866 158.972C258.375 156.456 251.86 158.965 249.128 160.125C245.618 161.616 240.129 164.335 239.115 168.276C238.876 169.21 239.907 170.012 240.767 169.703C243.716 168.643 245.905 165.54 248.658 163.895C251.266 162.335 257.096 159.244 260.229 160.267C260.998 160.518 261.328 159.437 260.866 158.972Z" fill="#487BFF"/>
<path d="M272.212 162.373C279.381 164.927 283.771 170.356 285.284 177.785C286.661 184.55 284.903 191.398 286.022 198.063C286.267 199.525 288.165 199.636 288.585 198.21C292.17 186.051 289.423 161.1 272.512 160.829C271.731 160.814 271.46 162.105 272.212 162.373Z" fill="#487BFF"/>
<path d="M234.816 187.539C237.536 188.748 240.444 189.348 243.31 190.12C246.11 190.871 249.1 192.199 252.012 191.999C252.893 191.94 253.429 190.657 252.65 190.083C250.331 188.382 247.297 187.988 244.522 187.366C241.423 186.67 238.283 185.978 235.097 186.093C234.351 186.12 234.133 187.234 234.816 187.539Z" fill="#487BFF"/>
<path d="M268.064 194.98C270.856 196.394 273.859 197.345 276.858 198.225C280.097 199.175 283.809 200.678 287.199 200.324C288.63 200.177 288.762 198.471 287.696 197.764C284.868 195.886 280.815 195.497 277.519 194.828C274.481 194.215 271.426 193.695 268.324 193.643C267.6 193.631 267.483 194.683 268.064 194.98Z" fill="#487BFF"/>
</svg>
