<svg width="24" height="24" fill="none" xmlns="http://www.w3.org/2000/svg"><circle cx="12" cy="12" fill="#26A17B" r="12"/><path d="M13.329 13.015v-.002a24.4 24.4 0 01-1.483.03c-.772 0-1.313-.02-1.504-.03v.002c-2.968-.13-5.182-.637-5.182-1.247 0-.608 2.216-1.118 5.182-1.247v1.988c.193.013.75.046 1.518.046.922 0 1.383-.039 1.469-.046v-1.986c2.962.13 5.17.639 5.17 1.247 0 .608-2.21 1.116-5.17 1.247v-.002zm0-2.698V8.54h4.132V5.83H6.211v2.71h4.133v1.778c-3.359.152-5.883.806-5.883 1.591 0 .785 2.526 1.44 5.883 1.593V19.2h2.987v-5.699c3.352-.152 5.873-.806 5.873-1.59s-2.52-1.44-5.873-1.592" fill="#fff"/></svg>