<svg width="72" height="72" viewBox="0 0 72 72" fill="none" xmlns="http://www.w3.org/2000/svg">
<circle cx="36" cy="36" r="36" fill="url(#paint0_linear_6_13840)"/>
<path d="M56.1958 43.8703V44.1507C56.1958 44.243 56.1924 44.3353 56.1872 44.4277C56.1872 44.5097 56.1821 44.5901 56.1787 44.6721C56.177 44.7183 56.1736 44.7645 56.1684 44.8106C56.1667 44.8312 56.1667 44.8551 56.1633 44.8773C56.1599 44.9269 56.1547 44.9731 56.153 45.0209C56.1479 45.0774 56.1428 45.1338 56.1342 45.1936C56.1291 45.2535 56.124 45.3099 56.1137 45.368C56.1086 45.4279 56.1017 45.486 56.0932 45.5424C56.0829 45.6194 56.0693 45.6997 56.0539 45.7784C56.0573 45.7921 56.0505 45.8023 56.0505 45.8126C56.0368 45.8895 56.0248 45.9647 56.0094 46.0383C56.0094 46.0468 56.0094 46.0571 56.0043 46.0588C56.0077 46.0639 56.0077 46.0673 56.0077 46.069C55.9974 46.1049 55.9923 46.1443 55.9838 46.1768C55.9769 46.2229 55.9667 46.2691 55.9547 46.3187C55.9393 46.3853 55.9256 46.452 55.9102 46.517C55.9 46.5683 55.8863 46.623 55.8709 46.6709C55.8573 46.7307 55.8419 46.7888 55.8265 46.8487C55.8077 46.9085 55.7923 46.965 55.7769 47.0214C55.7359 47.1684 55.6897 47.312 55.6435 47.4557C55.5974 47.5993 55.5461 47.7429 55.4948 47.8848L55.4896 47.8934C55.4452 48.0062 55.4024 48.1191 55.3563 48.2302C55.3375 48.2746 55.3204 48.3157 55.3016 48.3567C55.2759 48.4131 55.2349 48.5089 55.2092 48.567C55.1289 48.7346 55.0502 48.9004 54.9647 49.0663C54.9237 49.1432 54.8793 49.2236 54.8365 49.3022C54.7921 49.3792 54.7493 49.4561 54.7031 49.533C54.7031 49.5365 54.7031 49.5365 54.6997 49.5382C54.6638 49.5997 54.6279 49.6647 54.5869 49.7228C54.5476 49.7878 54.5117 49.8493 54.4706 49.9126L54.4056 50.0084C54.3766 50.0545 54.3458 50.099 54.3133 50.1451C54.2791 50.1964 54.2466 50.246 54.2124 50.2939C54.1765 50.3401 54.1423 50.3896 54.1064 50.4375C54.0363 50.535 53.9645 50.6307 53.8927 50.723C53.8534 50.7692 53.8175 50.8188 53.7816 50.8598C53.7166 50.9453 53.6499 51.024 53.5815 51.1009C53.5713 51.1163 53.5576 51.13 53.5473 51.1454C53.5114 51.1847 53.4721 51.2274 53.4362 51.2685C53.3593 51.3557 53.2772 51.4411 53.1951 51.5283C53.1695 51.5574 53.1404 51.5848 53.1131 51.6138L53.1079 51.6241C53.0669 51.66 53.031 51.701 52.9917 51.7369L52.9763 51.7557C52.9216 51.8053 52.8703 51.8566 52.819 51.9045C52.7831 51.9438 52.7437 51.9763 52.7061 52.0105C52.6155 52.096 52.5232 52.1746 52.4309 52.255C52.395 52.2892 52.359 52.32 52.3197 52.3507C52.3043 52.3661 52.2838 52.3798 52.265 52.3918C52.2308 52.4226 52.1949 52.4516 52.1573 52.4824C52.1128 52.5183 52.0667 52.5576 52.0205 52.5901C51.9743 52.626 51.9282 52.6619 51.882 52.6978C51.8359 52.732 51.7897 52.7679 51.7401 52.8038C51.6478 52.8705 51.5503 52.9372 51.4546 53.0039C51.405 53.0381 51.3571 53.0706 51.3024 53.1048C51.2067 53.1663 51.1126 53.2279 51.0152 53.2877C50.9143 53.3475 50.8151 53.4091 50.7125 53.4655C50.704 53.4741 50.692 53.4758 50.6835 53.4843C50.6322 53.5134 50.5826 53.539 50.5347 53.5647C50.4851 53.5938 50.439 53.616 50.3911 53.645H50.3877C50.3586 53.6587 50.333 53.6758 50.3073 53.6895C50.2612 53.71 50.2116 53.734 50.1654 53.7596C50.1158 53.7801 50.0697 53.8058 50.0218 53.8297C50.0081 53.8348 49.9927 53.8434 49.9807 53.8485C49.9773 53.8519 49.9722 53.8536 49.9671 53.8571C49.9517 53.8622 49.9363 53.8707 49.9209 53.881C49.9158 53.881 49.9141 53.8844 49.9089 53.8844C49.8491 53.9135 49.791 53.9391 49.7345 53.9648C49.6884 53.9887 49.6388 54.0092 49.5926 54.0263C49.5892 54.0263 49.5841 54.0315 49.5824 54.0315C49.5362 54.0468 49.4952 54.0657 49.4541 54.0828C49.3738 54.1169 49.2917 54.1477 49.2079 54.1802C49.1874 54.1888 49.1669 54.199 49.1464 54.2041C49.1412 54.2076 49.1361 54.2093 49.1276 54.2093C49.0626 54.2332 48.9993 54.2589 48.9344 54.2811C48.8677 54.305 48.7976 54.3272 48.7292 54.3512C48.7292 54.3512 48.7241 54.3546 48.7206 54.3546C48.5839 54.3991 48.4488 54.4418 48.312 54.4777C48.3069 54.4811 48.3018 54.4811 48.2983 54.4828C48.1598 54.5187 48.0265 54.5581 47.8863 54.5888C47.7444 54.6247 47.6007 54.6538 47.4571 54.6812C47.3614 54.7017 47.2622 54.7205 47.1648 54.7359C47.0793 54.7513 46.9955 54.765 46.9083 54.7769C46.8519 54.7872 46.7903 54.7923 46.7339 54.8026C46.6946 54.806 46.6621 54.8111 46.6228 54.8128C46.6125 54.8128 46.6039 54.8162 46.5971 54.818C46.5578 54.8214 46.5202 54.8265 46.4843 54.8282C46.4484 54.8333 46.4124 54.8368 46.3765 54.8385C46.3116 54.847 46.2483 54.8487 46.1816 54.8539C46.1474 54.8573 46.1149 54.8624 46.0808 54.8624C46.0346 54.8658 45.9901 54.871 45.9423 54.8727C45.8875 54.8727 45.8363 54.8744 45.7798 54.8812C45.7696 54.8778 45.7593 54.8778 45.7491 54.8778C45.7046 54.8778 45.6619 54.8829 45.6157 54.8829H45.561C45.4738 54.8863 45.3866 54.8863 45.3011 54.8863L37.5045 54.8265C36.029 54.8162 34.6509 54.4127 33.4626 53.7134C33.1189 53.5083 32.789 53.2809 32.4812 53.0347C31.7357 52.4328 31.1014 51.7062 30.6073 50.8803C30.6039 50.8769 30.6039 50.8769 30.6022 50.8752L30.4295 50.5675C30.4209 50.5572 30.4192 50.5469 30.4107 50.5384L29.8225 49.4971L29.7507 49.3706L26.7603 44.0583L26.6851 43.9318V43.9284L29.8447 38.5512L29.9165 38.6828L31.4622 41.4031L32.9223 43.9797L35.1895 47.972C35.1895 47.9771 35.1929 47.9823 35.1946 47.9823L35.275 48.1208C35.7452 48.8919 36.5932 49.4065 37.5609 49.4134L46.144 49.4749C48.9891 49.4749 51.4443 47.3086 51.6204 44.4618C51.6238 44.4174 51.6256 44.3746 51.629 44.3336C51.6324 44.2618 51.6341 44.19 51.6341 44.1182C51.6529 41.8066 50.4133 39.7839 48.5548 38.6948L48.5582 38.6914L49.1601 37.6638C49.1652 37.6535 49.1754 37.6433 49.1806 37.6296L49.3601 37.327C49.3584 37.3235 49.3601 37.3235 49.3601 37.3218C49.8286 36.484 50.1415 35.571 50.2885 34.6255L50.3073 34.5811C52.0906 35.1726 53.744 36.9799 54.6775 38.5375C54.6861 38.546 54.6878 38.5563 54.6929 38.5631L54.7903 38.7375C54.8006 38.7512 54.804 38.7632 54.8109 38.7734C54.8724 38.8863 54.9374 38.9991 54.9938 39.112C54.9989 39.1171 55.0024 39.1222 55.0024 39.1273C55.028 39.1735 55.0519 39.2197 55.0742 39.2693C55.081 39.2881 55.0913 39.3035 55.0998 39.324C55.1032 39.3325 55.1101 39.3394 55.1135 39.3479C55.1391 39.3992 55.1631 39.4488 55.1853 39.4967C55.1887 39.5001 55.1887 39.5001 55.1887 39.5052C55.1939 39.5103 55.1939 39.5189 55.199 39.5257C55.228 39.5856 55.2537 39.6437 55.2811 39.7052C55.2811 39.7104 55.2811 39.7138 55.2862 39.7155C55.3152 39.7856 55.346 39.8523 55.3734 39.9207C55.3922 39.9651 55.4093 40.0079 55.4281 40.0489C55.4418 40.0848 55.4572 40.1207 55.4691 40.1566C55.4879 40.2028 55.505 40.2541 55.5256 40.3037C55.5426 40.3533 55.5597 40.4011 55.5768 40.4507C55.5803 40.4507 55.5803 40.4541 55.5803 40.4541C55.6162 40.555 55.6504 40.6525 55.6811 40.7551C55.6999 40.8046 55.7153 40.8559 55.7307 40.9072C55.7718 41.0406 55.8128 41.1774 55.847 41.3159C55.8675 41.3808 55.8829 41.4492 55.8983 41.5193C55.9325 41.6561 55.965 41.7946 55.9906 41.9331C56.0248 42.0904 56.0522 42.2494 56.0761 42.4084C56.0949 42.5213 56.1103 42.6341 56.1257 42.7469C56.1342 42.8068 56.1394 42.8683 56.1462 42.9299C56.1513 42.9863 56.1548 43.0462 56.165 43.1026C56.1701 43.1624 56.1736 43.2205 56.1787 43.2804C56.1804 43.3197 56.1838 43.3659 56.1889 43.4086C56.1889 43.4394 56.1907 43.4702 56.1907 43.5061C56.1958 43.5454 56.1958 43.5882 56.1992 43.6275V43.6531C56.1907 43.7215 56.1924 43.795 56.1958 43.8703Z" fill="url(#paint1_linear_6_13840)"/>
<path d="M39.1563 33.3429V33.348L36.0274 33.3224L33.066 33.2984L28.4719 33.2642H28.3043C28.2547 33.2642 28.2086 33.2676 28.1607 33.2728C28.1265 33.2762 28.0957 33.2779 28.0632 33.283L28.0171 33.2916C27.9521 33.3001 27.8888 33.3104 27.8239 33.3224C27.7127 33.3429 27.6033 33.3737 27.4956 33.4096C27.4614 33.4232 27.4255 33.4352 27.393 33.4489C27.3844 33.4523 27.3742 33.454 27.3674 33.4591C27.2442 33.5053 27.1058 33.572 27.0049 33.637C26.9895 33.6455 26.9758 33.6523 26.9638 33.6626C26.9638 33.6643 26.9604 33.6643 26.9604 33.6643C26.8578 33.7259 26.7621 33.796 26.6698 33.8695C26.6253 33.9037 26.5843 33.9396 26.5432 33.9772C26.5039 34.0131 26.4629 34.0524 26.4253 34.09C26.2816 34.2422 26.15 34.4115 26.0423 34.5996L21.7183 41.9619C20.3248 44.3316 20.8617 47.4092 23.0194 49.0523C23.11 49.1224 23.204 49.1857 23.2998 49.2506C23.3955 49.3156 23.493 49.3737 23.5922 49.4336C25.5823 50.6031 27.9572 50.5415 29.8294 49.4797L30.4176 50.521C30.4261 50.5295 30.4278 50.5398 30.4364 50.5501L30.6091 50.8578C30.6125 50.8612 30.6125 50.8612 30.6142 50.8629C31.1083 51.6888 31.7427 52.4154 32.4881 53.0173L32.5138 53.0532C31.11 54.303 28.7164 54.8313 26.904 54.857H26.6698C26.6561 54.857 26.6458 54.8553 26.6304 54.8553C26.5022 54.8553 26.374 54.8501 26.2423 54.845C26.2372 54.845 26.2321 54.845 26.2286 54.8416C26.1739 54.8416 26.1226 54.8365 26.0696 54.833C26.0508 54.833 26.0303 54.8296 26.0098 54.8296C26.0012 54.8262 25.991 54.8262 25.9807 54.8245C25.9192 54.8091 25.5823 54.7903 25.5789 54.7903C25.5037 54.7817 25.4302 54.7715 25.3584 54.7646C25.3088 54.7595 25.2626 54.751 25.2165 54.7441C25.1771 54.7407 25.1412 54.7339 25.1053 54.7287C25.0506 54.7202 24.9976 54.7134 24.9463 54.7031C24.8967 54.6945 24.8437 54.6843 24.7941 54.6775H24.7924C24.6898 54.6569 24.5873 54.6364 24.4812 54.6125C24.43 54.6022 24.3787 54.592 24.3274 54.5783C24.1906 54.5475 24.0521 54.5133 23.9153 54.4757C23.8486 54.4569 23.7785 54.4364 23.7101 54.4193C23.5768 54.3782 23.4434 54.3372 23.3083 54.291C23.1562 54.2415 23.0023 54.185 22.8535 54.1269C22.7458 54.0876 22.6398 54.0448 22.5355 53.9987C22.4808 53.9747 22.4227 53.9491 22.368 53.9269C22.3133 53.9012 22.2603 53.8773 22.209 53.8516C22.1542 53.8277 22.103 53.8055 22.0517 53.7764C22.0106 53.7576 21.9713 53.7371 21.9337 53.72C21.9029 53.7046 21.8738 53.6943 21.8465 53.6755C21.8106 53.655 21.7713 53.6362 21.7388 53.6208L21.7183 53.6071C21.6516 53.5729 21.5849 53.537 21.5199 53.5011C21.4378 53.4567 21.3609 53.4088 21.2788 53.3626C21.1968 53.313 21.1198 53.2669 21.0395 53.219C20.9694 53.178 20.9027 53.1318 20.8343 53.0874L20.718 53.0104C20.6975 52.9967 20.6787 52.9865 20.6616 52.9711C20.6206 52.9454 20.5847 52.9164 20.5436 52.889C20.4975 52.8582 20.4479 52.8241 20.4017 52.7881C20.3521 52.7522 20.306 52.718 20.2598 52.6821C20.2154 52.6462 20.1675 52.612 20.1213 52.5761C20.0564 52.5266 19.9948 52.4787 19.9332 52.424C19.923 52.4188 19.9127 52.4137 19.9076 52.4034C19.846 52.3573 19.7862 52.306 19.7298 52.2564C19.7247 52.2513 19.7195 52.2479 19.7144 52.241C19.711 52.2444 19.7093 52.241 19.7058 52.2359C19.6768 52.212 19.6494 52.1897 19.6238 52.1641C19.5845 52.1333 19.5485 52.1025 19.5126 52.0683C19.4631 52.0222 19.4118 51.9777 19.3656 51.9315C19.3246 51.8922 19.2852 51.8597 19.2493 51.8204C19.2049 51.7794 19.1621 51.7383 19.1211 51.6939C19.0749 51.6494 19.0339 51.6067 18.9929 51.5657C18.8852 51.4579 18.7826 51.3468 18.6817 51.2323C18.5808 51.1211 18.4834 51.0066 18.3859 50.8852C18.3825 50.8852 18.3825 50.8817 18.3808 50.88C18.3055 50.7877 18.232 50.692 18.1568 50.5979C18.1209 50.5466 18.085 50.497 18.0491 50.4509C18.0098 50.3996 17.9738 50.35 17.9414 50.2987C17.8336 50.15 17.7311 49.9961 17.6302 49.8388C17.5806 49.767 17.5344 49.6866 17.4917 49.6097C17.4421 49.5344 17.3994 49.4575 17.3532 49.3789C17.3532 49.3789 17.3532 49.3789 17.3498 49.3737C17.3156 49.3122 17.2831 49.2506 17.2472 49.1839C17.2113 49.119 17.1754 49.0557 17.1412 48.989C17.1412 48.9856 17.1378 48.9839 17.1361 48.9788C17.1258 48.9548 17.1121 48.9292 17.1002 48.907C17.0967 48.9018 17.0916 48.8933 17.0899 48.8882C17.0642 48.8386 17.0403 48.7907 17.0147 48.7394C16.989 48.6847 16.9634 48.6317 16.9394 48.577C16.9138 48.5223 16.8881 48.4693 16.8642 48.4128C16.8146 48.3051 16.7719 48.1974 16.7274 48.0846C16.7035 48.0298 16.6813 47.9768 16.6624 47.9204C16.6214 47.823 16.5855 47.7272 16.5513 47.628C16.5462 47.6127 16.5376 47.5973 16.5359 47.5785C16.5154 47.5238 16.4966 47.4707 16.4761 47.4195C16.4419 47.3083 16.4094 47.1989 16.3752 47.0826C16.3615 47.0433 16.3513 47.0057 16.3393 46.9698C16.3393 46.9612 16.3359 46.9612 16.3359 46.9561C16.3205 46.9048 16.3068 46.8501 16.2948 46.8022L16.2897 46.7783C16.2709 46.7065 16.2538 46.6364 16.235 46.5646C16.2213 46.5184 16.2111 46.4671 16.2008 46.4209C16.1717 46.2978 16.1461 46.1764 16.1256 46.0568C16.1153 46.0106 16.1068 45.961 16.0999 45.9149C16.0948 45.8909 16.0897 45.8687 16.0863 45.8448C16.0777 45.8003 16.0709 45.7541 16.0623 45.708C16.0538 45.6515 16.0469 45.5917 16.0384 45.5353C16.0281 45.4754 16.0196 45.419 16.0127 45.3626C16.0076 45.3028 15.9991 45.2446 15.9939 45.1882C15.9802 45.0719 15.97 44.954 15.9597 44.8394C15.9546 44.7796 15.9512 44.718 15.9495 44.6599C15.9443 44.5436 15.9392 44.4308 15.9341 44.3162C15.9307 44.1999 15.9307 44.0854 15.9307 43.9674C15.9341 43.9572 15.9341 43.9435 15.9341 43.9315C15.9341 43.8768 15.9375 43.8204 15.9375 43.764C15.9375 43.7092 15.9409 43.6528 15.9426 43.5998C15.9426 43.5998 15.9426 43.5998 15.9426 43.5964C15.9461 43.5673 15.9461 43.5366 15.9478 43.5058C15.9512 43.4511 15.9529 43.3998 15.9563 43.3485C15.9597 43.2938 15.9649 43.2425 15.9666 43.1895C15.97 43.1758 15.9717 43.1604 15.9717 43.145C15.9751 43.1365 15.9717 43.1313 15.9751 43.1296C15.9751 43.1108 15.9768 43.0954 15.9768 43.0783C15.9802 43.0732 15.9802 43.0681 15.9802 43.0629C15.9854 43.0014 15.9922 42.9347 15.9973 42.8732C16.0025 42.8219 16.0076 42.7706 16.0162 42.721C16.0162 42.7176 16.0162 42.7107 16.0196 42.7073C16.0247 42.6629 16.0298 42.615 16.0384 42.5705C16.0521 42.4833 16.064 42.3961 16.0777 42.3106C16.0811 42.2867 16.0863 42.2645 16.088 42.2405C16.088 42.2354 16.0914 42.2303 16.0914 42.2252C16.1051 42.1551 16.1153 42.0884 16.1273 42.02C16.141 41.9499 16.1564 41.8815 16.1717 41.8114C16.1717 41.8063 16.1717 41.8011 16.1735 41.7977C16.2025 41.6592 16.2333 41.5224 16.2692 41.3805C16.2726 41.3788 16.2726 41.372 16.2726 41.3668C16.3119 41.2301 16.3444 41.095 16.3855 40.9582C16.4265 40.8197 16.4727 40.6812 16.5188 40.541C16.553 40.4453 16.5855 40.353 16.6214 40.2606C16.6522 40.1803 16.6813 40.0982 16.7137 40.0195C16.7377 39.9631 16.7582 39.9084 16.7804 39.8554C16.7958 39.8195 16.8112 39.7853 16.8249 39.7494C16.83 39.7443 16.8317 39.734 16.8351 39.7255C16.8505 39.6913 16.8659 39.6554 16.8847 39.6229C16.8967 39.5887 16.9138 39.5562 16.9258 39.5254C16.9548 39.4656 16.9822 39.4074 17.0112 39.3459C17.0266 39.3151 17.0403 39.2861 17.0574 39.2587C17.0779 39.2177 17.0967 39.1732 17.119 39.1322C17.1446 39.086 17.1651 39.0364 17.1908 38.9903L17.2079 38.9612C17.2284 38.9202 17.2472 38.8808 17.2694 38.8432C17.2745 38.8381 17.2763 38.8278 17.2814 38.8193L17.2968 38.7936C17.3378 38.7167 17.3823 38.6449 17.4233 38.5697L21.3695 31.8468C22.1201 30.5747 23.1579 29.5797 24.3564 28.9026C24.7052 28.7043 25.066 28.535 25.4387 28.3931C26.3312 28.046 27.2802 27.8613 28.241 27.8459C28.2445 27.8459 28.2445 27.8459 28.2445 27.8459L28.5984 27.8494C28.6121 27.8459 28.624 27.8494 28.6343 27.8494L29.8277 27.8579L29.9765 27.8613L36.0667 27.9058L39.1563 33.3429Z" fill="url(#paint2_linear_6_13840)"/>
<path d="M27.3683 33.4568C27.2606 33.5012 27.1529 33.5525 27.0503 33.6107C27.0349 33.6192 27.0195 33.6261 27.0059 33.6346C27.105 33.5696 27.2435 33.503 27.3683 33.4568Z" fill="url(#paint3_linear_6_13840)"/>
<path d="M39.1496 33.3474L36.072 38.5896L36.0669 38.5947L29.8296 38.5486L26.6699 43.9258V43.9292L26.7452 44.0558L29.751 49.3544L29.8228 49.4809C27.9506 50.5427 25.5757 50.6042 23.5855 49.4347C23.4846 49.3749 23.3872 49.3167 23.2931 49.2518C23.1974 49.1868 23.1034 49.1235 23.0127 49.0534C20.8567 47.4104 20.3181 44.3328 21.7116 41.963L26.0356 34.6007C26.1433 34.4126 26.275 34.2434 26.4186 34.0912C26.4579 34.0519 26.499 34.0143 26.5366 33.9784C26.5776 33.939 26.6186 33.9031 26.6631 33.8706C26.7554 33.7954 26.8512 33.727 26.9538 33.6655C26.9538 33.6655 26.9572 33.6655 26.9572 33.6638C26.9709 33.6535 26.9828 33.645 26.9982 33.6381C27.0991 33.5731 27.2376 33.5065 27.3607 33.4603C27.3675 33.4552 27.3778 33.4517 27.3863 33.45C27.4205 33.4364 27.4564 33.4244 27.4889 33.4107C27.5966 33.3748 27.7078 33.344 27.8172 33.3235C27.8822 33.3098 27.9454 33.2996 28.0104 33.2927C28.0566 33.2842 28.1062 33.2791 28.154 33.2739C28.2036 33.2688 28.2498 33.2654 28.2977 33.2654H28.4652L33.0594 33.2996L36.0207 33.3235L39.1496 33.3474Z" fill="url(#paint4_linear_6_13840)"/>
<path d="M50.3831 33.4299C50.3779 33.8317 50.3437 34.2301 50.2822 34.6233C50.1352 35.5688 49.8223 36.4819 49.3538 37.3196C49.3538 37.3231 49.3521 37.3231 49.3538 37.3248L49.1743 37.6274C49.1691 37.6411 49.1589 37.6513 49.1537 37.6616L48.5519 38.6892L48.5485 38.6926L48.4732 38.8191L45.3905 44.0716L39.1533 44.0254L40.7365 41.3257L42.236 38.773L44.563 34.8114L44.5715 34.8029L44.6519 34.6644C45.0811 33.8727 45.1067 32.8811 44.6263 32.0399L40.4151 24.616C40.3997 24.5904 40.386 24.5664 40.3689 24.5408C38.9908 22.1916 36.074 21.152 33.5897 22.2087C33.5178 22.2394 33.446 22.2736 33.3742 22.3061C33.3537 22.3164 33.3298 22.3266 33.3093 22.3369C33.2956 22.3454 33.2836 22.3506 33.2699 22.3574C33.1793 22.4019 33.0921 22.4497 33.0049 22.4993C32.1107 23.0088 31.3875 23.703 30.8643 24.5066C30.2094 25.5085 29.8572 26.6831 29.8435 27.8766L28.6501 27.868C28.6399 27.868 28.6262 27.8646 28.6142 27.868L28.2603 27.8646C28.2603 27.8646 28.2603 27.8646 28.2569 27.8646C27.296 27.88 26.347 28.0646 25.4545 28.4117L25.4084 28.4151C25.0305 26.5737 25.7691 24.2382 26.6497 22.6515L26.6651 22.6275L26.7677 22.4532L26.7642 22.4497L26.7847 22.419C26.8514 22.3078 26.9181 22.195 26.9899 22.0873L27.0823 21.9436C27.0959 21.9248 27.1062 21.9094 27.1182 21.8941C27.1233 21.8855 27.1267 21.8752 27.1335 21.8684C27.1643 21.824 27.2293 21.7299 27.2293 21.7299L27.2447 21.706C27.2806 21.6547 27.3199 21.6 27.3609 21.5487L27.3661 21.5384C27.4105 21.4786 27.4533 21.4204 27.4994 21.3589C27.5251 21.323 27.5559 21.2837 27.5866 21.2478C27.6106 21.217 27.6311 21.1879 27.6567 21.1571C27.6909 21.1178 27.7234 21.0751 27.7576 21.0357C27.7884 20.9947 27.8243 20.9554 27.8551 20.9144C27.8551 20.9144 27.9645 20.7964 28.0688 20.675C28.103 20.6357 28.1389 20.5946 28.1748 20.557C28.2723 20.4544 28.3697 20.3535 28.4706 20.2544C28.5219 20.2048 28.5732 20.1535 28.6228 20.1056C28.7253 20.0082 28.8262 19.9124 28.9339 19.8201C29.0553 19.7141 29.1784 19.6098 29.305 19.5089C29.3922 19.4371 29.4845 19.367 29.5751 19.2986C29.6213 19.2627 29.6726 19.2234 29.7239 19.1909C29.77 19.1567 29.8162 19.1208 29.8658 19.09C29.9153 19.0541 29.9615 19.0182 30.0094 18.9874C30.0453 18.9635 30.0812 18.9413 30.1171 18.9156C30.1462 18.8968 30.1684 18.8797 30.1975 18.8643C30.2334 18.8404 30.2693 18.8182 30.3 18.7942C30.3086 18.7908 30.3154 18.7857 30.324 18.7806C30.3855 18.7412 30.4505 18.7036 30.5121 18.6643C30.6232 18.5942 30.7531 18.5258 30.7531 18.5258C30.8335 18.4796 30.9156 18.4335 30.9976 18.389C31.0694 18.3531 31.1447 18.3121 31.2131 18.2762C31.2575 18.2522 31.2951 18.2351 31.3396 18.2163C31.3601 18.2027 31.3789 18.1958 31.3994 18.1856C31.4456 18.165 31.4866 18.1411 31.5277 18.124C31.5824 18.0984 31.6354 18.0744 31.6901 18.0522C31.7448 18.0265 31.7961 18.0026 31.8491 17.9804C31.9021 17.9667 31.9551 17.9462 32.0098 17.9205C32.0902 17.8829 32.2543 17.8231 32.2663 17.818C32.3381 17.7923 32.4099 17.7667 32.4817 17.7427C32.4868 17.7376 32.5792 17.7068 32.6151 17.6931C32.6595 17.6795 32.7023 17.6641 32.7484 17.6487C32.8134 17.6247 32.8767 17.6076 32.9434 17.5871C32.9947 17.5717 33.0459 17.5564 33.0955 17.5427C33.152 17.5239 33.2118 17.5085 33.2699 17.4931C33.3298 17.4777 33.3879 17.4623 33.4443 17.4435C33.5914 17.4076 33.7401 17.3768 33.8872 17.3426C34.0359 17.3119 34.1847 17.2862 34.3351 17.2606C34.3385 17.2571 34.3437 17.2571 34.3454 17.2606C34.4634 17.24 34.5847 17.2212 34.6993 17.2059C34.7609 17.1973 34.8224 17.1922 34.884 17.1853C34.9455 17.1768 35.0053 17.1699 35.0669 17.1665C35.2498 17.1477 35.4379 17.1375 35.6192 17.1272C35.7098 17.1221 35.7987 17.1187 35.8893 17.1187C35.9799 17.1187 36.0637 17.1152 36.156 17.1187C36.156 17.1152 36.1594 17.1152 36.1612 17.1152C36.233 17.1152 36.3048 17.1187 36.3766 17.1204C36.4518 17.1238 36.5253 17.1255 36.6006 17.1289C36.6296 17.1289 36.6621 17.1323 36.6929 17.134C36.698 17.1306 36.7049 17.134 36.7134 17.1375C36.7698 17.1409 36.8246 17.1426 36.881 17.1477C36.9408 17.1528 37.0024 17.1563 37.0588 17.1631C37.1203 17.1682 37.1768 17.1734 37.2383 17.1785C37.3563 17.1922 37.4743 17.2076 37.5905 17.223C37.6504 17.2332 37.7085 17.2418 37.7649 17.252C37.8675 17.2674 37.9701 17.2828 38.0727 17.3067C38.0915 17.3067 38.1086 17.3119 38.124 17.3153C38.1804 17.329 38.2351 17.3358 38.2881 17.3495C38.4044 17.3734 38.5189 17.4008 38.6318 17.4264C38.6711 17.435 38.7087 17.4452 38.7498 17.4555C38.7498 17.4589 38.7549 17.4555 38.76 17.4589C38.8113 17.4743 38.866 17.488 38.9173 17.5034L38.9378 17.5068C39.0079 17.5307 39.0797 17.5478 39.1464 17.5683C39.1977 17.582 39.2439 17.5974 39.2935 17.6145C39.4114 17.6504 39.5294 17.6897 39.6457 17.7308C39.6918 17.7461 39.7363 17.7615 39.7825 17.7803C39.7996 17.7889 39.8269 17.794 39.844 17.8043C39.8885 17.8197 39.9312 17.8385 39.9774 17.8539C40.0287 17.8778 40.0834 17.8983 40.1398 17.9154C40.1945 17.9411 40.2475 17.9616 40.2988 17.9855C40.3552 18.0094 40.4065 18.0317 40.4612 18.0556C40.5672 18.1018 40.6715 18.1531 40.7775 18.2044C40.8323 18.23 40.8853 18.2557 40.94 18.2847C41.0426 18.336 41.1434 18.3873 41.246 18.442C41.3486 18.4984 41.4495 18.5549 41.5521 18.6164L41.5811 18.6301C41.6324 18.6557 41.6786 18.6865 41.7282 18.7173C41.7744 18.7429 41.8205 18.7737 41.8667 18.8045C41.8667 18.8045 41.8667 18.8045 41.8701 18.8045C41.894 18.8199 41.9214 18.8353 41.947 18.8541L42.0787 18.9396C42.1231 18.9703 42.1659 18.9994 42.2103 19.0302C42.2257 19.0387 42.2343 19.049 42.2497 19.0558L42.2633 19.0661C42.277 19.0746 42.289 19.0849 42.3027 19.0952L42.3163 19.1037C42.3711 19.143 42.4224 19.1789 42.4754 19.2165C42.5147 19.2456 42.5557 19.2764 42.5968 19.3072L42.607 19.3157C42.6412 19.3448 42.6788 19.3721 42.7147 19.4012C42.7848 19.4559 42.8515 19.5123 42.9199 19.5653C42.937 19.579 42.9592 19.591 42.9746 19.6098L42.9883 19.6183C43.043 19.6628 43.096 19.709 43.1473 19.7517C43.202 19.8013 43.2533 19.8475 43.3063 19.8953C43.3097 19.8953 43.3149 19.8987 43.3149 19.9039C43.4226 19.9996 43.5252 20.0937 43.6277 20.1945C43.6312 20.1997 43.6329 20.1997 43.6363 20.2048C43.7389 20.3023 43.8398 20.4031 43.9338 20.5057C44.0347 20.6117 44.1321 20.7194 44.2313 20.8323C44.2963 20.9041 44.3578 20.981 44.4211 21.0563C44.4758 21.1229 44.5322 21.1948 44.5852 21.2614C44.6194 21.3076 44.6605 21.3538 44.6929 21.3999C44.7169 21.4307 44.7374 21.4598 44.7596 21.4905C44.7647 21.4991 44.7699 21.5059 44.775 21.5111C44.7955 21.5418 44.8195 21.5726 44.8417 21.6034C44.8656 21.6325 44.8827 21.6598 44.9032 21.6889C44.9426 21.7453 44.9785 21.8 45.0161 21.853C45.0349 21.8787 45.052 21.9077 45.0725 21.9351C45.0982 21.9744 45.1238 22.012 45.1477 22.0531C45.1785 22.0975 45.2076 22.1437 45.2349 22.1864C45.2401 22.1967 45.2486 22.2052 45.2503 22.2155C45.276 22.2514 45.2999 22.2873 45.3221 22.3283C45.3273 22.3335 45.3307 22.3437 45.3358 22.3489C45.3392 22.3574 45.3461 22.3677 45.3512 22.3779C45.3957 22.4497 45.4384 22.525 45.4794 22.5985L49.3281 29.3795C50.0531 30.6584 50.3933 32.0552 50.3831 33.4299Z" fill="url(#paint5_linear_6_13840)"/>
<path d="M51.6287 44.1171C51.6287 44.1889 51.6253 44.2607 51.6236 44.3325C51.6202 44.3735 51.6185 44.418 51.6151 44.4607C51.4407 47.3058 48.9854 49.4738 46.1386 49.4738L37.5556 49.4123C36.5895 49.4037 35.7398 48.8908 35.2696 48.1197L35.1892 47.9812C35.1858 47.9812 35.1841 47.976 35.1841 47.9709L32.917 43.9786L31.4568 41.402L29.9112 38.6817L29.8394 38.55L36.0766 38.5962L36.0732 38.5979L36.145 38.7244L36.1484 38.7262L36.1518 38.7347L39.1542 44.023L45.3915 44.0692L48.4742 38.8168L48.5494 38.6903C50.408 39.7828 51.6458 41.8072 51.6287 44.1171Z" fill="url(#paint6_linear_6_13840)"/>
<path d="M44.6553 34.6644L44.5749 34.8029L44.5664 34.8115L42.2394 38.773L40.7399 41.3257L39.1567 44.0255L36.1543 38.7371L36.1509 38.7286L36.1474 38.7269L36.0756 38.6003L36.0842 38.5918L39.1618 33.3496V33.3445L36.0842 27.9228L29.9974 27.8801L29.8486 27.8766C29.8623 26.6832 30.2145 25.5086 30.8694 24.5067C31.3943 23.7014 32.1158 23.0072 33.01 22.4994C33.0972 22.4498 33.1844 22.4019 33.275 22.3575C33.2887 22.3489 33.3007 22.3438 33.3143 22.337C33.3349 22.3267 33.3588 22.3164 33.3793 22.3062C33.4511 22.272 33.5229 22.2395 33.5948 22.2087C36.0773 21.1521 38.9959 22.1899 40.374 24.5409C40.3928 24.5665 40.4048 24.5904 40.4202 24.6161L44.6314 32.0399C45.1101 32.8794 45.0844 33.8728 44.6553 34.6644Z" fill="url(#paint7_linear_6_13840)"/>
<defs>
<linearGradient id="paint0_linear_6_13840" x1="17.0553" y1="7.80781e-05" x2="77.2547" y2="1.44517" gradientUnits="userSpaceOnUse">
<stop stop-color="#487BFF"/>
<stop offset="1" stop-color="#4627FF"/>
</linearGradient>
<linearGradient id="paint1_linear_6_13840" x1="28.7839" y1="40.5986" x2="54.8676" y2="47.9208" gradientUnits="userSpaceOnUse">
<stop stop-color="#717EFE"/>
<stop offset="0.9855" stop-color="#4F91FF"/>
</linearGradient>
<linearGradient id="paint2_linear_6_13840" x1="19.188" y1="50.5875" x2="37.7487" y2="30.7917" gradientUnits="userSpaceOnUse">
<stop stop-color="#78CCFF"/>
<stop offset="0.9556" stop-color="#508CFD"/>
</linearGradient>
<linearGradient id="paint3_linear_6_13840" x1="27.0736" y1="33.4917" x2="27.299" y2="33.5999" gradientUnits="userSpaceOnUse">
<stop offset="0.0224" stop-color="#5553FD"/>
<stop offset="0.5905" stop-color="#A9A6FD"/>
</linearGradient>
<linearGradient id="paint4_linear_6_13840" x1="25.0305" y1="49.7437" x2="35.0708" y2="27.1841" gradientUnits="userSpaceOnUse">
<stop offset="0.0042056" stop-color="white"/>
<stop offset="0.1697" stop-color="#E7EDFF"/>
<stop offset="0.5179" stop-color="#A9C1FE"/>
<stop offset="0.7193" stop-color="#82A5FE"/>
</linearGradient>
<linearGradient id="paint5_linear_6_13840" x1="32.2522" y1="15.7196" x2="43.7901" y2="45.1805" gradientUnits="userSpaceOnUse">
<stop offset="0.0173" stop-color="#D69BFD"/>
<stop offset="0.9727" stop-color="#7E5CF7"/>
</linearGradient>
<linearGradient id="paint6_linear_6_13840" x1="32.7267" y1="39.6555" x2="54.8509" y2="49.3344" gradientUnits="userSpaceOnUse">
<stop stop-color="#98A9F4"/>
<stop offset="0.7768" stop-color="white"/>
</linearGradient>
<linearGradient id="paint7_linear_6_13840" x1="38.441" y1="44.2253" x2="36.7807" y2="22.1045" gradientUnits="userSpaceOnUse">
<stop offset="0.0742" stop-color="#A187FE"/>
<stop offset="1" stop-color="white"/>
</linearGradient>
</defs>
</svg>
