<svg width="25" height="20" fill="none" xmlns="http://www.w3.org/2000/svg"><path d="M14.485.568c-2.004.851-3.322 2.721-3.39 4.858l-.002.202-.27-.025c-2.652-.299-4.988-1.677-6.592-3.917a1.11 1.11 0 00-1.869.102l-.107.207-.054.11C1.403 3.751.88 5.752 1.073 7.874l.033.303c.314 2.51 1.663 4.675 4.191 6.299l.192.118-.09.048c-1.458.735-2.793 1.056-4.244.998-1.172-.044-1.604 1.522-.575 2.083C4.57 19.9 8.855 20.57 12.55 19.5c4.503-1.309 7.932-4.684 9.244-9.353l.141-.55a16.39 16.39 0 00.445-3.353l.003-.369.436-.864.488-.956.237-.481.131-.274c.294-.627.506-1.146.637-1.586l.015-.062.01-.02C24.58.973 24.151.125 23.292.125l-.136.007a1.091 1.091 0 00-.256.064l-.095.042a8.272 8.272 0 01-.976.4l-.395.127-.3.088-.857.238C18.796-.15 16.791-.3 14.719.476l-.234.092z" fill="#fff"/></svg>