<svg width="24" height="24" fill="none" xmlns="http://www.w3.org/2000/svg"><circle cx="12" cy="12" r="12" fill="#fff"/><path d="M10.52 10.76c.13 0 .309-.08.369-.16.08-.12.05-.248-.1-.338-.268-.169-.676-.03-.676.229 0 .13.209.268.408.268zm-4.723 4.7c.14.11.328.05.428-.128a.41.41 0 00-.13-.547c-.169-.11-.427-.06-.427.09a.102.102 0 00.08.099c.089.05.099.1.03.208-.07.11-.07.21.02.279z" fill="#FF007A"/><path d="M12 0a11.949 11.949 0 00-7.47 2.61c1.96 2.147 4.962 5.454 5.275 5.813l.129.14-.01.228a.934.934 0 01-.338.726c-.259.248-.587.377-1.093.447-.309.04-.418.09-.547.229-.12.129-.17.298-.199.715-.05.656-.13.925-.437 1.57-.299.627-.358.856-.308 1.194.06.397.288.695.825 1.063.407.278.596.457.695.676.06.14.07.189.07.418 0 .357-.06.497-.298.755-.388.417-1.094.755-1.948.954-.358.08-.378.08-.378 0 0-.1-.14-.368-.368-.726-.268-.407-.378-.616-.477-.934a2.486 2.486 0 01-.13-.974c.02-.358.06-.517.2-.795.109-.229.178-.328.626-.885.765-.944 1.033-1.5 1.133-2.286.09-.706.209-1.044.477-1.342.159-.179.199-.248.199-.378 0-.06-.249-.546-1.014-1.908C5.4 5.143 5.4 5.143 5.44 5.163c.01.01.577.875 1.242 1.918C7.558 8.443 7.946 9.01 8.035 9.1a.717.717 0 00.477.209c.198-.016.39-.07.567-.16.248-.138.308-.327.159-.526a860.33 860.33 0 00-4.826-5.919A11.976 11.976 0 000 12c0 6.628 5.372 12 12 12s12-5.372 12-12S18.628 0 12 0zm3.46 6.386c.02-.02.607.149.835.248.348.14.408.15.448.14.03-.03.05-.11.06-.359.02-.377.069-.626.178-.854a.69.69 0 01.09-.17c.01 0-.01.07-.04.15-.08.218-.09.527-.04.874.07.448.1.507.577.994.218.229.477.517.576.637l.17.218-.17-.159c-.209-.199-.686-.576-.795-.626-.07-.04-.08-.04-.13.01-.039.04-.049.1-.049.388-.01.447-.07.725-.219 1.013-.08.15-.09.12-.02-.05.05-.128.06-.188.06-.616 0-.864-.1-1.073-.706-1.42a7.4 7.4 0 00-.556-.29 2.204 2.204 0 01-.269-.128zM9.278 5.103c.189-.03.626.01.934.08.716.169 1.362.606 2.048 1.372l.179.208.258-.04c1.103-.178 2.237-.04 3.18.398.26.12.667.358.716.418.02.02.05.149.07.278.07.467.04.815-.11 1.083-.079.15-.079.19-.03.318a.299.299 0 00.27.17c.238 0 .486-.378.606-.905l.05-.209.089.1c.507.566.904 1.351.964 1.908l.02.15-.09-.13a1.679 1.679 0 00-.477-.507c-.338-.229-.695-.298-1.64-.348-.855-.05-1.342-.12-1.819-.278-.815-.269-1.232-.617-2.197-1.899-.427-.566-.695-.874-.964-1.133-.586-.566-1.173-.865-1.938-.984-.209-.03-.219-.04-.12-.05zm5.626 7.445a2.349 2.349 0 00-.1-.417l-.05-.15.09.11c.142.17.25.366.318.577.07.188.07.248.07.556 0 .298-.01.368-.07.537a1.8 1.8 0 01-.417.666c-.358.368-.825.566-1.491.656-.12.01-.457.04-.756.06-.745.04-1.242.119-1.69.278-.06.02-.119.04-.129.03-.02-.02.288-.2.537-.318.348-.17.706-.259 1.491-.398.388-.06.785-.14.885-.179.984-.308 1.47-1.073 1.312-2.008zm-5.1-4.652c-.417-.576-.685-1.47-.626-2.137l.02-.208.1.02c.222.048.437.128.636.238.397.239.576.567.745 1.382.05.238.12.517.15.606.05.15.238.497.397.716.11.159.04.238-.209.218-.377-.04-.884-.387-1.212-.835zm-.089 2.794c.07-.259.298-.517.537-.587.159-.05.467-.02.616.06.288.149.497.477.447.715-.05.289-.516.527-1.063.527-.278 0-.378-.04-.487-.179-.07-.09-.09-.377-.05-.536zm5.805 9.184c-.22.119-.466.177-.716.169-.477 0-.884-.249-1.212-.745-.07-.1-.21-.388-.328-.657-.348-.805-.527-1.043-.935-1.312-.357-.228-.815-.278-1.163-.109-.457.219-.576.805-.258 1.163.152.158.35.262.567.298a.605.605 0 00.685-.606c0-.239-.09-.378-.328-.487-.318-.14-.666.02-.656.328 0 .13.06.209.19.268.079.04.079.04.019.03-.288-.06-.358-.417-.13-.646.28-.278.866-.16 1.064.229.08.159.09.477.02.675-.169.438-.646.666-1.133.537-.328-.09-.467-.179-.865-.586-.695-.716-.964-.855-1.958-1.004l-.189-.03.21-.199c.735-.616 1.64-1.053 2.474-1.193.358-.06.954-.04 1.282.05.527.14 1.004.438 1.253.805.238.358.348.666.457 1.352.04.268.09.547.1.606.079.358.238.637.437.786.308.228.845.238 1.371.04.09-.03.17-.06.17-.05.02.02-.25.199-.428.288zm3.37-3.25c-.22.845-.716 1.52-1.442 1.908a1.391 1.391 0 01-.208.1c-.01 0 .03-.1.09-.22.238-.506.267-.993.089-1.54-.11-.338-.338-.745-.796-1.431-.546-.795-.676-1.004-.815-1.292-.258-.567-.318-1.104-.179-1.61.02-.05.04-.1.06-.1.05.014.097.038.14.07.118.08.367.218 1.003.566.805.438 1.262.775 1.58 1.163.279.338.448.726.527 1.203.05.268.02.914-.05 1.183zm.596-2.714c-.07.249-.268.706-.318.716-.01 0-.03-.05-.03-.13-.02-.417-.229-.815-.576-1.123-.418-.357-.955-.626-2.267-1.153-1.968-.795-2.664-1.48-2.664-2.644 0-.169.01-.308.01-.308.06.04.116.083.17.13.397.317.844.457 2.087.636.725.109 1.143.188 1.52.318 1.203.397 1.949 1.212 2.128 2.316.05.318.02.924-.06 1.242z" fill="#FF007A"/></svg>