<svg width="25" height="24" fill="none" xmlns="http://www.w3.org/2000/svg"><path d="M24.184 12.023c.01-6.615-5.345-11.987-11.962-12C5.605.01.232 5.363.222 11.977c-.01 6.615 5.345 11.987 11.962 12 6.617.013 11.99-5.34 12-11.954z" fill="#3574B9"/><path d="M10.265 19.48c0 .271-.176.366-.44.366a7.912 7.912 0 01-3.986-2.992 8.48 8.48 0 01-1.519-4.872 8.478 8.478 0 011.536-4.867A7.909 7.909 0 019.85 4.137c.259-.089.44.092.437.368v.651a.519.519 0 01-.067.267.491.491 0 01-.191.19 6.555 6.555 0 00-3.12 2.482 7.007 7.007 0 00-1.189 3.902 7.009 7.009 0 001.173 3.907 6.559 6.559 0 003.11 2.496.501.501 0 01.258.456l.003.625z" fill="#fff"/><path d="M12.896 17.21a.4.4 0 01-.105.26.37.37 0 01-.245.119h-.701a.368.368 0 01-.242-.115.4.4 0 01-.108-.253v-1.08c-1.403-.187-2.103-1.009-2.364-2.198 0-.181.09-.365.259-.365h.79c.173 0 .259.092.35.27.173.64.517 1.19 1.662 1.192.875 0 1.489-.454 1.491-1.184.003-.73-.35-1.005-1.574-1.192-1.841-.27-2.717-.827-2.714-2.378 0-1.187.88-2.1 2.108-2.278v-1.12a.397.397 0 01.108-.251.366.366 0 01.241-.113h.702a.362.362 0 01.241.113.398.398 0 01.109.252v1.097c1.05.184 1.75.824 1.924 1.83 0 .18-.088.364-.26.364h-.696c-.176 0-.259-.091-.35-.27-.173-.64-.61-.916-1.4-.916-.876 0-1.316.454-1.316 1.081s.26 1.006 1.575 1.192c1.838.27 2.713.827 2.71 2.379 0 1.186-.877 2.189-2.192 2.462l-.003 1.102z" fill="#fff"/><path d="M14.118 19.497c0 .273.179.457.438.365a7.922 7.922 0 003.996-2.978 8.491 8.491 0 001.54-4.866c.005-3.651-2.354-6.762-5.505-7.865-.264 0-.44.095-.44.365v.64a.521.521 0 00.066.268c.046.08.113.146.193.19a6.559 6.559 0 013.109 2.496 7.009 7.009 0 011.172 3.907 7.007 7.007 0 01-1.19 3.902 6.554 6.554 0 01-3.12 2.481.485.485 0 00-.192.188.515.515 0 00-.067.266v.64z" fill="#fff"/></svg>