<svg width="32" height="32" viewBox="0 0 32 32" fill="none" xmlns="http://www.w3.org/2000/svg">
<g clip-path="url(#clip0_31_44012)">
<path d="M20 10.6667H20.0133" stroke="url(#paint0_linear_31_44012)" stroke-width="1.33" stroke-linecap="round" stroke-linejoin="round"/>
<path d="M4 8C4 6.93913 4.42143 5.92172 5.17157 5.17157C5.92172 4.42143 6.93913 4 8 4H24C25.0609 4 26.0783 4.42143 26.8284 5.17157C27.5786 5.92172 28 6.93913 28 8V24C28 25.0609 27.5786 26.0783 26.8284 26.8284C26.0783 27.5786 25.0609 28 24 28H8C6.93913 28 5.92172 27.5786 5.17157 26.8284C4.42143 26.0783 4 25.0609 4 24V8Z" stroke="url(#paint1_linear_31_44012)" stroke-width="1.33" stroke-linecap="round" stroke-linejoin="round"/>
<path d="M4 21.3333L10.6667 14.6667C11.904 13.476 13.4293 13.476 14.6667 14.6667L21.3333 21.3333" stroke="url(#paint2_linear_31_44012)" stroke-width="1.33" stroke-linecap="round" stroke-linejoin="round"/>
<path d="M18.6666 18.6668L20 17.3334C21.2373 16.1428 22.7626 16.1428 24 17.3334L28 21.3334" stroke="url(#paint3_linear_31_44012)" stroke-width="1.33" stroke-linecap="round" stroke-linejoin="round"/>
</g>
<defs>
<linearGradient id="paint0_linear_31_44012" x1="20.0032" y1="10.6667" x2="20.0143" y2="10.6668" gradientUnits="userSpaceOnUse">
<stop stop-color="#487BFF"/>
<stop offset="1" stop-color="#4627FF"/>
</linearGradient>
<linearGradient id="paint1_linear_31_44012" x1="9.68509" y1="4.00003" x2="29.7516" y2="4.48172" gradientUnits="userSpaceOnUse">
<stop stop-color="#487BFF"/>
<stop offset="1" stop-color="#4627FF"/>
</linearGradient>
<linearGradient id="paint2_linear_31_44012" x1="8.1059" y1="13.7737" x2="22.5629" y2="14.5694" gradientUnits="userSpaceOnUse">
<stop stop-color="#487BFF"/>
<stop offset="1" stop-color="#4627FF"/>
</linearGradient>
<linearGradient id="paint3_linear_31_44012" x1="20.8775" y1="16.4404" x2="28.6693" y2="16.7972" gradientUnits="userSpaceOnUse">
<stop stop-color="#487BFF"/>
<stop offset="1" stop-color="#4627FF"/>
</linearGradient>
<clipPath id="clip0_31_44012">
<rect width="32" height="32" fill="white"/>
</clipPath>
</defs>
</svg>
