<svg width="32" height="32" fill="none" xmlns="http://www.w3.org/2000/svg"><g clip-path="url(#clip0_54_14122)" stroke="#98A1C0" stroke-width="1.333" stroke-linecap="round" stroke-linejoin="round"><path d="M22.67 10.666v-4a1.333 1.333 0 00-1.334-1.333H8.003A2.667 2.667 0 005.336 8m0 0a2.667 2.667 0 002.667 2.666h16A1.333 1.333 0 0125.336 12v4m-20-8v16a2.667 2.667 0 002.667 2.666h16a1.333 1.333 0 001.333-1.333v-4"/><path d="M26.664 16v5.333h-5.333a2.667 2.667 0 110-5.333h5.333z"/></g><defs><clipPath id="clip0_54_14122"><path fill="#fff" d="M0 0h32v32H0z"/></clipPath></defs></svg>