<svg width="32" height="32" fill="none" xmlns="http://www.w3.org/2000/svg"><g clip-path="url(#clip0_560_125299)"><path fill="url(#paint0_linear_560_125299)" d="M0 0h32v32H0z"/><path d="M5.336 10.133h1.6c8.247 0 14.933 6.686 14.933 14.934v1.6h3.2a1.6 1.6 0 001.6-1.6c0-10.899-8.835-19.734-19.733-19.734a1.6 1.6 0 00-1.6 1.6v3.2z" fill="url(#paint1_radial_560_125299)"/><path d="M22.406 25.067h4.267a1.6 1.6 0 01-1.6 1.6h-2.667v-1.6z" fill="url(#paint2_linear_560_125299)"/><path d="M6.936 5.333V9.6h-1.6V6.933a1.6 1.6 0 011.6-1.6z" fill="url(#paint3_linear_560_125299)"/><path d="M5.336 9.6h1.6c8.542 0 15.467 6.925 15.467 15.467v1.6h-4.8v-1.6c0-5.892-4.776-10.667-10.667-10.667h-1.6V9.6z" fill="url(#paint4_radial_560_125299)"/><path d="M18.133 25.066H22.4v1.6h-4.267v-1.6z" fill="url(#paint5_linear_560_125299)"/><path d="M5.336 13.867V9.6h1.6v4.267h-1.6z" fill="url(#paint6_linear_560_125299)"/><path d="M5.336 16.533a1.6 1.6 0 001.6 1.6 6.933 6.933 0 016.933 6.934 1.6 1.6 0 001.6 1.6h2.667v-1.6c0-6.186-5.014-11.2-11.2-11.2h-1.6v2.666z" fill="url(#paint7_radial_560_125299)"/><path d="M13.867 25.067h4.267v1.6h-2.667a1.6 1.6 0 01-1.6-1.6z" fill="url(#paint8_radial_560_125299)"/><path d="M6.936 18.133a1.6 1.6 0 01-1.6-1.6v-2.666h1.6v4.266z" fill="url(#paint9_radial_560_125299)"/></g><defs><radialGradient id="paint1_radial_560_125299" cx="0" cy="0" r="1" gradientUnits="userSpaceOnUse" gradientTransform="rotate(-90 16.001 9.065) scale(19.7333)"><stop offset=".77" stop-color="#FF4000"/><stop offset="1" stop-color="#8754C9"/></radialGradient><radialGradient id="paint4_radial_560_125299" cx="0" cy="0" r="1" gradientUnits="userSpaceOnUse" gradientTransform="rotate(-90 16.001 9.065) scale(15.4667)"><stop offset=".724" stop-color="#FFF700"/><stop offset="1" stop-color="#FF9901"/></radialGradient><radialGradient id="paint7_radial_560_125299" cx="0" cy="0" r="1" gradientUnits="userSpaceOnUse" gradientTransform="matrix(0 -11.2 11.2 0 6.936 25.067)"><stop offset=".595" stop-color="#0AF"/><stop offset="1" stop-color="#01DA40"/></radialGradient><radialGradient id="paint8_radial_560_125299" cx="0" cy="0" r="1" gradientUnits="userSpaceOnUse" gradientTransform="matrix(4.53333 0 0 12.0889 13.6 25.867)"><stop stop-color="#0AF"/><stop offset="1" stop-color="#01DA40"/></radialGradient><radialGradient id="paint9_radial_560_125299" cx="0" cy="0" r="1" gradientUnits="userSpaceOnUse" gradientTransform="matrix(0 -4.53333 85.9654 0 6.136 18.4)"><stop stop-color="#0AF"/><stop offset="1" stop-color="#01DA40"/></radialGradient><linearGradient id="paint0_linear_560_125299" x1="16" y1="0" x2="16" y2="32" gradientUnits="userSpaceOnUse"><stop stop-color="#174299"/><stop offset="1" stop-color="#001E59"/></linearGradient><linearGradient id="paint2_linear_560_125299" x1="22.14" y1="25.867" x2="26.673" y2="25.867" gradientUnits="userSpaceOnUse"><stop stop-color="#FF4000"/><stop offset="1" stop-color="#8754C9"/></linearGradient><linearGradient id="paint3_linear_560_125299" x1="6.136" y1="5.333" x2="6.136" y2="9.867" gradientUnits="userSpaceOnUse"><stop stop-color="#8754C9"/><stop offset="1" stop-color="#FF4000"/></linearGradient><linearGradient id="paint5_linear_560_125299" x1="18.133" y1="25.866" x2="22.399" y2="25.866" gradientUnits="userSpaceOnUse"><stop stop-color="#FFF700"/><stop offset="1" stop-color="#FF9901"/></linearGradient><linearGradient id="paint6_linear_560_125299" x1="6.136" y1="13.867" x2="6.136" y2="9.6" gradientUnits="userSpaceOnUse"><stop stop-color="#FFF700"/><stop offset="1" stop-color="#FF9901"/></linearGradient><clipPath id="clip0_560_125299"><path fill="#fff" d="M0 0h32v32H0z"/></clipPath></defs></svg>