<svg width="36" height="34" fill="none" xmlns="http://www.w3.org/2000/svg"><path d="M33.317 1L20.031 11.003 22.5 5.1 33.317 1z" fill="#E17726" stroke="#E17726" stroke-width=".713" stroke-linecap="round" stroke-linejoin="round"/><path d="M2.68 1l13.165 10.097-2.347-5.996L2.68 1zm25.862 23.188l-3.534 5.496 7.563 2.11 2.16-7.485-6.189-.121zm-27.269.122l2.149 7.485 7.562-2.111-3.52-5.496-6.19.121z" fill="#E27625" stroke="#E27625" stroke-width=".713" stroke-linecap="round" stroke-linejoin="round"/><path d="M10.576 14.901L8.47 18.137l7.497.34-.254-8.192-5.136 4.616zm14.844 0l-5.215-4.71-.174 8.285 7.497-.339-2.107-3.236zM10.992 29.684l4.522-2.235-3.895-3.085-.627 5.32zm9.492-2.234l4.523 2.234-.627-5.32-3.896 3.085z" fill="#E27625" stroke="#E27625" stroke-width=".713" stroke-linecap="round" stroke-linejoin="round"/><path d="M25.007 29.684l-4.523-2.235.36 2.992-.039 1.259 4.202-2.016zm-14.015 0l4.202 2.016-.026-1.259.347-2.992-4.523 2.235z" fill="#D5BFB2" stroke="#D5BFB2" stroke-width=".713" stroke-linecap="round" stroke-linejoin="round"/><path d="M15.27 22.387l-3.762-1.123 2.654-1.232 1.107 2.355zm5.464 0l1.108-2.355 2.667 1.232-3.775 1.123z" fill="#233447" stroke="#233447" stroke-width=".713" stroke-linecap="round" stroke-linejoin="round"/><path d="M10.99 29.684l.653-5.496-4.174.121 3.52 5.375zm13.37-5.496l.652 5.496 3.535-5.375-4.188-.121zm3.168-6.051l-7.497.339.694 3.91 1.108-2.354 2.667 1.232 3.028-3.127zM11.51 21.264l2.654-1.232 1.108 2.355.694-3.911-7.497-.339 3.041 3.127z" fill="#CC6228" stroke="#CC6228" stroke-width=".713" stroke-linecap="round" stroke-linejoin="round"/><path d="M8.469 18.137l3.148 6.227-.107-3.1-3.041-3.127zm16.033 3.127l-.12 3.1 3.149-6.227-3.029 3.127zm-8.535-2.788l-.694 3.91.88 4.617.187-6.078-.373-2.449zm4.073 0l-.36 2.436.173 6.09.88-4.615-.693-3.91z" fill="#E27525" stroke="#E27525" stroke-width=".713" stroke-linecap="round" stroke-linejoin="round"/><path d="M20.724 22.387l-.88 4.616.64.446 3.895-3.085.12-3.1-3.775 1.123zm-9.216-1.123l.106 3.1 3.896 3.085.64-.446-.88-4.616-3.762-1.123z" fill="#F5841F" stroke="#F5841F" stroke-width=".713" stroke-linecap="round" stroke-linejoin="round"/><path d="M20.81 31.7l.039-1.259-.333-.297h-5.03l-.318.297.026 1.26-4.202-2.017 1.468 1.217 2.987 2.1h5.109l2.988-2.1 1.467-1.217L20.81 31.7z" fill="#C0AC9D" stroke="#C0AC9D" stroke-width=".713" stroke-linecap="round" stroke-linejoin="round"/><path d="M20.485 27.45l-.64-.447h-3.694l-.64.446-.347 2.992.32-.297h5.029l.332.297-.36-2.992z" fill="#161616" stroke="#161616" stroke-width=".713" stroke-linecap="round" stroke-linejoin="round"/><path d="M33.877 11.653l1.12-5.522L33.317 1l-12.833 9.665 4.937 4.236 6.975 2.072 1.535-1.828-.668-.486 1.067-.99-.813-.649 1.066-.825-.706-.542zM1 6.13l1.134 5.523-.72.542 1.067.825-.814.65 1.067.989-.667.486L3.6 16.973l6.976-2.072 4.936-4.236L2.68 1 1 6.13z" fill="#763E1A" stroke="#763E1A" stroke-width=".713" stroke-linecap="round" stroke-linejoin="round"/><path d="M32.399 16.973l-6.976-2.072 2.108 3.236-3.148 6.227 4.16-.055h6.19L32.4 16.973zM10.57 14.901l-6.975 2.072-2.322 7.336h6.19l4.148.055-3.148-6.227 2.107-3.236zm9.465 3.575l.453-7.81L22.503 5.1H13.5l2.014 5.564.453 7.811.174 2.463.013 6.064h3.695l.013-6.064.173-2.463z" fill="#F5841F" stroke="#F5841F" stroke-width=".713" stroke-linecap="round" stroke-linejoin="round"/></svg>