<svg width="24" height="25" fill="none" xmlns="http://www.w3.org/2000/svg"><path d="M12 24.125c6.628 0 12-5.372 12-12s-5.372-12-12-12-12 5.372-12 12 5.372 12 12 12z" fill="#F0B90B"/><path d="M13.873 6.49l-1.87-1.908-4.705 4.737 1.869 1.863 4.706-4.692zm2.837 2.829L14.84 7.41l-7.542 7.565 1.869 1.863 7.543-7.52zm-10.38.921l1.869 1.907-1.87 1.864-1.868-1.864L6.33 10.24zm13.217 1.907l-1.87-1.908-7.542 7.566 1.869 1.863 7.543-7.52z" fill="#fff"/><path d="M13.873 6.49l-1.87-1.908-4.705 4.737 1.869 1.863 4.706-4.692zm2.837 2.829L14.84 7.41l-7.542 7.565 1.869 1.863 7.543-7.52zm-10.38.921l1.869 1.907-1.87 1.864-1.868-1.864L6.33 10.24zm13.217 1.907l-1.87-1.908-7.542 7.566 1.869 1.863 7.543-7.52z" stroke="#F0B90B"/></svg>