<svg width="25" height="24" fill="none" xmlns="http://www.w3.org/2000/svg"><path d="M17.54 20.571c0 .946-1.312 2.01-3.388 2.4H11.56c-4.65 0-8.418-1.074-8.418-2.4 0-1.325 3.769-2.4 8.418-2.4 4.65 0 5.982 1.075 5.982 2.4z" fill="#000"/><path d="M23.714 11.008c0 5.855-5.186 11.62-11.076 11.62-5.89 0-11.896-6.173-11.896-12.027C.742 4.746 5.517 0 11.408 0c5.89 0 12.306 5.154 12.306 11.008z" fill="#F61F7D"/><path fill-rule="evenodd" clip-rule="evenodd" d="M19.586 18.266c1.87-2 3.034-4.646 3.034-7.257 0-2.521-1.39-4.993-3.565-6.871-2.173-1.876-5.004-3.043-7.647-3.043-5.294 0-9.572 4.263-9.572 9.506 0 2.567 1.332 5.313 3.425 7.441s4.802 3.492 7.377 3.492c2.584 0 5.079-1.27 6.948-3.268zm-6.948 4.363c5.89 0 11.076-5.766 11.076-11.62C23.714 5.153 17.298 0 11.408 0 5.518 0 .742 4.746.742 10.6c0 5.855 6.006 12.029 11.896 12.029z" fill="#000"/><path d="M24.397 12.171c0 5.965-4.835 10.8-10.8 10.8-5.965 0-10.8-4.835-10.8-10.8 0-5.964 4.835-10.8 10.8-10.8 5.965 0 10.8 4.836 10.8 10.8z" fill="#fff"/><path fill-rule="evenodd" clip-rule="evenodd" d="M13.597 21.873c5.358 0 9.702-4.343 9.702-9.702 0-5.358-4.344-9.701-9.702-9.701s-9.702 4.343-9.702 9.7c0 5.359 4.344 9.702 9.702 9.702zm0 1.098c5.965 0 10.8-4.835 10.8-10.8 0-5.964-4.835-10.8-10.8-10.8-5.965 0-10.8 4.836-10.8 10.8 0 5.965 4.835 10.8 10.8 10.8z" fill="#000"/><path fill-rule="evenodd" clip-rule="evenodd" d="M3.423 10.629L1.086 8.75l.748-.865 2.338 1.877-.749.866z" fill="#000"/><path d="M6.227 9.943h.99l.313 2.997.398-2.99h.775l.418 2.97.319-2.977h.978l-.632 5.143H8.769l-.45-3.105-.424 3.105h-1.03l-.638-5.143zm5.086 0h2.372v.774H12.48v1.277h.92v.787h-.92v1.537h1.22v.768h-2.386V9.943zm3.723.844h-.808v-.844h2.783v.844h-.802v4.299h-1.173v-4.299zm2.779-.844h1.166v2.082h.815V9.943h1.173v5.143h-1.173v-2.248h-.815v2.248h-1.166V9.943z" fill="#000"/></svg>